G04 #@! TF.GenerationSoftware,KiCad,Pcbnew,5.1.4-e60b266~84~ubuntu18.04.1*
G04 #@! TF.CreationDate,2019-09-29T11:15:23+02:00*
G04 #@! TF.ProjectId,UpduinoLEDButtonExpander,55706475-696e-46f4-9c45-44427574746f,rev?*
G04 #@! TF.SameCoordinates,PX88dc9f0PY43d3480*
G04 #@! TF.FileFunction,Soldermask,Top*
G04 #@! TF.FilePolarity,Negative*
%FSLAX46Y46*%
G04 Gerber Fmt 4.6, Leading zero omitted, Abs format (unit mm)*
G04 Created by KiCad (PCBNEW 5.1.4-e60b266~84~ubuntu18.04.1) date 2019-09-29 11:15:23*
%MOMM*%
%LPD*%
G04 APERTURE LIST*
%ADD10C,0.100000*%
G04 APERTURE END LIST*
D10*
G36*
X17313512Y-39258927D02*
G01*
X17462812Y-39288624D01*
X17626784Y-39356544D01*
X17774354Y-39455147D01*
X17899853Y-39580646D01*
X17998456Y-39728216D01*
X18066376Y-39892188D01*
X18101000Y-40066259D01*
X18101000Y-40243741D01*
X18066376Y-40417812D01*
X17998456Y-40581784D01*
X17899853Y-40729354D01*
X17774354Y-40854853D01*
X17626784Y-40953456D01*
X17462812Y-41021376D01*
X17313512Y-41051073D01*
X17288742Y-41056000D01*
X17111258Y-41056000D01*
X17086488Y-41051073D01*
X16937188Y-41021376D01*
X16773216Y-40953456D01*
X16625646Y-40854853D01*
X16500147Y-40729354D01*
X16401544Y-40581784D01*
X16333624Y-40417812D01*
X16299000Y-40243741D01*
X16299000Y-40066259D01*
X16333624Y-39892188D01*
X16401544Y-39728216D01*
X16500147Y-39580646D01*
X16625646Y-39455147D01*
X16773216Y-39356544D01*
X16937188Y-39288624D01*
X17086488Y-39258927D01*
X17111258Y-39254000D01*
X17288742Y-39254000D01*
X17313512Y-39258927D01*
X17313512Y-39258927D01*
G37*
G36*
X-17666488Y-39258927D02*
G01*
X-17517188Y-39288624D01*
X-17353216Y-39356544D01*
X-17205646Y-39455147D01*
X-17080147Y-39580646D01*
X-16981544Y-39728216D01*
X-16913624Y-39892188D01*
X-16879000Y-40066259D01*
X-16879000Y-40243741D01*
X-16913624Y-40417812D01*
X-16981544Y-40581784D01*
X-17080147Y-40729354D01*
X-17205646Y-40854853D01*
X-17353216Y-40953456D01*
X-17517188Y-41021376D01*
X-17666488Y-41051073D01*
X-17691258Y-41056000D01*
X-17868742Y-41056000D01*
X-17893512Y-41051073D01*
X-18042812Y-41021376D01*
X-18206784Y-40953456D01*
X-18354354Y-40854853D01*
X-18479853Y-40729354D01*
X-18578456Y-40581784D01*
X-18646376Y-40417812D01*
X-18681000Y-40243741D01*
X-18681000Y-40066259D01*
X-18646376Y-39892188D01*
X-18578456Y-39728216D01*
X-18479853Y-39580646D01*
X-18354354Y-39455147D01*
X-18206784Y-39356544D01*
X-18042812Y-39288624D01*
X-17893512Y-39258927D01*
X-17868742Y-39254000D01*
X-17691258Y-39254000D01*
X-17666488Y-39258927D01*
X-17666488Y-39258927D01*
G37*
G36*
X-13166488Y-39258927D02*
G01*
X-13017188Y-39288624D01*
X-12853216Y-39356544D01*
X-12705646Y-39455147D01*
X-12580147Y-39580646D01*
X-12481544Y-39728216D01*
X-12413624Y-39892188D01*
X-12379000Y-40066259D01*
X-12379000Y-40243741D01*
X-12413624Y-40417812D01*
X-12481544Y-40581784D01*
X-12580147Y-40729354D01*
X-12705646Y-40854853D01*
X-12853216Y-40953456D01*
X-13017188Y-41021376D01*
X-13166488Y-41051073D01*
X-13191258Y-41056000D01*
X-13368742Y-41056000D01*
X-13393512Y-41051073D01*
X-13542812Y-41021376D01*
X-13706784Y-40953456D01*
X-13854354Y-40854853D01*
X-13979853Y-40729354D01*
X-14078456Y-40581784D01*
X-14146376Y-40417812D01*
X-14181000Y-40243741D01*
X-14181000Y-40066259D01*
X-14146376Y-39892188D01*
X-14078456Y-39728216D01*
X-13979853Y-39580646D01*
X-13854354Y-39455147D01*
X-13706784Y-39356544D01*
X-13542812Y-39288624D01*
X-13393512Y-39258927D01*
X-13368742Y-39254000D01*
X-13191258Y-39254000D01*
X-13166488Y-39258927D01*
X-13166488Y-39258927D01*
G37*
G36*
X-7506488Y-39258927D02*
G01*
X-7357188Y-39288624D01*
X-7193216Y-39356544D01*
X-7045646Y-39455147D01*
X-6920147Y-39580646D01*
X-6821544Y-39728216D01*
X-6753624Y-39892188D01*
X-6719000Y-40066259D01*
X-6719000Y-40243741D01*
X-6753624Y-40417812D01*
X-6821544Y-40581784D01*
X-6920147Y-40729354D01*
X-7045646Y-40854853D01*
X-7193216Y-40953456D01*
X-7357188Y-41021376D01*
X-7506488Y-41051073D01*
X-7531258Y-41056000D01*
X-7708742Y-41056000D01*
X-7733512Y-41051073D01*
X-7882812Y-41021376D01*
X-8046784Y-40953456D01*
X-8194354Y-40854853D01*
X-8319853Y-40729354D01*
X-8418456Y-40581784D01*
X-8486376Y-40417812D01*
X-8521000Y-40243741D01*
X-8521000Y-40066259D01*
X-8486376Y-39892188D01*
X-8418456Y-39728216D01*
X-8319853Y-39580646D01*
X-8194354Y-39455147D01*
X-8046784Y-39356544D01*
X-7882812Y-39288624D01*
X-7733512Y-39258927D01*
X-7708742Y-39254000D01*
X-7531258Y-39254000D01*
X-7506488Y-39258927D01*
X-7506488Y-39258927D01*
G37*
G36*
X-3006488Y-39258927D02*
G01*
X-2857188Y-39288624D01*
X-2693216Y-39356544D01*
X-2545646Y-39455147D01*
X-2420147Y-39580646D01*
X-2321544Y-39728216D01*
X-2253624Y-39892188D01*
X-2219000Y-40066259D01*
X-2219000Y-40243741D01*
X-2253624Y-40417812D01*
X-2321544Y-40581784D01*
X-2420147Y-40729354D01*
X-2545646Y-40854853D01*
X-2693216Y-40953456D01*
X-2857188Y-41021376D01*
X-3006488Y-41051073D01*
X-3031258Y-41056000D01*
X-3208742Y-41056000D01*
X-3233512Y-41051073D01*
X-3382812Y-41021376D01*
X-3546784Y-40953456D01*
X-3694354Y-40854853D01*
X-3819853Y-40729354D01*
X-3918456Y-40581784D01*
X-3986376Y-40417812D01*
X-4021000Y-40243741D01*
X-4021000Y-40066259D01*
X-3986376Y-39892188D01*
X-3918456Y-39728216D01*
X-3819853Y-39580646D01*
X-3694354Y-39455147D01*
X-3546784Y-39356544D01*
X-3382812Y-39288624D01*
X-3233512Y-39258927D01*
X-3208742Y-39254000D01*
X-3031258Y-39254000D01*
X-3006488Y-39258927D01*
X-3006488Y-39258927D01*
G37*
G36*
X7153512Y-39258927D02*
G01*
X7302812Y-39288624D01*
X7466784Y-39356544D01*
X7614354Y-39455147D01*
X7739853Y-39580646D01*
X7838456Y-39728216D01*
X7906376Y-39892188D01*
X7941000Y-40066259D01*
X7941000Y-40243741D01*
X7906376Y-40417812D01*
X7838456Y-40581784D01*
X7739853Y-40729354D01*
X7614354Y-40854853D01*
X7466784Y-40953456D01*
X7302812Y-41021376D01*
X7153512Y-41051073D01*
X7128742Y-41056000D01*
X6951258Y-41056000D01*
X6926488Y-41051073D01*
X6777188Y-41021376D01*
X6613216Y-40953456D01*
X6465646Y-40854853D01*
X6340147Y-40729354D01*
X6241544Y-40581784D01*
X6173624Y-40417812D01*
X6139000Y-40243741D01*
X6139000Y-40066259D01*
X6173624Y-39892188D01*
X6241544Y-39728216D01*
X6340147Y-39580646D01*
X6465646Y-39455147D01*
X6613216Y-39356544D01*
X6777188Y-39288624D01*
X6926488Y-39258927D01*
X6951258Y-39254000D01*
X7128742Y-39254000D01*
X7153512Y-39258927D01*
X7153512Y-39258927D01*
G37*
G36*
X12813512Y-39258927D02*
G01*
X12962812Y-39288624D01*
X13126784Y-39356544D01*
X13274354Y-39455147D01*
X13399853Y-39580646D01*
X13498456Y-39728216D01*
X13566376Y-39892188D01*
X13601000Y-40066259D01*
X13601000Y-40243741D01*
X13566376Y-40417812D01*
X13498456Y-40581784D01*
X13399853Y-40729354D01*
X13274354Y-40854853D01*
X13126784Y-40953456D01*
X12962812Y-41021376D01*
X12813512Y-41051073D01*
X12788742Y-41056000D01*
X12611258Y-41056000D01*
X12586488Y-41051073D01*
X12437188Y-41021376D01*
X12273216Y-40953456D01*
X12125646Y-40854853D01*
X12000147Y-40729354D01*
X11901544Y-40581784D01*
X11833624Y-40417812D01*
X11799000Y-40243741D01*
X11799000Y-40066259D01*
X11833624Y-39892188D01*
X11901544Y-39728216D01*
X12000147Y-39580646D01*
X12125646Y-39455147D01*
X12273216Y-39356544D01*
X12437188Y-39288624D01*
X12586488Y-39258927D01*
X12611258Y-39254000D01*
X12788742Y-39254000D01*
X12813512Y-39258927D01*
X12813512Y-39258927D01*
G37*
G36*
X2653512Y-39258927D02*
G01*
X2802812Y-39288624D01*
X2966784Y-39356544D01*
X3114354Y-39455147D01*
X3239853Y-39580646D01*
X3338456Y-39728216D01*
X3406376Y-39892188D01*
X3441000Y-40066259D01*
X3441000Y-40243741D01*
X3406376Y-40417812D01*
X3338456Y-40581784D01*
X3239853Y-40729354D01*
X3114354Y-40854853D01*
X2966784Y-40953456D01*
X2802812Y-41021376D01*
X2653512Y-41051073D01*
X2628742Y-41056000D01*
X2451258Y-41056000D01*
X2426488Y-41051073D01*
X2277188Y-41021376D01*
X2113216Y-40953456D01*
X1965646Y-40854853D01*
X1840147Y-40729354D01*
X1741544Y-40581784D01*
X1673624Y-40417812D01*
X1639000Y-40243741D01*
X1639000Y-40066259D01*
X1673624Y-39892188D01*
X1741544Y-39728216D01*
X1840147Y-39580646D01*
X1965646Y-39455147D01*
X2113216Y-39356544D01*
X2277188Y-39288624D01*
X2426488Y-39258927D01*
X2451258Y-39254000D01*
X2628742Y-39254000D01*
X2653512Y-39258927D01*
X2653512Y-39258927D01*
G37*
G36*
X2653512Y-32758927D02*
G01*
X2802812Y-32788624D01*
X2966784Y-32856544D01*
X3114354Y-32955147D01*
X3239853Y-33080646D01*
X3338456Y-33228216D01*
X3406376Y-33392188D01*
X3441000Y-33566259D01*
X3441000Y-33743741D01*
X3406376Y-33917812D01*
X3338456Y-34081784D01*
X3239853Y-34229354D01*
X3114354Y-34354853D01*
X2966784Y-34453456D01*
X2802812Y-34521376D01*
X2653512Y-34551073D01*
X2628742Y-34556000D01*
X2451258Y-34556000D01*
X2426488Y-34551073D01*
X2277188Y-34521376D01*
X2113216Y-34453456D01*
X1965646Y-34354853D01*
X1840147Y-34229354D01*
X1741544Y-34081784D01*
X1673624Y-33917812D01*
X1639000Y-33743741D01*
X1639000Y-33566259D01*
X1673624Y-33392188D01*
X1741544Y-33228216D01*
X1840147Y-33080646D01*
X1965646Y-32955147D01*
X2113216Y-32856544D01*
X2277188Y-32788624D01*
X2426488Y-32758927D01*
X2451258Y-32754000D01*
X2628742Y-32754000D01*
X2653512Y-32758927D01*
X2653512Y-32758927D01*
G37*
G36*
X17313512Y-32758927D02*
G01*
X17462812Y-32788624D01*
X17626784Y-32856544D01*
X17774354Y-32955147D01*
X17899853Y-33080646D01*
X17998456Y-33228216D01*
X18066376Y-33392188D01*
X18101000Y-33566259D01*
X18101000Y-33743741D01*
X18066376Y-33917812D01*
X17998456Y-34081784D01*
X17899853Y-34229354D01*
X17774354Y-34354853D01*
X17626784Y-34453456D01*
X17462812Y-34521376D01*
X17313512Y-34551073D01*
X17288742Y-34556000D01*
X17111258Y-34556000D01*
X17086488Y-34551073D01*
X16937188Y-34521376D01*
X16773216Y-34453456D01*
X16625646Y-34354853D01*
X16500147Y-34229354D01*
X16401544Y-34081784D01*
X16333624Y-33917812D01*
X16299000Y-33743741D01*
X16299000Y-33566259D01*
X16333624Y-33392188D01*
X16401544Y-33228216D01*
X16500147Y-33080646D01*
X16625646Y-32955147D01*
X16773216Y-32856544D01*
X16937188Y-32788624D01*
X17086488Y-32758927D01*
X17111258Y-32754000D01*
X17288742Y-32754000D01*
X17313512Y-32758927D01*
X17313512Y-32758927D01*
G37*
G36*
X7153512Y-32758927D02*
G01*
X7302812Y-32788624D01*
X7466784Y-32856544D01*
X7614354Y-32955147D01*
X7739853Y-33080646D01*
X7838456Y-33228216D01*
X7906376Y-33392188D01*
X7941000Y-33566259D01*
X7941000Y-33743741D01*
X7906376Y-33917812D01*
X7838456Y-34081784D01*
X7739853Y-34229354D01*
X7614354Y-34354853D01*
X7466784Y-34453456D01*
X7302812Y-34521376D01*
X7153512Y-34551073D01*
X7128742Y-34556000D01*
X6951258Y-34556000D01*
X6926488Y-34551073D01*
X6777188Y-34521376D01*
X6613216Y-34453456D01*
X6465646Y-34354853D01*
X6340147Y-34229354D01*
X6241544Y-34081784D01*
X6173624Y-33917812D01*
X6139000Y-33743741D01*
X6139000Y-33566259D01*
X6173624Y-33392188D01*
X6241544Y-33228216D01*
X6340147Y-33080646D01*
X6465646Y-32955147D01*
X6613216Y-32856544D01*
X6777188Y-32788624D01*
X6926488Y-32758927D01*
X6951258Y-32754000D01*
X7128742Y-32754000D01*
X7153512Y-32758927D01*
X7153512Y-32758927D01*
G37*
G36*
X12813512Y-32758927D02*
G01*
X12962812Y-32788624D01*
X13126784Y-32856544D01*
X13274354Y-32955147D01*
X13399853Y-33080646D01*
X13498456Y-33228216D01*
X13566376Y-33392188D01*
X13601000Y-33566259D01*
X13601000Y-33743741D01*
X13566376Y-33917812D01*
X13498456Y-34081784D01*
X13399853Y-34229354D01*
X13274354Y-34354853D01*
X13126784Y-34453456D01*
X12962812Y-34521376D01*
X12813512Y-34551073D01*
X12788742Y-34556000D01*
X12611258Y-34556000D01*
X12586488Y-34551073D01*
X12437188Y-34521376D01*
X12273216Y-34453456D01*
X12125646Y-34354853D01*
X12000147Y-34229354D01*
X11901544Y-34081784D01*
X11833624Y-33917812D01*
X11799000Y-33743741D01*
X11799000Y-33566259D01*
X11833624Y-33392188D01*
X11901544Y-33228216D01*
X12000147Y-33080646D01*
X12125646Y-32955147D01*
X12273216Y-32856544D01*
X12437188Y-32788624D01*
X12586488Y-32758927D01*
X12611258Y-32754000D01*
X12788742Y-32754000D01*
X12813512Y-32758927D01*
X12813512Y-32758927D01*
G37*
G36*
X-7506488Y-32758927D02*
G01*
X-7357188Y-32788624D01*
X-7193216Y-32856544D01*
X-7045646Y-32955147D01*
X-6920147Y-33080646D01*
X-6821544Y-33228216D01*
X-6753624Y-33392188D01*
X-6719000Y-33566259D01*
X-6719000Y-33743741D01*
X-6753624Y-33917812D01*
X-6821544Y-34081784D01*
X-6920147Y-34229354D01*
X-7045646Y-34354853D01*
X-7193216Y-34453456D01*
X-7357188Y-34521376D01*
X-7506488Y-34551073D01*
X-7531258Y-34556000D01*
X-7708742Y-34556000D01*
X-7733512Y-34551073D01*
X-7882812Y-34521376D01*
X-8046784Y-34453456D01*
X-8194354Y-34354853D01*
X-8319853Y-34229354D01*
X-8418456Y-34081784D01*
X-8486376Y-33917812D01*
X-8521000Y-33743741D01*
X-8521000Y-33566259D01*
X-8486376Y-33392188D01*
X-8418456Y-33228216D01*
X-8319853Y-33080646D01*
X-8194354Y-32955147D01*
X-8046784Y-32856544D01*
X-7882812Y-32788624D01*
X-7733512Y-32758927D01*
X-7708742Y-32754000D01*
X-7531258Y-32754000D01*
X-7506488Y-32758927D01*
X-7506488Y-32758927D01*
G37*
G36*
X-13166488Y-32758927D02*
G01*
X-13017188Y-32788624D01*
X-12853216Y-32856544D01*
X-12705646Y-32955147D01*
X-12580147Y-33080646D01*
X-12481544Y-33228216D01*
X-12413624Y-33392188D01*
X-12379000Y-33566259D01*
X-12379000Y-33743741D01*
X-12413624Y-33917812D01*
X-12481544Y-34081784D01*
X-12580147Y-34229354D01*
X-12705646Y-34354853D01*
X-12853216Y-34453456D01*
X-13017188Y-34521376D01*
X-13166488Y-34551073D01*
X-13191258Y-34556000D01*
X-13368742Y-34556000D01*
X-13393512Y-34551073D01*
X-13542812Y-34521376D01*
X-13706784Y-34453456D01*
X-13854354Y-34354853D01*
X-13979853Y-34229354D01*
X-14078456Y-34081784D01*
X-14146376Y-33917812D01*
X-14181000Y-33743741D01*
X-14181000Y-33566259D01*
X-14146376Y-33392188D01*
X-14078456Y-33228216D01*
X-13979853Y-33080646D01*
X-13854354Y-32955147D01*
X-13706784Y-32856544D01*
X-13542812Y-32788624D01*
X-13393512Y-32758927D01*
X-13368742Y-32754000D01*
X-13191258Y-32754000D01*
X-13166488Y-32758927D01*
X-13166488Y-32758927D01*
G37*
G36*
X-17666488Y-32758927D02*
G01*
X-17517188Y-32788624D01*
X-17353216Y-32856544D01*
X-17205646Y-32955147D01*
X-17080147Y-33080646D01*
X-16981544Y-33228216D01*
X-16913624Y-33392188D01*
X-16879000Y-33566259D01*
X-16879000Y-33743741D01*
X-16913624Y-33917812D01*
X-16981544Y-34081784D01*
X-17080147Y-34229354D01*
X-17205646Y-34354853D01*
X-17353216Y-34453456D01*
X-17517188Y-34521376D01*
X-17666488Y-34551073D01*
X-17691258Y-34556000D01*
X-17868742Y-34556000D01*
X-17893512Y-34551073D01*
X-18042812Y-34521376D01*
X-18206784Y-34453456D01*
X-18354354Y-34354853D01*
X-18479853Y-34229354D01*
X-18578456Y-34081784D01*
X-18646376Y-33917812D01*
X-18681000Y-33743741D01*
X-18681000Y-33566259D01*
X-18646376Y-33392188D01*
X-18578456Y-33228216D01*
X-18479853Y-33080646D01*
X-18354354Y-32955147D01*
X-18206784Y-32856544D01*
X-18042812Y-32788624D01*
X-17893512Y-32758927D01*
X-17868742Y-32754000D01*
X-17691258Y-32754000D01*
X-17666488Y-32758927D01*
X-17666488Y-32758927D01*
G37*
G36*
X-3006488Y-32758927D02*
G01*
X-2857188Y-32788624D01*
X-2693216Y-32856544D01*
X-2545646Y-32955147D01*
X-2420147Y-33080646D01*
X-2321544Y-33228216D01*
X-2253624Y-33392188D01*
X-2219000Y-33566259D01*
X-2219000Y-33743741D01*
X-2253624Y-33917812D01*
X-2321544Y-34081784D01*
X-2420147Y-34229354D01*
X-2545646Y-34354853D01*
X-2693216Y-34453456D01*
X-2857188Y-34521376D01*
X-3006488Y-34551073D01*
X-3031258Y-34556000D01*
X-3208742Y-34556000D01*
X-3233512Y-34551073D01*
X-3382812Y-34521376D01*
X-3546784Y-34453456D01*
X-3694354Y-34354853D01*
X-3819853Y-34229354D01*
X-3918456Y-34081784D01*
X-3986376Y-33917812D01*
X-4021000Y-33743741D01*
X-4021000Y-33566259D01*
X-3986376Y-33392188D01*
X-3918456Y-33228216D01*
X-3819853Y-33080646D01*
X-3694354Y-32955147D01*
X-3546784Y-32856544D01*
X-3382812Y-32788624D01*
X-3233512Y-32758927D01*
X-3208742Y-32754000D01*
X-3031258Y-32754000D01*
X-3006488Y-32758927D01*
X-3006488Y-32758927D01*
G37*
G36*
X14779499Y-30593445D02*
G01*
X14816995Y-30604820D01*
X14851554Y-30623292D01*
X14881847Y-30648153D01*
X14906708Y-30678446D01*
X14925180Y-30713005D01*
X14936555Y-30750501D01*
X14941000Y-30795638D01*
X14941000Y-31434362D01*
X14936555Y-31479499D01*
X14925180Y-31516995D01*
X14906708Y-31551554D01*
X14881847Y-31581847D01*
X14851554Y-31606708D01*
X14816995Y-31625180D01*
X14779499Y-31636555D01*
X14734362Y-31641000D01*
X13995638Y-31641000D01*
X13950501Y-31636555D01*
X13913005Y-31625180D01*
X13878446Y-31606708D01*
X13848153Y-31581847D01*
X13823292Y-31551554D01*
X13804820Y-31516995D01*
X13793445Y-31479499D01*
X13789000Y-31434362D01*
X13789000Y-30795638D01*
X13793445Y-30750501D01*
X13804820Y-30713005D01*
X13823292Y-30678446D01*
X13848153Y-30648153D01*
X13878446Y-30623292D01*
X13913005Y-30604820D01*
X13950501Y-30593445D01*
X13995638Y-30589000D01*
X14734362Y-30589000D01*
X14779499Y-30593445D01*
X14779499Y-30593445D01*
G37*
G36*
X16529499Y-30593445D02*
G01*
X16566995Y-30604820D01*
X16601554Y-30623292D01*
X16631847Y-30648153D01*
X16656708Y-30678446D01*
X16675180Y-30713005D01*
X16686555Y-30750501D01*
X16691000Y-30795638D01*
X16691000Y-31434362D01*
X16686555Y-31479499D01*
X16675180Y-31516995D01*
X16656708Y-31551554D01*
X16631847Y-31581847D01*
X16601554Y-31606708D01*
X16566995Y-31625180D01*
X16529499Y-31636555D01*
X16484362Y-31641000D01*
X15745638Y-31641000D01*
X15700501Y-31636555D01*
X15663005Y-31625180D01*
X15628446Y-31606708D01*
X15598153Y-31581847D01*
X15573292Y-31551554D01*
X15554820Y-31516995D01*
X15543445Y-31479499D01*
X15539000Y-31434362D01*
X15539000Y-30795638D01*
X15543445Y-30750501D01*
X15554820Y-30713005D01*
X15573292Y-30678446D01*
X15598153Y-30648153D01*
X15628446Y-30623292D01*
X15663005Y-30604820D01*
X15700501Y-30593445D01*
X15745638Y-30589000D01*
X16484362Y-30589000D01*
X16529499Y-30593445D01*
X16529499Y-30593445D01*
G37*
G36*
X6369499Y-30593445D02*
G01*
X6406995Y-30604820D01*
X6441554Y-30623292D01*
X6471847Y-30648153D01*
X6496708Y-30678446D01*
X6515180Y-30713005D01*
X6526555Y-30750501D01*
X6531000Y-30795638D01*
X6531000Y-31434362D01*
X6526555Y-31479499D01*
X6515180Y-31516995D01*
X6496708Y-31551554D01*
X6471847Y-31581847D01*
X6441554Y-31606708D01*
X6406995Y-31625180D01*
X6369499Y-31636555D01*
X6324362Y-31641000D01*
X5585638Y-31641000D01*
X5540501Y-31636555D01*
X5503005Y-31625180D01*
X5468446Y-31606708D01*
X5438153Y-31581847D01*
X5413292Y-31551554D01*
X5394820Y-31516995D01*
X5383445Y-31479499D01*
X5379000Y-31434362D01*
X5379000Y-30795638D01*
X5383445Y-30750501D01*
X5394820Y-30713005D01*
X5413292Y-30678446D01*
X5438153Y-30648153D01*
X5468446Y-30623292D01*
X5503005Y-30604820D01*
X5540501Y-30593445D01*
X5585638Y-30589000D01*
X6324362Y-30589000D01*
X6369499Y-30593445D01*
X6369499Y-30593445D01*
G37*
G36*
X4619499Y-30593445D02*
G01*
X4656995Y-30604820D01*
X4691554Y-30623292D01*
X4721847Y-30648153D01*
X4746708Y-30678446D01*
X4765180Y-30713005D01*
X4776555Y-30750501D01*
X4781000Y-30795638D01*
X4781000Y-31434362D01*
X4776555Y-31479499D01*
X4765180Y-31516995D01*
X4746708Y-31551554D01*
X4721847Y-31581847D01*
X4691554Y-31606708D01*
X4656995Y-31625180D01*
X4619499Y-31636555D01*
X4574362Y-31641000D01*
X3835638Y-31641000D01*
X3790501Y-31636555D01*
X3753005Y-31625180D01*
X3718446Y-31606708D01*
X3688153Y-31581847D01*
X3663292Y-31551554D01*
X3644820Y-31516995D01*
X3633445Y-31479499D01*
X3629000Y-31434362D01*
X3629000Y-30795638D01*
X3633445Y-30750501D01*
X3644820Y-30713005D01*
X3663292Y-30678446D01*
X3688153Y-30648153D01*
X3718446Y-30623292D01*
X3753005Y-30604820D01*
X3790501Y-30593445D01*
X3835638Y-30589000D01*
X4574362Y-30589000D01*
X4619499Y-30593445D01*
X4619499Y-30593445D01*
G37*
G36*
X-5540501Y-30593445D02*
G01*
X-5503005Y-30604820D01*
X-5468446Y-30623292D01*
X-5438153Y-30648153D01*
X-5413292Y-30678446D01*
X-5394820Y-30713005D01*
X-5383445Y-30750501D01*
X-5379000Y-30795638D01*
X-5379000Y-31434362D01*
X-5383445Y-31479499D01*
X-5394820Y-31516995D01*
X-5413292Y-31551554D01*
X-5438153Y-31581847D01*
X-5468446Y-31606708D01*
X-5503005Y-31625180D01*
X-5540501Y-31636555D01*
X-5585638Y-31641000D01*
X-6324362Y-31641000D01*
X-6369499Y-31636555D01*
X-6406995Y-31625180D01*
X-6441554Y-31606708D01*
X-6471847Y-31581847D01*
X-6496708Y-31551554D01*
X-6515180Y-31516995D01*
X-6526555Y-31479499D01*
X-6531000Y-31434362D01*
X-6531000Y-30795638D01*
X-6526555Y-30750501D01*
X-6515180Y-30713005D01*
X-6496708Y-30678446D01*
X-6471847Y-30648153D01*
X-6441554Y-30623292D01*
X-6406995Y-30604820D01*
X-6369499Y-30593445D01*
X-6324362Y-30589000D01*
X-5585638Y-30589000D01*
X-5540501Y-30593445D01*
X-5540501Y-30593445D01*
G37*
G36*
X-3790501Y-30593445D02*
G01*
X-3753005Y-30604820D01*
X-3718446Y-30623292D01*
X-3688153Y-30648153D01*
X-3663292Y-30678446D01*
X-3644820Y-30713005D01*
X-3633445Y-30750501D01*
X-3629000Y-30795638D01*
X-3629000Y-31434362D01*
X-3633445Y-31479499D01*
X-3644820Y-31516995D01*
X-3663292Y-31551554D01*
X-3688153Y-31581847D01*
X-3718446Y-31606708D01*
X-3753005Y-31625180D01*
X-3790501Y-31636555D01*
X-3835638Y-31641000D01*
X-4574362Y-31641000D01*
X-4619499Y-31636555D01*
X-4656995Y-31625180D01*
X-4691554Y-31606708D01*
X-4721847Y-31581847D01*
X-4746708Y-31551554D01*
X-4765180Y-31516995D01*
X-4776555Y-31479499D01*
X-4781000Y-31434362D01*
X-4781000Y-30795638D01*
X-4776555Y-30750501D01*
X-4765180Y-30713005D01*
X-4746708Y-30678446D01*
X-4721847Y-30648153D01*
X-4691554Y-30623292D01*
X-4656995Y-30604820D01*
X-4619499Y-30593445D01*
X-4574362Y-30589000D01*
X-3835638Y-30589000D01*
X-3790501Y-30593445D01*
X-3790501Y-30593445D01*
G37*
G36*
X-13950501Y-30593445D02*
G01*
X-13913005Y-30604820D01*
X-13878446Y-30623292D01*
X-13848153Y-30648153D01*
X-13823292Y-30678446D01*
X-13804820Y-30713005D01*
X-13793445Y-30750501D01*
X-13789000Y-30795638D01*
X-13789000Y-31434362D01*
X-13793445Y-31479499D01*
X-13804820Y-31516995D01*
X-13823292Y-31551554D01*
X-13848153Y-31581847D01*
X-13878446Y-31606708D01*
X-13913005Y-31625180D01*
X-13950501Y-31636555D01*
X-13995638Y-31641000D01*
X-14734362Y-31641000D01*
X-14779499Y-31636555D01*
X-14816995Y-31625180D01*
X-14851554Y-31606708D01*
X-14881847Y-31581847D01*
X-14906708Y-31551554D01*
X-14925180Y-31516995D01*
X-14936555Y-31479499D01*
X-14941000Y-31434362D01*
X-14941000Y-30795638D01*
X-14936555Y-30750501D01*
X-14925180Y-30713005D01*
X-14906708Y-30678446D01*
X-14881847Y-30648153D01*
X-14851554Y-30623292D01*
X-14816995Y-30604820D01*
X-14779499Y-30593445D01*
X-14734362Y-30589000D01*
X-13995638Y-30589000D01*
X-13950501Y-30593445D01*
X-13950501Y-30593445D01*
G37*
G36*
X-15700501Y-30593445D02*
G01*
X-15663005Y-30604820D01*
X-15628446Y-30623292D01*
X-15598153Y-30648153D01*
X-15573292Y-30678446D01*
X-15554820Y-30713005D01*
X-15543445Y-30750501D01*
X-15539000Y-30795638D01*
X-15539000Y-31434362D01*
X-15543445Y-31479499D01*
X-15554820Y-31516995D01*
X-15573292Y-31551554D01*
X-15598153Y-31581847D01*
X-15628446Y-31606708D01*
X-15663005Y-31625180D01*
X-15700501Y-31636555D01*
X-15745638Y-31641000D01*
X-16484362Y-31641000D01*
X-16529499Y-31636555D01*
X-16566995Y-31625180D01*
X-16601554Y-31606708D01*
X-16631847Y-31581847D01*
X-16656708Y-31551554D01*
X-16675180Y-31516995D01*
X-16686555Y-31479499D01*
X-16691000Y-31434362D01*
X-16691000Y-30795638D01*
X-16686555Y-30750501D01*
X-16675180Y-30713005D01*
X-16656708Y-30678446D01*
X-16631847Y-30648153D01*
X-16601554Y-30623292D01*
X-16566995Y-30604820D01*
X-16529499Y-30593445D01*
X-16484362Y-30589000D01*
X-15745638Y-30589000D01*
X-15700501Y-30593445D01*
X-15700501Y-30593445D01*
G37*
G36*
X6369499Y-28688445D02*
G01*
X6406995Y-28699820D01*
X6441554Y-28718292D01*
X6471847Y-28743153D01*
X6496708Y-28773446D01*
X6515180Y-28808005D01*
X6526555Y-28845501D01*
X6531000Y-28890638D01*
X6531000Y-29529362D01*
X6526555Y-29574499D01*
X6515180Y-29611995D01*
X6496708Y-29646554D01*
X6471847Y-29676847D01*
X6441554Y-29701708D01*
X6406995Y-29720180D01*
X6369499Y-29731555D01*
X6324362Y-29736000D01*
X5585638Y-29736000D01*
X5540501Y-29731555D01*
X5503005Y-29720180D01*
X5468446Y-29701708D01*
X5438153Y-29676847D01*
X5413292Y-29646554D01*
X5394820Y-29611995D01*
X5383445Y-29574499D01*
X5379000Y-29529362D01*
X5379000Y-28890638D01*
X5383445Y-28845501D01*
X5394820Y-28808005D01*
X5413292Y-28773446D01*
X5438153Y-28743153D01*
X5468446Y-28718292D01*
X5503005Y-28699820D01*
X5540501Y-28688445D01*
X5585638Y-28684000D01*
X6324362Y-28684000D01*
X6369499Y-28688445D01*
X6369499Y-28688445D01*
G37*
G36*
X16529499Y-28688445D02*
G01*
X16566995Y-28699820D01*
X16601554Y-28718292D01*
X16631847Y-28743153D01*
X16656708Y-28773446D01*
X16675180Y-28808005D01*
X16686555Y-28845501D01*
X16691000Y-28890638D01*
X16691000Y-29529362D01*
X16686555Y-29574499D01*
X16675180Y-29611995D01*
X16656708Y-29646554D01*
X16631847Y-29676847D01*
X16601554Y-29701708D01*
X16566995Y-29720180D01*
X16529499Y-29731555D01*
X16484362Y-29736000D01*
X15745638Y-29736000D01*
X15700501Y-29731555D01*
X15663005Y-29720180D01*
X15628446Y-29701708D01*
X15598153Y-29676847D01*
X15573292Y-29646554D01*
X15554820Y-29611995D01*
X15543445Y-29574499D01*
X15539000Y-29529362D01*
X15539000Y-28890638D01*
X15543445Y-28845501D01*
X15554820Y-28808005D01*
X15573292Y-28773446D01*
X15598153Y-28743153D01*
X15628446Y-28718292D01*
X15663005Y-28699820D01*
X15700501Y-28688445D01*
X15745638Y-28684000D01*
X16484362Y-28684000D01*
X16529499Y-28688445D01*
X16529499Y-28688445D01*
G37*
G36*
X14779499Y-28688445D02*
G01*
X14816995Y-28699820D01*
X14851554Y-28718292D01*
X14881847Y-28743153D01*
X14906708Y-28773446D01*
X14925180Y-28808005D01*
X14936555Y-28845501D01*
X14941000Y-28890638D01*
X14941000Y-29529362D01*
X14936555Y-29574499D01*
X14925180Y-29611995D01*
X14906708Y-29646554D01*
X14881847Y-29676847D01*
X14851554Y-29701708D01*
X14816995Y-29720180D01*
X14779499Y-29731555D01*
X14734362Y-29736000D01*
X13995638Y-29736000D01*
X13950501Y-29731555D01*
X13913005Y-29720180D01*
X13878446Y-29701708D01*
X13848153Y-29676847D01*
X13823292Y-29646554D01*
X13804820Y-29611995D01*
X13793445Y-29574499D01*
X13789000Y-29529362D01*
X13789000Y-28890638D01*
X13793445Y-28845501D01*
X13804820Y-28808005D01*
X13823292Y-28773446D01*
X13848153Y-28743153D01*
X13878446Y-28718292D01*
X13913005Y-28699820D01*
X13950501Y-28688445D01*
X13995638Y-28684000D01*
X14734362Y-28684000D01*
X14779499Y-28688445D01*
X14779499Y-28688445D01*
G37*
G36*
X-15700501Y-28688445D02*
G01*
X-15663005Y-28699820D01*
X-15628446Y-28718292D01*
X-15598153Y-28743153D01*
X-15573292Y-28773446D01*
X-15554820Y-28808005D01*
X-15543445Y-28845501D01*
X-15539000Y-28890638D01*
X-15539000Y-29529362D01*
X-15543445Y-29574499D01*
X-15554820Y-29611995D01*
X-15573292Y-29646554D01*
X-15598153Y-29676847D01*
X-15628446Y-29701708D01*
X-15663005Y-29720180D01*
X-15700501Y-29731555D01*
X-15745638Y-29736000D01*
X-16484362Y-29736000D01*
X-16529499Y-29731555D01*
X-16566995Y-29720180D01*
X-16601554Y-29701708D01*
X-16631847Y-29676847D01*
X-16656708Y-29646554D01*
X-16675180Y-29611995D01*
X-16686555Y-29574499D01*
X-16691000Y-29529362D01*
X-16691000Y-28890638D01*
X-16686555Y-28845501D01*
X-16675180Y-28808005D01*
X-16656708Y-28773446D01*
X-16631847Y-28743153D01*
X-16601554Y-28718292D01*
X-16566995Y-28699820D01*
X-16529499Y-28688445D01*
X-16484362Y-28684000D01*
X-15745638Y-28684000D01*
X-15700501Y-28688445D01*
X-15700501Y-28688445D01*
G37*
G36*
X-5540501Y-28688445D02*
G01*
X-5503005Y-28699820D01*
X-5468446Y-28718292D01*
X-5438153Y-28743153D01*
X-5413292Y-28773446D01*
X-5394820Y-28808005D01*
X-5383445Y-28845501D01*
X-5379000Y-28890638D01*
X-5379000Y-29529362D01*
X-5383445Y-29574499D01*
X-5394820Y-29611995D01*
X-5413292Y-29646554D01*
X-5438153Y-29676847D01*
X-5468446Y-29701708D01*
X-5503005Y-29720180D01*
X-5540501Y-29731555D01*
X-5585638Y-29736000D01*
X-6324362Y-29736000D01*
X-6369499Y-29731555D01*
X-6406995Y-29720180D01*
X-6441554Y-29701708D01*
X-6471847Y-29676847D01*
X-6496708Y-29646554D01*
X-6515180Y-29611995D01*
X-6526555Y-29574499D01*
X-6531000Y-29529362D01*
X-6531000Y-28890638D01*
X-6526555Y-28845501D01*
X-6515180Y-28808005D01*
X-6496708Y-28773446D01*
X-6471847Y-28743153D01*
X-6441554Y-28718292D01*
X-6406995Y-28699820D01*
X-6369499Y-28688445D01*
X-6324362Y-28684000D01*
X-5585638Y-28684000D01*
X-5540501Y-28688445D01*
X-5540501Y-28688445D01*
G37*
G36*
X-3790501Y-28688445D02*
G01*
X-3753005Y-28699820D01*
X-3718446Y-28718292D01*
X-3688153Y-28743153D01*
X-3663292Y-28773446D01*
X-3644820Y-28808005D01*
X-3633445Y-28845501D01*
X-3629000Y-28890638D01*
X-3629000Y-29529362D01*
X-3633445Y-29574499D01*
X-3644820Y-29611995D01*
X-3663292Y-29646554D01*
X-3688153Y-29676847D01*
X-3718446Y-29701708D01*
X-3753005Y-29720180D01*
X-3790501Y-29731555D01*
X-3835638Y-29736000D01*
X-4574362Y-29736000D01*
X-4619499Y-29731555D01*
X-4656995Y-29720180D01*
X-4691554Y-29701708D01*
X-4721847Y-29676847D01*
X-4746708Y-29646554D01*
X-4765180Y-29611995D01*
X-4776555Y-29574499D01*
X-4781000Y-29529362D01*
X-4781000Y-28890638D01*
X-4776555Y-28845501D01*
X-4765180Y-28808005D01*
X-4746708Y-28773446D01*
X-4721847Y-28743153D01*
X-4691554Y-28718292D01*
X-4656995Y-28699820D01*
X-4619499Y-28688445D01*
X-4574362Y-28684000D01*
X-3835638Y-28684000D01*
X-3790501Y-28688445D01*
X-3790501Y-28688445D01*
G37*
G36*
X4619499Y-28688445D02*
G01*
X4656995Y-28699820D01*
X4691554Y-28718292D01*
X4721847Y-28743153D01*
X4746708Y-28773446D01*
X4765180Y-28808005D01*
X4776555Y-28845501D01*
X4781000Y-28890638D01*
X4781000Y-29529362D01*
X4776555Y-29574499D01*
X4765180Y-29611995D01*
X4746708Y-29646554D01*
X4721847Y-29676847D01*
X4691554Y-29701708D01*
X4656995Y-29720180D01*
X4619499Y-29731555D01*
X4574362Y-29736000D01*
X3835638Y-29736000D01*
X3790501Y-29731555D01*
X3753005Y-29720180D01*
X3718446Y-29701708D01*
X3688153Y-29676847D01*
X3663292Y-29646554D01*
X3644820Y-29611995D01*
X3633445Y-29574499D01*
X3629000Y-29529362D01*
X3629000Y-28890638D01*
X3633445Y-28845501D01*
X3644820Y-28808005D01*
X3663292Y-28773446D01*
X3688153Y-28743153D01*
X3718446Y-28718292D01*
X3753005Y-28699820D01*
X3790501Y-28688445D01*
X3835638Y-28684000D01*
X4574362Y-28684000D01*
X4619499Y-28688445D01*
X4619499Y-28688445D01*
G37*
G36*
X-13950501Y-28688445D02*
G01*
X-13913005Y-28699820D01*
X-13878446Y-28718292D01*
X-13848153Y-28743153D01*
X-13823292Y-28773446D01*
X-13804820Y-28808005D01*
X-13793445Y-28845501D01*
X-13789000Y-28890638D01*
X-13789000Y-29529362D01*
X-13793445Y-29574499D01*
X-13804820Y-29611995D01*
X-13823292Y-29646554D01*
X-13848153Y-29676847D01*
X-13878446Y-29701708D01*
X-13913005Y-29720180D01*
X-13950501Y-29731555D01*
X-13995638Y-29736000D01*
X-14734362Y-29736000D01*
X-14779499Y-29731555D01*
X-14816995Y-29720180D01*
X-14851554Y-29701708D01*
X-14881847Y-29676847D01*
X-14906708Y-29646554D01*
X-14925180Y-29611995D01*
X-14936555Y-29574499D01*
X-14941000Y-29529362D01*
X-14941000Y-28890638D01*
X-14936555Y-28845501D01*
X-14925180Y-28808005D01*
X-14906708Y-28773446D01*
X-14881847Y-28743153D01*
X-14851554Y-28718292D01*
X-14816995Y-28699820D01*
X-14779499Y-28688445D01*
X-14734362Y-28684000D01*
X-13995638Y-28684000D01*
X-13950501Y-28688445D01*
X-13950501Y-28688445D01*
G37*
G36*
X-13692605Y-24485546D02*
G01*
X-13519534Y-24557234D01*
X-13519533Y-24557235D01*
X-13363773Y-24661310D01*
X-13231310Y-24793773D01*
X-13231309Y-24793775D01*
X-13127234Y-24949534D01*
X-13055546Y-25122605D01*
X-13019000Y-25306333D01*
X-13019000Y-25493667D01*
X-13055546Y-25677395D01*
X-13127234Y-25850466D01*
X-13127235Y-25850467D01*
X-13231310Y-26006227D01*
X-13363773Y-26138690D01*
X-13442182Y-26191081D01*
X-13519534Y-26242766D01*
X-13692605Y-26314454D01*
X-13876333Y-26351000D01*
X-14063667Y-26351000D01*
X-14247395Y-26314454D01*
X-14420466Y-26242766D01*
X-14497818Y-26191081D01*
X-14576227Y-26138690D01*
X-14708690Y-26006227D01*
X-14812765Y-25850467D01*
X-14812766Y-25850466D01*
X-14884454Y-25677395D01*
X-14921000Y-25493667D01*
X-14921000Y-25306333D01*
X-14884454Y-25122605D01*
X-14812766Y-24949534D01*
X-14708691Y-24793775D01*
X-14708690Y-24793773D01*
X-14576227Y-24661310D01*
X-14420467Y-24557235D01*
X-14420466Y-24557234D01*
X-14247395Y-24485546D01*
X-14063667Y-24449000D01*
X-13876333Y-24449000D01*
X-13692605Y-24485546D01*
X-13692605Y-24485546D01*
G37*
G36*
X-15559000Y-26351000D02*
G01*
X-17461000Y-26351000D01*
X-17461000Y-24449000D01*
X-15559000Y-24449000D01*
X-15559000Y-26351000D01*
X-15559000Y-26351000D01*
G37*
G36*
X16787395Y-24485546D02*
G01*
X16960466Y-24557234D01*
X16960467Y-24557235D01*
X17116227Y-24661310D01*
X17248690Y-24793773D01*
X17248691Y-24793775D01*
X17352766Y-24949534D01*
X17424454Y-25122605D01*
X17461000Y-25306333D01*
X17461000Y-25493667D01*
X17424454Y-25677395D01*
X17352766Y-25850466D01*
X17352765Y-25850467D01*
X17248690Y-26006227D01*
X17116227Y-26138690D01*
X17037818Y-26191081D01*
X16960466Y-26242766D01*
X16787395Y-26314454D01*
X16603667Y-26351000D01*
X16416333Y-26351000D01*
X16232605Y-26314454D01*
X16059534Y-26242766D01*
X15982182Y-26191081D01*
X15903773Y-26138690D01*
X15771310Y-26006227D01*
X15667235Y-25850467D01*
X15667234Y-25850466D01*
X15595546Y-25677395D01*
X15559000Y-25493667D01*
X15559000Y-25306333D01*
X15595546Y-25122605D01*
X15667234Y-24949534D01*
X15771309Y-24793775D01*
X15771310Y-24793773D01*
X15903773Y-24661310D01*
X16059533Y-24557235D01*
X16059534Y-24557234D01*
X16232605Y-24485546D01*
X16416333Y-24449000D01*
X16603667Y-24449000D01*
X16787395Y-24485546D01*
X16787395Y-24485546D01*
G37*
G36*
X14921000Y-26351000D02*
G01*
X13019000Y-26351000D01*
X13019000Y-24449000D01*
X14921000Y-24449000D01*
X14921000Y-26351000D01*
X14921000Y-26351000D01*
G37*
G36*
X-3532605Y-24485546D02*
G01*
X-3359534Y-24557234D01*
X-3359533Y-24557235D01*
X-3203773Y-24661310D01*
X-3071310Y-24793773D01*
X-3071309Y-24793775D01*
X-2967234Y-24949534D01*
X-2895546Y-25122605D01*
X-2859000Y-25306333D01*
X-2859000Y-25493667D01*
X-2895546Y-25677395D01*
X-2967234Y-25850466D01*
X-2967235Y-25850467D01*
X-3071310Y-26006227D01*
X-3203773Y-26138690D01*
X-3282182Y-26191081D01*
X-3359534Y-26242766D01*
X-3532605Y-26314454D01*
X-3716333Y-26351000D01*
X-3903667Y-26351000D01*
X-4087395Y-26314454D01*
X-4260466Y-26242766D01*
X-4337818Y-26191081D01*
X-4416227Y-26138690D01*
X-4548690Y-26006227D01*
X-4652765Y-25850467D01*
X-4652766Y-25850466D01*
X-4724454Y-25677395D01*
X-4761000Y-25493667D01*
X-4761000Y-25306333D01*
X-4724454Y-25122605D01*
X-4652766Y-24949534D01*
X-4548691Y-24793775D01*
X-4548690Y-24793773D01*
X-4416227Y-24661310D01*
X-4260467Y-24557235D01*
X-4260466Y-24557234D01*
X-4087395Y-24485546D01*
X-3903667Y-24449000D01*
X-3716333Y-24449000D01*
X-3532605Y-24485546D01*
X-3532605Y-24485546D01*
G37*
G36*
X4761000Y-26351000D02*
G01*
X2859000Y-26351000D01*
X2859000Y-24449000D01*
X4761000Y-24449000D01*
X4761000Y-26351000D01*
X4761000Y-26351000D01*
G37*
G36*
X6627395Y-24485546D02*
G01*
X6800466Y-24557234D01*
X6800467Y-24557235D01*
X6956227Y-24661310D01*
X7088690Y-24793773D01*
X7088691Y-24793775D01*
X7192766Y-24949534D01*
X7264454Y-25122605D01*
X7301000Y-25306333D01*
X7301000Y-25493667D01*
X7264454Y-25677395D01*
X7192766Y-25850466D01*
X7192765Y-25850467D01*
X7088690Y-26006227D01*
X6956227Y-26138690D01*
X6877818Y-26191081D01*
X6800466Y-26242766D01*
X6627395Y-26314454D01*
X6443667Y-26351000D01*
X6256333Y-26351000D01*
X6072605Y-26314454D01*
X5899534Y-26242766D01*
X5822182Y-26191081D01*
X5743773Y-26138690D01*
X5611310Y-26006227D01*
X5507235Y-25850467D01*
X5507234Y-25850466D01*
X5435546Y-25677395D01*
X5399000Y-25493667D01*
X5399000Y-25306333D01*
X5435546Y-25122605D01*
X5507234Y-24949534D01*
X5611309Y-24793775D01*
X5611310Y-24793773D01*
X5743773Y-24661310D01*
X5899533Y-24557235D01*
X5899534Y-24557234D01*
X6072605Y-24485546D01*
X6256333Y-24449000D01*
X6443667Y-24449000D01*
X6627395Y-24485546D01*
X6627395Y-24485546D01*
G37*
G36*
X-5399000Y-26351000D02*
G01*
X-7301000Y-26351000D01*
X-7301000Y-24449000D01*
X-5399000Y-24449000D01*
X-5399000Y-26351000D01*
X-5399000Y-26351000D01*
G37*
G36*
X20339499Y-21068445D02*
G01*
X20376995Y-21079820D01*
X20411554Y-21098292D01*
X20441847Y-21123153D01*
X20466708Y-21153446D01*
X20485180Y-21188005D01*
X20496555Y-21225501D01*
X20501000Y-21270638D01*
X20501000Y-21909362D01*
X20496555Y-21954499D01*
X20485180Y-21991995D01*
X20466708Y-22026554D01*
X20441847Y-22056847D01*
X20411554Y-22081708D01*
X20376995Y-22100180D01*
X20339499Y-22111555D01*
X20294362Y-22116000D01*
X19555638Y-22116000D01*
X19510501Y-22111555D01*
X19473005Y-22100180D01*
X19438446Y-22081708D01*
X19408153Y-22056847D01*
X19383292Y-22026554D01*
X19364820Y-21991995D01*
X19353445Y-21954499D01*
X19349000Y-21909362D01*
X19349000Y-21270638D01*
X19353445Y-21225501D01*
X19364820Y-21188005D01*
X19383292Y-21153446D01*
X19408153Y-21123153D01*
X19438446Y-21098292D01*
X19473005Y-21079820D01*
X19510501Y-21068445D01*
X19555638Y-21064000D01*
X20294362Y-21064000D01*
X20339499Y-21068445D01*
X20339499Y-21068445D01*
G37*
G36*
X8429499Y-21068445D02*
G01*
X8466995Y-21079820D01*
X8501554Y-21098292D01*
X8531847Y-21123153D01*
X8556708Y-21153446D01*
X8575180Y-21188005D01*
X8586555Y-21225501D01*
X8591000Y-21270638D01*
X8591000Y-21909362D01*
X8586555Y-21954499D01*
X8575180Y-21991995D01*
X8556708Y-22026554D01*
X8531847Y-22056847D01*
X8501554Y-22081708D01*
X8466995Y-22100180D01*
X8429499Y-22111555D01*
X8384362Y-22116000D01*
X7645638Y-22116000D01*
X7600501Y-22111555D01*
X7563005Y-22100180D01*
X7528446Y-22081708D01*
X7498153Y-22056847D01*
X7473292Y-22026554D01*
X7454820Y-21991995D01*
X7443445Y-21954499D01*
X7439000Y-21909362D01*
X7439000Y-21270638D01*
X7443445Y-21225501D01*
X7454820Y-21188005D01*
X7473292Y-21153446D01*
X7498153Y-21123153D01*
X7528446Y-21098292D01*
X7563005Y-21079820D01*
X7600501Y-21068445D01*
X7645638Y-21064000D01*
X8384362Y-21064000D01*
X8429499Y-21068445D01*
X8429499Y-21068445D01*
G37*
G36*
X10179499Y-21068445D02*
G01*
X10216995Y-21079820D01*
X10251554Y-21098292D01*
X10281847Y-21123153D01*
X10306708Y-21153446D01*
X10325180Y-21188005D01*
X10336555Y-21225501D01*
X10341000Y-21270638D01*
X10341000Y-21909362D01*
X10336555Y-21954499D01*
X10325180Y-21991995D01*
X10306708Y-22026554D01*
X10281847Y-22056847D01*
X10251554Y-22081708D01*
X10216995Y-22100180D01*
X10179499Y-22111555D01*
X10134362Y-22116000D01*
X9395638Y-22116000D01*
X9350501Y-22111555D01*
X9313005Y-22100180D01*
X9278446Y-22081708D01*
X9248153Y-22056847D01*
X9223292Y-22026554D01*
X9204820Y-21991995D01*
X9193445Y-21954499D01*
X9189000Y-21909362D01*
X9189000Y-21270638D01*
X9193445Y-21225501D01*
X9204820Y-21188005D01*
X9223292Y-21153446D01*
X9248153Y-21123153D01*
X9278446Y-21098292D01*
X9313005Y-21079820D01*
X9350501Y-21068445D01*
X9395638Y-21064000D01*
X10134362Y-21064000D01*
X10179499Y-21068445D01*
X10179499Y-21068445D01*
G37*
G36*
X19499Y-21068445D02*
G01*
X56995Y-21079820D01*
X91554Y-21098292D01*
X121847Y-21123153D01*
X146708Y-21153446D01*
X165180Y-21188005D01*
X176555Y-21225501D01*
X181000Y-21270638D01*
X181000Y-21909362D01*
X176555Y-21954499D01*
X165180Y-21991995D01*
X146708Y-22026554D01*
X121847Y-22056847D01*
X91554Y-22081708D01*
X56995Y-22100180D01*
X19499Y-22111555D01*
X-25638Y-22116000D01*
X-764362Y-22116000D01*
X-809499Y-22111555D01*
X-846995Y-22100180D01*
X-881554Y-22081708D01*
X-911847Y-22056847D01*
X-936708Y-22026554D01*
X-955180Y-21991995D01*
X-966555Y-21954499D01*
X-971000Y-21909362D01*
X-971000Y-21270638D01*
X-966555Y-21225501D01*
X-955180Y-21188005D01*
X-936708Y-21153446D01*
X-911847Y-21123153D01*
X-881554Y-21098292D01*
X-846995Y-21079820D01*
X-809499Y-21068445D01*
X-764362Y-21064000D01*
X-25638Y-21064000D01*
X19499Y-21068445D01*
X19499Y-21068445D01*
G37*
G36*
X-1730501Y-21068445D02*
G01*
X-1693005Y-21079820D01*
X-1658446Y-21098292D01*
X-1628153Y-21123153D01*
X-1603292Y-21153446D01*
X-1584820Y-21188005D01*
X-1573445Y-21225501D01*
X-1569000Y-21270638D01*
X-1569000Y-21909362D01*
X-1573445Y-21954499D01*
X-1584820Y-21991995D01*
X-1603292Y-22026554D01*
X-1628153Y-22056847D01*
X-1658446Y-22081708D01*
X-1693005Y-22100180D01*
X-1730501Y-22111555D01*
X-1775638Y-22116000D01*
X-2514362Y-22116000D01*
X-2559499Y-22111555D01*
X-2596995Y-22100180D01*
X-2631554Y-22081708D01*
X-2661847Y-22056847D01*
X-2686708Y-22026554D01*
X-2705180Y-21991995D01*
X-2716555Y-21954499D01*
X-2721000Y-21909362D01*
X-2721000Y-21270638D01*
X-2716555Y-21225501D01*
X-2705180Y-21188005D01*
X-2686708Y-21153446D01*
X-2661847Y-21123153D01*
X-2631554Y-21098292D01*
X-2596995Y-21079820D01*
X-2559499Y-21068445D01*
X-2514362Y-21064000D01*
X-1775638Y-21064000D01*
X-1730501Y-21068445D01*
X-1730501Y-21068445D01*
G37*
G36*
X-11890501Y-21068445D02*
G01*
X-11853005Y-21079820D01*
X-11818446Y-21098292D01*
X-11788153Y-21123153D01*
X-11763292Y-21153446D01*
X-11744820Y-21188005D01*
X-11733445Y-21225501D01*
X-11729000Y-21270638D01*
X-11729000Y-21909362D01*
X-11733445Y-21954499D01*
X-11744820Y-21991995D01*
X-11763292Y-22026554D01*
X-11788153Y-22056847D01*
X-11818446Y-22081708D01*
X-11853005Y-22100180D01*
X-11890501Y-22111555D01*
X-11935638Y-22116000D01*
X-12674362Y-22116000D01*
X-12719499Y-22111555D01*
X-12756995Y-22100180D01*
X-12791554Y-22081708D01*
X-12821847Y-22056847D01*
X-12846708Y-22026554D01*
X-12865180Y-21991995D01*
X-12876555Y-21954499D01*
X-12881000Y-21909362D01*
X-12881000Y-21270638D01*
X-12876555Y-21225501D01*
X-12865180Y-21188005D01*
X-12846708Y-21153446D01*
X-12821847Y-21123153D01*
X-12791554Y-21098292D01*
X-12756995Y-21079820D01*
X-12719499Y-21068445D01*
X-12674362Y-21064000D01*
X-11935638Y-21064000D01*
X-11890501Y-21068445D01*
X-11890501Y-21068445D01*
G37*
G36*
X-10140501Y-21068445D02*
G01*
X-10103005Y-21079820D01*
X-10068446Y-21098292D01*
X-10038153Y-21123153D01*
X-10013292Y-21153446D01*
X-9994820Y-21188005D01*
X-9983445Y-21225501D01*
X-9979000Y-21270638D01*
X-9979000Y-21909362D01*
X-9983445Y-21954499D01*
X-9994820Y-21991995D01*
X-10013292Y-22026554D01*
X-10038153Y-22056847D01*
X-10068446Y-22081708D01*
X-10103005Y-22100180D01*
X-10140501Y-22111555D01*
X-10185638Y-22116000D01*
X-10924362Y-22116000D01*
X-10969499Y-22111555D01*
X-11006995Y-22100180D01*
X-11041554Y-22081708D01*
X-11071847Y-22056847D01*
X-11096708Y-22026554D01*
X-11115180Y-21991995D01*
X-11126555Y-21954499D01*
X-11131000Y-21909362D01*
X-11131000Y-21270638D01*
X-11126555Y-21225501D01*
X-11115180Y-21188005D01*
X-11096708Y-21153446D01*
X-11071847Y-21123153D01*
X-11041554Y-21098292D01*
X-11006995Y-21079820D01*
X-10969499Y-21068445D01*
X-10924362Y-21064000D01*
X-10185638Y-21064000D01*
X-10140501Y-21068445D01*
X-10140501Y-21068445D01*
G37*
G36*
X14779499Y-21068445D02*
G01*
X14816995Y-21079820D01*
X14851554Y-21098292D01*
X14881847Y-21123153D01*
X14906708Y-21153446D01*
X14925180Y-21188005D01*
X14936555Y-21225501D01*
X14941000Y-21270638D01*
X14941000Y-21909362D01*
X14936555Y-21954499D01*
X14925180Y-21991995D01*
X14906708Y-22026554D01*
X14881847Y-22056847D01*
X14851554Y-22081708D01*
X14816995Y-22100180D01*
X14779499Y-22111555D01*
X14734362Y-22116000D01*
X13995638Y-22116000D01*
X13950501Y-22111555D01*
X13913005Y-22100180D01*
X13878446Y-22081708D01*
X13848153Y-22056847D01*
X13823292Y-22026554D01*
X13804820Y-21991995D01*
X13793445Y-21954499D01*
X13789000Y-21909362D01*
X13789000Y-21270638D01*
X13793445Y-21225501D01*
X13804820Y-21188005D01*
X13823292Y-21153446D01*
X13848153Y-21123153D01*
X13878446Y-21098292D01*
X13913005Y-21079820D01*
X13950501Y-21068445D01*
X13995638Y-21064000D01*
X14734362Y-21064000D01*
X14779499Y-21068445D01*
X14779499Y-21068445D01*
G37*
G36*
X4619499Y-21068445D02*
G01*
X4656995Y-21079820D01*
X4691554Y-21098292D01*
X4721847Y-21123153D01*
X4746708Y-21153446D01*
X4765180Y-21188005D01*
X4776555Y-21225501D01*
X4781000Y-21270638D01*
X4781000Y-21909362D01*
X4776555Y-21954499D01*
X4765180Y-21991995D01*
X4746708Y-22026554D01*
X4721847Y-22056847D01*
X4691554Y-22081708D01*
X4656995Y-22100180D01*
X4619499Y-22111555D01*
X4574362Y-22116000D01*
X3835638Y-22116000D01*
X3790501Y-22111555D01*
X3753005Y-22100180D01*
X3718446Y-22081708D01*
X3688153Y-22056847D01*
X3663292Y-22026554D01*
X3644820Y-21991995D01*
X3633445Y-21954499D01*
X3629000Y-21909362D01*
X3629000Y-21270638D01*
X3633445Y-21225501D01*
X3644820Y-21188005D01*
X3663292Y-21153446D01*
X3688153Y-21123153D01*
X3718446Y-21098292D01*
X3753005Y-21079820D01*
X3790501Y-21068445D01*
X3835638Y-21064000D01*
X4574362Y-21064000D01*
X4619499Y-21068445D01*
X4619499Y-21068445D01*
G37*
G36*
X6369499Y-21068445D02*
G01*
X6406995Y-21079820D01*
X6441554Y-21098292D01*
X6471847Y-21123153D01*
X6496708Y-21153446D01*
X6515180Y-21188005D01*
X6526555Y-21225501D01*
X6531000Y-21270638D01*
X6531000Y-21909362D01*
X6526555Y-21954499D01*
X6515180Y-21991995D01*
X6496708Y-22026554D01*
X6471847Y-22056847D01*
X6441554Y-22081708D01*
X6406995Y-22100180D01*
X6369499Y-22111555D01*
X6324362Y-22116000D01*
X5585638Y-22116000D01*
X5540501Y-22111555D01*
X5503005Y-22100180D01*
X5468446Y-22081708D01*
X5438153Y-22056847D01*
X5413292Y-22026554D01*
X5394820Y-21991995D01*
X5383445Y-21954499D01*
X5379000Y-21909362D01*
X5379000Y-21270638D01*
X5383445Y-21225501D01*
X5394820Y-21188005D01*
X5413292Y-21153446D01*
X5438153Y-21123153D01*
X5468446Y-21098292D01*
X5503005Y-21079820D01*
X5540501Y-21068445D01*
X5585638Y-21064000D01*
X6324362Y-21064000D01*
X6369499Y-21068445D01*
X6369499Y-21068445D01*
G37*
G36*
X-3790501Y-21068445D02*
G01*
X-3753005Y-21079820D01*
X-3718446Y-21098292D01*
X-3688153Y-21123153D01*
X-3663292Y-21153446D01*
X-3644820Y-21188005D01*
X-3633445Y-21225501D01*
X-3629000Y-21270638D01*
X-3629000Y-21909362D01*
X-3633445Y-21954499D01*
X-3644820Y-21991995D01*
X-3663292Y-22026554D01*
X-3688153Y-22056847D01*
X-3718446Y-22081708D01*
X-3753005Y-22100180D01*
X-3790501Y-22111555D01*
X-3835638Y-22116000D01*
X-4574362Y-22116000D01*
X-4619499Y-22111555D01*
X-4656995Y-22100180D01*
X-4691554Y-22081708D01*
X-4721847Y-22056847D01*
X-4746708Y-22026554D01*
X-4765180Y-21991995D01*
X-4776555Y-21954499D01*
X-4781000Y-21909362D01*
X-4781000Y-21270638D01*
X-4776555Y-21225501D01*
X-4765180Y-21188005D01*
X-4746708Y-21153446D01*
X-4721847Y-21123153D01*
X-4691554Y-21098292D01*
X-4656995Y-21079820D01*
X-4619499Y-21068445D01*
X-4574362Y-21064000D01*
X-3835638Y-21064000D01*
X-3790501Y-21068445D01*
X-3790501Y-21068445D01*
G37*
G36*
X-5540501Y-21068445D02*
G01*
X-5503005Y-21079820D01*
X-5468446Y-21098292D01*
X-5438153Y-21123153D01*
X-5413292Y-21153446D01*
X-5394820Y-21188005D01*
X-5383445Y-21225501D01*
X-5379000Y-21270638D01*
X-5379000Y-21909362D01*
X-5383445Y-21954499D01*
X-5394820Y-21991995D01*
X-5413292Y-22026554D01*
X-5438153Y-22056847D01*
X-5468446Y-22081708D01*
X-5503005Y-22100180D01*
X-5540501Y-22111555D01*
X-5585638Y-22116000D01*
X-6324362Y-22116000D01*
X-6369499Y-22111555D01*
X-6406995Y-22100180D01*
X-6441554Y-22081708D01*
X-6471847Y-22056847D01*
X-6496708Y-22026554D01*
X-6515180Y-21991995D01*
X-6526555Y-21954499D01*
X-6531000Y-21909362D01*
X-6531000Y-21270638D01*
X-6526555Y-21225501D01*
X-6515180Y-21188005D01*
X-6496708Y-21153446D01*
X-6471847Y-21123153D01*
X-6441554Y-21098292D01*
X-6406995Y-21079820D01*
X-6369499Y-21068445D01*
X-6324362Y-21064000D01*
X-5585638Y-21064000D01*
X-5540501Y-21068445D01*
X-5540501Y-21068445D01*
G37*
G36*
X-13950501Y-21068445D02*
G01*
X-13913005Y-21079820D01*
X-13878446Y-21098292D01*
X-13848153Y-21123153D01*
X-13823292Y-21153446D01*
X-13804820Y-21188005D01*
X-13793445Y-21225501D01*
X-13789000Y-21270638D01*
X-13789000Y-21909362D01*
X-13793445Y-21954499D01*
X-13804820Y-21991995D01*
X-13823292Y-22026554D01*
X-13848153Y-22056847D01*
X-13878446Y-22081708D01*
X-13913005Y-22100180D01*
X-13950501Y-22111555D01*
X-13995638Y-22116000D01*
X-14734362Y-22116000D01*
X-14779499Y-22111555D01*
X-14816995Y-22100180D01*
X-14851554Y-22081708D01*
X-14881847Y-22056847D01*
X-14906708Y-22026554D01*
X-14925180Y-21991995D01*
X-14936555Y-21954499D01*
X-14941000Y-21909362D01*
X-14941000Y-21270638D01*
X-14936555Y-21225501D01*
X-14925180Y-21188005D01*
X-14906708Y-21153446D01*
X-14881847Y-21123153D01*
X-14851554Y-21098292D01*
X-14816995Y-21079820D01*
X-14779499Y-21068445D01*
X-14734362Y-21064000D01*
X-13995638Y-21064000D01*
X-13950501Y-21068445D01*
X-13950501Y-21068445D01*
G37*
G36*
X-15700501Y-21068445D02*
G01*
X-15663005Y-21079820D01*
X-15628446Y-21098292D01*
X-15598153Y-21123153D01*
X-15573292Y-21153446D01*
X-15554820Y-21188005D01*
X-15543445Y-21225501D01*
X-15539000Y-21270638D01*
X-15539000Y-21909362D01*
X-15543445Y-21954499D01*
X-15554820Y-21991995D01*
X-15573292Y-22026554D01*
X-15598153Y-22056847D01*
X-15628446Y-22081708D01*
X-15663005Y-22100180D01*
X-15700501Y-22111555D01*
X-15745638Y-22116000D01*
X-16484362Y-22116000D01*
X-16529499Y-22111555D01*
X-16566995Y-22100180D01*
X-16601554Y-22081708D01*
X-16631847Y-22056847D01*
X-16656708Y-22026554D01*
X-16675180Y-21991995D01*
X-16686555Y-21954499D01*
X-16691000Y-21909362D01*
X-16691000Y-21270638D01*
X-16686555Y-21225501D01*
X-16675180Y-21188005D01*
X-16656708Y-21153446D01*
X-16631847Y-21123153D01*
X-16601554Y-21098292D01*
X-16566995Y-21079820D01*
X-16529499Y-21068445D01*
X-16484362Y-21064000D01*
X-15745638Y-21064000D01*
X-15700501Y-21068445D01*
X-15700501Y-21068445D01*
G37*
G36*
X16529499Y-21068445D02*
G01*
X16566995Y-21079820D01*
X16601554Y-21098292D01*
X16631847Y-21123153D01*
X16656708Y-21153446D01*
X16675180Y-21188005D01*
X16686555Y-21225501D01*
X16691000Y-21270638D01*
X16691000Y-21909362D01*
X16686555Y-21954499D01*
X16675180Y-21991995D01*
X16656708Y-22026554D01*
X16631847Y-22056847D01*
X16601554Y-22081708D01*
X16566995Y-22100180D01*
X16529499Y-22111555D01*
X16484362Y-22116000D01*
X15745638Y-22116000D01*
X15700501Y-22111555D01*
X15663005Y-22100180D01*
X15628446Y-22081708D01*
X15598153Y-22056847D01*
X15573292Y-22026554D01*
X15554820Y-21991995D01*
X15543445Y-21954499D01*
X15539000Y-21909362D01*
X15539000Y-21270638D01*
X15543445Y-21225501D01*
X15554820Y-21188005D01*
X15573292Y-21153446D01*
X15598153Y-21123153D01*
X15628446Y-21098292D01*
X15663005Y-21079820D01*
X15700501Y-21068445D01*
X15745638Y-21064000D01*
X16484362Y-21064000D01*
X16529499Y-21068445D01*
X16529499Y-21068445D01*
G37*
G36*
X18589499Y-21068445D02*
G01*
X18626995Y-21079820D01*
X18661554Y-21098292D01*
X18691847Y-21123153D01*
X18716708Y-21153446D01*
X18735180Y-21188005D01*
X18746555Y-21225501D01*
X18751000Y-21270638D01*
X18751000Y-21909362D01*
X18746555Y-21954499D01*
X18735180Y-21991995D01*
X18716708Y-22026554D01*
X18691847Y-22056847D01*
X18661554Y-22081708D01*
X18626995Y-22100180D01*
X18589499Y-22111555D01*
X18544362Y-22116000D01*
X17805638Y-22116000D01*
X17760501Y-22111555D01*
X17723005Y-22100180D01*
X17688446Y-22081708D01*
X17658153Y-22056847D01*
X17633292Y-22026554D01*
X17614820Y-21991995D01*
X17603445Y-21954499D01*
X17599000Y-21909362D01*
X17599000Y-21270638D01*
X17603445Y-21225501D01*
X17614820Y-21188005D01*
X17633292Y-21153446D01*
X17658153Y-21123153D01*
X17688446Y-21098292D01*
X17723005Y-21079820D01*
X17760501Y-21068445D01*
X17805638Y-21064000D01*
X18544362Y-21064000D01*
X18589499Y-21068445D01*
X18589499Y-21068445D01*
G37*
G36*
X1380443Y-16885519D02*
G01*
X1446627Y-16892037D01*
X1616466Y-16943557D01*
X1772991Y-17027222D01*
X1808729Y-17056552D01*
X1910186Y-17139814D01*
X1993448Y-17241271D01*
X2022778Y-17277009D01*
X2106443Y-17433534D01*
X2157963Y-17603373D01*
X2175359Y-17780000D01*
X2157963Y-17956627D01*
X2106443Y-18126466D01*
X2022778Y-18282991D01*
X1993448Y-18318729D01*
X1910186Y-18420186D01*
X1808729Y-18503448D01*
X1772991Y-18532778D01*
X1616466Y-18616443D01*
X1446627Y-18667963D01*
X1380443Y-18674481D01*
X1314260Y-18681000D01*
X1225740Y-18681000D01*
X1159557Y-18674481D01*
X1093373Y-18667963D01*
X923534Y-18616443D01*
X767009Y-18532778D01*
X731271Y-18503448D01*
X629814Y-18420186D01*
X546552Y-18318729D01*
X517222Y-18282991D01*
X433557Y-18126466D01*
X382037Y-17956627D01*
X364641Y-17780000D01*
X382037Y-17603373D01*
X433557Y-17433534D01*
X517222Y-17277009D01*
X546552Y-17241271D01*
X629814Y-17139814D01*
X731271Y-17056552D01*
X767009Y-17027222D01*
X923534Y-16943557D01*
X1093373Y-16892037D01*
X1159557Y-16885519D01*
X1225740Y-16879000D01*
X1314260Y-16879000D01*
X1380443Y-16885519D01*
X1380443Y-16885519D01*
G37*
G36*
X-1159557Y-16885519D02*
G01*
X-1093373Y-16892037D01*
X-923534Y-16943557D01*
X-767009Y-17027222D01*
X-731271Y-17056552D01*
X-629814Y-17139814D01*
X-546552Y-17241271D01*
X-517222Y-17277009D01*
X-433557Y-17433534D01*
X-382037Y-17603373D01*
X-364641Y-17780000D01*
X-382037Y-17956627D01*
X-433557Y-18126466D01*
X-517222Y-18282991D01*
X-546552Y-18318729D01*
X-629814Y-18420186D01*
X-731271Y-18503448D01*
X-767009Y-18532778D01*
X-923534Y-18616443D01*
X-1093373Y-18667963D01*
X-1159557Y-18674481D01*
X-1225740Y-18681000D01*
X-1314260Y-18681000D01*
X-1380443Y-18674481D01*
X-1446627Y-18667963D01*
X-1616466Y-18616443D01*
X-1772991Y-18532778D01*
X-1808729Y-18503448D01*
X-1910186Y-18420186D01*
X-1993448Y-18318729D01*
X-2022778Y-18282991D01*
X-2106443Y-18126466D01*
X-2157963Y-17956627D01*
X-2175359Y-17780000D01*
X-2157963Y-17603373D01*
X-2106443Y-17433534D01*
X-2022778Y-17277009D01*
X-1993448Y-17241271D01*
X-1910186Y-17139814D01*
X-1808729Y-17056552D01*
X-1772991Y-17027222D01*
X-1616466Y-16943557D01*
X-1446627Y-16892037D01*
X-1380443Y-16885519D01*
X-1314260Y-16879000D01*
X-1225740Y-16879000D01*
X-1159557Y-16885519D01*
X-1159557Y-16885519D01*
G37*
G36*
X-16399557Y-16885519D02*
G01*
X-16333373Y-16892037D01*
X-16163534Y-16943557D01*
X-16007009Y-17027222D01*
X-15971271Y-17056552D01*
X-15869814Y-17139814D01*
X-15786552Y-17241271D01*
X-15757222Y-17277009D01*
X-15673557Y-17433534D01*
X-15622037Y-17603373D01*
X-15604641Y-17780000D01*
X-15622037Y-17956627D01*
X-15673557Y-18126466D01*
X-15757222Y-18282991D01*
X-15786552Y-18318729D01*
X-15869814Y-18420186D01*
X-15971271Y-18503448D01*
X-16007009Y-18532778D01*
X-16163534Y-18616443D01*
X-16333373Y-18667963D01*
X-16399557Y-18674481D01*
X-16465740Y-18681000D01*
X-16554260Y-18681000D01*
X-16620443Y-18674481D01*
X-16686627Y-18667963D01*
X-16856466Y-18616443D01*
X-17012991Y-18532778D01*
X-17048729Y-18503448D01*
X-17150186Y-18420186D01*
X-17233448Y-18318729D01*
X-17262778Y-18282991D01*
X-17346443Y-18126466D01*
X-17397963Y-17956627D01*
X-17415359Y-17780000D01*
X-17397963Y-17603373D01*
X-17346443Y-17433534D01*
X-17262778Y-17277009D01*
X-17233448Y-17241271D01*
X-17150186Y-17139814D01*
X-17048729Y-17056552D01*
X-17012991Y-17027222D01*
X-16856466Y-16943557D01*
X-16686627Y-16892037D01*
X-16620443Y-16885519D01*
X-16554260Y-16879000D01*
X-16465740Y-16879000D01*
X-16399557Y-16885519D01*
X-16399557Y-16885519D01*
G37*
G36*
X-13859557Y-16885519D02*
G01*
X-13793373Y-16892037D01*
X-13623534Y-16943557D01*
X-13467009Y-17027222D01*
X-13431271Y-17056552D01*
X-13329814Y-17139814D01*
X-13246552Y-17241271D01*
X-13217222Y-17277009D01*
X-13133557Y-17433534D01*
X-13082037Y-17603373D01*
X-13064641Y-17780000D01*
X-13082037Y-17956627D01*
X-13133557Y-18126466D01*
X-13217222Y-18282991D01*
X-13246552Y-18318729D01*
X-13329814Y-18420186D01*
X-13431271Y-18503448D01*
X-13467009Y-18532778D01*
X-13623534Y-18616443D01*
X-13793373Y-18667963D01*
X-13859557Y-18674481D01*
X-13925740Y-18681000D01*
X-14014260Y-18681000D01*
X-14080443Y-18674481D01*
X-14146627Y-18667963D01*
X-14316466Y-18616443D01*
X-14472991Y-18532778D01*
X-14508729Y-18503448D01*
X-14610186Y-18420186D01*
X-14693448Y-18318729D01*
X-14722778Y-18282991D01*
X-14806443Y-18126466D01*
X-14857963Y-17956627D01*
X-14875359Y-17780000D01*
X-14857963Y-17603373D01*
X-14806443Y-17433534D01*
X-14722778Y-17277009D01*
X-14693448Y-17241271D01*
X-14610186Y-17139814D01*
X-14508729Y-17056552D01*
X-14472991Y-17027222D01*
X-14316466Y-16943557D01*
X-14146627Y-16892037D01*
X-14080443Y-16885519D01*
X-14014260Y-16879000D01*
X-13925740Y-16879000D01*
X-13859557Y-16885519D01*
X-13859557Y-16885519D01*
G37*
G36*
X-11319557Y-16885519D02*
G01*
X-11253373Y-16892037D01*
X-11083534Y-16943557D01*
X-10927009Y-17027222D01*
X-10891271Y-17056552D01*
X-10789814Y-17139814D01*
X-10706552Y-17241271D01*
X-10677222Y-17277009D01*
X-10593557Y-17433534D01*
X-10542037Y-17603373D01*
X-10524641Y-17780000D01*
X-10542037Y-17956627D01*
X-10593557Y-18126466D01*
X-10677222Y-18282991D01*
X-10706552Y-18318729D01*
X-10789814Y-18420186D01*
X-10891271Y-18503448D01*
X-10927009Y-18532778D01*
X-11083534Y-18616443D01*
X-11253373Y-18667963D01*
X-11319557Y-18674481D01*
X-11385740Y-18681000D01*
X-11474260Y-18681000D01*
X-11540443Y-18674481D01*
X-11606627Y-18667963D01*
X-11776466Y-18616443D01*
X-11932991Y-18532778D01*
X-11968729Y-18503448D01*
X-12070186Y-18420186D01*
X-12153448Y-18318729D01*
X-12182778Y-18282991D01*
X-12266443Y-18126466D01*
X-12317963Y-17956627D01*
X-12335359Y-17780000D01*
X-12317963Y-17603373D01*
X-12266443Y-17433534D01*
X-12182778Y-17277009D01*
X-12153448Y-17241271D01*
X-12070186Y-17139814D01*
X-11968729Y-17056552D01*
X-11932991Y-17027222D01*
X-11776466Y-16943557D01*
X-11606627Y-16892037D01*
X-11540443Y-16885519D01*
X-11474260Y-16879000D01*
X-11385740Y-16879000D01*
X-11319557Y-16885519D01*
X-11319557Y-16885519D01*
G37*
G36*
X-8779557Y-16885519D02*
G01*
X-8713373Y-16892037D01*
X-8543534Y-16943557D01*
X-8387009Y-17027222D01*
X-8351271Y-17056552D01*
X-8249814Y-17139814D01*
X-8166552Y-17241271D01*
X-8137222Y-17277009D01*
X-8053557Y-17433534D01*
X-8002037Y-17603373D01*
X-7984641Y-17780000D01*
X-8002037Y-17956627D01*
X-8053557Y-18126466D01*
X-8137222Y-18282991D01*
X-8166552Y-18318729D01*
X-8249814Y-18420186D01*
X-8351271Y-18503448D01*
X-8387009Y-18532778D01*
X-8543534Y-18616443D01*
X-8713373Y-18667963D01*
X-8779557Y-18674481D01*
X-8845740Y-18681000D01*
X-8934260Y-18681000D01*
X-9000443Y-18674481D01*
X-9066627Y-18667963D01*
X-9236466Y-18616443D01*
X-9392991Y-18532778D01*
X-9428729Y-18503448D01*
X-9530186Y-18420186D01*
X-9613448Y-18318729D01*
X-9642778Y-18282991D01*
X-9726443Y-18126466D01*
X-9777963Y-17956627D01*
X-9795359Y-17780000D01*
X-9777963Y-17603373D01*
X-9726443Y-17433534D01*
X-9642778Y-17277009D01*
X-9613448Y-17241271D01*
X-9530186Y-17139814D01*
X-9428729Y-17056552D01*
X-9392991Y-17027222D01*
X-9236466Y-16943557D01*
X-9066627Y-16892037D01*
X-9000443Y-16885519D01*
X-8934260Y-16879000D01*
X-8845740Y-16879000D01*
X-8779557Y-16885519D01*
X-8779557Y-16885519D01*
G37*
G36*
X-6239557Y-16885519D02*
G01*
X-6173373Y-16892037D01*
X-6003534Y-16943557D01*
X-5847009Y-17027222D01*
X-5811271Y-17056552D01*
X-5709814Y-17139814D01*
X-5626552Y-17241271D01*
X-5597222Y-17277009D01*
X-5513557Y-17433534D01*
X-5462037Y-17603373D01*
X-5444641Y-17780000D01*
X-5462037Y-17956627D01*
X-5513557Y-18126466D01*
X-5597222Y-18282991D01*
X-5626552Y-18318729D01*
X-5709814Y-18420186D01*
X-5811271Y-18503448D01*
X-5847009Y-18532778D01*
X-6003534Y-18616443D01*
X-6173373Y-18667963D01*
X-6239557Y-18674481D01*
X-6305740Y-18681000D01*
X-6394260Y-18681000D01*
X-6460443Y-18674481D01*
X-6526627Y-18667963D01*
X-6696466Y-18616443D01*
X-6852991Y-18532778D01*
X-6888729Y-18503448D01*
X-6990186Y-18420186D01*
X-7073448Y-18318729D01*
X-7102778Y-18282991D01*
X-7186443Y-18126466D01*
X-7237963Y-17956627D01*
X-7255359Y-17780000D01*
X-7237963Y-17603373D01*
X-7186443Y-17433534D01*
X-7102778Y-17277009D01*
X-7073448Y-17241271D01*
X-6990186Y-17139814D01*
X-6888729Y-17056552D01*
X-6852991Y-17027222D01*
X-6696466Y-16943557D01*
X-6526627Y-16892037D01*
X-6460443Y-16885519D01*
X-6394260Y-16879000D01*
X-6305740Y-16879000D01*
X-6239557Y-16885519D01*
X-6239557Y-16885519D01*
G37*
G36*
X-3699557Y-16885519D02*
G01*
X-3633373Y-16892037D01*
X-3463534Y-16943557D01*
X-3307009Y-17027222D01*
X-3271271Y-17056552D01*
X-3169814Y-17139814D01*
X-3086552Y-17241271D01*
X-3057222Y-17277009D01*
X-2973557Y-17433534D01*
X-2922037Y-17603373D01*
X-2904641Y-17780000D01*
X-2922037Y-17956627D01*
X-2973557Y-18126466D01*
X-3057222Y-18282991D01*
X-3086552Y-18318729D01*
X-3169814Y-18420186D01*
X-3271271Y-18503448D01*
X-3307009Y-18532778D01*
X-3463534Y-18616443D01*
X-3633373Y-18667963D01*
X-3699557Y-18674481D01*
X-3765740Y-18681000D01*
X-3854260Y-18681000D01*
X-3920443Y-18674481D01*
X-3986627Y-18667963D01*
X-4156466Y-18616443D01*
X-4312991Y-18532778D01*
X-4348729Y-18503448D01*
X-4450186Y-18420186D01*
X-4533448Y-18318729D01*
X-4562778Y-18282991D01*
X-4646443Y-18126466D01*
X-4697963Y-17956627D01*
X-4715359Y-17780000D01*
X-4697963Y-17603373D01*
X-4646443Y-17433534D01*
X-4562778Y-17277009D01*
X-4533448Y-17241271D01*
X-4450186Y-17139814D01*
X-4348729Y-17056552D01*
X-4312991Y-17027222D01*
X-4156466Y-16943557D01*
X-3986627Y-16892037D01*
X-3920443Y-16885519D01*
X-3854260Y-16879000D01*
X-3765740Y-16879000D01*
X-3699557Y-16885519D01*
X-3699557Y-16885519D01*
G37*
G36*
X3920443Y-16885519D02*
G01*
X3986627Y-16892037D01*
X4156466Y-16943557D01*
X4312991Y-17027222D01*
X4348729Y-17056552D01*
X4450186Y-17139814D01*
X4533448Y-17241271D01*
X4562778Y-17277009D01*
X4646443Y-17433534D01*
X4697963Y-17603373D01*
X4715359Y-17780000D01*
X4697963Y-17956627D01*
X4646443Y-18126466D01*
X4562778Y-18282991D01*
X4533448Y-18318729D01*
X4450186Y-18420186D01*
X4348729Y-18503448D01*
X4312991Y-18532778D01*
X4156466Y-18616443D01*
X3986627Y-18667963D01*
X3920443Y-18674481D01*
X3854260Y-18681000D01*
X3765740Y-18681000D01*
X3699557Y-18674481D01*
X3633373Y-18667963D01*
X3463534Y-18616443D01*
X3307009Y-18532778D01*
X3271271Y-18503448D01*
X3169814Y-18420186D01*
X3086552Y-18318729D01*
X3057222Y-18282991D01*
X2973557Y-18126466D01*
X2922037Y-17956627D01*
X2904641Y-17780000D01*
X2922037Y-17603373D01*
X2973557Y-17433534D01*
X3057222Y-17277009D01*
X3086552Y-17241271D01*
X3169814Y-17139814D01*
X3271271Y-17056552D01*
X3307009Y-17027222D01*
X3463534Y-16943557D01*
X3633373Y-16892037D01*
X3699557Y-16885519D01*
X3765740Y-16879000D01*
X3854260Y-16879000D01*
X3920443Y-16885519D01*
X3920443Y-16885519D01*
G37*
G36*
X6460443Y-16885519D02*
G01*
X6526627Y-16892037D01*
X6696466Y-16943557D01*
X6852991Y-17027222D01*
X6888729Y-17056552D01*
X6990186Y-17139814D01*
X7073448Y-17241271D01*
X7102778Y-17277009D01*
X7186443Y-17433534D01*
X7237963Y-17603373D01*
X7255359Y-17780000D01*
X7237963Y-17956627D01*
X7186443Y-18126466D01*
X7102778Y-18282991D01*
X7073448Y-18318729D01*
X6990186Y-18420186D01*
X6888729Y-18503448D01*
X6852991Y-18532778D01*
X6696466Y-18616443D01*
X6526627Y-18667963D01*
X6460443Y-18674481D01*
X6394260Y-18681000D01*
X6305740Y-18681000D01*
X6239557Y-18674481D01*
X6173373Y-18667963D01*
X6003534Y-18616443D01*
X5847009Y-18532778D01*
X5811271Y-18503448D01*
X5709814Y-18420186D01*
X5626552Y-18318729D01*
X5597222Y-18282991D01*
X5513557Y-18126466D01*
X5462037Y-17956627D01*
X5444641Y-17780000D01*
X5462037Y-17603373D01*
X5513557Y-17433534D01*
X5597222Y-17277009D01*
X5626552Y-17241271D01*
X5709814Y-17139814D01*
X5811271Y-17056552D01*
X5847009Y-17027222D01*
X6003534Y-16943557D01*
X6173373Y-16892037D01*
X6239557Y-16885519D01*
X6305740Y-16879000D01*
X6394260Y-16879000D01*
X6460443Y-16885519D01*
X6460443Y-16885519D01*
G37*
G36*
X11540443Y-16885519D02*
G01*
X11606627Y-16892037D01*
X11776466Y-16943557D01*
X11932991Y-17027222D01*
X11968729Y-17056552D01*
X12070186Y-17139814D01*
X12153448Y-17241271D01*
X12182778Y-17277009D01*
X12266443Y-17433534D01*
X12317963Y-17603373D01*
X12335359Y-17780000D01*
X12317963Y-17956627D01*
X12266443Y-18126466D01*
X12182778Y-18282991D01*
X12153448Y-18318729D01*
X12070186Y-18420186D01*
X11968729Y-18503448D01*
X11932991Y-18532778D01*
X11776466Y-18616443D01*
X11606627Y-18667963D01*
X11540443Y-18674481D01*
X11474260Y-18681000D01*
X11385740Y-18681000D01*
X11319557Y-18674481D01*
X11253373Y-18667963D01*
X11083534Y-18616443D01*
X10927009Y-18532778D01*
X10891271Y-18503448D01*
X10789814Y-18420186D01*
X10706552Y-18318729D01*
X10677222Y-18282991D01*
X10593557Y-18126466D01*
X10542037Y-17956627D01*
X10524641Y-17780000D01*
X10542037Y-17603373D01*
X10593557Y-17433534D01*
X10677222Y-17277009D01*
X10706552Y-17241271D01*
X10789814Y-17139814D01*
X10891271Y-17056552D01*
X10927009Y-17027222D01*
X11083534Y-16943557D01*
X11253373Y-16892037D01*
X11319557Y-16885519D01*
X11385740Y-16879000D01*
X11474260Y-16879000D01*
X11540443Y-16885519D01*
X11540443Y-16885519D01*
G37*
G36*
X14080443Y-16885519D02*
G01*
X14146627Y-16892037D01*
X14316466Y-16943557D01*
X14472991Y-17027222D01*
X14508729Y-17056552D01*
X14610186Y-17139814D01*
X14693448Y-17241271D01*
X14722778Y-17277009D01*
X14806443Y-17433534D01*
X14857963Y-17603373D01*
X14875359Y-17780000D01*
X14857963Y-17956627D01*
X14806443Y-18126466D01*
X14722778Y-18282991D01*
X14693448Y-18318729D01*
X14610186Y-18420186D01*
X14508729Y-18503448D01*
X14472991Y-18532778D01*
X14316466Y-18616443D01*
X14146627Y-18667963D01*
X14080443Y-18674481D01*
X14014260Y-18681000D01*
X13925740Y-18681000D01*
X13859557Y-18674481D01*
X13793373Y-18667963D01*
X13623534Y-18616443D01*
X13467009Y-18532778D01*
X13431271Y-18503448D01*
X13329814Y-18420186D01*
X13246552Y-18318729D01*
X13217222Y-18282991D01*
X13133557Y-18126466D01*
X13082037Y-17956627D01*
X13064641Y-17780000D01*
X13082037Y-17603373D01*
X13133557Y-17433534D01*
X13217222Y-17277009D01*
X13246552Y-17241271D01*
X13329814Y-17139814D01*
X13431271Y-17056552D01*
X13467009Y-17027222D01*
X13623534Y-16943557D01*
X13793373Y-16892037D01*
X13859557Y-16885519D01*
X13925740Y-16879000D01*
X14014260Y-16879000D01*
X14080443Y-16885519D01*
X14080443Y-16885519D01*
G37*
G36*
X16620443Y-16885519D02*
G01*
X16686627Y-16892037D01*
X16856466Y-16943557D01*
X17012991Y-17027222D01*
X17048729Y-17056552D01*
X17150186Y-17139814D01*
X17233448Y-17241271D01*
X17262778Y-17277009D01*
X17346443Y-17433534D01*
X17397963Y-17603373D01*
X17415359Y-17780000D01*
X17397963Y-17956627D01*
X17346443Y-18126466D01*
X17262778Y-18282991D01*
X17233448Y-18318729D01*
X17150186Y-18420186D01*
X17048729Y-18503448D01*
X17012991Y-18532778D01*
X16856466Y-18616443D01*
X16686627Y-18667963D01*
X16620443Y-18674481D01*
X16554260Y-18681000D01*
X16465740Y-18681000D01*
X16399557Y-18674481D01*
X16333373Y-18667963D01*
X16163534Y-18616443D01*
X16007009Y-18532778D01*
X15971271Y-18503448D01*
X15869814Y-18420186D01*
X15786552Y-18318729D01*
X15757222Y-18282991D01*
X15673557Y-18126466D01*
X15622037Y-17956627D01*
X15604641Y-17780000D01*
X15622037Y-17603373D01*
X15673557Y-17433534D01*
X15757222Y-17277009D01*
X15786552Y-17241271D01*
X15869814Y-17139814D01*
X15971271Y-17056552D01*
X16007009Y-17027222D01*
X16163534Y-16943557D01*
X16333373Y-16892037D01*
X16399557Y-16885519D01*
X16465740Y-16879000D01*
X16554260Y-16879000D01*
X16620443Y-16885519D01*
X16620443Y-16885519D01*
G37*
G36*
X19160443Y-16885519D02*
G01*
X19226627Y-16892037D01*
X19396466Y-16943557D01*
X19552991Y-17027222D01*
X19588729Y-17056552D01*
X19690186Y-17139814D01*
X19773448Y-17241271D01*
X19802778Y-17277009D01*
X19886443Y-17433534D01*
X19937963Y-17603373D01*
X19955359Y-17780000D01*
X19937963Y-17956627D01*
X19886443Y-18126466D01*
X19802778Y-18282991D01*
X19773448Y-18318729D01*
X19690186Y-18420186D01*
X19588729Y-18503448D01*
X19552991Y-18532778D01*
X19396466Y-18616443D01*
X19226627Y-18667963D01*
X19160443Y-18674481D01*
X19094260Y-18681000D01*
X19005740Y-18681000D01*
X18939557Y-18674481D01*
X18873373Y-18667963D01*
X18703534Y-18616443D01*
X18547009Y-18532778D01*
X18511271Y-18503448D01*
X18409814Y-18420186D01*
X18326552Y-18318729D01*
X18297222Y-18282991D01*
X18213557Y-18126466D01*
X18162037Y-17956627D01*
X18144641Y-17780000D01*
X18162037Y-17603373D01*
X18213557Y-17433534D01*
X18297222Y-17277009D01*
X18326552Y-17241271D01*
X18409814Y-17139814D01*
X18511271Y-17056552D01*
X18547009Y-17027222D01*
X18703534Y-16943557D01*
X18873373Y-16892037D01*
X18939557Y-16885519D01*
X19005740Y-16879000D01*
X19094260Y-16879000D01*
X19160443Y-16885519D01*
X19160443Y-16885519D01*
G37*
G36*
X-18149000Y-18681000D02*
G01*
X-19951000Y-18681000D01*
X-19951000Y-16879000D01*
X-18149000Y-16879000D01*
X-18149000Y-18681000D01*
X-18149000Y-18681000D01*
G37*
G36*
X9000443Y-16885519D02*
G01*
X9066627Y-16892037D01*
X9236466Y-16943557D01*
X9392991Y-17027222D01*
X9428729Y-17056552D01*
X9530186Y-17139814D01*
X9613448Y-17241271D01*
X9642778Y-17277009D01*
X9726443Y-17433534D01*
X9777963Y-17603373D01*
X9795359Y-17780000D01*
X9777963Y-17956627D01*
X9726443Y-18126466D01*
X9642778Y-18282991D01*
X9613448Y-18318729D01*
X9530186Y-18420186D01*
X9428729Y-18503448D01*
X9392991Y-18532778D01*
X9236466Y-18616443D01*
X9066627Y-18667963D01*
X9000443Y-18674481D01*
X8934260Y-18681000D01*
X8845740Y-18681000D01*
X8779557Y-18674481D01*
X8713373Y-18667963D01*
X8543534Y-18616443D01*
X8387009Y-18532778D01*
X8351271Y-18503448D01*
X8249814Y-18420186D01*
X8166552Y-18318729D01*
X8137222Y-18282991D01*
X8053557Y-18126466D01*
X8002037Y-17956627D01*
X7984641Y-17780000D01*
X8002037Y-17603373D01*
X8053557Y-17433534D01*
X8137222Y-17277009D01*
X8166552Y-17241271D01*
X8249814Y-17139814D01*
X8351271Y-17056552D01*
X8387009Y-17027222D01*
X8543534Y-16943557D01*
X8713373Y-16892037D01*
X8779557Y-16885519D01*
X8845740Y-16879000D01*
X8934260Y-16879000D01*
X9000443Y-16885519D01*
X9000443Y-16885519D01*
G37*
G36*
X-6239558Y894482D02*
G01*
X-6173373Y887963D01*
X-6003534Y836443D01*
X-5847009Y752778D01*
X-5811271Y723448D01*
X-5709814Y640186D01*
X-5626552Y538729D01*
X-5597222Y502991D01*
X-5513557Y346466D01*
X-5462037Y176627D01*
X-5444641Y0D01*
X-5462037Y-176627D01*
X-5513557Y-346466D01*
X-5597222Y-502991D01*
X-5626552Y-538729D01*
X-5709814Y-640186D01*
X-5811271Y-723448D01*
X-5847009Y-752778D01*
X-6003534Y-836443D01*
X-6173373Y-887963D01*
X-6239557Y-894481D01*
X-6305740Y-901000D01*
X-6394260Y-901000D01*
X-6460443Y-894481D01*
X-6526627Y-887963D01*
X-6696466Y-836443D01*
X-6852991Y-752778D01*
X-6888729Y-723448D01*
X-6990186Y-640186D01*
X-7073448Y-538729D01*
X-7102778Y-502991D01*
X-7186443Y-346466D01*
X-7237963Y-176627D01*
X-7255359Y0D01*
X-7237963Y176627D01*
X-7186443Y346466D01*
X-7102778Y502991D01*
X-7073448Y538729D01*
X-6990186Y640186D01*
X-6888729Y723448D01*
X-6852991Y752778D01*
X-6696466Y836443D01*
X-6526627Y887963D01*
X-6460442Y894482D01*
X-6394260Y901000D01*
X-6305740Y901000D01*
X-6239558Y894482D01*
X-6239558Y894482D01*
G37*
G36*
X3920442Y894482D02*
G01*
X3986627Y887963D01*
X4156466Y836443D01*
X4312991Y752778D01*
X4348729Y723448D01*
X4450186Y640186D01*
X4533448Y538729D01*
X4562778Y502991D01*
X4646443Y346466D01*
X4697963Y176627D01*
X4715359Y0D01*
X4697963Y-176627D01*
X4646443Y-346466D01*
X4562778Y-502991D01*
X4533448Y-538729D01*
X4450186Y-640186D01*
X4348729Y-723448D01*
X4312991Y-752778D01*
X4156466Y-836443D01*
X3986627Y-887963D01*
X3920443Y-894481D01*
X3854260Y-901000D01*
X3765740Y-901000D01*
X3699557Y-894481D01*
X3633373Y-887963D01*
X3463534Y-836443D01*
X3307009Y-752778D01*
X3271271Y-723448D01*
X3169814Y-640186D01*
X3086552Y-538729D01*
X3057222Y-502991D01*
X2973557Y-346466D01*
X2922037Y-176627D01*
X2904641Y0D01*
X2922037Y176627D01*
X2973557Y346466D01*
X3057222Y502991D01*
X3086552Y538729D01*
X3169814Y640186D01*
X3271271Y723448D01*
X3307009Y752778D01*
X3463534Y836443D01*
X3633373Y887963D01*
X3699558Y894482D01*
X3765740Y901000D01*
X3854260Y901000D01*
X3920442Y894482D01*
X3920442Y894482D01*
G37*
G36*
X9000442Y894482D02*
G01*
X9066627Y887963D01*
X9236466Y836443D01*
X9392991Y752778D01*
X9428729Y723448D01*
X9530186Y640186D01*
X9613448Y538729D01*
X9642778Y502991D01*
X9726443Y346466D01*
X9777963Y176627D01*
X9795359Y0D01*
X9777963Y-176627D01*
X9726443Y-346466D01*
X9642778Y-502991D01*
X9613448Y-538729D01*
X9530186Y-640186D01*
X9428729Y-723448D01*
X9392991Y-752778D01*
X9236466Y-836443D01*
X9066627Y-887963D01*
X9000443Y-894481D01*
X8934260Y-901000D01*
X8845740Y-901000D01*
X8779557Y-894481D01*
X8713373Y-887963D01*
X8543534Y-836443D01*
X8387009Y-752778D01*
X8351271Y-723448D01*
X8249814Y-640186D01*
X8166552Y-538729D01*
X8137222Y-502991D01*
X8053557Y-346466D01*
X8002037Y-176627D01*
X7984641Y0D01*
X8002037Y176627D01*
X8053557Y346466D01*
X8137222Y502991D01*
X8166552Y538729D01*
X8249814Y640186D01*
X8351271Y723448D01*
X8387009Y752778D01*
X8543534Y836443D01*
X8713373Y887963D01*
X8779558Y894482D01*
X8845740Y901000D01*
X8934260Y901000D01*
X9000442Y894482D01*
X9000442Y894482D01*
G37*
G36*
X11540442Y894482D02*
G01*
X11606627Y887963D01*
X11776466Y836443D01*
X11932991Y752778D01*
X11968729Y723448D01*
X12070186Y640186D01*
X12153448Y538729D01*
X12182778Y502991D01*
X12266443Y346466D01*
X12317963Y176627D01*
X12335359Y0D01*
X12317963Y-176627D01*
X12266443Y-346466D01*
X12182778Y-502991D01*
X12153448Y-538729D01*
X12070186Y-640186D01*
X11968729Y-723448D01*
X11932991Y-752778D01*
X11776466Y-836443D01*
X11606627Y-887963D01*
X11540443Y-894481D01*
X11474260Y-901000D01*
X11385740Y-901000D01*
X11319557Y-894481D01*
X11253373Y-887963D01*
X11083534Y-836443D01*
X10927009Y-752778D01*
X10891271Y-723448D01*
X10789814Y-640186D01*
X10706552Y-538729D01*
X10677222Y-502991D01*
X10593557Y-346466D01*
X10542037Y-176627D01*
X10524641Y0D01*
X10542037Y176627D01*
X10593557Y346466D01*
X10677222Y502991D01*
X10706552Y538729D01*
X10789814Y640186D01*
X10891271Y723448D01*
X10927009Y752778D01*
X11083534Y836443D01*
X11253373Y887963D01*
X11319558Y894482D01*
X11385740Y901000D01*
X11474260Y901000D01*
X11540442Y894482D01*
X11540442Y894482D01*
G37*
G36*
X14080442Y894482D02*
G01*
X14146627Y887963D01*
X14316466Y836443D01*
X14472991Y752778D01*
X14508729Y723448D01*
X14610186Y640186D01*
X14693448Y538729D01*
X14722778Y502991D01*
X14806443Y346466D01*
X14857963Y176627D01*
X14875359Y0D01*
X14857963Y-176627D01*
X14806443Y-346466D01*
X14722778Y-502991D01*
X14693448Y-538729D01*
X14610186Y-640186D01*
X14508729Y-723448D01*
X14472991Y-752778D01*
X14316466Y-836443D01*
X14146627Y-887963D01*
X14080443Y-894481D01*
X14014260Y-901000D01*
X13925740Y-901000D01*
X13859557Y-894481D01*
X13793373Y-887963D01*
X13623534Y-836443D01*
X13467009Y-752778D01*
X13431271Y-723448D01*
X13329814Y-640186D01*
X13246552Y-538729D01*
X13217222Y-502991D01*
X13133557Y-346466D01*
X13082037Y-176627D01*
X13064641Y0D01*
X13082037Y176627D01*
X13133557Y346466D01*
X13217222Y502991D01*
X13246552Y538729D01*
X13329814Y640186D01*
X13431271Y723448D01*
X13467009Y752778D01*
X13623534Y836443D01*
X13793373Y887963D01*
X13859558Y894482D01*
X13925740Y901000D01*
X14014260Y901000D01*
X14080442Y894482D01*
X14080442Y894482D01*
G37*
G36*
X19160442Y894482D02*
G01*
X19226627Y887963D01*
X19396466Y836443D01*
X19552991Y752778D01*
X19588729Y723448D01*
X19690186Y640186D01*
X19773448Y538729D01*
X19802778Y502991D01*
X19886443Y346466D01*
X19937963Y176627D01*
X19955359Y0D01*
X19937963Y-176627D01*
X19886443Y-346466D01*
X19802778Y-502991D01*
X19773448Y-538729D01*
X19690186Y-640186D01*
X19588729Y-723448D01*
X19552991Y-752778D01*
X19396466Y-836443D01*
X19226627Y-887963D01*
X19160443Y-894481D01*
X19094260Y-901000D01*
X19005740Y-901000D01*
X18939557Y-894481D01*
X18873373Y-887963D01*
X18703534Y-836443D01*
X18547009Y-752778D01*
X18511271Y-723448D01*
X18409814Y-640186D01*
X18326552Y-538729D01*
X18297222Y-502991D01*
X18213557Y-346466D01*
X18162037Y-176627D01*
X18144641Y0D01*
X18162037Y176627D01*
X18213557Y346466D01*
X18297222Y502991D01*
X18326552Y538729D01*
X18409814Y640186D01*
X18511271Y723448D01*
X18547009Y752778D01*
X18703534Y836443D01*
X18873373Y887963D01*
X18939558Y894482D01*
X19005740Y901000D01*
X19094260Y901000D01*
X19160442Y894482D01*
X19160442Y894482D01*
G37*
G36*
X6460442Y894482D02*
G01*
X6526627Y887963D01*
X6696466Y836443D01*
X6852991Y752778D01*
X6888729Y723448D01*
X6990186Y640186D01*
X7073448Y538729D01*
X7102778Y502991D01*
X7186443Y346466D01*
X7237963Y176627D01*
X7255359Y0D01*
X7237963Y-176627D01*
X7186443Y-346466D01*
X7102778Y-502991D01*
X7073448Y-538729D01*
X6990186Y-640186D01*
X6888729Y-723448D01*
X6852991Y-752778D01*
X6696466Y-836443D01*
X6526627Y-887963D01*
X6460443Y-894481D01*
X6394260Y-901000D01*
X6305740Y-901000D01*
X6239557Y-894481D01*
X6173373Y-887963D01*
X6003534Y-836443D01*
X5847009Y-752778D01*
X5811271Y-723448D01*
X5709814Y-640186D01*
X5626552Y-538729D01*
X5597222Y-502991D01*
X5513557Y-346466D01*
X5462037Y-176627D01*
X5444641Y0D01*
X5462037Y176627D01*
X5513557Y346466D01*
X5597222Y502991D01*
X5626552Y538729D01*
X5709814Y640186D01*
X5811271Y723448D01*
X5847009Y752778D01*
X6003534Y836443D01*
X6173373Y887963D01*
X6239558Y894482D01*
X6305740Y901000D01*
X6394260Y901000D01*
X6460442Y894482D01*
X6460442Y894482D01*
G37*
G36*
X16620442Y894482D02*
G01*
X16686627Y887963D01*
X16856466Y836443D01*
X17012991Y752778D01*
X17048729Y723448D01*
X17150186Y640186D01*
X17233448Y538729D01*
X17262778Y502991D01*
X17346443Y346466D01*
X17397963Y176627D01*
X17415359Y0D01*
X17397963Y-176627D01*
X17346443Y-346466D01*
X17262778Y-502991D01*
X17233448Y-538729D01*
X17150186Y-640186D01*
X17048729Y-723448D01*
X17012991Y-752778D01*
X16856466Y-836443D01*
X16686627Y-887963D01*
X16620443Y-894481D01*
X16554260Y-901000D01*
X16465740Y-901000D01*
X16399557Y-894481D01*
X16333373Y-887963D01*
X16163534Y-836443D01*
X16007009Y-752778D01*
X15971271Y-723448D01*
X15869814Y-640186D01*
X15786552Y-538729D01*
X15757222Y-502991D01*
X15673557Y-346466D01*
X15622037Y-176627D01*
X15604641Y0D01*
X15622037Y176627D01*
X15673557Y346466D01*
X15757222Y502991D01*
X15786552Y538729D01*
X15869814Y640186D01*
X15971271Y723448D01*
X16007009Y752778D01*
X16163534Y836443D01*
X16333373Y887963D01*
X16399558Y894482D01*
X16465740Y901000D01*
X16554260Y901000D01*
X16620442Y894482D01*
X16620442Y894482D01*
G37*
G36*
X-13859558Y894482D02*
G01*
X-13793373Y887963D01*
X-13623534Y836443D01*
X-13467009Y752778D01*
X-13431271Y723448D01*
X-13329814Y640186D01*
X-13246552Y538729D01*
X-13217222Y502991D01*
X-13133557Y346466D01*
X-13082037Y176627D01*
X-13064641Y0D01*
X-13082037Y-176627D01*
X-13133557Y-346466D01*
X-13217222Y-502991D01*
X-13246552Y-538729D01*
X-13329814Y-640186D01*
X-13431271Y-723448D01*
X-13467009Y-752778D01*
X-13623534Y-836443D01*
X-13793373Y-887963D01*
X-13859557Y-894481D01*
X-13925740Y-901000D01*
X-14014260Y-901000D01*
X-14080443Y-894481D01*
X-14146627Y-887963D01*
X-14316466Y-836443D01*
X-14472991Y-752778D01*
X-14508729Y-723448D01*
X-14610186Y-640186D01*
X-14693448Y-538729D01*
X-14722778Y-502991D01*
X-14806443Y-346466D01*
X-14857963Y-176627D01*
X-14875359Y0D01*
X-14857963Y176627D01*
X-14806443Y346466D01*
X-14722778Y502991D01*
X-14693448Y538729D01*
X-14610186Y640186D01*
X-14508729Y723448D01*
X-14472991Y752778D01*
X-14316466Y836443D01*
X-14146627Y887963D01*
X-14080442Y894482D01*
X-14014260Y901000D01*
X-13925740Y901000D01*
X-13859558Y894482D01*
X-13859558Y894482D01*
G37*
G36*
X-11319558Y894482D02*
G01*
X-11253373Y887963D01*
X-11083534Y836443D01*
X-10927009Y752778D01*
X-10891271Y723448D01*
X-10789814Y640186D01*
X-10706552Y538729D01*
X-10677222Y502991D01*
X-10593557Y346466D01*
X-10542037Y176627D01*
X-10524641Y0D01*
X-10542037Y-176627D01*
X-10593557Y-346466D01*
X-10677222Y-502991D01*
X-10706552Y-538729D01*
X-10789814Y-640186D01*
X-10891271Y-723448D01*
X-10927009Y-752778D01*
X-11083534Y-836443D01*
X-11253373Y-887963D01*
X-11319557Y-894481D01*
X-11385740Y-901000D01*
X-11474260Y-901000D01*
X-11540443Y-894481D01*
X-11606627Y-887963D01*
X-11776466Y-836443D01*
X-11932991Y-752778D01*
X-11968729Y-723448D01*
X-12070186Y-640186D01*
X-12153448Y-538729D01*
X-12182778Y-502991D01*
X-12266443Y-346466D01*
X-12317963Y-176627D01*
X-12335359Y0D01*
X-12317963Y176627D01*
X-12266443Y346466D01*
X-12182778Y502991D01*
X-12153448Y538729D01*
X-12070186Y640186D01*
X-11968729Y723448D01*
X-11932991Y752778D01*
X-11776466Y836443D01*
X-11606627Y887963D01*
X-11540442Y894482D01*
X-11474260Y901000D01*
X-11385740Y901000D01*
X-11319558Y894482D01*
X-11319558Y894482D01*
G37*
G36*
X-8779558Y894482D02*
G01*
X-8713373Y887963D01*
X-8543534Y836443D01*
X-8387009Y752778D01*
X-8351271Y723448D01*
X-8249814Y640186D01*
X-8166552Y538729D01*
X-8137222Y502991D01*
X-8053557Y346466D01*
X-8002037Y176627D01*
X-7984641Y0D01*
X-8002037Y-176627D01*
X-8053557Y-346466D01*
X-8137222Y-502991D01*
X-8166552Y-538729D01*
X-8249814Y-640186D01*
X-8351271Y-723448D01*
X-8387009Y-752778D01*
X-8543534Y-836443D01*
X-8713373Y-887963D01*
X-8779557Y-894481D01*
X-8845740Y-901000D01*
X-8934260Y-901000D01*
X-9000443Y-894481D01*
X-9066627Y-887963D01*
X-9236466Y-836443D01*
X-9392991Y-752778D01*
X-9428729Y-723448D01*
X-9530186Y-640186D01*
X-9613448Y-538729D01*
X-9642778Y-502991D01*
X-9726443Y-346466D01*
X-9777963Y-176627D01*
X-9795359Y0D01*
X-9777963Y176627D01*
X-9726443Y346466D01*
X-9642778Y502991D01*
X-9613448Y538729D01*
X-9530186Y640186D01*
X-9428729Y723448D01*
X-9392991Y752778D01*
X-9236466Y836443D01*
X-9066627Y887963D01*
X-9000442Y894482D01*
X-8934260Y901000D01*
X-8845740Y901000D01*
X-8779558Y894482D01*
X-8779558Y894482D01*
G37*
G36*
X-3699558Y894482D02*
G01*
X-3633373Y887963D01*
X-3463534Y836443D01*
X-3307009Y752778D01*
X-3271271Y723448D01*
X-3169814Y640186D01*
X-3086552Y538729D01*
X-3057222Y502991D01*
X-2973557Y346466D01*
X-2922037Y176627D01*
X-2904641Y0D01*
X-2922037Y-176627D01*
X-2973557Y-346466D01*
X-3057222Y-502991D01*
X-3086552Y-538729D01*
X-3169814Y-640186D01*
X-3271271Y-723448D01*
X-3307009Y-752778D01*
X-3463534Y-836443D01*
X-3633373Y-887963D01*
X-3699557Y-894481D01*
X-3765740Y-901000D01*
X-3854260Y-901000D01*
X-3920443Y-894481D01*
X-3986627Y-887963D01*
X-4156466Y-836443D01*
X-4312991Y-752778D01*
X-4348729Y-723448D01*
X-4450186Y-640186D01*
X-4533448Y-538729D01*
X-4562778Y-502991D01*
X-4646443Y-346466D01*
X-4697963Y-176627D01*
X-4715359Y0D01*
X-4697963Y176627D01*
X-4646443Y346466D01*
X-4562778Y502991D01*
X-4533448Y538729D01*
X-4450186Y640186D01*
X-4348729Y723448D01*
X-4312991Y752778D01*
X-4156466Y836443D01*
X-3986627Y887963D01*
X-3920442Y894482D01*
X-3854260Y901000D01*
X-3765740Y901000D01*
X-3699558Y894482D01*
X-3699558Y894482D01*
G37*
G36*
X-1159558Y894482D02*
G01*
X-1093373Y887963D01*
X-923534Y836443D01*
X-767009Y752778D01*
X-731271Y723448D01*
X-629814Y640186D01*
X-546552Y538729D01*
X-517222Y502991D01*
X-433557Y346466D01*
X-382037Y176627D01*
X-364641Y0D01*
X-382037Y-176627D01*
X-433557Y-346466D01*
X-517222Y-502991D01*
X-546552Y-538729D01*
X-629814Y-640186D01*
X-731271Y-723448D01*
X-767009Y-752778D01*
X-923534Y-836443D01*
X-1093373Y-887963D01*
X-1159557Y-894481D01*
X-1225740Y-901000D01*
X-1314260Y-901000D01*
X-1380443Y-894481D01*
X-1446627Y-887963D01*
X-1616466Y-836443D01*
X-1772991Y-752778D01*
X-1808729Y-723448D01*
X-1910186Y-640186D01*
X-1993448Y-538729D01*
X-2022778Y-502991D01*
X-2106443Y-346466D01*
X-2157963Y-176627D01*
X-2175359Y0D01*
X-2157963Y176627D01*
X-2106443Y346466D01*
X-2022778Y502991D01*
X-1993448Y538729D01*
X-1910186Y640186D01*
X-1808729Y723448D01*
X-1772991Y752778D01*
X-1616466Y836443D01*
X-1446627Y887963D01*
X-1380442Y894482D01*
X-1314260Y901000D01*
X-1225740Y901000D01*
X-1159558Y894482D01*
X-1159558Y894482D01*
G37*
G36*
X1380442Y894482D02*
G01*
X1446627Y887963D01*
X1616466Y836443D01*
X1772991Y752778D01*
X1808729Y723448D01*
X1910186Y640186D01*
X1993448Y538729D01*
X2022778Y502991D01*
X2106443Y346466D01*
X2157963Y176627D01*
X2175359Y0D01*
X2157963Y-176627D01*
X2106443Y-346466D01*
X2022778Y-502991D01*
X1993448Y-538729D01*
X1910186Y-640186D01*
X1808729Y-723448D01*
X1772991Y-752778D01*
X1616466Y-836443D01*
X1446627Y-887963D01*
X1380443Y-894481D01*
X1314260Y-901000D01*
X1225740Y-901000D01*
X1159557Y-894481D01*
X1093373Y-887963D01*
X923534Y-836443D01*
X767009Y-752778D01*
X731271Y-723448D01*
X629814Y-640186D01*
X546552Y-538729D01*
X517222Y-502991D01*
X433557Y-346466D01*
X382037Y-176627D01*
X364641Y0D01*
X382037Y176627D01*
X433557Y346466D01*
X517222Y502991D01*
X546552Y538729D01*
X629814Y640186D01*
X731271Y723448D01*
X767009Y752778D01*
X923534Y836443D01*
X1093373Y887963D01*
X1159558Y894482D01*
X1225740Y901000D01*
X1314260Y901000D01*
X1380442Y894482D01*
X1380442Y894482D01*
G37*
G36*
X-18149000Y-901000D02*
G01*
X-19951000Y-901000D01*
X-19951000Y901000D01*
X-18149000Y901000D01*
X-18149000Y-901000D01*
X-18149000Y-901000D01*
G37*
G36*
X-16399558Y894482D02*
G01*
X-16333373Y887963D01*
X-16163534Y836443D01*
X-16007009Y752778D01*
X-15971271Y723448D01*
X-15869814Y640186D01*
X-15786552Y538729D01*
X-15757222Y502991D01*
X-15673557Y346466D01*
X-15622037Y176627D01*
X-15604641Y0D01*
X-15622037Y-176627D01*
X-15673557Y-346466D01*
X-15757222Y-502991D01*
X-15786552Y-538729D01*
X-15869814Y-640186D01*
X-15971271Y-723448D01*
X-16007009Y-752778D01*
X-16163534Y-836443D01*
X-16333373Y-887963D01*
X-16399557Y-894481D01*
X-16465740Y-901000D01*
X-16554260Y-901000D01*
X-16620443Y-894481D01*
X-16686627Y-887963D01*
X-16856466Y-836443D01*
X-17012991Y-752778D01*
X-17048729Y-723448D01*
X-17150186Y-640186D01*
X-17233448Y-538729D01*
X-17262778Y-502991D01*
X-17346443Y-346466D01*
X-17397963Y-176627D01*
X-17415359Y0D01*
X-17397963Y176627D01*
X-17346443Y346466D01*
X-17262778Y502991D01*
X-17233448Y538729D01*
X-17150186Y640186D01*
X-17048729Y723448D01*
X-17012991Y752778D01*
X-16856466Y836443D01*
X-16686627Y887963D01*
X-16620442Y894482D01*
X-16554260Y901000D01*
X-16465740Y901000D01*
X-16399558Y894482D01*
X-16399558Y894482D01*
G37*
G36*
X-3699558Y7244482D02*
G01*
X-3633373Y7237963D01*
X-3463534Y7186443D01*
X-3307009Y7102778D01*
X-3271271Y7073448D01*
X-3169814Y6990186D01*
X-3086552Y6888729D01*
X-3057222Y6852991D01*
X-2973557Y6696466D01*
X-2922037Y6526627D01*
X-2904641Y6350000D01*
X-2922037Y6173373D01*
X-2973557Y6003534D01*
X-3057222Y5847009D01*
X-3086552Y5811271D01*
X-3169814Y5709814D01*
X-3271271Y5626552D01*
X-3307009Y5597222D01*
X-3463534Y5513557D01*
X-3633373Y5462037D01*
X-3699558Y5455518D01*
X-3765740Y5449000D01*
X-3854260Y5449000D01*
X-3920442Y5455518D01*
X-3986627Y5462037D01*
X-4156466Y5513557D01*
X-4312991Y5597222D01*
X-4348729Y5626552D01*
X-4450186Y5709814D01*
X-4533448Y5811271D01*
X-4562778Y5847009D01*
X-4646443Y6003534D01*
X-4697963Y6173373D01*
X-4715359Y6350000D01*
X-4697963Y6526627D01*
X-4646443Y6696466D01*
X-4562778Y6852991D01*
X-4533448Y6888729D01*
X-4450186Y6990186D01*
X-4348729Y7073448D01*
X-4312991Y7102778D01*
X-4156466Y7186443D01*
X-3986627Y7237963D01*
X-3920442Y7244482D01*
X-3854260Y7251000D01*
X-3765740Y7251000D01*
X-3699558Y7244482D01*
X-3699558Y7244482D01*
G37*
G36*
X-6239558Y7244482D02*
G01*
X-6173373Y7237963D01*
X-6003534Y7186443D01*
X-5847009Y7102778D01*
X-5811271Y7073448D01*
X-5709814Y6990186D01*
X-5626552Y6888729D01*
X-5597222Y6852991D01*
X-5513557Y6696466D01*
X-5462037Y6526627D01*
X-5444641Y6350000D01*
X-5462037Y6173373D01*
X-5513557Y6003534D01*
X-5597222Y5847009D01*
X-5626552Y5811271D01*
X-5709814Y5709814D01*
X-5811271Y5626552D01*
X-5847009Y5597222D01*
X-6003534Y5513557D01*
X-6173373Y5462037D01*
X-6239558Y5455518D01*
X-6305740Y5449000D01*
X-6394260Y5449000D01*
X-6460442Y5455518D01*
X-6526627Y5462037D01*
X-6696466Y5513557D01*
X-6852991Y5597222D01*
X-6888729Y5626552D01*
X-6990186Y5709814D01*
X-7073448Y5811271D01*
X-7102778Y5847009D01*
X-7186443Y6003534D01*
X-7237963Y6173373D01*
X-7255359Y6350000D01*
X-7237963Y6526627D01*
X-7186443Y6696466D01*
X-7102778Y6852991D01*
X-7073448Y6888729D01*
X-6990186Y6990186D01*
X-6888729Y7073448D01*
X-6852991Y7102778D01*
X-6696466Y7186443D01*
X-6526627Y7237963D01*
X-6460442Y7244482D01*
X-6394260Y7251000D01*
X-6305740Y7251000D01*
X-6239558Y7244482D01*
X-6239558Y7244482D01*
G37*
G36*
X-8779558Y7244482D02*
G01*
X-8713373Y7237963D01*
X-8543534Y7186443D01*
X-8387009Y7102778D01*
X-8351271Y7073448D01*
X-8249814Y6990186D01*
X-8166552Y6888729D01*
X-8137222Y6852991D01*
X-8053557Y6696466D01*
X-8002037Y6526627D01*
X-7984641Y6350000D01*
X-8002037Y6173373D01*
X-8053557Y6003534D01*
X-8137222Y5847009D01*
X-8166552Y5811271D01*
X-8249814Y5709814D01*
X-8351271Y5626552D01*
X-8387009Y5597222D01*
X-8543534Y5513557D01*
X-8713373Y5462037D01*
X-8779558Y5455518D01*
X-8845740Y5449000D01*
X-8934260Y5449000D01*
X-9000442Y5455518D01*
X-9066627Y5462037D01*
X-9236466Y5513557D01*
X-9392991Y5597222D01*
X-9428729Y5626552D01*
X-9530186Y5709814D01*
X-9613448Y5811271D01*
X-9642778Y5847009D01*
X-9726443Y6003534D01*
X-9777963Y6173373D01*
X-9795359Y6350000D01*
X-9777963Y6526627D01*
X-9726443Y6696466D01*
X-9642778Y6852991D01*
X-9613448Y6888729D01*
X-9530186Y6990186D01*
X-9428729Y7073448D01*
X-9392991Y7102778D01*
X-9236466Y7186443D01*
X-9066627Y7237963D01*
X-9000442Y7244482D01*
X-8934260Y7251000D01*
X-8845740Y7251000D01*
X-8779558Y7244482D01*
X-8779558Y7244482D01*
G37*
G36*
X-11319558Y7244482D02*
G01*
X-11253373Y7237963D01*
X-11083534Y7186443D01*
X-10927009Y7102778D01*
X-10891271Y7073448D01*
X-10789814Y6990186D01*
X-10706552Y6888729D01*
X-10677222Y6852991D01*
X-10593557Y6696466D01*
X-10542037Y6526627D01*
X-10524641Y6350000D01*
X-10542037Y6173373D01*
X-10593557Y6003534D01*
X-10677222Y5847009D01*
X-10706552Y5811271D01*
X-10789814Y5709814D01*
X-10891271Y5626552D01*
X-10927009Y5597222D01*
X-11083534Y5513557D01*
X-11253373Y5462037D01*
X-11319558Y5455518D01*
X-11385740Y5449000D01*
X-11474260Y5449000D01*
X-11540442Y5455518D01*
X-11606627Y5462037D01*
X-11776466Y5513557D01*
X-11932991Y5597222D01*
X-11968729Y5626552D01*
X-12070186Y5709814D01*
X-12153448Y5811271D01*
X-12182778Y5847009D01*
X-12266443Y6003534D01*
X-12317963Y6173373D01*
X-12335359Y6350000D01*
X-12317963Y6526627D01*
X-12266443Y6696466D01*
X-12182778Y6852991D01*
X-12153448Y6888729D01*
X-12070186Y6990186D01*
X-11968729Y7073448D01*
X-11932991Y7102778D01*
X-11776466Y7186443D01*
X-11606627Y7237963D01*
X-11540442Y7244482D01*
X-11474260Y7251000D01*
X-11385740Y7251000D01*
X-11319558Y7244482D01*
X-11319558Y7244482D01*
G37*
G36*
X-13859558Y7244482D02*
G01*
X-13793373Y7237963D01*
X-13623534Y7186443D01*
X-13467009Y7102778D01*
X-13431271Y7073448D01*
X-13329814Y6990186D01*
X-13246552Y6888729D01*
X-13217222Y6852991D01*
X-13133557Y6696466D01*
X-13082037Y6526627D01*
X-13064641Y6350000D01*
X-13082037Y6173373D01*
X-13133557Y6003534D01*
X-13217222Y5847009D01*
X-13246552Y5811271D01*
X-13329814Y5709814D01*
X-13431271Y5626552D01*
X-13467009Y5597222D01*
X-13623534Y5513557D01*
X-13793373Y5462037D01*
X-13859558Y5455518D01*
X-13925740Y5449000D01*
X-14014260Y5449000D01*
X-14080442Y5455518D01*
X-14146627Y5462037D01*
X-14316466Y5513557D01*
X-14472991Y5597222D01*
X-14508729Y5626552D01*
X-14610186Y5709814D01*
X-14693448Y5811271D01*
X-14722778Y5847009D01*
X-14806443Y6003534D01*
X-14857963Y6173373D01*
X-14875359Y6350000D01*
X-14857963Y6526627D01*
X-14806443Y6696466D01*
X-14722778Y6852991D01*
X-14693448Y6888729D01*
X-14610186Y6990186D01*
X-14508729Y7073448D01*
X-14472991Y7102778D01*
X-14316466Y7186443D01*
X-14146627Y7237963D01*
X-14080442Y7244482D01*
X-14014260Y7251000D01*
X-13925740Y7251000D01*
X-13859558Y7244482D01*
X-13859558Y7244482D01*
G37*
G36*
X-16399558Y7244482D02*
G01*
X-16333373Y7237963D01*
X-16163534Y7186443D01*
X-16007009Y7102778D01*
X-15971271Y7073448D01*
X-15869814Y6990186D01*
X-15786552Y6888729D01*
X-15757222Y6852991D01*
X-15673557Y6696466D01*
X-15622037Y6526627D01*
X-15604641Y6350000D01*
X-15622037Y6173373D01*
X-15673557Y6003534D01*
X-15757222Y5847009D01*
X-15786552Y5811271D01*
X-15869814Y5709814D01*
X-15971271Y5626552D01*
X-16007009Y5597222D01*
X-16163534Y5513557D01*
X-16333373Y5462037D01*
X-16399558Y5455518D01*
X-16465740Y5449000D01*
X-16554260Y5449000D01*
X-16620442Y5455518D01*
X-16686627Y5462037D01*
X-16856466Y5513557D01*
X-17012991Y5597222D01*
X-17048729Y5626552D01*
X-17150186Y5709814D01*
X-17233448Y5811271D01*
X-17262778Y5847009D01*
X-17346443Y6003534D01*
X-17397963Y6173373D01*
X-17415359Y6350000D01*
X-17397963Y6526627D01*
X-17346443Y6696466D01*
X-17262778Y6852991D01*
X-17233448Y6888729D01*
X-17150186Y6990186D01*
X-17048729Y7073448D01*
X-17012991Y7102778D01*
X-16856466Y7186443D01*
X-16686627Y7237963D01*
X-16620442Y7244482D01*
X-16554260Y7251000D01*
X-16465740Y7251000D01*
X-16399558Y7244482D01*
X-16399558Y7244482D01*
G37*
G36*
X-18149000Y5449000D02*
G01*
X-19951000Y5449000D01*
X-19951000Y7251000D01*
X-18149000Y7251000D01*
X-18149000Y5449000D01*
X-18149000Y5449000D01*
G37*
G36*
X-1159558Y7244482D02*
G01*
X-1093373Y7237963D01*
X-923534Y7186443D01*
X-767009Y7102778D01*
X-731271Y7073448D01*
X-629814Y6990186D01*
X-546552Y6888729D01*
X-517222Y6852991D01*
X-433557Y6696466D01*
X-382037Y6526627D01*
X-364641Y6350000D01*
X-382037Y6173373D01*
X-433557Y6003534D01*
X-517222Y5847009D01*
X-546552Y5811271D01*
X-629814Y5709814D01*
X-731271Y5626552D01*
X-767009Y5597222D01*
X-923534Y5513557D01*
X-1093373Y5462037D01*
X-1159558Y5455518D01*
X-1225740Y5449000D01*
X-1314260Y5449000D01*
X-1380442Y5455518D01*
X-1446627Y5462037D01*
X-1616466Y5513557D01*
X-1772991Y5597222D01*
X-1808729Y5626552D01*
X-1910186Y5709814D01*
X-1993448Y5811271D01*
X-2022778Y5847009D01*
X-2106443Y6003534D01*
X-2157963Y6173373D01*
X-2175359Y6350000D01*
X-2157963Y6526627D01*
X-2106443Y6696466D01*
X-2022778Y6852991D01*
X-1993448Y6888729D01*
X-1910186Y6990186D01*
X-1808729Y7073448D01*
X-1772991Y7102778D01*
X-1616466Y7186443D01*
X-1446627Y7237963D01*
X-1380442Y7244482D01*
X-1314260Y7251000D01*
X-1225740Y7251000D01*
X-1159558Y7244482D01*
X-1159558Y7244482D01*
G37*
G36*
X19160442Y7244482D02*
G01*
X19226627Y7237963D01*
X19396466Y7186443D01*
X19552991Y7102778D01*
X19588729Y7073448D01*
X19690186Y6990186D01*
X19773448Y6888729D01*
X19802778Y6852991D01*
X19886443Y6696466D01*
X19937963Y6526627D01*
X19955359Y6350000D01*
X19937963Y6173373D01*
X19886443Y6003534D01*
X19802778Y5847009D01*
X19773448Y5811271D01*
X19690186Y5709814D01*
X19588729Y5626552D01*
X19552991Y5597222D01*
X19396466Y5513557D01*
X19226627Y5462037D01*
X19160442Y5455518D01*
X19094260Y5449000D01*
X19005740Y5449000D01*
X18939558Y5455518D01*
X18873373Y5462037D01*
X18703534Y5513557D01*
X18547009Y5597222D01*
X18511271Y5626552D01*
X18409814Y5709814D01*
X18326552Y5811271D01*
X18297222Y5847009D01*
X18213557Y6003534D01*
X18162037Y6173373D01*
X18144641Y6350000D01*
X18162037Y6526627D01*
X18213557Y6696466D01*
X18297222Y6852991D01*
X18326552Y6888729D01*
X18409814Y6990186D01*
X18511271Y7073448D01*
X18547009Y7102778D01*
X18703534Y7186443D01*
X18873373Y7237963D01*
X18939558Y7244482D01*
X19005740Y7251000D01*
X19094260Y7251000D01*
X19160442Y7244482D01*
X19160442Y7244482D01*
G37*
G36*
X16620442Y7244482D02*
G01*
X16686627Y7237963D01*
X16856466Y7186443D01*
X17012991Y7102778D01*
X17048729Y7073448D01*
X17150186Y6990186D01*
X17233448Y6888729D01*
X17262778Y6852991D01*
X17346443Y6696466D01*
X17397963Y6526627D01*
X17415359Y6350000D01*
X17397963Y6173373D01*
X17346443Y6003534D01*
X17262778Y5847009D01*
X17233448Y5811271D01*
X17150186Y5709814D01*
X17048729Y5626552D01*
X17012991Y5597222D01*
X16856466Y5513557D01*
X16686627Y5462037D01*
X16620442Y5455518D01*
X16554260Y5449000D01*
X16465740Y5449000D01*
X16399558Y5455518D01*
X16333373Y5462037D01*
X16163534Y5513557D01*
X16007009Y5597222D01*
X15971271Y5626552D01*
X15869814Y5709814D01*
X15786552Y5811271D01*
X15757222Y5847009D01*
X15673557Y6003534D01*
X15622037Y6173373D01*
X15604641Y6350000D01*
X15622037Y6526627D01*
X15673557Y6696466D01*
X15757222Y6852991D01*
X15786552Y6888729D01*
X15869814Y6990186D01*
X15971271Y7073448D01*
X16007009Y7102778D01*
X16163534Y7186443D01*
X16333373Y7237963D01*
X16399558Y7244482D01*
X16465740Y7251000D01*
X16554260Y7251000D01*
X16620442Y7244482D01*
X16620442Y7244482D01*
G37*
G36*
X14080442Y7244482D02*
G01*
X14146627Y7237963D01*
X14316466Y7186443D01*
X14472991Y7102778D01*
X14508729Y7073448D01*
X14610186Y6990186D01*
X14693448Y6888729D01*
X14722778Y6852991D01*
X14806443Y6696466D01*
X14857963Y6526627D01*
X14875359Y6350000D01*
X14857963Y6173373D01*
X14806443Y6003534D01*
X14722778Y5847009D01*
X14693448Y5811271D01*
X14610186Y5709814D01*
X14508729Y5626552D01*
X14472991Y5597222D01*
X14316466Y5513557D01*
X14146627Y5462037D01*
X14080442Y5455518D01*
X14014260Y5449000D01*
X13925740Y5449000D01*
X13859558Y5455518D01*
X13793373Y5462037D01*
X13623534Y5513557D01*
X13467009Y5597222D01*
X13431271Y5626552D01*
X13329814Y5709814D01*
X13246552Y5811271D01*
X13217222Y5847009D01*
X13133557Y6003534D01*
X13082037Y6173373D01*
X13064641Y6350000D01*
X13082037Y6526627D01*
X13133557Y6696466D01*
X13217222Y6852991D01*
X13246552Y6888729D01*
X13329814Y6990186D01*
X13431271Y7073448D01*
X13467009Y7102778D01*
X13623534Y7186443D01*
X13793373Y7237963D01*
X13859558Y7244482D01*
X13925740Y7251000D01*
X14014260Y7251000D01*
X14080442Y7244482D01*
X14080442Y7244482D01*
G37*
G36*
X11540442Y7244482D02*
G01*
X11606627Y7237963D01*
X11776466Y7186443D01*
X11932991Y7102778D01*
X11968729Y7073448D01*
X12070186Y6990186D01*
X12153448Y6888729D01*
X12182778Y6852991D01*
X12266443Y6696466D01*
X12317963Y6526627D01*
X12335359Y6350000D01*
X12317963Y6173373D01*
X12266443Y6003534D01*
X12182778Y5847009D01*
X12153448Y5811271D01*
X12070186Y5709814D01*
X11968729Y5626552D01*
X11932991Y5597222D01*
X11776466Y5513557D01*
X11606627Y5462037D01*
X11540442Y5455518D01*
X11474260Y5449000D01*
X11385740Y5449000D01*
X11319558Y5455518D01*
X11253373Y5462037D01*
X11083534Y5513557D01*
X10927009Y5597222D01*
X10891271Y5626552D01*
X10789814Y5709814D01*
X10706552Y5811271D01*
X10677222Y5847009D01*
X10593557Y6003534D01*
X10542037Y6173373D01*
X10524641Y6350000D01*
X10542037Y6526627D01*
X10593557Y6696466D01*
X10677222Y6852991D01*
X10706552Y6888729D01*
X10789814Y6990186D01*
X10891271Y7073448D01*
X10927009Y7102778D01*
X11083534Y7186443D01*
X11253373Y7237963D01*
X11319558Y7244482D01*
X11385740Y7251000D01*
X11474260Y7251000D01*
X11540442Y7244482D01*
X11540442Y7244482D01*
G37*
G36*
X9000442Y7244482D02*
G01*
X9066627Y7237963D01*
X9236466Y7186443D01*
X9392991Y7102778D01*
X9428729Y7073448D01*
X9530186Y6990186D01*
X9613448Y6888729D01*
X9642778Y6852991D01*
X9726443Y6696466D01*
X9777963Y6526627D01*
X9795359Y6350000D01*
X9777963Y6173373D01*
X9726443Y6003534D01*
X9642778Y5847009D01*
X9613448Y5811271D01*
X9530186Y5709814D01*
X9428729Y5626552D01*
X9392991Y5597222D01*
X9236466Y5513557D01*
X9066627Y5462037D01*
X9000442Y5455518D01*
X8934260Y5449000D01*
X8845740Y5449000D01*
X8779558Y5455518D01*
X8713373Y5462037D01*
X8543534Y5513557D01*
X8387009Y5597222D01*
X8351271Y5626552D01*
X8249814Y5709814D01*
X8166552Y5811271D01*
X8137222Y5847009D01*
X8053557Y6003534D01*
X8002037Y6173373D01*
X7984641Y6350000D01*
X8002037Y6526627D01*
X8053557Y6696466D01*
X8137222Y6852991D01*
X8166552Y6888729D01*
X8249814Y6990186D01*
X8351271Y7073448D01*
X8387009Y7102778D01*
X8543534Y7186443D01*
X8713373Y7237963D01*
X8779558Y7244482D01*
X8845740Y7251000D01*
X8934260Y7251000D01*
X9000442Y7244482D01*
X9000442Y7244482D01*
G37*
G36*
X6460442Y7244482D02*
G01*
X6526627Y7237963D01*
X6696466Y7186443D01*
X6852991Y7102778D01*
X6888729Y7073448D01*
X6990186Y6990186D01*
X7073448Y6888729D01*
X7102778Y6852991D01*
X7186443Y6696466D01*
X7237963Y6526627D01*
X7255359Y6350000D01*
X7237963Y6173373D01*
X7186443Y6003534D01*
X7102778Y5847009D01*
X7073448Y5811271D01*
X6990186Y5709814D01*
X6888729Y5626552D01*
X6852991Y5597222D01*
X6696466Y5513557D01*
X6526627Y5462037D01*
X6460442Y5455518D01*
X6394260Y5449000D01*
X6305740Y5449000D01*
X6239558Y5455518D01*
X6173373Y5462037D01*
X6003534Y5513557D01*
X5847009Y5597222D01*
X5811271Y5626552D01*
X5709814Y5709814D01*
X5626552Y5811271D01*
X5597222Y5847009D01*
X5513557Y6003534D01*
X5462037Y6173373D01*
X5444641Y6350000D01*
X5462037Y6526627D01*
X5513557Y6696466D01*
X5597222Y6852991D01*
X5626552Y6888729D01*
X5709814Y6990186D01*
X5811271Y7073448D01*
X5847009Y7102778D01*
X6003534Y7186443D01*
X6173373Y7237963D01*
X6239558Y7244482D01*
X6305740Y7251000D01*
X6394260Y7251000D01*
X6460442Y7244482D01*
X6460442Y7244482D01*
G37*
G36*
X3920442Y7244482D02*
G01*
X3986627Y7237963D01*
X4156466Y7186443D01*
X4312991Y7102778D01*
X4348729Y7073448D01*
X4450186Y6990186D01*
X4533448Y6888729D01*
X4562778Y6852991D01*
X4646443Y6696466D01*
X4697963Y6526627D01*
X4715359Y6350000D01*
X4697963Y6173373D01*
X4646443Y6003534D01*
X4562778Y5847009D01*
X4533448Y5811271D01*
X4450186Y5709814D01*
X4348729Y5626552D01*
X4312991Y5597222D01*
X4156466Y5513557D01*
X3986627Y5462037D01*
X3920442Y5455518D01*
X3854260Y5449000D01*
X3765740Y5449000D01*
X3699558Y5455518D01*
X3633373Y5462037D01*
X3463534Y5513557D01*
X3307009Y5597222D01*
X3271271Y5626552D01*
X3169814Y5709814D01*
X3086552Y5811271D01*
X3057222Y5847009D01*
X2973557Y6003534D01*
X2922037Y6173373D01*
X2904641Y6350000D01*
X2922037Y6526627D01*
X2973557Y6696466D01*
X3057222Y6852991D01*
X3086552Y6888729D01*
X3169814Y6990186D01*
X3271271Y7073448D01*
X3307009Y7102778D01*
X3463534Y7186443D01*
X3633373Y7237963D01*
X3699558Y7244482D01*
X3765740Y7251000D01*
X3854260Y7251000D01*
X3920442Y7244482D01*
X3920442Y7244482D01*
G37*
G36*
X1380442Y7244482D02*
G01*
X1446627Y7237963D01*
X1616466Y7186443D01*
X1772991Y7102778D01*
X1808729Y7073448D01*
X1910186Y6990186D01*
X1993448Y6888729D01*
X2022778Y6852991D01*
X2106443Y6696466D01*
X2157963Y6526627D01*
X2175359Y6350000D01*
X2157963Y6173373D01*
X2106443Y6003534D01*
X2022778Y5847009D01*
X1993448Y5811271D01*
X1910186Y5709814D01*
X1808729Y5626552D01*
X1772991Y5597222D01*
X1616466Y5513557D01*
X1446627Y5462037D01*
X1380442Y5455518D01*
X1314260Y5449000D01*
X1225740Y5449000D01*
X1159558Y5455518D01*
X1093373Y5462037D01*
X923534Y5513557D01*
X767009Y5597222D01*
X731271Y5626552D01*
X629814Y5709814D01*
X546552Y5811271D01*
X517222Y5847009D01*
X433557Y6003534D01*
X382037Y6173373D01*
X364641Y6350000D01*
X382037Y6526627D01*
X433557Y6696466D01*
X517222Y6852991D01*
X546552Y6888729D01*
X629814Y6990186D01*
X731271Y7073448D01*
X767009Y7102778D01*
X923534Y7186443D01*
X1093373Y7237963D01*
X1159558Y7244482D01*
X1225740Y7251000D01*
X1314260Y7251000D01*
X1380442Y7244482D01*
X1380442Y7244482D01*
G37*
M02*
