G04 #@! TF.GenerationSoftware,KiCad,Pcbnew,5.1.4-e60b266~84~ubuntu18.04.1*
G04 #@! TF.CreationDate,2019-09-29T11:15:23+02:00*
G04 #@! TF.ProjectId,UpduinoLEDButtonExpander,55706475-696e-46f4-9c45-44427574746f,rev?*
G04 #@! TF.SameCoordinates,PX88dc9f0PY43d3480*
G04 #@! TF.FileFunction,Legend,Top*
G04 #@! TF.FilePolarity,Positive*
%FSLAX46Y46*%
G04 Gerber Fmt 4.6, Leading zero omitted, Abs format (unit mm)*
G04 Created by KiCad (PCBNEW 5.1.4-e60b266~84~ubuntu18.04.1) date 2019-09-29 11:15:23*
%MOMM*%
%LPD*%
G04 APERTURE LIST*
%ADD10C,0.150000*%
%ADD11C,0.120000*%
G04 APERTURE END LIST*
D10*
X18859523Y-26487380D02*
X18288095Y-26487380D01*
X18573809Y-26487380D02*
X18573809Y-25487380D01*
X18478571Y-25630238D01*
X18383333Y-25725476D01*
X18288095Y-25773095D01*
X19192857Y-25487380D02*
X19811904Y-25487380D01*
X19478571Y-25868333D01*
X19621428Y-25868333D01*
X19716666Y-25915952D01*
X19764285Y-25963571D01*
X19811904Y-26058809D01*
X19811904Y-26296904D01*
X19764285Y-26392142D01*
X19716666Y-26439761D01*
X19621428Y-26487380D01*
X19335714Y-26487380D01*
X19240476Y-26439761D01*
X19192857Y-26392142D01*
X8699523Y-26487380D02*
X8890000Y-26487380D01*
X8985238Y-26439761D01*
X9032857Y-26392142D01*
X9128095Y-26249285D01*
X9175714Y-26058809D01*
X9175714Y-25677857D01*
X9128095Y-25582619D01*
X9080476Y-25535000D01*
X8985238Y-25487380D01*
X8794761Y-25487380D01*
X8699523Y-25535000D01*
X8651904Y-25582619D01*
X8604285Y-25677857D01*
X8604285Y-25915952D01*
X8651904Y-26011190D01*
X8699523Y-26058809D01*
X8794761Y-26106428D01*
X8985238Y-26106428D01*
X9080476Y-26058809D01*
X9128095Y-26011190D01*
X9175714Y-25915952D01*
X-1603334Y-25487380D02*
X-984286Y-25487380D01*
X-1317620Y-25868333D01*
X-1174762Y-25868333D01*
X-1079524Y-25915952D01*
X-1031905Y-25963571D01*
X-984286Y-26058809D01*
X-984286Y-26296904D01*
X-1031905Y-26392142D01*
X-1079524Y-26439761D01*
X-1174762Y-26487380D01*
X-1460477Y-26487380D01*
X-1555715Y-26439761D01*
X-1603334Y-26392142D01*
X-11715715Y-25820714D02*
X-11715715Y-26487380D01*
X-11953810Y-25439761D02*
X-12191905Y-26154047D01*
X-11572858Y-26154047D01*
X-10763334Y-25487380D02*
X-10953810Y-25487380D01*
X-11049048Y-25535000D01*
X-11096667Y-25582619D01*
X-11191905Y-25725476D01*
X-11239524Y-25915952D01*
X-11239524Y-26296904D01*
X-11191905Y-26392142D01*
X-11144286Y-26439761D01*
X-11049048Y-26487380D01*
X-10858572Y-26487380D01*
X-10763334Y-26439761D01*
X-10715715Y-26392142D01*
X-10668096Y-26296904D01*
X-10668096Y-26058809D01*
X-10715715Y-25963571D01*
X-10763334Y-25915952D01*
X-10858572Y-25868333D01*
X-11049048Y-25868333D01*
X-11144286Y-25915952D01*
X-11191905Y-25963571D01*
X-11239524Y-26058809D01*
X18923095Y-37012619D02*
X18970714Y-36965000D01*
X19065952Y-36917380D01*
X19304047Y-36917380D01*
X19399285Y-36965000D01*
X19446904Y-37012619D01*
X19494523Y-37107857D01*
X19494523Y-37203095D01*
X19446904Y-37345952D01*
X18875476Y-37917380D01*
X19494523Y-37917380D01*
X20446904Y-37917380D02*
X19875476Y-37917380D01*
X20161190Y-37917380D02*
X20161190Y-36917380D01*
X20065952Y-37060238D01*
X19970714Y-37155476D01*
X19875476Y-37203095D01*
X9334523Y-37917380D02*
X8763095Y-37917380D01*
X9048809Y-37917380D02*
X9048809Y-36917380D01*
X8953571Y-37060238D01*
X8858333Y-37155476D01*
X8763095Y-37203095D01*
X10286904Y-37917380D02*
X9715476Y-37917380D01*
X10001190Y-37917380D02*
X10001190Y-36917380D01*
X9905952Y-37060238D01*
X9810714Y-37155476D01*
X9715476Y-37203095D01*
X-920715Y-37250714D02*
X-920715Y-37917380D01*
X-1158810Y-36869761D02*
X-1396905Y-37584047D01*
X-777858Y-37584047D01*
X-444524Y-37012619D02*
X-396905Y-36965000D01*
X-301667Y-36917380D01*
X-63572Y-36917380D01*
X31666Y-36965000D01*
X79285Y-37012619D01*
X126904Y-37107857D01*
X126904Y-37203095D01*
X79285Y-37345952D01*
X-492143Y-37917380D01*
X126904Y-37917380D01*
X-11080715Y-37250714D02*
X-11080715Y-37917380D01*
X-11318810Y-36869761D02*
X-11556905Y-37584047D01*
X-10937858Y-37584047D01*
X-10652143Y-36917380D02*
X-9985477Y-36917380D01*
X-10414048Y-37917380D01*
D11*
X-15068733Y-30605000D02*
X-15411267Y-30605000D01*
X-15068733Y-31625000D02*
X-15411267Y-31625000D01*
X-4908733Y-31625000D02*
X-5251267Y-31625000D01*
X-4908733Y-30605000D02*
X-5251267Y-30605000D01*
X5251267Y-30605000D02*
X4908733Y-30605000D01*
X5251267Y-31625000D02*
X4908733Y-31625000D01*
X15411267Y-31625000D02*
X15068733Y-31625000D01*
X15411267Y-30605000D02*
X15068733Y-30605000D01*
X-16800000Y-24164000D02*
X-16800000Y-24320000D01*
X-16800000Y-26480000D02*
X-16800000Y-26636000D01*
X-13567665Y-24321392D02*
G75*
G03X-16800000Y-24164484I-1672335J-1078608D01*
G01*
X-13567665Y-26478608D02*
G75*
G02X-16800000Y-26635516I-1672335J1078608D01*
G01*
X-14198870Y-24320163D02*
G75*
G03X-16280961Y-24320000I-1041130J-1079837D01*
G01*
X-14198870Y-26479837D02*
G75*
G02X-16280961Y-26480000I-1041130J1079837D01*
G01*
X-4038870Y-26479837D02*
G75*
G02X-6120961Y-26480000I-1041130J1079837D01*
G01*
X-4038870Y-24320163D02*
G75*
G03X-6120961Y-24320000I-1041130J-1079837D01*
G01*
X-3407665Y-26478608D02*
G75*
G02X-6640000Y-26635516I-1672335J1078608D01*
G01*
X-3407665Y-24321392D02*
G75*
G03X-6640000Y-24164484I-1672335J-1078608D01*
G01*
X-6640000Y-26480000D02*
X-6640000Y-26636000D01*
X-6640000Y-24164000D02*
X-6640000Y-24320000D01*
X6121130Y-26479837D02*
G75*
G02X4039039Y-26480000I-1041130J1079837D01*
G01*
X6121130Y-24320163D02*
G75*
G03X4039039Y-24320000I-1041130J-1079837D01*
G01*
X6752335Y-26478608D02*
G75*
G02X3520000Y-26635516I-1672335J1078608D01*
G01*
X6752335Y-24321392D02*
G75*
G03X3520000Y-24164484I-1672335J-1078608D01*
G01*
X3520000Y-26480000D02*
X3520000Y-26636000D01*
X3520000Y-24164000D02*
X3520000Y-24320000D01*
X13680000Y-24164000D02*
X13680000Y-24320000D01*
X13680000Y-26480000D02*
X13680000Y-26636000D01*
X16912335Y-24321392D02*
G75*
G03X13680000Y-24164484I-1672335J-1078608D01*
G01*
X16912335Y-26478608D02*
G75*
G02X13680000Y-26635516I-1672335J1078608D01*
G01*
X16281130Y-24320163D02*
G75*
G03X14199039Y-24320000I-1041130J-1079837D01*
G01*
X16281130Y-26479837D02*
G75*
G02X14199039Y-26480000I-1041130J1079837D01*
G01*
X20380000Y-1330000D02*
X20380000Y1330000D01*
X-17780000Y-1330000D02*
X20380000Y-1330000D01*
X-17780000Y1330000D02*
X20380000Y1330000D01*
X-17780000Y-1330000D02*
X-17780000Y1330000D01*
X-19050000Y-1330000D02*
X-20380000Y-1330000D01*
X-20380000Y-1330000D02*
X-20380000Y0D01*
X-15411267Y-21080000D02*
X-15068733Y-21080000D01*
X-15411267Y-22100000D02*
X-15068733Y-22100000D01*
X-15068733Y-28700000D02*
X-15411267Y-28700000D01*
X-15068733Y-29720000D02*
X-15411267Y-29720000D01*
X-5251267Y-21080000D02*
X-4908733Y-21080000D01*
X-5251267Y-22100000D02*
X-4908733Y-22100000D01*
X-4908733Y-29720000D02*
X-5251267Y-29720000D01*
X-4908733Y-28700000D02*
X-5251267Y-28700000D01*
X4908733Y-22100000D02*
X5251267Y-22100000D01*
X4908733Y-21080000D02*
X5251267Y-21080000D01*
X5251267Y-29720000D02*
X4908733Y-29720000D01*
X5251267Y-28700000D02*
X4908733Y-28700000D01*
X15068733Y-22100000D02*
X15411267Y-22100000D01*
X15068733Y-21080000D02*
X15411267Y-21080000D01*
X15411267Y-29720000D02*
X15068733Y-29720000D01*
X15411267Y-28700000D02*
X15068733Y-28700000D01*
X-16870000Y-33785000D02*
X-14190000Y-33785000D01*
X-14190000Y-40025000D02*
X-16870000Y-40025000D01*
X-18650000Y-39875000D02*
X-18650000Y-33935000D01*
X-12410000Y-39875000D02*
X-12410000Y-33935000D01*
X-14115786Y-36905000D02*
G75*
G03X-14115786Y-36905000I-1414214J0D01*
G01*
X-6710000Y-33785000D02*
X-4030000Y-33785000D01*
X-4030000Y-40025000D02*
X-6710000Y-40025000D01*
X-8490000Y-39875000D02*
X-8490000Y-33935000D01*
X-2250000Y-39875000D02*
X-2250000Y-33935000D01*
X-3955786Y-36905000D02*
G75*
G03X-3955786Y-36905000I-1414214J0D01*
G01*
X6204214Y-36905000D02*
G75*
G03X6204214Y-36905000I-1414214J0D01*
G01*
X7910000Y-39875000D02*
X7910000Y-33935000D01*
X1670000Y-39875000D02*
X1670000Y-33935000D01*
X6130000Y-40025000D02*
X3450000Y-40025000D01*
X3450000Y-33785000D02*
X6130000Y-33785000D01*
X16364214Y-36905000D02*
G75*
G03X16364214Y-36905000I-1414214J0D01*
G01*
X18070000Y-39875000D02*
X18070000Y-33935000D01*
X11830000Y-39875000D02*
X11830000Y-33935000D01*
X16290000Y-40025000D02*
X13610000Y-40025000D01*
X13610000Y-33785000D02*
X16290000Y-33785000D01*
X20380000Y-19110000D02*
X20380000Y-16450000D01*
X-17780000Y-19110000D02*
X20380000Y-19110000D01*
X-17780000Y-16450000D02*
X20380000Y-16450000D01*
X-17780000Y-19110000D02*
X-17780000Y-16450000D01*
X-19050000Y-19110000D02*
X-20380000Y-19110000D01*
X-20380000Y-19110000D02*
X-20380000Y-17780000D01*
X20380000Y5020000D02*
X20380000Y7680000D01*
X-17780000Y5020000D02*
X20380000Y5020000D01*
X-17780000Y7680000D02*
X20380000Y7680000D01*
X-17780000Y5020000D02*
X-17780000Y7680000D01*
X-19050000Y5020000D02*
X-20380000Y5020000D01*
X-20380000Y5020000D02*
X-20380000Y6350000D01*
X-11601267Y-22100000D02*
X-11258733Y-22100000D01*
X-11601267Y-21080000D02*
X-11258733Y-21080000D01*
X-1441267Y-21080000D02*
X-1098733Y-21080000D01*
X-1441267Y-22100000D02*
X-1098733Y-22100000D01*
X8718733Y-22100000D02*
X9061267Y-22100000D01*
X8718733Y-21080000D02*
X9061267Y-21080000D01*
X18878733Y-21080000D02*
X19221267Y-21080000D01*
X18878733Y-22100000D02*
X19221267Y-22100000D01*
D10*
X-12231667Y-31472142D02*
X-12279286Y-31519761D01*
X-12422143Y-31567380D01*
X-12517381Y-31567380D01*
X-12660239Y-31519761D01*
X-12755477Y-31424523D01*
X-12803096Y-31329285D01*
X-12850715Y-31138809D01*
X-12850715Y-30995952D01*
X-12803096Y-30805476D01*
X-12755477Y-30710238D01*
X-12660239Y-30615000D01*
X-12517381Y-30567380D01*
X-12422143Y-30567380D01*
X-12279286Y-30615000D01*
X-12231667Y-30662619D01*
X-11279286Y-31567380D02*
X-11850715Y-31567380D01*
X-11565000Y-31567380D02*
X-11565000Y-30567380D01*
X-11660239Y-30710238D01*
X-11755477Y-30805476D01*
X-11850715Y-30853095D01*
X-2071667Y-31472142D02*
X-2119286Y-31519761D01*
X-2262143Y-31567380D01*
X-2357381Y-31567380D01*
X-2500239Y-31519761D01*
X-2595477Y-31424523D01*
X-2643096Y-31329285D01*
X-2690715Y-31138809D01*
X-2690715Y-30995952D01*
X-2643096Y-30805476D01*
X-2595477Y-30710238D01*
X-2500239Y-30615000D01*
X-2357381Y-30567380D01*
X-2262143Y-30567380D01*
X-2119286Y-30615000D01*
X-2071667Y-30662619D01*
X-1690715Y-30662619D02*
X-1643096Y-30615000D01*
X-1547858Y-30567380D01*
X-1309762Y-30567380D01*
X-1214524Y-30615000D01*
X-1166905Y-30662619D01*
X-1119286Y-30757857D01*
X-1119286Y-30853095D01*
X-1166905Y-30995952D01*
X-1738334Y-31567380D01*
X-1119286Y-31567380D01*
X8088333Y-31472142D02*
X8040714Y-31519761D01*
X7897857Y-31567380D01*
X7802619Y-31567380D01*
X7659761Y-31519761D01*
X7564523Y-31424523D01*
X7516904Y-31329285D01*
X7469285Y-31138809D01*
X7469285Y-30995952D01*
X7516904Y-30805476D01*
X7564523Y-30710238D01*
X7659761Y-30615000D01*
X7802619Y-30567380D01*
X7897857Y-30567380D01*
X8040714Y-30615000D01*
X8088333Y-30662619D01*
X8421666Y-30567380D02*
X9040714Y-30567380D01*
X8707380Y-30948333D01*
X8850238Y-30948333D01*
X8945476Y-30995952D01*
X8993095Y-31043571D01*
X9040714Y-31138809D01*
X9040714Y-31376904D01*
X8993095Y-31472142D01*
X8945476Y-31519761D01*
X8850238Y-31567380D01*
X8564523Y-31567380D01*
X8469285Y-31519761D01*
X8421666Y-31472142D01*
X18248333Y-31472142D02*
X18200714Y-31519761D01*
X18057857Y-31567380D01*
X17962619Y-31567380D01*
X17819761Y-31519761D01*
X17724523Y-31424523D01*
X17676904Y-31329285D01*
X17629285Y-31138809D01*
X17629285Y-30995952D01*
X17676904Y-30805476D01*
X17724523Y-30710238D01*
X17819761Y-30615000D01*
X17962619Y-30567380D01*
X18057857Y-30567380D01*
X18200714Y-30615000D01*
X18248333Y-30662619D01*
X19105476Y-30900714D02*
X19105476Y-31567380D01*
X18867380Y-30519761D02*
X18629285Y-31234047D01*
X19248333Y-31234047D01*
X-12168096Y-24582380D02*
X-12168096Y-23582380D01*
X-11930000Y-23582380D01*
X-11787143Y-23630000D01*
X-11691905Y-23725238D01*
X-11644286Y-23820476D01*
X-11596667Y-24010952D01*
X-11596667Y-24153809D01*
X-11644286Y-24344285D01*
X-11691905Y-24439523D01*
X-11787143Y-24534761D01*
X-11930000Y-24582380D01*
X-12168096Y-24582380D01*
X-10644286Y-24582380D02*
X-11215715Y-24582380D01*
X-10930000Y-24582380D02*
X-10930000Y-23582380D01*
X-11025239Y-23725238D01*
X-11120477Y-23820476D01*
X-11215715Y-23868095D01*
X-2008096Y-24582380D02*
X-2008096Y-23582380D01*
X-1770000Y-23582380D01*
X-1627143Y-23630000D01*
X-1531905Y-23725238D01*
X-1484286Y-23820476D01*
X-1436667Y-24010952D01*
X-1436667Y-24153809D01*
X-1484286Y-24344285D01*
X-1531905Y-24439523D01*
X-1627143Y-24534761D01*
X-1770000Y-24582380D01*
X-2008096Y-24582380D01*
X-1055715Y-23677619D02*
X-1008096Y-23630000D01*
X-912858Y-23582380D01*
X-674762Y-23582380D01*
X-579524Y-23630000D01*
X-531905Y-23677619D01*
X-484286Y-23772857D01*
X-484286Y-23868095D01*
X-531905Y-24010952D01*
X-1103334Y-24582380D01*
X-484286Y-24582380D01*
X8151904Y-24582380D02*
X8151904Y-23582380D01*
X8390000Y-23582380D01*
X8532857Y-23630000D01*
X8628095Y-23725238D01*
X8675714Y-23820476D01*
X8723333Y-24010952D01*
X8723333Y-24153809D01*
X8675714Y-24344285D01*
X8628095Y-24439523D01*
X8532857Y-24534761D01*
X8390000Y-24582380D01*
X8151904Y-24582380D01*
X9056666Y-23582380D02*
X9675714Y-23582380D01*
X9342380Y-23963333D01*
X9485238Y-23963333D01*
X9580476Y-24010952D01*
X9628095Y-24058571D01*
X9675714Y-24153809D01*
X9675714Y-24391904D01*
X9628095Y-24487142D01*
X9580476Y-24534761D01*
X9485238Y-24582380D01*
X9199523Y-24582380D01*
X9104285Y-24534761D01*
X9056666Y-24487142D01*
X18311904Y-24582380D02*
X18311904Y-23582380D01*
X18550000Y-23582380D01*
X18692857Y-23630000D01*
X18788095Y-23725238D01*
X18835714Y-23820476D01*
X18883333Y-24010952D01*
X18883333Y-24153809D01*
X18835714Y-24344285D01*
X18788095Y-24439523D01*
X18692857Y-24534761D01*
X18550000Y-24582380D01*
X18311904Y-24582380D01*
X19740476Y-23915714D02*
X19740476Y-24582380D01*
X19502380Y-23534761D02*
X19264285Y-24249047D01*
X19883333Y-24249047D01*
X-21927620Y-333333D02*
X-21213334Y-333333D01*
X-21070477Y-380952D01*
X-20975239Y-476190D01*
X-20927620Y-619047D01*
X-20927620Y-714285D01*
X-20927620Y666667D02*
X-20927620Y95239D01*
X-20927620Y380953D02*
X-21927620Y380953D01*
X-21784762Y285715D01*
X-21689524Y190477D01*
X-21641905Y95239D01*
X-15406667Y-20612380D02*
X-15740000Y-20136190D01*
X-15978096Y-20612380D02*
X-15978096Y-19612380D01*
X-15597143Y-19612380D01*
X-15501905Y-19660000D01*
X-15454286Y-19707619D01*
X-15406667Y-19802857D01*
X-15406667Y-19945714D01*
X-15454286Y-20040952D01*
X-15501905Y-20088571D01*
X-15597143Y-20136190D01*
X-15978096Y-20136190D01*
X-14454286Y-20612380D02*
X-15025715Y-20612380D01*
X-14740000Y-20612380D02*
X-14740000Y-19612380D01*
X-14835239Y-19755238D01*
X-14930477Y-19850476D01*
X-15025715Y-19898095D01*
X-12231667Y-29662380D02*
X-12565000Y-29186190D01*
X-12803096Y-29662380D02*
X-12803096Y-28662380D01*
X-12422143Y-28662380D01*
X-12326905Y-28710000D01*
X-12279286Y-28757619D01*
X-12231667Y-28852857D01*
X-12231667Y-28995714D01*
X-12279286Y-29090952D01*
X-12326905Y-29138571D01*
X-12422143Y-29186190D01*
X-12803096Y-29186190D01*
X-11850715Y-28757619D02*
X-11803096Y-28710000D01*
X-11707858Y-28662380D01*
X-11469762Y-28662380D01*
X-11374524Y-28710000D01*
X-11326905Y-28757619D01*
X-11279286Y-28852857D01*
X-11279286Y-28948095D01*
X-11326905Y-29090952D01*
X-11898334Y-29662380D01*
X-11279286Y-29662380D01*
X-5246667Y-20612380D02*
X-5580000Y-20136190D01*
X-5818096Y-20612380D02*
X-5818096Y-19612380D01*
X-5437143Y-19612380D01*
X-5341905Y-19660000D01*
X-5294286Y-19707619D01*
X-5246667Y-19802857D01*
X-5246667Y-19945714D01*
X-5294286Y-20040952D01*
X-5341905Y-20088571D01*
X-5437143Y-20136190D01*
X-5818096Y-20136190D01*
X-4913334Y-19612380D02*
X-4294286Y-19612380D01*
X-4627620Y-19993333D01*
X-4484762Y-19993333D01*
X-4389524Y-20040952D01*
X-4341905Y-20088571D01*
X-4294286Y-20183809D01*
X-4294286Y-20421904D01*
X-4341905Y-20517142D01*
X-4389524Y-20564761D01*
X-4484762Y-20612380D01*
X-4770477Y-20612380D01*
X-4865715Y-20564761D01*
X-4913334Y-20517142D01*
X-2071667Y-29662380D02*
X-2405000Y-29186190D01*
X-2643096Y-29662380D02*
X-2643096Y-28662380D01*
X-2262143Y-28662380D01*
X-2166905Y-28710000D01*
X-2119286Y-28757619D01*
X-2071667Y-28852857D01*
X-2071667Y-28995714D01*
X-2119286Y-29090952D01*
X-2166905Y-29138571D01*
X-2262143Y-29186190D01*
X-2643096Y-29186190D01*
X-1214524Y-28995714D02*
X-1214524Y-29662380D01*
X-1452620Y-28614761D02*
X-1690715Y-29329047D01*
X-1071667Y-29329047D01*
X4913333Y-20612380D02*
X4580000Y-20136190D01*
X4341904Y-20612380D02*
X4341904Y-19612380D01*
X4722857Y-19612380D01*
X4818095Y-19660000D01*
X4865714Y-19707619D01*
X4913333Y-19802857D01*
X4913333Y-19945714D01*
X4865714Y-20040952D01*
X4818095Y-20088571D01*
X4722857Y-20136190D01*
X4341904Y-20136190D01*
X5818095Y-19612380D02*
X5341904Y-19612380D01*
X5294285Y-20088571D01*
X5341904Y-20040952D01*
X5437142Y-19993333D01*
X5675238Y-19993333D01*
X5770476Y-20040952D01*
X5818095Y-20088571D01*
X5865714Y-20183809D01*
X5865714Y-20421904D01*
X5818095Y-20517142D01*
X5770476Y-20564761D01*
X5675238Y-20612380D01*
X5437142Y-20612380D01*
X5341904Y-20564761D01*
X5294285Y-20517142D01*
X8088333Y-29662380D02*
X7755000Y-29186190D01*
X7516904Y-29662380D02*
X7516904Y-28662380D01*
X7897857Y-28662380D01*
X7993095Y-28710000D01*
X8040714Y-28757619D01*
X8088333Y-28852857D01*
X8088333Y-28995714D01*
X8040714Y-29090952D01*
X7993095Y-29138571D01*
X7897857Y-29186190D01*
X7516904Y-29186190D01*
X8945476Y-28662380D02*
X8755000Y-28662380D01*
X8659761Y-28710000D01*
X8612142Y-28757619D01*
X8516904Y-28900476D01*
X8469285Y-29090952D01*
X8469285Y-29471904D01*
X8516904Y-29567142D01*
X8564523Y-29614761D01*
X8659761Y-29662380D01*
X8850238Y-29662380D01*
X8945476Y-29614761D01*
X8993095Y-29567142D01*
X9040714Y-29471904D01*
X9040714Y-29233809D01*
X8993095Y-29138571D01*
X8945476Y-29090952D01*
X8850238Y-29043333D01*
X8659761Y-29043333D01*
X8564523Y-29090952D01*
X8516904Y-29138571D01*
X8469285Y-29233809D01*
X15073333Y-20612380D02*
X14740000Y-20136190D01*
X14501904Y-20612380D02*
X14501904Y-19612380D01*
X14882857Y-19612380D01*
X14978095Y-19660000D01*
X15025714Y-19707619D01*
X15073333Y-19802857D01*
X15073333Y-19945714D01*
X15025714Y-20040952D01*
X14978095Y-20088571D01*
X14882857Y-20136190D01*
X14501904Y-20136190D01*
X15406666Y-19612380D02*
X16073333Y-19612380D01*
X15644761Y-20612380D01*
X18248333Y-29662380D02*
X17915000Y-29186190D01*
X17676904Y-29662380D02*
X17676904Y-28662380D01*
X18057857Y-28662380D01*
X18153095Y-28710000D01*
X18200714Y-28757619D01*
X18248333Y-28852857D01*
X18248333Y-28995714D01*
X18200714Y-29090952D01*
X18153095Y-29138571D01*
X18057857Y-29186190D01*
X17676904Y-29186190D01*
X18819761Y-29090952D02*
X18724523Y-29043333D01*
X18676904Y-28995714D01*
X18629285Y-28900476D01*
X18629285Y-28852857D01*
X18676904Y-28757619D01*
X18724523Y-28710000D01*
X18819761Y-28662380D01*
X19010238Y-28662380D01*
X19105476Y-28710000D01*
X19153095Y-28757619D01*
X19200714Y-28852857D01*
X19200714Y-28900476D01*
X19153095Y-28995714D01*
X19105476Y-29043333D01*
X19010238Y-29090952D01*
X18819761Y-29090952D01*
X18724523Y-29138571D01*
X18676904Y-29186190D01*
X18629285Y-29281428D01*
X18629285Y-29471904D01*
X18676904Y-29567142D01*
X18724523Y-29614761D01*
X18819761Y-29662380D01*
X19010238Y-29662380D01*
X19105476Y-29614761D01*
X19153095Y-29567142D01*
X19200714Y-29471904D01*
X19200714Y-29281428D01*
X19153095Y-29186190D01*
X19105476Y-29138571D01*
X19010238Y-29090952D01*
X-12128334Y-35964761D02*
X-11985477Y-36012380D01*
X-11747381Y-36012380D01*
X-11652143Y-35964761D01*
X-11604524Y-35917142D01*
X-11556905Y-35821904D01*
X-11556905Y-35726666D01*
X-11604524Y-35631428D01*
X-11652143Y-35583809D01*
X-11747381Y-35536190D01*
X-11937858Y-35488571D01*
X-12033096Y-35440952D01*
X-12080715Y-35393333D01*
X-12128334Y-35298095D01*
X-12128334Y-35202857D01*
X-12080715Y-35107619D01*
X-12033096Y-35060000D01*
X-11937858Y-35012380D01*
X-11699762Y-35012380D01*
X-11556905Y-35060000D01*
X-11223572Y-35012380D02*
X-10985477Y-36012380D01*
X-10795000Y-35298095D01*
X-10604524Y-36012380D01*
X-10366429Y-35012380D01*
X-9461667Y-36012380D02*
X-10033096Y-36012380D01*
X-9747381Y-36012380D02*
X-9747381Y-35012380D01*
X-9842620Y-35155238D01*
X-9937858Y-35250476D01*
X-10033096Y-35298095D01*
X-1968334Y-35964761D02*
X-1825477Y-36012380D01*
X-1587381Y-36012380D01*
X-1492143Y-35964761D01*
X-1444524Y-35917142D01*
X-1396905Y-35821904D01*
X-1396905Y-35726666D01*
X-1444524Y-35631428D01*
X-1492143Y-35583809D01*
X-1587381Y-35536190D01*
X-1777858Y-35488571D01*
X-1873096Y-35440952D01*
X-1920715Y-35393333D01*
X-1968334Y-35298095D01*
X-1968334Y-35202857D01*
X-1920715Y-35107619D01*
X-1873096Y-35060000D01*
X-1777858Y-35012380D01*
X-1539762Y-35012380D01*
X-1396905Y-35060000D01*
X-1063572Y-35012380D02*
X-825477Y-36012380D01*
X-635000Y-35298095D01*
X-444524Y-36012380D01*
X-206429Y-35012380D01*
X126904Y-35107619D02*
X174523Y-35060000D01*
X269761Y-35012380D01*
X507857Y-35012380D01*
X603095Y-35060000D01*
X650714Y-35107619D01*
X698333Y-35202857D01*
X698333Y-35298095D01*
X650714Y-35440952D01*
X79285Y-36012380D01*
X698333Y-36012380D01*
X8191666Y-35964761D02*
X8334523Y-36012380D01*
X8572619Y-36012380D01*
X8667857Y-35964761D01*
X8715476Y-35917142D01*
X8763095Y-35821904D01*
X8763095Y-35726666D01*
X8715476Y-35631428D01*
X8667857Y-35583809D01*
X8572619Y-35536190D01*
X8382142Y-35488571D01*
X8286904Y-35440952D01*
X8239285Y-35393333D01*
X8191666Y-35298095D01*
X8191666Y-35202857D01*
X8239285Y-35107619D01*
X8286904Y-35060000D01*
X8382142Y-35012380D01*
X8620238Y-35012380D01*
X8763095Y-35060000D01*
X9096428Y-35012380D02*
X9334523Y-36012380D01*
X9525000Y-35298095D01*
X9715476Y-36012380D01*
X9953571Y-35012380D01*
X10239285Y-35012380D02*
X10858333Y-35012380D01*
X10525000Y-35393333D01*
X10667857Y-35393333D01*
X10763095Y-35440952D01*
X10810714Y-35488571D01*
X10858333Y-35583809D01*
X10858333Y-35821904D01*
X10810714Y-35917142D01*
X10763095Y-35964761D01*
X10667857Y-36012380D01*
X10382142Y-36012380D01*
X10286904Y-35964761D01*
X10239285Y-35917142D01*
X18351666Y-35964761D02*
X18494523Y-36012380D01*
X18732619Y-36012380D01*
X18827857Y-35964761D01*
X18875476Y-35917142D01*
X18923095Y-35821904D01*
X18923095Y-35726666D01*
X18875476Y-35631428D01*
X18827857Y-35583809D01*
X18732619Y-35536190D01*
X18542142Y-35488571D01*
X18446904Y-35440952D01*
X18399285Y-35393333D01*
X18351666Y-35298095D01*
X18351666Y-35202857D01*
X18399285Y-35107619D01*
X18446904Y-35060000D01*
X18542142Y-35012380D01*
X18780238Y-35012380D01*
X18923095Y-35060000D01*
X19256428Y-35012380D02*
X19494523Y-36012380D01*
X19685000Y-35298095D01*
X19875476Y-36012380D01*
X20113571Y-35012380D01*
X20923095Y-35345714D02*
X20923095Y-36012380D01*
X20685000Y-34964761D02*
X20446904Y-35679047D01*
X21065952Y-35679047D01*
X-21927620Y-18113333D02*
X-21213334Y-18113333D01*
X-21070477Y-18160952D01*
X-20975239Y-18256190D01*
X-20927620Y-18399047D01*
X-20927620Y-18494285D01*
X-21832381Y-17684761D02*
X-21880000Y-17637142D01*
X-21927620Y-17541904D01*
X-21927620Y-17303809D01*
X-21880000Y-17208571D01*
X-21832381Y-17160952D01*
X-21737143Y-17113333D01*
X-21641905Y-17113333D01*
X-21499048Y-17160952D01*
X-20927620Y-17732380D01*
X-20927620Y-17113333D01*
X-21927620Y6016667D02*
X-21213334Y6016667D01*
X-21070477Y5969048D01*
X-20975239Y5873810D01*
X-20927620Y5730953D01*
X-20927620Y5635715D01*
X-21927620Y6397620D02*
X-21927620Y7016667D01*
X-21546667Y6683334D01*
X-21546667Y6826191D01*
X-21499048Y6921429D01*
X-21451429Y6969048D01*
X-21356191Y7016667D01*
X-21118096Y7016667D01*
X-21022858Y6969048D01*
X-20975239Y6921429D01*
X-20927620Y6826191D01*
X-20927620Y6540477D01*
X-20975239Y6445239D01*
X-21022858Y6397620D01*
X-11596667Y-20612380D02*
X-11930000Y-20136190D01*
X-12168096Y-20612380D02*
X-12168096Y-19612380D01*
X-11787143Y-19612380D01*
X-11691905Y-19660000D01*
X-11644286Y-19707619D01*
X-11596667Y-19802857D01*
X-11596667Y-19945714D01*
X-11644286Y-20040952D01*
X-11691905Y-20088571D01*
X-11787143Y-20136190D01*
X-12168096Y-20136190D01*
X-11120477Y-20612380D02*
X-10930000Y-20612380D01*
X-10834762Y-20564761D01*
X-10787143Y-20517142D01*
X-10691905Y-20374285D01*
X-10644286Y-20183809D01*
X-10644286Y-19802857D01*
X-10691905Y-19707619D01*
X-10739524Y-19660000D01*
X-10834762Y-19612380D01*
X-11025239Y-19612380D01*
X-11120477Y-19660000D01*
X-11168096Y-19707619D01*
X-11215715Y-19802857D01*
X-11215715Y-20040952D01*
X-11168096Y-20136190D01*
X-11120477Y-20183809D01*
X-11025239Y-20231428D01*
X-10834762Y-20231428D01*
X-10739524Y-20183809D01*
X-10691905Y-20136190D01*
X-10644286Y-20040952D01*
X-1912858Y-20612380D02*
X-2246191Y-20136190D01*
X-2484286Y-20612380D02*
X-2484286Y-19612380D01*
X-2103334Y-19612380D01*
X-2008096Y-19660000D01*
X-1960477Y-19707619D01*
X-1912858Y-19802857D01*
X-1912858Y-19945714D01*
X-1960477Y-20040952D01*
X-2008096Y-20088571D01*
X-2103334Y-20136190D01*
X-2484286Y-20136190D01*
X-960477Y-20612380D02*
X-1531905Y-20612380D01*
X-1246191Y-20612380D02*
X-1246191Y-19612380D01*
X-1341429Y-19755238D01*
X-1436667Y-19850476D01*
X-1531905Y-19898095D01*
X-341429Y-19612380D02*
X-246191Y-19612380D01*
X-150953Y-19660000D01*
X-103334Y-19707619D01*
X-55715Y-19802857D01*
X-8096Y-19993333D01*
X-8096Y-20231428D01*
X-55715Y-20421904D01*
X-103334Y-20517142D01*
X-150953Y-20564761D01*
X-246191Y-20612380D01*
X-341429Y-20612380D01*
X-436667Y-20564761D01*
X-484286Y-20517142D01*
X-531905Y-20421904D01*
X-579524Y-20231428D01*
X-579524Y-19993333D01*
X-531905Y-19802857D01*
X-484286Y-19707619D01*
X-436667Y-19660000D01*
X-341429Y-19612380D01*
X8247142Y-20612380D02*
X7913809Y-20136190D01*
X7675714Y-20612380D02*
X7675714Y-19612380D01*
X8056666Y-19612380D01*
X8151904Y-19660000D01*
X8199523Y-19707619D01*
X8247142Y-19802857D01*
X8247142Y-19945714D01*
X8199523Y-20040952D01*
X8151904Y-20088571D01*
X8056666Y-20136190D01*
X7675714Y-20136190D01*
X9199523Y-20612380D02*
X8628095Y-20612380D01*
X8913809Y-20612380D02*
X8913809Y-19612380D01*
X8818571Y-19755238D01*
X8723333Y-19850476D01*
X8628095Y-19898095D01*
X10151904Y-20612380D02*
X9580476Y-20612380D01*
X9866190Y-20612380D02*
X9866190Y-19612380D01*
X9770952Y-19755238D01*
X9675714Y-19850476D01*
X9580476Y-19898095D01*
X18407142Y-20612380D02*
X18073809Y-20136190D01*
X17835714Y-20612380D02*
X17835714Y-19612380D01*
X18216666Y-19612380D01*
X18311904Y-19660000D01*
X18359523Y-19707619D01*
X18407142Y-19802857D01*
X18407142Y-19945714D01*
X18359523Y-20040952D01*
X18311904Y-20088571D01*
X18216666Y-20136190D01*
X17835714Y-20136190D01*
X19359523Y-20612380D02*
X18788095Y-20612380D01*
X19073809Y-20612380D02*
X19073809Y-19612380D01*
X18978571Y-19755238D01*
X18883333Y-19850476D01*
X18788095Y-19898095D01*
X19740476Y-19707619D02*
X19788095Y-19660000D01*
X19883333Y-19612380D01*
X20121428Y-19612380D01*
X20216666Y-19660000D01*
X20264285Y-19707619D01*
X20311904Y-19802857D01*
X20311904Y-19898095D01*
X20264285Y-20040952D01*
X19692857Y-20612380D01*
X20311904Y-20612380D01*
M02*
