G04 #@! TF.GenerationSoftware,KiCad,Pcbnew,5.1.4-e60b266~84~ubuntu18.04.1*
G04 #@! TF.CreationDate,2019-10-13T20:14:09+02:00*
G04 #@! TF.ProjectId,UpduinoLEDButtonExpander,55706475-696e-46f4-9c45-44427574746f,rev?*
G04 #@! TF.SameCoordinates,PX88dc9f0PY43d3480*
G04 #@! TF.FileFunction,Copper,L2,Bot*
G04 #@! TF.FilePolarity,Positive*
%FSLAX46Y46*%
G04 Gerber Fmt 4.6, Leading zero omitted, Abs format (unit mm)*
G04 Created by KiCad (PCBNEW 5.1.4-e60b266~84~ubuntu18.04.1) date 2019-10-13 20:14:09*
%MOMM*%
%LPD*%
G04 APERTURE LIST*
%ADD10C,1.700000*%
%ADD11R,1.800000X1.800000*%
%ADD12C,1.800000*%
%ADD13R,1.700000X1.700000*%
%ADD14O,1.700000X1.700000*%
%ADD15C,0.800000*%
%ADD16C,0.254000*%
G04 APERTURE END LIST*
D10*
X2485000Y-38885000D03*
X2485000Y-32385000D03*
X6985000Y-38885000D03*
X6985000Y-32385000D03*
D11*
X-16510000Y-24765000D03*
D12*
X-13970000Y-24765000D03*
X-3810000Y-24765000D03*
D11*
X-6350000Y-24765000D03*
D12*
X6350000Y-24765000D03*
D11*
X3810000Y-24765000D03*
X13970000Y-24765000D03*
D12*
X16510000Y-24765000D03*
D13*
X-19050000Y0D03*
D14*
X-16510000Y0D03*
X-13970000Y0D03*
X-11430000Y0D03*
X-8890000Y0D03*
X-6350000Y0D03*
X-3810000Y0D03*
X-1270000Y0D03*
X1270000Y0D03*
X3810000Y0D03*
X6350000Y0D03*
X8890000Y0D03*
X11430000Y0D03*
X13970000Y0D03*
X16510000Y0D03*
X19050000Y0D03*
D13*
X-19050000Y-17780000D03*
D14*
X-16510000Y-17780000D03*
X-13970000Y-17780000D03*
X-11430000Y-17780000D03*
X-8890000Y-17780000D03*
X-6350000Y-17780000D03*
X-3810000Y-17780000D03*
X-1270000Y-17780000D03*
X1270000Y-17780000D03*
X3810000Y-17780000D03*
X6350000Y-17780000D03*
X8890000Y-17780000D03*
X11430000Y-17780000D03*
X13970000Y-17780000D03*
X16510000Y-17780000D03*
X19050000Y-17780000D03*
D13*
X-19050000Y6350000D03*
D14*
X-16510000Y6350000D03*
X-13970000Y6350000D03*
X-11430000Y6350000D03*
X-8890000Y6350000D03*
X-6350000Y6350000D03*
X-3810000Y6350000D03*
X-1270000Y6350000D03*
X1270000Y6350000D03*
X3810000Y6350000D03*
X6350000Y6350000D03*
X8890000Y6350000D03*
X11430000Y6350000D03*
X13970000Y6350000D03*
X16510000Y6350000D03*
X19050000Y6350000D03*
D10*
X-17835000Y-38885000D03*
X-17835000Y-32385000D03*
X-13335000Y-38885000D03*
X-13335000Y-32385000D03*
X-3175000Y-32385000D03*
X-3175000Y-38885000D03*
X-7675000Y-32385000D03*
X-7675000Y-38885000D03*
X12645000Y-38885000D03*
X12645000Y-32385000D03*
X17145000Y-38885000D03*
X17145000Y-32385000D03*
D15*
X-17780000Y-29845000D03*
X-7620000Y-29845000D03*
X2540000Y-29845000D03*
X12700000Y-29845000D03*
D16*
G36*
X-20525812Y7324482D02*
G01*
X-20538072Y7200000D01*
X-20538072Y5500000D01*
X-20525812Y5375518D01*
X-20489502Y5255820D01*
X-20430537Y5145506D01*
X-20351185Y5048815D01*
X-20254494Y4969463D01*
X-20144180Y4910498D01*
X-20024482Y4874188D01*
X-19900000Y4861928D01*
X-18200000Y4861928D01*
X-18075518Y4874188D01*
X-17955820Y4910498D01*
X-17845506Y4969463D01*
X-17748815Y5048815D01*
X-17669463Y5145506D01*
X-17610498Y5255820D01*
X-17589607Y5324687D01*
X-17565134Y5294866D01*
X-17339014Y5109294D01*
X-17081034Y4971401D01*
X-16801111Y4886487D01*
X-16582950Y4865000D01*
X-16437050Y4865000D01*
X-16218889Y4886487D01*
X-15938966Y4971401D01*
X-15680986Y5109294D01*
X-15454866Y5294866D01*
X-15269294Y5520986D01*
X-15240000Y5575791D01*
X-15210706Y5520986D01*
X-15025134Y5294866D01*
X-14799014Y5109294D01*
X-14541034Y4971401D01*
X-14261111Y4886487D01*
X-14042950Y4865000D01*
X-13897050Y4865000D01*
X-13678889Y4886487D01*
X-13398966Y4971401D01*
X-13140986Y5109294D01*
X-12914866Y5294866D01*
X-12729294Y5520986D01*
X-12700000Y5575791D01*
X-12670706Y5520986D01*
X-12485134Y5294866D01*
X-12259014Y5109294D01*
X-12001034Y4971401D01*
X-11721111Y4886487D01*
X-11502950Y4865000D01*
X-11357050Y4865000D01*
X-11138889Y4886487D01*
X-10858966Y4971401D01*
X-10600986Y5109294D01*
X-10374866Y5294866D01*
X-10189294Y5520986D01*
X-10160000Y5575791D01*
X-10130706Y5520986D01*
X-9945134Y5294866D01*
X-9719014Y5109294D01*
X-9461034Y4971401D01*
X-9181111Y4886487D01*
X-8962950Y4865000D01*
X-8817050Y4865000D01*
X-8598889Y4886487D01*
X-8318966Y4971401D01*
X-8060986Y5109294D01*
X-7834866Y5294866D01*
X-7649294Y5520986D01*
X-7620000Y5575791D01*
X-7590706Y5520986D01*
X-7405134Y5294866D01*
X-7179014Y5109294D01*
X-6921034Y4971401D01*
X-6641111Y4886487D01*
X-6422950Y4865000D01*
X-6277050Y4865000D01*
X-6058889Y4886487D01*
X-5778966Y4971401D01*
X-5520986Y5109294D01*
X-5294866Y5294866D01*
X-5109294Y5520986D01*
X-5080000Y5575791D01*
X-5050706Y5520986D01*
X-4865134Y5294866D01*
X-4639014Y5109294D01*
X-4381034Y4971401D01*
X-4101111Y4886487D01*
X-3882950Y4865000D01*
X-3737050Y4865000D01*
X-3518889Y4886487D01*
X-3238966Y4971401D01*
X-2980986Y5109294D01*
X-2754866Y5294866D01*
X-2569294Y5520986D01*
X-2540000Y5575791D01*
X-2510706Y5520986D01*
X-2325134Y5294866D01*
X-2099014Y5109294D01*
X-1841034Y4971401D01*
X-1561111Y4886487D01*
X-1342950Y4865000D01*
X-1197050Y4865000D01*
X-978889Y4886487D01*
X-698966Y4971401D01*
X-440986Y5109294D01*
X-214866Y5294866D01*
X-29294Y5520986D01*
X0Y5575791D01*
X29294Y5520986D01*
X214866Y5294866D01*
X440986Y5109294D01*
X698966Y4971401D01*
X978889Y4886487D01*
X1197050Y4865000D01*
X1342950Y4865000D01*
X1561111Y4886487D01*
X1841034Y4971401D01*
X2099014Y5109294D01*
X2325134Y5294866D01*
X2510706Y5520986D01*
X2540000Y5575791D01*
X2569294Y5520986D01*
X2754866Y5294866D01*
X2980986Y5109294D01*
X3238966Y4971401D01*
X3518889Y4886487D01*
X3737050Y4865000D01*
X3882950Y4865000D01*
X4101111Y4886487D01*
X4381034Y4971401D01*
X4639014Y5109294D01*
X4865134Y5294866D01*
X5050706Y5520986D01*
X5080000Y5575791D01*
X5109294Y5520986D01*
X5294866Y5294866D01*
X5520986Y5109294D01*
X5778966Y4971401D01*
X6058889Y4886487D01*
X6277050Y4865000D01*
X6422950Y4865000D01*
X6641111Y4886487D01*
X6921034Y4971401D01*
X7179014Y5109294D01*
X7405134Y5294866D01*
X7590706Y5520986D01*
X7620000Y5575791D01*
X7649294Y5520986D01*
X7834866Y5294866D01*
X8060986Y5109294D01*
X8318966Y4971401D01*
X8598889Y4886487D01*
X8817050Y4865000D01*
X8962950Y4865000D01*
X9181111Y4886487D01*
X9461034Y4971401D01*
X9719014Y5109294D01*
X9945134Y5294866D01*
X10130706Y5520986D01*
X10160000Y5575791D01*
X10189294Y5520986D01*
X10374866Y5294866D01*
X10600986Y5109294D01*
X10858966Y4971401D01*
X11138889Y4886487D01*
X11357050Y4865000D01*
X11502950Y4865000D01*
X11721111Y4886487D01*
X12001034Y4971401D01*
X12259014Y5109294D01*
X12485134Y5294866D01*
X12670706Y5520986D01*
X12700000Y5575791D01*
X12729294Y5520986D01*
X12914866Y5294866D01*
X13140986Y5109294D01*
X13398966Y4971401D01*
X13678889Y4886487D01*
X13897050Y4865000D01*
X14042950Y4865000D01*
X14261111Y4886487D01*
X14541034Y4971401D01*
X14799014Y5109294D01*
X15025134Y5294866D01*
X15210706Y5520986D01*
X15245201Y5585523D01*
X15314822Y5468645D01*
X15509731Y5252412D01*
X15743080Y5078359D01*
X16005901Y4953175D01*
X16153110Y4908524D01*
X16383000Y5029845D01*
X16383000Y6223000D01*
X16363000Y6223000D01*
X16363000Y6477000D01*
X16383000Y6477000D01*
X16383000Y6497000D01*
X16637000Y6497000D01*
X16637000Y6477000D01*
X16657000Y6477000D01*
X16657000Y6223000D01*
X16637000Y6223000D01*
X16637000Y5029845D01*
X16866890Y4908524D01*
X17014099Y4953175D01*
X17276920Y5078359D01*
X17510269Y5252412D01*
X17705178Y5468645D01*
X17774799Y5585523D01*
X17809294Y5520986D01*
X17994866Y5294866D01*
X18220986Y5109294D01*
X18478966Y4971401D01*
X18758889Y4886487D01*
X18977050Y4865000D01*
X19122950Y4865000D01*
X19341111Y4886487D01*
X19621034Y4971401D01*
X19879014Y5109294D01*
X20105134Y5294866D01*
X20290706Y5520986D01*
X20428599Y5778966D01*
X20513513Y6058889D01*
X20542185Y6350000D01*
X20513513Y6641111D01*
X20428599Y6921034D01*
X20290706Y7179014D01*
X20158588Y7340000D01*
X24340000Y7340000D01*
X24340001Y-41340000D01*
X-24340000Y-41340000D01*
X-24340000Y-38738740D01*
X-19320000Y-38738740D01*
X-19320000Y-39031260D01*
X-19262932Y-39318158D01*
X-19150990Y-39588411D01*
X-18988475Y-39831632D01*
X-18781632Y-40038475D01*
X-18538411Y-40200990D01*
X-18268158Y-40312932D01*
X-17981260Y-40370000D01*
X-17688740Y-40370000D01*
X-17401842Y-40312932D01*
X-17131589Y-40200990D01*
X-16888368Y-40038475D01*
X-16763290Y-39913397D01*
X-14183792Y-39913397D01*
X-14106157Y-40162472D01*
X-13842117Y-40288371D01*
X-13558589Y-40360339D01*
X-13266469Y-40375611D01*
X-12976981Y-40333599D01*
X-12701253Y-40235919D01*
X-12563843Y-40162472D01*
X-12486208Y-39913397D01*
X-13335000Y-39064605D01*
X-14183792Y-39913397D01*
X-16763290Y-39913397D01*
X-16681525Y-39831632D01*
X-16519010Y-39588411D01*
X-16407068Y-39318158D01*
X-16350000Y-39031260D01*
X-16350000Y-38953531D01*
X-14825611Y-38953531D01*
X-14783599Y-39243019D01*
X-14685919Y-39518747D01*
X-14612472Y-39656157D01*
X-14363397Y-39733792D01*
X-13514605Y-38885000D01*
X-13155395Y-38885000D01*
X-12306603Y-39733792D01*
X-12057528Y-39656157D01*
X-11931629Y-39392117D01*
X-11859661Y-39108589D01*
X-11844389Y-38816469D01*
X-11855669Y-38738740D01*
X-9160000Y-38738740D01*
X-9160000Y-39031260D01*
X-9102932Y-39318158D01*
X-8990990Y-39588411D01*
X-8828475Y-39831632D01*
X-8621632Y-40038475D01*
X-8378411Y-40200990D01*
X-8108158Y-40312932D01*
X-7821260Y-40370000D01*
X-7528740Y-40370000D01*
X-7241842Y-40312932D01*
X-6971589Y-40200990D01*
X-6728368Y-40038475D01*
X-6603290Y-39913397D01*
X-4023792Y-39913397D01*
X-3946157Y-40162472D01*
X-3682117Y-40288371D01*
X-3398589Y-40360339D01*
X-3106469Y-40375611D01*
X-2816981Y-40333599D01*
X-2541253Y-40235919D01*
X-2403843Y-40162472D01*
X-2326208Y-39913397D01*
X-3175000Y-39064605D01*
X-4023792Y-39913397D01*
X-6603290Y-39913397D01*
X-6521525Y-39831632D01*
X-6359010Y-39588411D01*
X-6247068Y-39318158D01*
X-6190000Y-39031260D01*
X-6190000Y-38953531D01*
X-4665611Y-38953531D01*
X-4623599Y-39243019D01*
X-4525919Y-39518747D01*
X-4452472Y-39656157D01*
X-4203397Y-39733792D01*
X-3354605Y-38885000D01*
X-2995395Y-38885000D01*
X-2146603Y-39733792D01*
X-1897528Y-39656157D01*
X-1771629Y-39392117D01*
X-1699661Y-39108589D01*
X-1684389Y-38816469D01*
X-1695669Y-38738740D01*
X1000000Y-38738740D01*
X1000000Y-39031260D01*
X1057068Y-39318158D01*
X1169010Y-39588411D01*
X1331525Y-39831632D01*
X1538368Y-40038475D01*
X1781589Y-40200990D01*
X2051842Y-40312932D01*
X2338740Y-40370000D01*
X2631260Y-40370000D01*
X2918158Y-40312932D01*
X3188411Y-40200990D01*
X3431632Y-40038475D01*
X3556710Y-39913397D01*
X6136208Y-39913397D01*
X6213843Y-40162472D01*
X6477883Y-40288371D01*
X6761411Y-40360339D01*
X7053531Y-40375611D01*
X7343019Y-40333599D01*
X7618747Y-40235919D01*
X7756157Y-40162472D01*
X7833792Y-39913397D01*
X6985000Y-39064605D01*
X6136208Y-39913397D01*
X3556710Y-39913397D01*
X3638475Y-39831632D01*
X3800990Y-39588411D01*
X3912932Y-39318158D01*
X3970000Y-39031260D01*
X3970000Y-38953531D01*
X5494389Y-38953531D01*
X5536401Y-39243019D01*
X5634081Y-39518747D01*
X5707528Y-39656157D01*
X5956603Y-39733792D01*
X6805395Y-38885000D01*
X7164605Y-38885000D01*
X8013397Y-39733792D01*
X8262472Y-39656157D01*
X8388371Y-39392117D01*
X8460339Y-39108589D01*
X8475611Y-38816469D01*
X8464331Y-38738740D01*
X11160000Y-38738740D01*
X11160000Y-39031260D01*
X11217068Y-39318158D01*
X11329010Y-39588411D01*
X11491525Y-39831632D01*
X11698368Y-40038475D01*
X11941589Y-40200990D01*
X12211842Y-40312932D01*
X12498740Y-40370000D01*
X12791260Y-40370000D01*
X13078158Y-40312932D01*
X13348411Y-40200990D01*
X13591632Y-40038475D01*
X13716710Y-39913397D01*
X16296208Y-39913397D01*
X16373843Y-40162472D01*
X16637883Y-40288371D01*
X16921411Y-40360339D01*
X17213531Y-40375611D01*
X17503019Y-40333599D01*
X17778747Y-40235919D01*
X17916157Y-40162472D01*
X17993792Y-39913397D01*
X17145000Y-39064605D01*
X16296208Y-39913397D01*
X13716710Y-39913397D01*
X13798475Y-39831632D01*
X13960990Y-39588411D01*
X14072932Y-39318158D01*
X14130000Y-39031260D01*
X14130000Y-38953531D01*
X15654389Y-38953531D01*
X15696401Y-39243019D01*
X15794081Y-39518747D01*
X15867528Y-39656157D01*
X16116603Y-39733792D01*
X16965395Y-38885000D01*
X17324605Y-38885000D01*
X18173397Y-39733792D01*
X18422472Y-39656157D01*
X18548371Y-39392117D01*
X18620339Y-39108589D01*
X18635611Y-38816469D01*
X18593599Y-38526981D01*
X18495919Y-38251253D01*
X18422472Y-38113843D01*
X18173397Y-38036208D01*
X17324605Y-38885000D01*
X16965395Y-38885000D01*
X16116603Y-38036208D01*
X15867528Y-38113843D01*
X15741629Y-38377883D01*
X15669661Y-38661411D01*
X15654389Y-38953531D01*
X14130000Y-38953531D01*
X14130000Y-38738740D01*
X14072932Y-38451842D01*
X13960990Y-38181589D01*
X13798475Y-37938368D01*
X13716710Y-37856603D01*
X16296208Y-37856603D01*
X17145000Y-38705395D01*
X17993792Y-37856603D01*
X17916157Y-37607528D01*
X17652117Y-37481629D01*
X17368589Y-37409661D01*
X17076469Y-37394389D01*
X16786981Y-37436401D01*
X16511253Y-37534081D01*
X16373843Y-37607528D01*
X16296208Y-37856603D01*
X13716710Y-37856603D01*
X13591632Y-37731525D01*
X13348411Y-37569010D01*
X13078158Y-37457068D01*
X12791260Y-37400000D01*
X12498740Y-37400000D01*
X12211842Y-37457068D01*
X11941589Y-37569010D01*
X11698368Y-37731525D01*
X11491525Y-37938368D01*
X11329010Y-38181589D01*
X11217068Y-38451842D01*
X11160000Y-38738740D01*
X8464331Y-38738740D01*
X8433599Y-38526981D01*
X8335919Y-38251253D01*
X8262472Y-38113843D01*
X8013397Y-38036208D01*
X7164605Y-38885000D01*
X6805395Y-38885000D01*
X5956603Y-38036208D01*
X5707528Y-38113843D01*
X5581629Y-38377883D01*
X5509661Y-38661411D01*
X5494389Y-38953531D01*
X3970000Y-38953531D01*
X3970000Y-38738740D01*
X3912932Y-38451842D01*
X3800990Y-38181589D01*
X3638475Y-37938368D01*
X3556710Y-37856603D01*
X6136208Y-37856603D01*
X6985000Y-38705395D01*
X7833792Y-37856603D01*
X7756157Y-37607528D01*
X7492117Y-37481629D01*
X7208589Y-37409661D01*
X6916469Y-37394389D01*
X6626981Y-37436401D01*
X6351253Y-37534081D01*
X6213843Y-37607528D01*
X6136208Y-37856603D01*
X3556710Y-37856603D01*
X3431632Y-37731525D01*
X3188411Y-37569010D01*
X2918158Y-37457068D01*
X2631260Y-37400000D01*
X2338740Y-37400000D01*
X2051842Y-37457068D01*
X1781589Y-37569010D01*
X1538368Y-37731525D01*
X1331525Y-37938368D01*
X1169010Y-38181589D01*
X1057068Y-38451842D01*
X1000000Y-38738740D01*
X-1695669Y-38738740D01*
X-1726401Y-38526981D01*
X-1824081Y-38251253D01*
X-1897528Y-38113843D01*
X-2146603Y-38036208D01*
X-2995395Y-38885000D01*
X-3354605Y-38885000D01*
X-4203397Y-38036208D01*
X-4452472Y-38113843D01*
X-4578371Y-38377883D01*
X-4650339Y-38661411D01*
X-4665611Y-38953531D01*
X-6190000Y-38953531D01*
X-6190000Y-38738740D01*
X-6247068Y-38451842D01*
X-6359010Y-38181589D01*
X-6521525Y-37938368D01*
X-6603290Y-37856603D01*
X-4023792Y-37856603D01*
X-3175000Y-38705395D01*
X-2326208Y-37856603D01*
X-2403843Y-37607528D01*
X-2667883Y-37481629D01*
X-2951411Y-37409661D01*
X-3243531Y-37394389D01*
X-3533019Y-37436401D01*
X-3808747Y-37534081D01*
X-3946157Y-37607528D01*
X-4023792Y-37856603D01*
X-6603290Y-37856603D01*
X-6728368Y-37731525D01*
X-6971589Y-37569010D01*
X-7241842Y-37457068D01*
X-7528740Y-37400000D01*
X-7821260Y-37400000D01*
X-8108158Y-37457068D01*
X-8378411Y-37569010D01*
X-8621632Y-37731525D01*
X-8828475Y-37938368D01*
X-8990990Y-38181589D01*
X-9102932Y-38451842D01*
X-9160000Y-38738740D01*
X-11855669Y-38738740D01*
X-11886401Y-38526981D01*
X-11984081Y-38251253D01*
X-12057528Y-38113843D01*
X-12306603Y-38036208D01*
X-13155395Y-38885000D01*
X-13514605Y-38885000D01*
X-14363397Y-38036208D01*
X-14612472Y-38113843D01*
X-14738371Y-38377883D01*
X-14810339Y-38661411D01*
X-14825611Y-38953531D01*
X-16350000Y-38953531D01*
X-16350000Y-38738740D01*
X-16407068Y-38451842D01*
X-16519010Y-38181589D01*
X-16681525Y-37938368D01*
X-16763290Y-37856603D01*
X-14183792Y-37856603D01*
X-13335000Y-38705395D01*
X-12486208Y-37856603D01*
X-12563843Y-37607528D01*
X-12827883Y-37481629D01*
X-13111411Y-37409661D01*
X-13403531Y-37394389D01*
X-13693019Y-37436401D01*
X-13968747Y-37534081D01*
X-14106157Y-37607528D01*
X-14183792Y-37856603D01*
X-16763290Y-37856603D01*
X-16888368Y-37731525D01*
X-17131589Y-37569010D01*
X-17401842Y-37457068D01*
X-17688740Y-37400000D01*
X-17981260Y-37400000D01*
X-18268158Y-37457068D01*
X-18538411Y-37569010D01*
X-18781632Y-37731525D01*
X-18988475Y-37938368D01*
X-19150990Y-38181589D01*
X-19262932Y-38451842D01*
X-19320000Y-38738740D01*
X-24340000Y-38738740D01*
X-24340000Y-32238740D01*
X-19320000Y-32238740D01*
X-19320000Y-32531260D01*
X-19262932Y-32818158D01*
X-19150990Y-33088411D01*
X-18988475Y-33331632D01*
X-18781632Y-33538475D01*
X-18538411Y-33700990D01*
X-18268158Y-33812932D01*
X-17981260Y-33870000D01*
X-17688740Y-33870000D01*
X-17401842Y-33812932D01*
X-17131589Y-33700990D01*
X-16888368Y-33538475D01*
X-16763290Y-33413397D01*
X-14183792Y-33413397D01*
X-14106157Y-33662472D01*
X-13842117Y-33788371D01*
X-13558589Y-33860339D01*
X-13266469Y-33875611D01*
X-12976981Y-33833599D01*
X-12701253Y-33735919D01*
X-12563843Y-33662472D01*
X-12486208Y-33413397D01*
X-13335000Y-32564605D01*
X-14183792Y-33413397D01*
X-16763290Y-33413397D01*
X-16681525Y-33331632D01*
X-16519010Y-33088411D01*
X-16407068Y-32818158D01*
X-16350000Y-32531260D01*
X-16350000Y-32453531D01*
X-14825611Y-32453531D01*
X-14783599Y-32743019D01*
X-14685919Y-33018747D01*
X-14612472Y-33156157D01*
X-14363397Y-33233792D01*
X-13514605Y-32385000D01*
X-13155395Y-32385000D01*
X-12306603Y-33233792D01*
X-12057528Y-33156157D01*
X-11931629Y-32892117D01*
X-11859661Y-32608589D01*
X-11844389Y-32316469D01*
X-11855669Y-32238740D01*
X-9160000Y-32238740D01*
X-9160000Y-32531260D01*
X-9102932Y-32818158D01*
X-8990990Y-33088411D01*
X-8828475Y-33331632D01*
X-8621632Y-33538475D01*
X-8378411Y-33700990D01*
X-8108158Y-33812932D01*
X-7821260Y-33870000D01*
X-7528740Y-33870000D01*
X-7241842Y-33812932D01*
X-6971589Y-33700990D01*
X-6728368Y-33538475D01*
X-6603290Y-33413397D01*
X-4023792Y-33413397D01*
X-3946157Y-33662472D01*
X-3682117Y-33788371D01*
X-3398589Y-33860339D01*
X-3106469Y-33875611D01*
X-2816981Y-33833599D01*
X-2541253Y-33735919D01*
X-2403843Y-33662472D01*
X-2326208Y-33413397D01*
X-3175000Y-32564605D01*
X-4023792Y-33413397D01*
X-6603290Y-33413397D01*
X-6521525Y-33331632D01*
X-6359010Y-33088411D01*
X-6247068Y-32818158D01*
X-6190000Y-32531260D01*
X-6190000Y-32453531D01*
X-4665611Y-32453531D01*
X-4623599Y-32743019D01*
X-4525919Y-33018747D01*
X-4452472Y-33156157D01*
X-4203397Y-33233792D01*
X-3354605Y-32385000D01*
X-2995395Y-32385000D01*
X-2146603Y-33233792D01*
X-1897528Y-33156157D01*
X-1771629Y-32892117D01*
X-1699661Y-32608589D01*
X-1684389Y-32316469D01*
X-1695669Y-32238740D01*
X1000000Y-32238740D01*
X1000000Y-32531260D01*
X1057068Y-32818158D01*
X1169010Y-33088411D01*
X1331525Y-33331632D01*
X1538368Y-33538475D01*
X1781589Y-33700990D01*
X2051842Y-33812932D01*
X2338740Y-33870000D01*
X2631260Y-33870000D01*
X2918158Y-33812932D01*
X3188411Y-33700990D01*
X3431632Y-33538475D01*
X3556710Y-33413397D01*
X6136208Y-33413397D01*
X6213843Y-33662472D01*
X6477883Y-33788371D01*
X6761411Y-33860339D01*
X7053531Y-33875611D01*
X7343019Y-33833599D01*
X7618747Y-33735919D01*
X7756157Y-33662472D01*
X7833792Y-33413397D01*
X6985000Y-32564605D01*
X6136208Y-33413397D01*
X3556710Y-33413397D01*
X3638475Y-33331632D01*
X3800990Y-33088411D01*
X3912932Y-32818158D01*
X3970000Y-32531260D01*
X3970000Y-32453531D01*
X5494389Y-32453531D01*
X5536401Y-32743019D01*
X5634081Y-33018747D01*
X5707528Y-33156157D01*
X5956603Y-33233792D01*
X6805395Y-32385000D01*
X7164605Y-32385000D01*
X8013397Y-33233792D01*
X8262472Y-33156157D01*
X8388371Y-32892117D01*
X8460339Y-32608589D01*
X8475611Y-32316469D01*
X8464331Y-32238740D01*
X11160000Y-32238740D01*
X11160000Y-32531260D01*
X11217068Y-32818158D01*
X11329010Y-33088411D01*
X11491525Y-33331632D01*
X11698368Y-33538475D01*
X11941589Y-33700990D01*
X12211842Y-33812932D01*
X12498740Y-33870000D01*
X12791260Y-33870000D01*
X13078158Y-33812932D01*
X13348411Y-33700990D01*
X13591632Y-33538475D01*
X13716710Y-33413397D01*
X16296208Y-33413397D01*
X16373843Y-33662472D01*
X16637883Y-33788371D01*
X16921411Y-33860339D01*
X17213531Y-33875611D01*
X17503019Y-33833599D01*
X17778747Y-33735919D01*
X17916157Y-33662472D01*
X17993792Y-33413397D01*
X17145000Y-32564605D01*
X16296208Y-33413397D01*
X13716710Y-33413397D01*
X13798475Y-33331632D01*
X13960990Y-33088411D01*
X14072932Y-32818158D01*
X14130000Y-32531260D01*
X14130000Y-32453531D01*
X15654389Y-32453531D01*
X15696401Y-32743019D01*
X15794081Y-33018747D01*
X15867528Y-33156157D01*
X16116603Y-33233792D01*
X16965395Y-32385000D01*
X17324605Y-32385000D01*
X18173397Y-33233792D01*
X18422472Y-33156157D01*
X18548371Y-32892117D01*
X18620339Y-32608589D01*
X18635611Y-32316469D01*
X18593599Y-32026981D01*
X18495919Y-31751253D01*
X18422472Y-31613843D01*
X18173397Y-31536208D01*
X17324605Y-32385000D01*
X16965395Y-32385000D01*
X16116603Y-31536208D01*
X15867528Y-31613843D01*
X15741629Y-31877883D01*
X15669661Y-32161411D01*
X15654389Y-32453531D01*
X14130000Y-32453531D01*
X14130000Y-32238740D01*
X14072932Y-31951842D01*
X13960990Y-31681589D01*
X13798475Y-31438368D01*
X13716710Y-31356603D01*
X16296208Y-31356603D01*
X17145000Y-32205395D01*
X17993792Y-31356603D01*
X17916157Y-31107528D01*
X17652117Y-30981629D01*
X17368589Y-30909661D01*
X17076469Y-30894389D01*
X16786981Y-30936401D01*
X16511253Y-31034081D01*
X16373843Y-31107528D01*
X16296208Y-31356603D01*
X13716710Y-31356603D01*
X13591632Y-31231525D01*
X13348411Y-31069010D01*
X13078158Y-30957068D01*
X12791260Y-30900000D01*
X12498740Y-30900000D01*
X12211842Y-30957068D01*
X11941589Y-31069010D01*
X11698368Y-31231525D01*
X11491525Y-31438368D01*
X11329010Y-31681589D01*
X11217068Y-31951842D01*
X11160000Y-32238740D01*
X8464331Y-32238740D01*
X8433599Y-32026981D01*
X8335919Y-31751253D01*
X8262472Y-31613843D01*
X8013397Y-31536208D01*
X7164605Y-32385000D01*
X6805395Y-32385000D01*
X5956603Y-31536208D01*
X5707528Y-31613843D01*
X5581629Y-31877883D01*
X5509661Y-32161411D01*
X5494389Y-32453531D01*
X3970000Y-32453531D01*
X3970000Y-32238740D01*
X3912932Y-31951842D01*
X3800990Y-31681589D01*
X3638475Y-31438368D01*
X3556710Y-31356603D01*
X6136208Y-31356603D01*
X6985000Y-32205395D01*
X7833792Y-31356603D01*
X7756157Y-31107528D01*
X7492117Y-30981629D01*
X7208589Y-30909661D01*
X6916469Y-30894389D01*
X6626981Y-30936401D01*
X6351253Y-31034081D01*
X6213843Y-31107528D01*
X6136208Y-31356603D01*
X3556710Y-31356603D01*
X3431632Y-31231525D01*
X3188411Y-31069010D01*
X2918158Y-30957068D01*
X2631260Y-30900000D01*
X2338740Y-30900000D01*
X2051842Y-30957068D01*
X1781589Y-31069010D01*
X1538368Y-31231525D01*
X1331525Y-31438368D01*
X1169010Y-31681589D01*
X1057068Y-31951842D01*
X1000000Y-32238740D01*
X-1695669Y-32238740D01*
X-1726401Y-32026981D01*
X-1824081Y-31751253D01*
X-1897528Y-31613843D01*
X-2146603Y-31536208D01*
X-2995395Y-32385000D01*
X-3354605Y-32385000D01*
X-4203397Y-31536208D01*
X-4452472Y-31613843D01*
X-4578371Y-31877883D01*
X-4650339Y-32161411D01*
X-4665611Y-32453531D01*
X-6190000Y-32453531D01*
X-6190000Y-32238740D01*
X-6247068Y-31951842D01*
X-6359010Y-31681589D01*
X-6521525Y-31438368D01*
X-6603290Y-31356603D01*
X-4023792Y-31356603D01*
X-3175000Y-32205395D01*
X-2326208Y-31356603D01*
X-2403843Y-31107528D01*
X-2667883Y-30981629D01*
X-2951411Y-30909661D01*
X-3243531Y-30894389D01*
X-3533019Y-30936401D01*
X-3808747Y-31034081D01*
X-3946157Y-31107528D01*
X-4023792Y-31356603D01*
X-6603290Y-31356603D01*
X-6728368Y-31231525D01*
X-6971589Y-31069010D01*
X-7241842Y-30957068D01*
X-7528740Y-30900000D01*
X-7821260Y-30900000D01*
X-8108158Y-30957068D01*
X-8378411Y-31069010D01*
X-8621632Y-31231525D01*
X-8828475Y-31438368D01*
X-8990990Y-31681589D01*
X-9102932Y-31951842D01*
X-9160000Y-32238740D01*
X-11855669Y-32238740D01*
X-11886401Y-32026981D01*
X-11984081Y-31751253D01*
X-12057528Y-31613843D01*
X-12306603Y-31536208D01*
X-13155395Y-32385000D01*
X-13514605Y-32385000D01*
X-14363397Y-31536208D01*
X-14612472Y-31613843D01*
X-14738371Y-31877883D01*
X-14810339Y-32161411D01*
X-14825611Y-32453531D01*
X-16350000Y-32453531D01*
X-16350000Y-32238740D01*
X-16407068Y-31951842D01*
X-16519010Y-31681589D01*
X-16681525Y-31438368D01*
X-16763290Y-31356603D01*
X-14183792Y-31356603D01*
X-13335000Y-32205395D01*
X-12486208Y-31356603D01*
X-12563843Y-31107528D01*
X-12827883Y-30981629D01*
X-13111411Y-30909661D01*
X-13403531Y-30894389D01*
X-13693019Y-30936401D01*
X-13968747Y-31034081D01*
X-14106157Y-31107528D01*
X-14183792Y-31356603D01*
X-16763290Y-31356603D01*
X-16888368Y-31231525D01*
X-17131589Y-31069010D01*
X-17401842Y-30957068D01*
X-17688740Y-30900000D01*
X-17981260Y-30900000D01*
X-18268158Y-30957068D01*
X-18538411Y-31069010D01*
X-18781632Y-31231525D01*
X-18988475Y-31438368D01*
X-19150990Y-31681589D01*
X-19262932Y-31951842D01*
X-19320000Y-32238740D01*
X-24340000Y-32238740D01*
X-24340000Y-25665000D01*
X-18048072Y-25665000D01*
X-18035812Y-25789482D01*
X-17999502Y-25909180D01*
X-17940537Y-26019494D01*
X-17861185Y-26116185D01*
X-17764494Y-26195537D01*
X-17654180Y-26254502D01*
X-17534482Y-26290812D01*
X-17410000Y-26303072D01*
X-16795750Y-26300000D01*
X-16637000Y-26141250D01*
X-16637000Y-24892000D01*
X-17886250Y-24892000D01*
X-18045000Y-25050750D01*
X-18048072Y-25665000D01*
X-24340000Y-25665000D01*
X-24340000Y-23865000D01*
X-18048072Y-23865000D01*
X-18045000Y-24479250D01*
X-17886250Y-24638000D01*
X-16637000Y-24638000D01*
X-16637000Y-23388750D01*
X-16383000Y-23388750D01*
X-16383000Y-24638000D01*
X-16363000Y-24638000D01*
X-16363000Y-24892000D01*
X-16383000Y-24892000D01*
X-16383000Y-26141250D01*
X-16224250Y-26300000D01*
X-15610000Y-26303072D01*
X-15485518Y-26290812D01*
X-15365820Y-26254502D01*
X-15255506Y-26195537D01*
X-15158815Y-26116185D01*
X-15079463Y-26019494D01*
X-15020498Y-25909180D01*
X-15014944Y-25890873D01*
X-14948505Y-25957312D01*
X-14697095Y-26125299D01*
X-14417743Y-26241011D01*
X-14121184Y-26300000D01*
X-13818816Y-26300000D01*
X-13522257Y-26241011D01*
X-13242905Y-26125299D01*
X-12991495Y-25957312D01*
X-12777688Y-25743505D01*
X-12725233Y-25665000D01*
X-7888072Y-25665000D01*
X-7875812Y-25789482D01*
X-7839502Y-25909180D01*
X-7780537Y-26019494D01*
X-7701185Y-26116185D01*
X-7604494Y-26195537D01*
X-7494180Y-26254502D01*
X-7374482Y-26290812D01*
X-7250000Y-26303072D01*
X-6635750Y-26300000D01*
X-6477000Y-26141250D01*
X-6477000Y-24892000D01*
X-7726250Y-24892000D01*
X-7885000Y-25050750D01*
X-7888072Y-25665000D01*
X-12725233Y-25665000D01*
X-12609701Y-25492095D01*
X-12493989Y-25212743D01*
X-12435000Y-24916184D01*
X-12435000Y-24613816D01*
X-12493989Y-24317257D01*
X-12609701Y-24037905D01*
X-12725232Y-23865000D01*
X-7888072Y-23865000D01*
X-7885000Y-24479250D01*
X-7726250Y-24638000D01*
X-6477000Y-24638000D01*
X-6477000Y-23388750D01*
X-6223000Y-23388750D01*
X-6223000Y-24638000D01*
X-6203000Y-24638000D01*
X-6203000Y-24892000D01*
X-6223000Y-24892000D01*
X-6223000Y-26141250D01*
X-6064250Y-26300000D01*
X-5450000Y-26303072D01*
X-5325518Y-26290812D01*
X-5205820Y-26254502D01*
X-5095506Y-26195537D01*
X-4998815Y-26116185D01*
X-4919463Y-26019494D01*
X-4860498Y-25909180D01*
X-4854944Y-25890873D01*
X-4788505Y-25957312D01*
X-4537095Y-26125299D01*
X-4257743Y-26241011D01*
X-3961184Y-26300000D01*
X-3658816Y-26300000D01*
X-3362257Y-26241011D01*
X-3082905Y-26125299D01*
X-2831495Y-25957312D01*
X-2617688Y-25743505D01*
X-2565233Y-25665000D01*
X2271928Y-25665000D01*
X2284188Y-25789482D01*
X2320498Y-25909180D01*
X2379463Y-26019494D01*
X2458815Y-26116185D01*
X2555506Y-26195537D01*
X2665820Y-26254502D01*
X2785518Y-26290812D01*
X2910000Y-26303072D01*
X3524250Y-26300000D01*
X3683000Y-26141250D01*
X3683000Y-24892000D01*
X2433750Y-24892000D01*
X2275000Y-25050750D01*
X2271928Y-25665000D01*
X-2565233Y-25665000D01*
X-2449701Y-25492095D01*
X-2333989Y-25212743D01*
X-2275000Y-24916184D01*
X-2275000Y-24613816D01*
X-2333989Y-24317257D01*
X-2449701Y-24037905D01*
X-2565232Y-23865000D01*
X2271928Y-23865000D01*
X2275000Y-24479250D01*
X2433750Y-24638000D01*
X3683000Y-24638000D01*
X3683000Y-23388750D01*
X3937000Y-23388750D01*
X3937000Y-24638000D01*
X3957000Y-24638000D01*
X3957000Y-24892000D01*
X3937000Y-24892000D01*
X3937000Y-26141250D01*
X4095750Y-26300000D01*
X4710000Y-26303072D01*
X4834482Y-26290812D01*
X4954180Y-26254502D01*
X5064494Y-26195537D01*
X5161185Y-26116185D01*
X5240537Y-26019494D01*
X5299502Y-25909180D01*
X5305056Y-25890873D01*
X5371495Y-25957312D01*
X5622905Y-26125299D01*
X5902257Y-26241011D01*
X6198816Y-26300000D01*
X6501184Y-26300000D01*
X6797743Y-26241011D01*
X7077095Y-26125299D01*
X7328505Y-25957312D01*
X7542312Y-25743505D01*
X7594767Y-25665000D01*
X12431928Y-25665000D01*
X12444188Y-25789482D01*
X12480498Y-25909180D01*
X12539463Y-26019494D01*
X12618815Y-26116185D01*
X12715506Y-26195537D01*
X12825820Y-26254502D01*
X12945518Y-26290812D01*
X13070000Y-26303072D01*
X13684250Y-26300000D01*
X13843000Y-26141250D01*
X13843000Y-24892000D01*
X12593750Y-24892000D01*
X12435000Y-25050750D01*
X12431928Y-25665000D01*
X7594767Y-25665000D01*
X7710299Y-25492095D01*
X7826011Y-25212743D01*
X7885000Y-24916184D01*
X7885000Y-24613816D01*
X7826011Y-24317257D01*
X7710299Y-24037905D01*
X7594768Y-23865000D01*
X12431928Y-23865000D01*
X12435000Y-24479250D01*
X12593750Y-24638000D01*
X13843000Y-24638000D01*
X13843000Y-23388750D01*
X14097000Y-23388750D01*
X14097000Y-24638000D01*
X14117000Y-24638000D01*
X14117000Y-24892000D01*
X14097000Y-24892000D01*
X14097000Y-26141250D01*
X14255750Y-26300000D01*
X14870000Y-26303072D01*
X14994482Y-26290812D01*
X15114180Y-26254502D01*
X15224494Y-26195537D01*
X15321185Y-26116185D01*
X15400537Y-26019494D01*
X15459502Y-25909180D01*
X15465056Y-25890873D01*
X15531495Y-25957312D01*
X15782905Y-26125299D01*
X16062257Y-26241011D01*
X16358816Y-26300000D01*
X16661184Y-26300000D01*
X16957743Y-26241011D01*
X17237095Y-26125299D01*
X17488505Y-25957312D01*
X17702312Y-25743505D01*
X17870299Y-25492095D01*
X17986011Y-25212743D01*
X18045000Y-24916184D01*
X18045000Y-24613816D01*
X17986011Y-24317257D01*
X17870299Y-24037905D01*
X17702312Y-23786495D01*
X17488505Y-23572688D01*
X17237095Y-23404701D01*
X16957743Y-23288989D01*
X16661184Y-23230000D01*
X16358816Y-23230000D01*
X16062257Y-23288989D01*
X15782905Y-23404701D01*
X15531495Y-23572688D01*
X15465056Y-23639127D01*
X15459502Y-23620820D01*
X15400537Y-23510506D01*
X15321185Y-23413815D01*
X15224494Y-23334463D01*
X15114180Y-23275498D01*
X14994482Y-23239188D01*
X14870000Y-23226928D01*
X14255750Y-23230000D01*
X14097000Y-23388750D01*
X13843000Y-23388750D01*
X13684250Y-23230000D01*
X13070000Y-23226928D01*
X12945518Y-23239188D01*
X12825820Y-23275498D01*
X12715506Y-23334463D01*
X12618815Y-23413815D01*
X12539463Y-23510506D01*
X12480498Y-23620820D01*
X12444188Y-23740518D01*
X12431928Y-23865000D01*
X7594768Y-23865000D01*
X7542312Y-23786495D01*
X7328505Y-23572688D01*
X7077095Y-23404701D01*
X6797743Y-23288989D01*
X6501184Y-23230000D01*
X6198816Y-23230000D01*
X5902257Y-23288989D01*
X5622905Y-23404701D01*
X5371495Y-23572688D01*
X5305056Y-23639127D01*
X5299502Y-23620820D01*
X5240537Y-23510506D01*
X5161185Y-23413815D01*
X5064494Y-23334463D01*
X4954180Y-23275498D01*
X4834482Y-23239188D01*
X4710000Y-23226928D01*
X4095750Y-23230000D01*
X3937000Y-23388750D01*
X3683000Y-23388750D01*
X3524250Y-23230000D01*
X2910000Y-23226928D01*
X2785518Y-23239188D01*
X2665820Y-23275498D01*
X2555506Y-23334463D01*
X2458815Y-23413815D01*
X2379463Y-23510506D01*
X2320498Y-23620820D01*
X2284188Y-23740518D01*
X2271928Y-23865000D01*
X-2565232Y-23865000D01*
X-2617688Y-23786495D01*
X-2831495Y-23572688D01*
X-3082905Y-23404701D01*
X-3362257Y-23288989D01*
X-3658816Y-23230000D01*
X-3961184Y-23230000D01*
X-4257743Y-23288989D01*
X-4537095Y-23404701D01*
X-4788505Y-23572688D01*
X-4854944Y-23639127D01*
X-4860498Y-23620820D01*
X-4919463Y-23510506D01*
X-4998815Y-23413815D01*
X-5095506Y-23334463D01*
X-5205820Y-23275498D01*
X-5325518Y-23239188D01*
X-5450000Y-23226928D01*
X-6064250Y-23230000D01*
X-6223000Y-23388750D01*
X-6477000Y-23388750D01*
X-6635750Y-23230000D01*
X-7250000Y-23226928D01*
X-7374482Y-23239188D01*
X-7494180Y-23275498D01*
X-7604494Y-23334463D01*
X-7701185Y-23413815D01*
X-7780537Y-23510506D01*
X-7839502Y-23620820D01*
X-7875812Y-23740518D01*
X-7888072Y-23865000D01*
X-12725232Y-23865000D01*
X-12777688Y-23786495D01*
X-12991495Y-23572688D01*
X-13242905Y-23404701D01*
X-13522257Y-23288989D01*
X-13818816Y-23230000D01*
X-14121184Y-23230000D01*
X-14417743Y-23288989D01*
X-14697095Y-23404701D01*
X-14948505Y-23572688D01*
X-15014944Y-23639127D01*
X-15020498Y-23620820D01*
X-15079463Y-23510506D01*
X-15158815Y-23413815D01*
X-15255506Y-23334463D01*
X-15365820Y-23275498D01*
X-15485518Y-23239188D01*
X-15610000Y-23226928D01*
X-16224250Y-23230000D01*
X-16383000Y-23388750D01*
X-16637000Y-23388750D01*
X-16795750Y-23230000D01*
X-17410000Y-23226928D01*
X-17534482Y-23239188D01*
X-17654180Y-23275498D01*
X-17764494Y-23334463D01*
X-17861185Y-23413815D01*
X-17940537Y-23510506D01*
X-17999502Y-23620820D01*
X-18035812Y-23740518D01*
X-18048072Y-23865000D01*
X-24340000Y-23865000D01*
X-24340000Y-16930000D01*
X-20538072Y-16930000D01*
X-20538072Y-18630000D01*
X-20525812Y-18754482D01*
X-20489502Y-18874180D01*
X-20430537Y-18984494D01*
X-20351185Y-19081185D01*
X-20254494Y-19160537D01*
X-20144180Y-19219502D01*
X-20024482Y-19255812D01*
X-19900000Y-19268072D01*
X-18200000Y-19268072D01*
X-18075518Y-19255812D01*
X-17955820Y-19219502D01*
X-17845506Y-19160537D01*
X-17748815Y-19081185D01*
X-17669463Y-18984494D01*
X-17610498Y-18874180D01*
X-17589607Y-18805313D01*
X-17565134Y-18835134D01*
X-17339014Y-19020706D01*
X-17081034Y-19158599D01*
X-16801111Y-19243513D01*
X-16582950Y-19265000D01*
X-16437050Y-19265000D01*
X-16218889Y-19243513D01*
X-15938966Y-19158599D01*
X-15680986Y-19020706D01*
X-15454866Y-18835134D01*
X-15269294Y-18609014D01*
X-15240000Y-18554209D01*
X-15210706Y-18609014D01*
X-15025134Y-18835134D01*
X-14799014Y-19020706D01*
X-14541034Y-19158599D01*
X-14261111Y-19243513D01*
X-14042950Y-19265000D01*
X-13897050Y-19265000D01*
X-13678889Y-19243513D01*
X-13398966Y-19158599D01*
X-13140986Y-19020706D01*
X-12914866Y-18835134D01*
X-12729294Y-18609014D01*
X-12700000Y-18554209D01*
X-12670706Y-18609014D01*
X-12485134Y-18835134D01*
X-12259014Y-19020706D01*
X-12001034Y-19158599D01*
X-11721111Y-19243513D01*
X-11502950Y-19265000D01*
X-11357050Y-19265000D01*
X-11138889Y-19243513D01*
X-10858966Y-19158599D01*
X-10600986Y-19020706D01*
X-10374866Y-18835134D01*
X-10189294Y-18609014D01*
X-10160000Y-18554209D01*
X-10130706Y-18609014D01*
X-9945134Y-18835134D01*
X-9719014Y-19020706D01*
X-9461034Y-19158599D01*
X-9181111Y-19243513D01*
X-8962950Y-19265000D01*
X-8817050Y-19265000D01*
X-8598889Y-19243513D01*
X-8318966Y-19158599D01*
X-8060986Y-19020706D01*
X-7834866Y-18835134D01*
X-7649294Y-18609014D01*
X-7620000Y-18554209D01*
X-7590706Y-18609014D01*
X-7405134Y-18835134D01*
X-7179014Y-19020706D01*
X-6921034Y-19158599D01*
X-6641111Y-19243513D01*
X-6422950Y-19265000D01*
X-6277050Y-19265000D01*
X-6058889Y-19243513D01*
X-5778966Y-19158599D01*
X-5520986Y-19020706D01*
X-5294866Y-18835134D01*
X-5109294Y-18609014D01*
X-5080000Y-18554209D01*
X-5050706Y-18609014D01*
X-4865134Y-18835134D01*
X-4639014Y-19020706D01*
X-4381034Y-19158599D01*
X-4101111Y-19243513D01*
X-3882950Y-19265000D01*
X-3737050Y-19265000D01*
X-3518889Y-19243513D01*
X-3238966Y-19158599D01*
X-2980986Y-19020706D01*
X-2754866Y-18835134D01*
X-2569294Y-18609014D01*
X-2540000Y-18554209D01*
X-2510706Y-18609014D01*
X-2325134Y-18835134D01*
X-2099014Y-19020706D01*
X-1841034Y-19158599D01*
X-1561111Y-19243513D01*
X-1342950Y-19265000D01*
X-1197050Y-19265000D01*
X-978889Y-19243513D01*
X-698966Y-19158599D01*
X-440986Y-19020706D01*
X-214866Y-18835134D01*
X-29294Y-18609014D01*
X0Y-18554209D01*
X29294Y-18609014D01*
X214866Y-18835134D01*
X440986Y-19020706D01*
X698966Y-19158599D01*
X978889Y-19243513D01*
X1197050Y-19265000D01*
X1342950Y-19265000D01*
X1561111Y-19243513D01*
X1841034Y-19158599D01*
X2099014Y-19020706D01*
X2325134Y-18835134D01*
X2510706Y-18609014D01*
X2540000Y-18554209D01*
X2569294Y-18609014D01*
X2754866Y-18835134D01*
X2980986Y-19020706D01*
X3238966Y-19158599D01*
X3518889Y-19243513D01*
X3737050Y-19265000D01*
X3882950Y-19265000D01*
X4101111Y-19243513D01*
X4381034Y-19158599D01*
X4639014Y-19020706D01*
X4865134Y-18835134D01*
X5050706Y-18609014D01*
X5080000Y-18554209D01*
X5109294Y-18609014D01*
X5294866Y-18835134D01*
X5520986Y-19020706D01*
X5778966Y-19158599D01*
X6058889Y-19243513D01*
X6277050Y-19265000D01*
X6422950Y-19265000D01*
X6641111Y-19243513D01*
X6921034Y-19158599D01*
X7179014Y-19020706D01*
X7405134Y-18835134D01*
X7590706Y-18609014D01*
X7620000Y-18554209D01*
X7649294Y-18609014D01*
X7834866Y-18835134D01*
X8060986Y-19020706D01*
X8318966Y-19158599D01*
X8598889Y-19243513D01*
X8817050Y-19265000D01*
X8962950Y-19265000D01*
X9181111Y-19243513D01*
X9461034Y-19158599D01*
X9719014Y-19020706D01*
X9945134Y-18835134D01*
X10130706Y-18609014D01*
X10160000Y-18554209D01*
X10189294Y-18609014D01*
X10374866Y-18835134D01*
X10600986Y-19020706D01*
X10858966Y-19158599D01*
X11138889Y-19243513D01*
X11357050Y-19265000D01*
X11502950Y-19265000D01*
X11721111Y-19243513D01*
X12001034Y-19158599D01*
X12259014Y-19020706D01*
X12485134Y-18835134D01*
X12670706Y-18609014D01*
X12700000Y-18554209D01*
X12729294Y-18609014D01*
X12914866Y-18835134D01*
X13140986Y-19020706D01*
X13398966Y-19158599D01*
X13678889Y-19243513D01*
X13897050Y-19265000D01*
X14042950Y-19265000D01*
X14261111Y-19243513D01*
X14541034Y-19158599D01*
X14799014Y-19020706D01*
X15025134Y-18835134D01*
X15210706Y-18609014D01*
X15240000Y-18554209D01*
X15269294Y-18609014D01*
X15454866Y-18835134D01*
X15680986Y-19020706D01*
X15938966Y-19158599D01*
X16218889Y-19243513D01*
X16437050Y-19265000D01*
X16582950Y-19265000D01*
X16801111Y-19243513D01*
X17081034Y-19158599D01*
X17339014Y-19020706D01*
X17565134Y-18835134D01*
X17750706Y-18609014D01*
X17780000Y-18554209D01*
X17809294Y-18609014D01*
X17994866Y-18835134D01*
X18220986Y-19020706D01*
X18478966Y-19158599D01*
X18758889Y-19243513D01*
X18977050Y-19265000D01*
X19122950Y-19265000D01*
X19341111Y-19243513D01*
X19621034Y-19158599D01*
X19879014Y-19020706D01*
X20105134Y-18835134D01*
X20290706Y-18609014D01*
X20428599Y-18351034D01*
X20513513Y-18071111D01*
X20542185Y-17780000D01*
X20513513Y-17488889D01*
X20428599Y-17208966D01*
X20290706Y-16950986D01*
X20105134Y-16724866D01*
X19879014Y-16539294D01*
X19621034Y-16401401D01*
X19341111Y-16316487D01*
X19122950Y-16295000D01*
X18977050Y-16295000D01*
X18758889Y-16316487D01*
X18478966Y-16401401D01*
X18220986Y-16539294D01*
X17994866Y-16724866D01*
X17809294Y-16950986D01*
X17780000Y-17005791D01*
X17750706Y-16950986D01*
X17565134Y-16724866D01*
X17339014Y-16539294D01*
X17081034Y-16401401D01*
X16801111Y-16316487D01*
X16582950Y-16295000D01*
X16437050Y-16295000D01*
X16218889Y-16316487D01*
X15938966Y-16401401D01*
X15680986Y-16539294D01*
X15454866Y-16724866D01*
X15269294Y-16950986D01*
X15240000Y-17005791D01*
X15210706Y-16950986D01*
X15025134Y-16724866D01*
X14799014Y-16539294D01*
X14541034Y-16401401D01*
X14261111Y-16316487D01*
X14042950Y-16295000D01*
X13897050Y-16295000D01*
X13678889Y-16316487D01*
X13398966Y-16401401D01*
X13140986Y-16539294D01*
X12914866Y-16724866D01*
X12729294Y-16950986D01*
X12700000Y-17005791D01*
X12670706Y-16950986D01*
X12485134Y-16724866D01*
X12259014Y-16539294D01*
X12001034Y-16401401D01*
X11721111Y-16316487D01*
X11502950Y-16295000D01*
X11357050Y-16295000D01*
X11138889Y-16316487D01*
X10858966Y-16401401D01*
X10600986Y-16539294D01*
X10374866Y-16724866D01*
X10189294Y-16950986D01*
X10160000Y-17005791D01*
X10130706Y-16950986D01*
X9945134Y-16724866D01*
X9719014Y-16539294D01*
X9461034Y-16401401D01*
X9181111Y-16316487D01*
X8962950Y-16295000D01*
X8817050Y-16295000D01*
X8598889Y-16316487D01*
X8318966Y-16401401D01*
X8060986Y-16539294D01*
X7834866Y-16724866D01*
X7649294Y-16950986D01*
X7620000Y-17005791D01*
X7590706Y-16950986D01*
X7405134Y-16724866D01*
X7179014Y-16539294D01*
X6921034Y-16401401D01*
X6641111Y-16316487D01*
X6422950Y-16295000D01*
X6277050Y-16295000D01*
X6058889Y-16316487D01*
X5778966Y-16401401D01*
X5520986Y-16539294D01*
X5294866Y-16724866D01*
X5109294Y-16950986D01*
X5080000Y-17005791D01*
X5050706Y-16950986D01*
X4865134Y-16724866D01*
X4639014Y-16539294D01*
X4381034Y-16401401D01*
X4101111Y-16316487D01*
X3882950Y-16295000D01*
X3737050Y-16295000D01*
X3518889Y-16316487D01*
X3238966Y-16401401D01*
X2980986Y-16539294D01*
X2754866Y-16724866D01*
X2569294Y-16950986D01*
X2540000Y-17005791D01*
X2510706Y-16950986D01*
X2325134Y-16724866D01*
X2099014Y-16539294D01*
X1841034Y-16401401D01*
X1561111Y-16316487D01*
X1342950Y-16295000D01*
X1197050Y-16295000D01*
X978889Y-16316487D01*
X698966Y-16401401D01*
X440986Y-16539294D01*
X214866Y-16724866D01*
X29294Y-16950986D01*
X0Y-17005791D01*
X-29294Y-16950986D01*
X-214866Y-16724866D01*
X-440986Y-16539294D01*
X-698966Y-16401401D01*
X-978889Y-16316487D01*
X-1197050Y-16295000D01*
X-1342950Y-16295000D01*
X-1561111Y-16316487D01*
X-1841034Y-16401401D01*
X-2099014Y-16539294D01*
X-2325134Y-16724866D01*
X-2510706Y-16950986D01*
X-2540000Y-17005791D01*
X-2569294Y-16950986D01*
X-2754866Y-16724866D01*
X-2980986Y-16539294D01*
X-3238966Y-16401401D01*
X-3518889Y-16316487D01*
X-3737050Y-16295000D01*
X-3882950Y-16295000D01*
X-4101111Y-16316487D01*
X-4381034Y-16401401D01*
X-4639014Y-16539294D01*
X-4865134Y-16724866D01*
X-5050706Y-16950986D01*
X-5080000Y-17005791D01*
X-5109294Y-16950986D01*
X-5294866Y-16724866D01*
X-5520986Y-16539294D01*
X-5778966Y-16401401D01*
X-6058889Y-16316487D01*
X-6277050Y-16295000D01*
X-6422950Y-16295000D01*
X-6641111Y-16316487D01*
X-6921034Y-16401401D01*
X-7179014Y-16539294D01*
X-7405134Y-16724866D01*
X-7590706Y-16950986D01*
X-7620000Y-17005791D01*
X-7649294Y-16950986D01*
X-7834866Y-16724866D01*
X-8060986Y-16539294D01*
X-8318966Y-16401401D01*
X-8598889Y-16316487D01*
X-8817050Y-16295000D01*
X-8962950Y-16295000D01*
X-9181111Y-16316487D01*
X-9461034Y-16401401D01*
X-9719014Y-16539294D01*
X-9945134Y-16724866D01*
X-10130706Y-16950986D01*
X-10160000Y-17005791D01*
X-10189294Y-16950986D01*
X-10374866Y-16724866D01*
X-10600986Y-16539294D01*
X-10858966Y-16401401D01*
X-11138889Y-16316487D01*
X-11357050Y-16295000D01*
X-11502950Y-16295000D01*
X-11721111Y-16316487D01*
X-12001034Y-16401401D01*
X-12259014Y-16539294D01*
X-12485134Y-16724866D01*
X-12670706Y-16950986D01*
X-12700000Y-17005791D01*
X-12729294Y-16950986D01*
X-12914866Y-16724866D01*
X-13140986Y-16539294D01*
X-13398966Y-16401401D01*
X-13678889Y-16316487D01*
X-13897050Y-16295000D01*
X-14042950Y-16295000D01*
X-14261111Y-16316487D01*
X-14541034Y-16401401D01*
X-14799014Y-16539294D01*
X-15025134Y-16724866D01*
X-15210706Y-16950986D01*
X-15240000Y-17005791D01*
X-15269294Y-16950986D01*
X-15454866Y-16724866D01*
X-15680986Y-16539294D01*
X-15938966Y-16401401D01*
X-16218889Y-16316487D01*
X-16437050Y-16295000D01*
X-16582950Y-16295000D01*
X-16801111Y-16316487D01*
X-17081034Y-16401401D01*
X-17339014Y-16539294D01*
X-17565134Y-16724866D01*
X-17589607Y-16754687D01*
X-17610498Y-16685820D01*
X-17669463Y-16575506D01*
X-17748815Y-16478815D01*
X-17845506Y-16399463D01*
X-17955820Y-16340498D01*
X-18075518Y-16304188D01*
X-18200000Y-16291928D01*
X-19900000Y-16291928D01*
X-20024482Y-16304188D01*
X-20144180Y-16340498D01*
X-20254494Y-16399463D01*
X-20351185Y-16478815D01*
X-20430537Y-16575506D01*
X-20489502Y-16685820D01*
X-20525812Y-16805518D01*
X-20538072Y-16930000D01*
X-24340000Y-16930000D01*
X-24340000Y850000D01*
X-20538072Y850000D01*
X-20538072Y-850000D01*
X-20525812Y-974482D01*
X-20489502Y-1094180D01*
X-20430537Y-1204494D01*
X-20351185Y-1301185D01*
X-20254494Y-1380537D01*
X-20144180Y-1439502D01*
X-20024482Y-1475812D01*
X-19900000Y-1488072D01*
X-18200000Y-1488072D01*
X-18075518Y-1475812D01*
X-17955820Y-1439502D01*
X-17845506Y-1380537D01*
X-17748815Y-1301185D01*
X-17669463Y-1204494D01*
X-17610498Y-1094180D01*
X-17589607Y-1025313D01*
X-17565134Y-1055134D01*
X-17339014Y-1240706D01*
X-17081034Y-1378599D01*
X-16801111Y-1463513D01*
X-16582950Y-1485000D01*
X-16437050Y-1485000D01*
X-16218889Y-1463513D01*
X-15938966Y-1378599D01*
X-15680986Y-1240706D01*
X-15454866Y-1055134D01*
X-15269294Y-829014D01*
X-15240000Y-774209D01*
X-15210706Y-829014D01*
X-15025134Y-1055134D01*
X-14799014Y-1240706D01*
X-14541034Y-1378599D01*
X-14261111Y-1463513D01*
X-14042950Y-1485000D01*
X-13897050Y-1485000D01*
X-13678889Y-1463513D01*
X-13398966Y-1378599D01*
X-13140986Y-1240706D01*
X-12914866Y-1055134D01*
X-12729294Y-829014D01*
X-12700000Y-774209D01*
X-12670706Y-829014D01*
X-12485134Y-1055134D01*
X-12259014Y-1240706D01*
X-12001034Y-1378599D01*
X-11721111Y-1463513D01*
X-11502950Y-1485000D01*
X-11357050Y-1485000D01*
X-11138889Y-1463513D01*
X-10858966Y-1378599D01*
X-10600986Y-1240706D01*
X-10374866Y-1055134D01*
X-10189294Y-829014D01*
X-10160000Y-774209D01*
X-10130706Y-829014D01*
X-9945134Y-1055134D01*
X-9719014Y-1240706D01*
X-9461034Y-1378599D01*
X-9181111Y-1463513D01*
X-8962950Y-1485000D01*
X-8817050Y-1485000D01*
X-8598889Y-1463513D01*
X-8318966Y-1378599D01*
X-8060986Y-1240706D01*
X-7834866Y-1055134D01*
X-7649294Y-829014D01*
X-7620000Y-774209D01*
X-7590706Y-829014D01*
X-7405134Y-1055134D01*
X-7179014Y-1240706D01*
X-6921034Y-1378599D01*
X-6641111Y-1463513D01*
X-6422950Y-1485000D01*
X-6277050Y-1485000D01*
X-6058889Y-1463513D01*
X-5778966Y-1378599D01*
X-5520986Y-1240706D01*
X-5294866Y-1055134D01*
X-5109294Y-829014D01*
X-5080000Y-774209D01*
X-5050706Y-829014D01*
X-4865134Y-1055134D01*
X-4639014Y-1240706D01*
X-4381034Y-1378599D01*
X-4101111Y-1463513D01*
X-3882950Y-1485000D01*
X-3737050Y-1485000D01*
X-3518889Y-1463513D01*
X-3238966Y-1378599D01*
X-2980986Y-1240706D01*
X-2754866Y-1055134D01*
X-2569294Y-829014D01*
X-2540000Y-774209D01*
X-2510706Y-829014D01*
X-2325134Y-1055134D01*
X-2099014Y-1240706D01*
X-1841034Y-1378599D01*
X-1561111Y-1463513D01*
X-1342950Y-1485000D01*
X-1197050Y-1485000D01*
X-978889Y-1463513D01*
X-698966Y-1378599D01*
X-440986Y-1240706D01*
X-214866Y-1055134D01*
X-29294Y-829014D01*
X0Y-774209D01*
X29294Y-829014D01*
X214866Y-1055134D01*
X440986Y-1240706D01*
X698966Y-1378599D01*
X978889Y-1463513D01*
X1197050Y-1485000D01*
X1342950Y-1485000D01*
X1561111Y-1463513D01*
X1841034Y-1378599D01*
X2099014Y-1240706D01*
X2325134Y-1055134D01*
X2510706Y-829014D01*
X2540000Y-774209D01*
X2569294Y-829014D01*
X2754866Y-1055134D01*
X2980986Y-1240706D01*
X3238966Y-1378599D01*
X3518889Y-1463513D01*
X3737050Y-1485000D01*
X3882950Y-1485000D01*
X4101111Y-1463513D01*
X4381034Y-1378599D01*
X4639014Y-1240706D01*
X4865134Y-1055134D01*
X5050706Y-829014D01*
X5080000Y-774209D01*
X5109294Y-829014D01*
X5294866Y-1055134D01*
X5520986Y-1240706D01*
X5778966Y-1378599D01*
X6058889Y-1463513D01*
X6277050Y-1485000D01*
X6422950Y-1485000D01*
X6641111Y-1463513D01*
X6921034Y-1378599D01*
X7179014Y-1240706D01*
X7405134Y-1055134D01*
X7590706Y-829014D01*
X7620000Y-774209D01*
X7649294Y-829014D01*
X7834866Y-1055134D01*
X8060986Y-1240706D01*
X8318966Y-1378599D01*
X8598889Y-1463513D01*
X8817050Y-1485000D01*
X8962950Y-1485000D01*
X9181111Y-1463513D01*
X9461034Y-1378599D01*
X9719014Y-1240706D01*
X9945134Y-1055134D01*
X10130706Y-829014D01*
X10160000Y-774209D01*
X10189294Y-829014D01*
X10374866Y-1055134D01*
X10600986Y-1240706D01*
X10858966Y-1378599D01*
X11138889Y-1463513D01*
X11357050Y-1485000D01*
X11502950Y-1485000D01*
X11721111Y-1463513D01*
X12001034Y-1378599D01*
X12259014Y-1240706D01*
X12485134Y-1055134D01*
X12670706Y-829014D01*
X12700000Y-774209D01*
X12729294Y-829014D01*
X12914866Y-1055134D01*
X13140986Y-1240706D01*
X13398966Y-1378599D01*
X13678889Y-1463513D01*
X13897050Y-1485000D01*
X14042950Y-1485000D01*
X14261111Y-1463513D01*
X14541034Y-1378599D01*
X14799014Y-1240706D01*
X15025134Y-1055134D01*
X15210706Y-829014D01*
X15245201Y-764477D01*
X15314822Y-881355D01*
X15509731Y-1097588D01*
X15743080Y-1271641D01*
X16005901Y-1396825D01*
X16153110Y-1441476D01*
X16383000Y-1320155D01*
X16383000Y-127000D01*
X16363000Y-127000D01*
X16363000Y127000D01*
X16383000Y127000D01*
X16383000Y1320155D01*
X16637000Y1320155D01*
X16637000Y127000D01*
X16657000Y127000D01*
X16657000Y-127000D01*
X16637000Y-127000D01*
X16637000Y-1320155D01*
X16866890Y-1441476D01*
X17014099Y-1396825D01*
X17276920Y-1271641D01*
X17510269Y-1097588D01*
X17705178Y-881355D01*
X17774799Y-764477D01*
X17809294Y-829014D01*
X17994866Y-1055134D01*
X18220986Y-1240706D01*
X18478966Y-1378599D01*
X18758889Y-1463513D01*
X18977050Y-1485000D01*
X19122950Y-1485000D01*
X19341111Y-1463513D01*
X19621034Y-1378599D01*
X19879014Y-1240706D01*
X20105134Y-1055134D01*
X20290706Y-829014D01*
X20428599Y-571034D01*
X20513513Y-291111D01*
X20542185Y0D01*
X20513513Y291111D01*
X20428599Y571034D01*
X20290706Y829014D01*
X20105134Y1055134D01*
X19879014Y1240706D01*
X19621034Y1378599D01*
X19341111Y1463513D01*
X19122950Y1485000D01*
X18977050Y1485000D01*
X18758889Y1463513D01*
X18478966Y1378599D01*
X18220986Y1240706D01*
X17994866Y1055134D01*
X17809294Y829014D01*
X17774799Y764477D01*
X17705178Y881355D01*
X17510269Y1097588D01*
X17276920Y1271641D01*
X17014099Y1396825D01*
X16866890Y1441476D01*
X16637000Y1320155D01*
X16383000Y1320155D01*
X16153110Y1441476D01*
X16005901Y1396825D01*
X15743080Y1271641D01*
X15509731Y1097588D01*
X15314822Y881355D01*
X15245201Y764477D01*
X15210706Y829014D01*
X15025134Y1055134D01*
X14799014Y1240706D01*
X14541034Y1378599D01*
X14261111Y1463513D01*
X14042950Y1485000D01*
X13897050Y1485000D01*
X13678889Y1463513D01*
X13398966Y1378599D01*
X13140986Y1240706D01*
X12914866Y1055134D01*
X12729294Y829014D01*
X12700000Y774209D01*
X12670706Y829014D01*
X12485134Y1055134D01*
X12259014Y1240706D01*
X12001034Y1378599D01*
X11721111Y1463513D01*
X11502950Y1485000D01*
X11357050Y1485000D01*
X11138889Y1463513D01*
X10858966Y1378599D01*
X10600986Y1240706D01*
X10374866Y1055134D01*
X10189294Y829014D01*
X10160000Y774209D01*
X10130706Y829014D01*
X9945134Y1055134D01*
X9719014Y1240706D01*
X9461034Y1378599D01*
X9181111Y1463513D01*
X8962950Y1485000D01*
X8817050Y1485000D01*
X8598889Y1463513D01*
X8318966Y1378599D01*
X8060986Y1240706D01*
X7834866Y1055134D01*
X7649294Y829014D01*
X7620000Y774209D01*
X7590706Y829014D01*
X7405134Y1055134D01*
X7179014Y1240706D01*
X6921034Y1378599D01*
X6641111Y1463513D01*
X6422950Y1485000D01*
X6277050Y1485000D01*
X6058889Y1463513D01*
X5778966Y1378599D01*
X5520986Y1240706D01*
X5294866Y1055134D01*
X5109294Y829014D01*
X5080000Y774209D01*
X5050706Y829014D01*
X4865134Y1055134D01*
X4639014Y1240706D01*
X4381034Y1378599D01*
X4101111Y1463513D01*
X3882950Y1485000D01*
X3737050Y1485000D01*
X3518889Y1463513D01*
X3238966Y1378599D01*
X2980986Y1240706D01*
X2754866Y1055134D01*
X2569294Y829014D01*
X2540000Y774209D01*
X2510706Y829014D01*
X2325134Y1055134D01*
X2099014Y1240706D01*
X1841034Y1378599D01*
X1561111Y1463513D01*
X1342950Y1485000D01*
X1197050Y1485000D01*
X978889Y1463513D01*
X698966Y1378599D01*
X440986Y1240706D01*
X214866Y1055134D01*
X29294Y829014D01*
X0Y774209D01*
X-29294Y829014D01*
X-214866Y1055134D01*
X-440986Y1240706D01*
X-698966Y1378599D01*
X-978889Y1463513D01*
X-1197050Y1485000D01*
X-1342950Y1485000D01*
X-1561111Y1463513D01*
X-1841034Y1378599D01*
X-2099014Y1240706D01*
X-2325134Y1055134D01*
X-2510706Y829014D01*
X-2540000Y774209D01*
X-2569294Y829014D01*
X-2754866Y1055134D01*
X-2980986Y1240706D01*
X-3238966Y1378599D01*
X-3518889Y1463513D01*
X-3737050Y1485000D01*
X-3882950Y1485000D01*
X-4101111Y1463513D01*
X-4381034Y1378599D01*
X-4639014Y1240706D01*
X-4865134Y1055134D01*
X-5050706Y829014D01*
X-5080000Y774209D01*
X-5109294Y829014D01*
X-5294866Y1055134D01*
X-5520986Y1240706D01*
X-5778966Y1378599D01*
X-6058889Y1463513D01*
X-6277050Y1485000D01*
X-6422950Y1485000D01*
X-6641111Y1463513D01*
X-6921034Y1378599D01*
X-7179014Y1240706D01*
X-7405134Y1055134D01*
X-7590706Y829014D01*
X-7620000Y774209D01*
X-7649294Y829014D01*
X-7834866Y1055134D01*
X-8060986Y1240706D01*
X-8318966Y1378599D01*
X-8598889Y1463513D01*
X-8817050Y1485000D01*
X-8962950Y1485000D01*
X-9181111Y1463513D01*
X-9461034Y1378599D01*
X-9719014Y1240706D01*
X-9945134Y1055134D01*
X-10130706Y829014D01*
X-10160000Y774209D01*
X-10189294Y829014D01*
X-10374866Y1055134D01*
X-10600986Y1240706D01*
X-10858966Y1378599D01*
X-11138889Y1463513D01*
X-11357050Y1485000D01*
X-11502950Y1485000D01*
X-11721111Y1463513D01*
X-12001034Y1378599D01*
X-12259014Y1240706D01*
X-12485134Y1055134D01*
X-12670706Y829014D01*
X-12700000Y774209D01*
X-12729294Y829014D01*
X-12914866Y1055134D01*
X-13140986Y1240706D01*
X-13398966Y1378599D01*
X-13678889Y1463513D01*
X-13897050Y1485000D01*
X-14042950Y1485000D01*
X-14261111Y1463513D01*
X-14541034Y1378599D01*
X-14799014Y1240706D01*
X-15025134Y1055134D01*
X-15210706Y829014D01*
X-15240000Y774209D01*
X-15269294Y829014D01*
X-15454866Y1055134D01*
X-15680986Y1240706D01*
X-15938966Y1378599D01*
X-16218889Y1463513D01*
X-16437050Y1485000D01*
X-16582950Y1485000D01*
X-16801111Y1463513D01*
X-17081034Y1378599D01*
X-17339014Y1240706D01*
X-17565134Y1055134D01*
X-17589607Y1025313D01*
X-17610498Y1094180D01*
X-17669463Y1204494D01*
X-17748815Y1301185D01*
X-17845506Y1380537D01*
X-17955820Y1439502D01*
X-18075518Y1475812D01*
X-18200000Y1488072D01*
X-19900000Y1488072D01*
X-20024482Y1475812D01*
X-20144180Y1439502D01*
X-20254494Y1380537D01*
X-20351185Y1301185D01*
X-20430537Y1204494D01*
X-20489502Y1094180D01*
X-20525812Y974482D01*
X-20538072Y850000D01*
X-24340000Y850000D01*
X-24340000Y7340000D01*
X-20521105Y7340000D01*
X-20525812Y7324482D01*
X-20525812Y7324482D01*
G37*
X-20525812Y7324482D02*
X-20538072Y7200000D01*
X-20538072Y5500000D01*
X-20525812Y5375518D01*
X-20489502Y5255820D01*
X-20430537Y5145506D01*
X-20351185Y5048815D01*
X-20254494Y4969463D01*
X-20144180Y4910498D01*
X-20024482Y4874188D01*
X-19900000Y4861928D01*
X-18200000Y4861928D01*
X-18075518Y4874188D01*
X-17955820Y4910498D01*
X-17845506Y4969463D01*
X-17748815Y5048815D01*
X-17669463Y5145506D01*
X-17610498Y5255820D01*
X-17589607Y5324687D01*
X-17565134Y5294866D01*
X-17339014Y5109294D01*
X-17081034Y4971401D01*
X-16801111Y4886487D01*
X-16582950Y4865000D01*
X-16437050Y4865000D01*
X-16218889Y4886487D01*
X-15938966Y4971401D01*
X-15680986Y5109294D01*
X-15454866Y5294866D01*
X-15269294Y5520986D01*
X-15240000Y5575791D01*
X-15210706Y5520986D01*
X-15025134Y5294866D01*
X-14799014Y5109294D01*
X-14541034Y4971401D01*
X-14261111Y4886487D01*
X-14042950Y4865000D01*
X-13897050Y4865000D01*
X-13678889Y4886487D01*
X-13398966Y4971401D01*
X-13140986Y5109294D01*
X-12914866Y5294866D01*
X-12729294Y5520986D01*
X-12700000Y5575791D01*
X-12670706Y5520986D01*
X-12485134Y5294866D01*
X-12259014Y5109294D01*
X-12001034Y4971401D01*
X-11721111Y4886487D01*
X-11502950Y4865000D01*
X-11357050Y4865000D01*
X-11138889Y4886487D01*
X-10858966Y4971401D01*
X-10600986Y5109294D01*
X-10374866Y5294866D01*
X-10189294Y5520986D01*
X-10160000Y5575791D01*
X-10130706Y5520986D01*
X-9945134Y5294866D01*
X-9719014Y5109294D01*
X-9461034Y4971401D01*
X-9181111Y4886487D01*
X-8962950Y4865000D01*
X-8817050Y4865000D01*
X-8598889Y4886487D01*
X-8318966Y4971401D01*
X-8060986Y5109294D01*
X-7834866Y5294866D01*
X-7649294Y5520986D01*
X-7620000Y5575791D01*
X-7590706Y5520986D01*
X-7405134Y5294866D01*
X-7179014Y5109294D01*
X-6921034Y4971401D01*
X-6641111Y4886487D01*
X-6422950Y4865000D01*
X-6277050Y4865000D01*
X-6058889Y4886487D01*
X-5778966Y4971401D01*
X-5520986Y5109294D01*
X-5294866Y5294866D01*
X-5109294Y5520986D01*
X-5080000Y5575791D01*
X-5050706Y5520986D01*
X-4865134Y5294866D01*
X-4639014Y5109294D01*
X-4381034Y4971401D01*
X-4101111Y4886487D01*
X-3882950Y4865000D01*
X-3737050Y4865000D01*
X-3518889Y4886487D01*
X-3238966Y4971401D01*
X-2980986Y5109294D01*
X-2754866Y5294866D01*
X-2569294Y5520986D01*
X-2540000Y5575791D01*
X-2510706Y5520986D01*
X-2325134Y5294866D01*
X-2099014Y5109294D01*
X-1841034Y4971401D01*
X-1561111Y4886487D01*
X-1342950Y4865000D01*
X-1197050Y4865000D01*
X-978889Y4886487D01*
X-698966Y4971401D01*
X-440986Y5109294D01*
X-214866Y5294866D01*
X-29294Y5520986D01*
X0Y5575791D01*
X29294Y5520986D01*
X214866Y5294866D01*
X440986Y5109294D01*
X698966Y4971401D01*
X978889Y4886487D01*
X1197050Y4865000D01*
X1342950Y4865000D01*
X1561111Y4886487D01*
X1841034Y4971401D01*
X2099014Y5109294D01*
X2325134Y5294866D01*
X2510706Y5520986D01*
X2540000Y5575791D01*
X2569294Y5520986D01*
X2754866Y5294866D01*
X2980986Y5109294D01*
X3238966Y4971401D01*
X3518889Y4886487D01*
X3737050Y4865000D01*
X3882950Y4865000D01*
X4101111Y4886487D01*
X4381034Y4971401D01*
X4639014Y5109294D01*
X4865134Y5294866D01*
X5050706Y5520986D01*
X5080000Y5575791D01*
X5109294Y5520986D01*
X5294866Y5294866D01*
X5520986Y5109294D01*
X5778966Y4971401D01*
X6058889Y4886487D01*
X6277050Y4865000D01*
X6422950Y4865000D01*
X6641111Y4886487D01*
X6921034Y4971401D01*
X7179014Y5109294D01*
X7405134Y5294866D01*
X7590706Y5520986D01*
X7620000Y5575791D01*
X7649294Y5520986D01*
X7834866Y5294866D01*
X8060986Y5109294D01*
X8318966Y4971401D01*
X8598889Y4886487D01*
X8817050Y4865000D01*
X8962950Y4865000D01*
X9181111Y4886487D01*
X9461034Y4971401D01*
X9719014Y5109294D01*
X9945134Y5294866D01*
X10130706Y5520986D01*
X10160000Y5575791D01*
X10189294Y5520986D01*
X10374866Y5294866D01*
X10600986Y5109294D01*
X10858966Y4971401D01*
X11138889Y4886487D01*
X11357050Y4865000D01*
X11502950Y4865000D01*
X11721111Y4886487D01*
X12001034Y4971401D01*
X12259014Y5109294D01*
X12485134Y5294866D01*
X12670706Y5520986D01*
X12700000Y5575791D01*
X12729294Y5520986D01*
X12914866Y5294866D01*
X13140986Y5109294D01*
X13398966Y4971401D01*
X13678889Y4886487D01*
X13897050Y4865000D01*
X14042950Y4865000D01*
X14261111Y4886487D01*
X14541034Y4971401D01*
X14799014Y5109294D01*
X15025134Y5294866D01*
X15210706Y5520986D01*
X15245201Y5585523D01*
X15314822Y5468645D01*
X15509731Y5252412D01*
X15743080Y5078359D01*
X16005901Y4953175D01*
X16153110Y4908524D01*
X16383000Y5029845D01*
X16383000Y6223000D01*
X16363000Y6223000D01*
X16363000Y6477000D01*
X16383000Y6477000D01*
X16383000Y6497000D01*
X16637000Y6497000D01*
X16637000Y6477000D01*
X16657000Y6477000D01*
X16657000Y6223000D01*
X16637000Y6223000D01*
X16637000Y5029845D01*
X16866890Y4908524D01*
X17014099Y4953175D01*
X17276920Y5078359D01*
X17510269Y5252412D01*
X17705178Y5468645D01*
X17774799Y5585523D01*
X17809294Y5520986D01*
X17994866Y5294866D01*
X18220986Y5109294D01*
X18478966Y4971401D01*
X18758889Y4886487D01*
X18977050Y4865000D01*
X19122950Y4865000D01*
X19341111Y4886487D01*
X19621034Y4971401D01*
X19879014Y5109294D01*
X20105134Y5294866D01*
X20290706Y5520986D01*
X20428599Y5778966D01*
X20513513Y6058889D01*
X20542185Y6350000D01*
X20513513Y6641111D01*
X20428599Y6921034D01*
X20290706Y7179014D01*
X20158588Y7340000D01*
X24340000Y7340000D01*
X24340001Y-41340000D01*
X-24340000Y-41340000D01*
X-24340000Y-38738740D01*
X-19320000Y-38738740D01*
X-19320000Y-39031260D01*
X-19262932Y-39318158D01*
X-19150990Y-39588411D01*
X-18988475Y-39831632D01*
X-18781632Y-40038475D01*
X-18538411Y-40200990D01*
X-18268158Y-40312932D01*
X-17981260Y-40370000D01*
X-17688740Y-40370000D01*
X-17401842Y-40312932D01*
X-17131589Y-40200990D01*
X-16888368Y-40038475D01*
X-16763290Y-39913397D01*
X-14183792Y-39913397D01*
X-14106157Y-40162472D01*
X-13842117Y-40288371D01*
X-13558589Y-40360339D01*
X-13266469Y-40375611D01*
X-12976981Y-40333599D01*
X-12701253Y-40235919D01*
X-12563843Y-40162472D01*
X-12486208Y-39913397D01*
X-13335000Y-39064605D01*
X-14183792Y-39913397D01*
X-16763290Y-39913397D01*
X-16681525Y-39831632D01*
X-16519010Y-39588411D01*
X-16407068Y-39318158D01*
X-16350000Y-39031260D01*
X-16350000Y-38953531D01*
X-14825611Y-38953531D01*
X-14783599Y-39243019D01*
X-14685919Y-39518747D01*
X-14612472Y-39656157D01*
X-14363397Y-39733792D01*
X-13514605Y-38885000D01*
X-13155395Y-38885000D01*
X-12306603Y-39733792D01*
X-12057528Y-39656157D01*
X-11931629Y-39392117D01*
X-11859661Y-39108589D01*
X-11844389Y-38816469D01*
X-11855669Y-38738740D01*
X-9160000Y-38738740D01*
X-9160000Y-39031260D01*
X-9102932Y-39318158D01*
X-8990990Y-39588411D01*
X-8828475Y-39831632D01*
X-8621632Y-40038475D01*
X-8378411Y-40200990D01*
X-8108158Y-40312932D01*
X-7821260Y-40370000D01*
X-7528740Y-40370000D01*
X-7241842Y-40312932D01*
X-6971589Y-40200990D01*
X-6728368Y-40038475D01*
X-6603290Y-39913397D01*
X-4023792Y-39913397D01*
X-3946157Y-40162472D01*
X-3682117Y-40288371D01*
X-3398589Y-40360339D01*
X-3106469Y-40375611D01*
X-2816981Y-40333599D01*
X-2541253Y-40235919D01*
X-2403843Y-40162472D01*
X-2326208Y-39913397D01*
X-3175000Y-39064605D01*
X-4023792Y-39913397D01*
X-6603290Y-39913397D01*
X-6521525Y-39831632D01*
X-6359010Y-39588411D01*
X-6247068Y-39318158D01*
X-6190000Y-39031260D01*
X-6190000Y-38953531D01*
X-4665611Y-38953531D01*
X-4623599Y-39243019D01*
X-4525919Y-39518747D01*
X-4452472Y-39656157D01*
X-4203397Y-39733792D01*
X-3354605Y-38885000D01*
X-2995395Y-38885000D01*
X-2146603Y-39733792D01*
X-1897528Y-39656157D01*
X-1771629Y-39392117D01*
X-1699661Y-39108589D01*
X-1684389Y-38816469D01*
X-1695669Y-38738740D01*
X1000000Y-38738740D01*
X1000000Y-39031260D01*
X1057068Y-39318158D01*
X1169010Y-39588411D01*
X1331525Y-39831632D01*
X1538368Y-40038475D01*
X1781589Y-40200990D01*
X2051842Y-40312932D01*
X2338740Y-40370000D01*
X2631260Y-40370000D01*
X2918158Y-40312932D01*
X3188411Y-40200990D01*
X3431632Y-40038475D01*
X3556710Y-39913397D01*
X6136208Y-39913397D01*
X6213843Y-40162472D01*
X6477883Y-40288371D01*
X6761411Y-40360339D01*
X7053531Y-40375611D01*
X7343019Y-40333599D01*
X7618747Y-40235919D01*
X7756157Y-40162472D01*
X7833792Y-39913397D01*
X6985000Y-39064605D01*
X6136208Y-39913397D01*
X3556710Y-39913397D01*
X3638475Y-39831632D01*
X3800990Y-39588411D01*
X3912932Y-39318158D01*
X3970000Y-39031260D01*
X3970000Y-38953531D01*
X5494389Y-38953531D01*
X5536401Y-39243019D01*
X5634081Y-39518747D01*
X5707528Y-39656157D01*
X5956603Y-39733792D01*
X6805395Y-38885000D01*
X7164605Y-38885000D01*
X8013397Y-39733792D01*
X8262472Y-39656157D01*
X8388371Y-39392117D01*
X8460339Y-39108589D01*
X8475611Y-38816469D01*
X8464331Y-38738740D01*
X11160000Y-38738740D01*
X11160000Y-39031260D01*
X11217068Y-39318158D01*
X11329010Y-39588411D01*
X11491525Y-39831632D01*
X11698368Y-40038475D01*
X11941589Y-40200990D01*
X12211842Y-40312932D01*
X12498740Y-40370000D01*
X12791260Y-40370000D01*
X13078158Y-40312932D01*
X13348411Y-40200990D01*
X13591632Y-40038475D01*
X13716710Y-39913397D01*
X16296208Y-39913397D01*
X16373843Y-40162472D01*
X16637883Y-40288371D01*
X16921411Y-40360339D01*
X17213531Y-40375611D01*
X17503019Y-40333599D01*
X17778747Y-40235919D01*
X17916157Y-40162472D01*
X17993792Y-39913397D01*
X17145000Y-39064605D01*
X16296208Y-39913397D01*
X13716710Y-39913397D01*
X13798475Y-39831632D01*
X13960990Y-39588411D01*
X14072932Y-39318158D01*
X14130000Y-39031260D01*
X14130000Y-38953531D01*
X15654389Y-38953531D01*
X15696401Y-39243019D01*
X15794081Y-39518747D01*
X15867528Y-39656157D01*
X16116603Y-39733792D01*
X16965395Y-38885000D01*
X17324605Y-38885000D01*
X18173397Y-39733792D01*
X18422472Y-39656157D01*
X18548371Y-39392117D01*
X18620339Y-39108589D01*
X18635611Y-38816469D01*
X18593599Y-38526981D01*
X18495919Y-38251253D01*
X18422472Y-38113843D01*
X18173397Y-38036208D01*
X17324605Y-38885000D01*
X16965395Y-38885000D01*
X16116603Y-38036208D01*
X15867528Y-38113843D01*
X15741629Y-38377883D01*
X15669661Y-38661411D01*
X15654389Y-38953531D01*
X14130000Y-38953531D01*
X14130000Y-38738740D01*
X14072932Y-38451842D01*
X13960990Y-38181589D01*
X13798475Y-37938368D01*
X13716710Y-37856603D01*
X16296208Y-37856603D01*
X17145000Y-38705395D01*
X17993792Y-37856603D01*
X17916157Y-37607528D01*
X17652117Y-37481629D01*
X17368589Y-37409661D01*
X17076469Y-37394389D01*
X16786981Y-37436401D01*
X16511253Y-37534081D01*
X16373843Y-37607528D01*
X16296208Y-37856603D01*
X13716710Y-37856603D01*
X13591632Y-37731525D01*
X13348411Y-37569010D01*
X13078158Y-37457068D01*
X12791260Y-37400000D01*
X12498740Y-37400000D01*
X12211842Y-37457068D01*
X11941589Y-37569010D01*
X11698368Y-37731525D01*
X11491525Y-37938368D01*
X11329010Y-38181589D01*
X11217068Y-38451842D01*
X11160000Y-38738740D01*
X8464331Y-38738740D01*
X8433599Y-38526981D01*
X8335919Y-38251253D01*
X8262472Y-38113843D01*
X8013397Y-38036208D01*
X7164605Y-38885000D01*
X6805395Y-38885000D01*
X5956603Y-38036208D01*
X5707528Y-38113843D01*
X5581629Y-38377883D01*
X5509661Y-38661411D01*
X5494389Y-38953531D01*
X3970000Y-38953531D01*
X3970000Y-38738740D01*
X3912932Y-38451842D01*
X3800990Y-38181589D01*
X3638475Y-37938368D01*
X3556710Y-37856603D01*
X6136208Y-37856603D01*
X6985000Y-38705395D01*
X7833792Y-37856603D01*
X7756157Y-37607528D01*
X7492117Y-37481629D01*
X7208589Y-37409661D01*
X6916469Y-37394389D01*
X6626981Y-37436401D01*
X6351253Y-37534081D01*
X6213843Y-37607528D01*
X6136208Y-37856603D01*
X3556710Y-37856603D01*
X3431632Y-37731525D01*
X3188411Y-37569010D01*
X2918158Y-37457068D01*
X2631260Y-37400000D01*
X2338740Y-37400000D01*
X2051842Y-37457068D01*
X1781589Y-37569010D01*
X1538368Y-37731525D01*
X1331525Y-37938368D01*
X1169010Y-38181589D01*
X1057068Y-38451842D01*
X1000000Y-38738740D01*
X-1695669Y-38738740D01*
X-1726401Y-38526981D01*
X-1824081Y-38251253D01*
X-1897528Y-38113843D01*
X-2146603Y-38036208D01*
X-2995395Y-38885000D01*
X-3354605Y-38885000D01*
X-4203397Y-38036208D01*
X-4452472Y-38113843D01*
X-4578371Y-38377883D01*
X-4650339Y-38661411D01*
X-4665611Y-38953531D01*
X-6190000Y-38953531D01*
X-6190000Y-38738740D01*
X-6247068Y-38451842D01*
X-6359010Y-38181589D01*
X-6521525Y-37938368D01*
X-6603290Y-37856603D01*
X-4023792Y-37856603D01*
X-3175000Y-38705395D01*
X-2326208Y-37856603D01*
X-2403843Y-37607528D01*
X-2667883Y-37481629D01*
X-2951411Y-37409661D01*
X-3243531Y-37394389D01*
X-3533019Y-37436401D01*
X-3808747Y-37534081D01*
X-3946157Y-37607528D01*
X-4023792Y-37856603D01*
X-6603290Y-37856603D01*
X-6728368Y-37731525D01*
X-6971589Y-37569010D01*
X-7241842Y-37457068D01*
X-7528740Y-37400000D01*
X-7821260Y-37400000D01*
X-8108158Y-37457068D01*
X-8378411Y-37569010D01*
X-8621632Y-37731525D01*
X-8828475Y-37938368D01*
X-8990990Y-38181589D01*
X-9102932Y-38451842D01*
X-9160000Y-38738740D01*
X-11855669Y-38738740D01*
X-11886401Y-38526981D01*
X-11984081Y-38251253D01*
X-12057528Y-38113843D01*
X-12306603Y-38036208D01*
X-13155395Y-38885000D01*
X-13514605Y-38885000D01*
X-14363397Y-38036208D01*
X-14612472Y-38113843D01*
X-14738371Y-38377883D01*
X-14810339Y-38661411D01*
X-14825611Y-38953531D01*
X-16350000Y-38953531D01*
X-16350000Y-38738740D01*
X-16407068Y-38451842D01*
X-16519010Y-38181589D01*
X-16681525Y-37938368D01*
X-16763290Y-37856603D01*
X-14183792Y-37856603D01*
X-13335000Y-38705395D01*
X-12486208Y-37856603D01*
X-12563843Y-37607528D01*
X-12827883Y-37481629D01*
X-13111411Y-37409661D01*
X-13403531Y-37394389D01*
X-13693019Y-37436401D01*
X-13968747Y-37534081D01*
X-14106157Y-37607528D01*
X-14183792Y-37856603D01*
X-16763290Y-37856603D01*
X-16888368Y-37731525D01*
X-17131589Y-37569010D01*
X-17401842Y-37457068D01*
X-17688740Y-37400000D01*
X-17981260Y-37400000D01*
X-18268158Y-37457068D01*
X-18538411Y-37569010D01*
X-18781632Y-37731525D01*
X-18988475Y-37938368D01*
X-19150990Y-38181589D01*
X-19262932Y-38451842D01*
X-19320000Y-38738740D01*
X-24340000Y-38738740D01*
X-24340000Y-32238740D01*
X-19320000Y-32238740D01*
X-19320000Y-32531260D01*
X-19262932Y-32818158D01*
X-19150990Y-33088411D01*
X-18988475Y-33331632D01*
X-18781632Y-33538475D01*
X-18538411Y-33700990D01*
X-18268158Y-33812932D01*
X-17981260Y-33870000D01*
X-17688740Y-33870000D01*
X-17401842Y-33812932D01*
X-17131589Y-33700990D01*
X-16888368Y-33538475D01*
X-16763290Y-33413397D01*
X-14183792Y-33413397D01*
X-14106157Y-33662472D01*
X-13842117Y-33788371D01*
X-13558589Y-33860339D01*
X-13266469Y-33875611D01*
X-12976981Y-33833599D01*
X-12701253Y-33735919D01*
X-12563843Y-33662472D01*
X-12486208Y-33413397D01*
X-13335000Y-32564605D01*
X-14183792Y-33413397D01*
X-16763290Y-33413397D01*
X-16681525Y-33331632D01*
X-16519010Y-33088411D01*
X-16407068Y-32818158D01*
X-16350000Y-32531260D01*
X-16350000Y-32453531D01*
X-14825611Y-32453531D01*
X-14783599Y-32743019D01*
X-14685919Y-33018747D01*
X-14612472Y-33156157D01*
X-14363397Y-33233792D01*
X-13514605Y-32385000D01*
X-13155395Y-32385000D01*
X-12306603Y-33233792D01*
X-12057528Y-33156157D01*
X-11931629Y-32892117D01*
X-11859661Y-32608589D01*
X-11844389Y-32316469D01*
X-11855669Y-32238740D01*
X-9160000Y-32238740D01*
X-9160000Y-32531260D01*
X-9102932Y-32818158D01*
X-8990990Y-33088411D01*
X-8828475Y-33331632D01*
X-8621632Y-33538475D01*
X-8378411Y-33700990D01*
X-8108158Y-33812932D01*
X-7821260Y-33870000D01*
X-7528740Y-33870000D01*
X-7241842Y-33812932D01*
X-6971589Y-33700990D01*
X-6728368Y-33538475D01*
X-6603290Y-33413397D01*
X-4023792Y-33413397D01*
X-3946157Y-33662472D01*
X-3682117Y-33788371D01*
X-3398589Y-33860339D01*
X-3106469Y-33875611D01*
X-2816981Y-33833599D01*
X-2541253Y-33735919D01*
X-2403843Y-33662472D01*
X-2326208Y-33413397D01*
X-3175000Y-32564605D01*
X-4023792Y-33413397D01*
X-6603290Y-33413397D01*
X-6521525Y-33331632D01*
X-6359010Y-33088411D01*
X-6247068Y-32818158D01*
X-6190000Y-32531260D01*
X-6190000Y-32453531D01*
X-4665611Y-32453531D01*
X-4623599Y-32743019D01*
X-4525919Y-33018747D01*
X-4452472Y-33156157D01*
X-4203397Y-33233792D01*
X-3354605Y-32385000D01*
X-2995395Y-32385000D01*
X-2146603Y-33233792D01*
X-1897528Y-33156157D01*
X-1771629Y-32892117D01*
X-1699661Y-32608589D01*
X-1684389Y-32316469D01*
X-1695669Y-32238740D01*
X1000000Y-32238740D01*
X1000000Y-32531260D01*
X1057068Y-32818158D01*
X1169010Y-33088411D01*
X1331525Y-33331632D01*
X1538368Y-33538475D01*
X1781589Y-33700990D01*
X2051842Y-33812932D01*
X2338740Y-33870000D01*
X2631260Y-33870000D01*
X2918158Y-33812932D01*
X3188411Y-33700990D01*
X3431632Y-33538475D01*
X3556710Y-33413397D01*
X6136208Y-33413397D01*
X6213843Y-33662472D01*
X6477883Y-33788371D01*
X6761411Y-33860339D01*
X7053531Y-33875611D01*
X7343019Y-33833599D01*
X7618747Y-33735919D01*
X7756157Y-33662472D01*
X7833792Y-33413397D01*
X6985000Y-32564605D01*
X6136208Y-33413397D01*
X3556710Y-33413397D01*
X3638475Y-33331632D01*
X3800990Y-33088411D01*
X3912932Y-32818158D01*
X3970000Y-32531260D01*
X3970000Y-32453531D01*
X5494389Y-32453531D01*
X5536401Y-32743019D01*
X5634081Y-33018747D01*
X5707528Y-33156157D01*
X5956603Y-33233792D01*
X6805395Y-32385000D01*
X7164605Y-32385000D01*
X8013397Y-33233792D01*
X8262472Y-33156157D01*
X8388371Y-32892117D01*
X8460339Y-32608589D01*
X8475611Y-32316469D01*
X8464331Y-32238740D01*
X11160000Y-32238740D01*
X11160000Y-32531260D01*
X11217068Y-32818158D01*
X11329010Y-33088411D01*
X11491525Y-33331632D01*
X11698368Y-33538475D01*
X11941589Y-33700990D01*
X12211842Y-33812932D01*
X12498740Y-33870000D01*
X12791260Y-33870000D01*
X13078158Y-33812932D01*
X13348411Y-33700990D01*
X13591632Y-33538475D01*
X13716710Y-33413397D01*
X16296208Y-33413397D01*
X16373843Y-33662472D01*
X16637883Y-33788371D01*
X16921411Y-33860339D01*
X17213531Y-33875611D01*
X17503019Y-33833599D01*
X17778747Y-33735919D01*
X17916157Y-33662472D01*
X17993792Y-33413397D01*
X17145000Y-32564605D01*
X16296208Y-33413397D01*
X13716710Y-33413397D01*
X13798475Y-33331632D01*
X13960990Y-33088411D01*
X14072932Y-32818158D01*
X14130000Y-32531260D01*
X14130000Y-32453531D01*
X15654389Y-32453531D01*
X15696401Y-32743019D01*
X15794081Y-33018747D01*
X15867528Y-33156157D01*
X16116603Y-33233792D01*
X16965395Y-32385000D01*
X17324605Y-32385000D01*
X18173397Y-33233792D01*
X18422472Y-33156157D01*
X18548371Y-32892117D01*
X18620339Y-32608589D01*
X18635611Y-32316469D01*
X18593599Y-32026981D01*
X18495919Y-31751253D01*
X18422472Y-31613843D01*
X18173397Y-31536208D01*
X17324605Y-32385000D01*
X16965395Y-32385000D01*
X16116603Y-31536208D01*
X15867528Y-31613843D01*
X15741629Y-31877883D01*
X15669661Y-32161411D01*
X15654389Y-32453531D01*
X14130000Y-32453531D01*
X14130000Y-32238740D01*
X14072932Y-31951842D01*
X13960990Y-31681589D01*
X13798475Y-31438368D01*
X13716710Y-31356603D01*
X16296208Y-31356603D01*
X17145000Y-32205395D01*
X17993792Y-31356603D01*
X17916157Y-31107528D01*
X17652117Y-30981629D01*
X17368589Y-30909661D01*
X17076469Y-30894389D01*
X16786981Y-30936401D01*
X16511253Y-31034081D01*
X16373843Y-31107528D01*
X16296208Y-31356603D01*
X13716710Y-31356603D01*
X13591632Y-31231525D01*
X13348411Y-31069010D01*
X13078158Y-30957068D01*
X12791260Y-30900000D01*
X12498740Y-30900000D01*
X12211842Y-30957068D01*
X11941589Y-31069010D01*
X11698368Y-31231525D01*
X11491525Y-31438368D01*
X11329010Y-31681589D01*
X11217068Y-31951842D01*
X11160000Y-32238740D01*
X8464331Y-32238740D01*
X8433599Y-32026981D01*
X8335919Y-31751253D01*
X8262472Y-31613843D01*
X8013397Y-31536208D01*
X7164605Y-32385000D01*
X6805395Y-32385000D01*
X5956603Y-31536208D01*
X5707528Y-31613843D01*
X5581629Y-31877883D01*
X5509661Y-32161411D01*
X5494389Y-32453531D01*
X3970000Y-32453531D01*
X3970000Y-32238740D01*
X3912932Y-31951842D01*
X3800990Y-31681589D01*
X3638475Y-31438368D01*
X3556710Y-31356603D01*
X6136208Y-31356603D01*
X6985000Y-32205395D01*
X7833792Y-31356603D01*
X7756157Y-31107528D01*
X7492117Y-30981629D01*
X7208589Y-30909661D01*
X6916469Y-30894389D01*
X6626981Y-30936401D01*
X6351253Y-31034081D01*
X6213843Y-31107528D01*
X6136208Y-31356603D01*
X3556710Y-31356603D01*
X3431632Y-31231525D01*
X3188411Y-31069010D01*
X2918158Y-30957068D01*
X2631260Y-30900000D01*
X2338740Y-30900000D01*
X2051842Y-30957068D01*
X1781589Y-31069010D01*
X1538368Y-31231525D01*
X1331525Y-31438368D01*
X1169010Y-31681589D01*
X1057068Y-31951842D01*
X1000000Y-32238740D01*
X-1695669Y-32238740D01*
X-1726401Y-32026981D01*
X-1824081Y-31751253D01*
X-1897528Y-31613843D01*
X-2146603Y-31536208D01*
X-2995395Y-32385000D01*
X-3354605Y-32385000D01*
X-4203397Y-31536208D01*
X-4452472Y-31613843D01*
X-4578371Y-31877883D01*
X-4650339Y-32161411D01*
X-4665611Y-32453531D01*
X-6190000Y-32453531D01*
X-6190000Y-32238740D01*
X-6247068Y-31951842D01*
X-6359010Y-31681589D01*
X-6521525Y-31438368D01*
X-6603290Y-31356603D01*
X-4023792Y-31356603D01*
X-3175000Y-32205395D01*
X-2326208Y-31356603D01*
X-2403843Y-31107528D01*
X-2667883Y-30981629D01*
X-2951411Y-30909661D01*
X-3243531Y-30894389D01*
X-3533019Y-30936401D01*
X-3808747Y-31034081D01*
X-3946157Y-31107528D01*
X-4023792Y-31356603D01*
X-6603290Y-31356603D01*
X-6728368Y-31231525D01*
X-6971589Y-31069010D01*
X-7241842Y-30957068D01*
X-7528740Y-30900000D01*
X-7821260Y-30900000D01*
X-8108158Y-30957068D01*
X-8378411Y-31069010D01*
X-8621632Y-31231525D01*
X-8828475Y-31438368D01*
X-8990990Y-31681589D01*
X-9102932Y-31951842D01*
X-9160000Y-32238740D01*
X-11855669Y-32238740D01*
X-11886401Y-32026981D01*
X-11984081Y-31751253D01*
X-12057528Y-31613843D01*
X-12306603Y-31536208D01*
X-13155395Y-32385000D01*
X-13514605Y-32385000D01*
X-14363397Y-31536208D01*
X-14612472Y-31613843D01*
X-14738371Y-31877883D01*
X-14810339Y-32161411D01*
X-14825611Y-32453531D01*
X-16350000Y-32453531D01*
X-16350000Y-32238740D01*
X-16407068Y-31951842D01*
X-16519010Y-31681589D01*
X-16681525Y-31438368D01*
X-16763290Y-31356603D01*
X-14183792Y-31356603D01*
X-13335000Y-32205395D01*
X-12486208Y-31356603D01*
X-12563843Y-31107528D01*
X-12827883Y-30981629D01*
X-13111411Y-30909661D01*
X-13403531Y-30894389D01*
X-13693019Y-30936401D01*
X-13968747Y-31034081D01*
X-14106157Y-31107528D01*
X-14183792Y-31356603D01*
X-16763290Y-31356603D01*
X-16888368Y-31231525D01*
X-17131589Y-31069010D01*
X-17401842Y-30957068D01*
X-17688740Y-30900000D01*
X-17981260Y-30900000D01*
X-18268158Y-30957068D01*
X-18538411Y-31069010D01*
X-18781632Y-31231525D01*
X-18988475Y-31438368D01*
X-19150990Y-31681589D01*
X-19262932Y-31951842D01*
X-19320000Y-32238740D01*
X-24340000Y-32238740D01*
X-24340000Y-25665000D01*
X-18048072Y-25665000D01*
X-18035812Y-25789482D01*
X-17999502Y-25909180D01*
X-17940537Y-26019494D01*
X-17861185Y-26116185D01*
X-17764494Y-26195537D01*
X-17654180Y-26254502D01*
X-17534482Y-26290812D01*
X-17410000Y-26303072D01*
X-16795750Y-26300000D01*
X-16637000Y-26141250D01*
X-16637000Y-24892000D01*
X-17886250Y-24892000D01*
X-18045000Y-25050750D01*
X-18048072Y-25665000D01*
X-24340000Y-25665000D01*
X-24340000Y-23865000D01*
X-18048072Y-23865000D01*
X-18045000Y-24479250D01*
X-17886250Y-24638000D01*
X-16637000Y-24638000D01*
X-16637000Y-23388750D01*
X-16383000Y-23388750D01*
X-16383000Y-24638000D01*
X-16363000Y-24638000D01*
X-16363000Y-24892000D01*
X-16383000Y-24892000D01*
X-16383000Y-26141250D01*
X-16224250Y-26300000D01*
X-15610000Y-26303072D01*
X-15485518Y-26290812D01*
X-15365820Y-26254502D01*
X-15255506Y-26195537D01*
X-15158815Y-26116185D01*
X-15079463Y-26019494D01*
X-15020498Y-25909180D01*
X-15014944Y-25890873D01*
X-14948505Y-25957312D01*
X-14697095Y-26125299D01*
X-14417743Y-26241011D01*
X-14121184Y-26300000D01*
X-13818816Y-26300000D01*
X-13522257Y-26241011D01*
X-13242905Y-26125299D01*
X-12991495Y-25957312D01*
X-12777688Y-25743505D01*
X-12725233Y-25665000D01*
X-7888072Y-25665000D01*
X-7875812Y-25789482D01*
X-7839502Y-25909180D01*
X-7780537Y-26019494D01*
X-7701185Y-26116185D01*
X-7604494Y-26195537D01*
X-7494180Y-26254502D01*
X-7374482Y-26290812D01*
X-7250000Y-26303072D01*
X-6635750Y-26300000D01*
X-6477000Y-26141250D01*
X-6477000Y-24892000D01*
X-7726250Y-24892000D01*
X-7885000Y-25050750D01*
X-7888072Y-25665000D01*
X-12725233Y-25665000D01*
X-12609701Y-25492095D01*
X-12493989Y-25212743D01*
X-12435000Y-24916184D01*
X-12435000Y-24613816D01*
X-12493989Y-24317257D01*
X-12609701Y-24037905D01*
X-12725232Y-23865000D01*
X-7888072Y-23865000D01*
X-7885000Y-24479250D01*
X-7726250Y-24638000D01*
X-6477000Y-24638000D01*
X-6477000Y-23388750D01*
X-6223000Y-23388750D01*
X-6223000Y-24638000D01*
X-6203000Y-24638000D01*
X-6203000Y-24892000D01*
X-6223000Y-24892000D01*
X-6223000Y-26141250D01*
X-6064250Y-26300000D01*
X-5450000Y-26303072D01*
X-5325518Y-26290812D01*
X-5205820Y-26254502D01*
X-5095506Y-26195537D01*
X-4998815Y-26116185D01*
X-4919463Y-26019494D01*
X-4860498Y-25909180D01*
X-4854944Y-25890873D01*
X-4788505Y-25957312D01*
X-4537095Y-26125299D01*
X-4257743Y-26241011D01*
X-3961184Y-26300000D01*
X-3658816Y-26300000D01*
X-3362257Y-26241011D01*
X-3082905Y-26125299D01*
X-2831495Y-25957312D01*
X-2617688Y-25743505D01*
X-2565233Y-25665000D01*
X2271928Y-25665000D01*
X2284188Y-25789482D01*
X2320498Y-25909180D01*
X2379463Y-26019494D01*
X2458815Y-26116185D01*
X2555506Y-26195537D01*
X2665820Y-26254502D01*
X2785518Y-26290812D01*
X2910000Y-26303072D01*
X3524250Y-26300000D01*
X3683000Y-26141250D01*
X3683000Y-24892000D01*
X2433750Y-24892000D01*
X2275000Y-25050750D01*
X2271928Y-25665000D01*
X-2565233Y-25665000D01*
X-2449701Y-25492095D01*
X-2333989Y-25212743D01*
X-2275000Y-24916184D01*
X-2275000Y-24613816D01*
X-2333989Y-24317257D01*
X-2449701Y-24037905D01*
X-2565232Y-23865000D01*
X2271928Y-23865000D01*
X2275000Y-24479250D01*
X2433750Y-24638000D01*
X3683000Y-24638000D01*
X3683000Y-23388750D01*
X3937000Y-23388750D01*
X3937000Y-24638000D01*
X3957000Y-24638000D01*
X3957000Y-24892000D01*
X3937000Y-24892000D01*
X3937000Y-26141250D01*
X4095750Y-26300000D01*
X4710000Y-26303072D01*
X4834482Y-26290812D01*
X4954180Y-26254502D01*
X5064494Y-26195537D01*
X5161185Y-26116185D01*
X5240537Y-26019494D01*
X5299502Y-25909180D01*
X5305056Y-25890873D01*
X5371495Y-25957312D01*
X5622905Y-26125299D01*
X5902257Y-26241011D01*
X6198816Y-26300000D01*
X6501184Y-26300000D01*
X6797743Y-26241011D01*
X7077095Y-26125299D01*
X7328505Y-25957312D01*
X7542312Y-25743505D01*
X7594767Y-25665000D01*
X12431928Y-25665000D01*
X12444188Y-25789482D01*
X12480498Y-25909180D01*
X12539463Y-26019494D01*
X12618815Y-26116185D01*
X12715506Y-26195537D01*
X12825820Y-26254502D01*
X12945518Y-26290812D01*
X13070000Y-26303072D01*
X13684250Y-26300000D01*
X13843000Y-26141250D01*
X13843000Y-24892000D01*
X12593750Y-24892000D01*
X12435000Y-25050750D01*
X12431928Y-25665000D01*
X7594767Y-25665000D01*
X7710299Y-25492095D01*
X7826011Y-25212743D01*
X7885000Y-24916184D01*
X7885000Y-24613816D01*
X7826011Y-24317257D01*
X7710299Y-24037905D01*
X7594768Y-23865000D01*
X12431928Y-23865000D01*
X12435000Y-24479250D01*
X12593750Y-24638000D01*
X13843000Y-24638000D01*
X13843000Y-23388750D01*
X14097000Y-23388750D01*
X14097000Y-24638000D01*
X14117000Y-24638000D01*
X14117000Y-24892000D01*
X14097000Y-24892000D01*
X14097000Y-26141250D01*
X14255750Y-26300000D01*
X14870000Y-26303072D01*
X14994482Y-26290812D01*
X15114180Y-26254502D01*
X15224494Y-26195537D01*
X15321185Y-26116185D01*
X15400537Y-26019494D01*
X15459502Y-25909180D01*
X15465056Y-25890873D01*
X15531495Y-25957312D01*
X15782905Y-26125299D01*
X16062257Y-26241011D01*
X16358816Y-26300000D01*
X16661184Y-26300000D01*
X16957743Y-26241011D01*
X17237095Y-26125299D01*
X17488505Y-25957312D01*
X17702312Y-25743505D01*
X17870299Y-25492095D01*
X17986011Y-25212743D01*
X18045000Y-24916184D01*
X18045000Y-24613816D01*
X17986011Y-24317257D01*
X17870299Y-24037905D01*
X17702312Y-23786495D01*
X17488505Y-23572688D01*
X17237095Y-23404701D01*
X16957743Y-23288989D01*
X16661184Y-23230000D01*
X16358816Y-23230000D01*
X16062257Y-23288989D01*
X15782905Y-23404701D01*
X15531495Y-23572688D01*
X15465056Y-23639127D01*
X15459502Y-23620820D01*
X15400537Y-23510506D01*
X15321185Y-23413815D01*
X15224494Y-23334463D01*
X15114180Y-23275498D01*
X14994482Y-23239188D01*
X14870000Y-23226928D01*
X14255750Y-23230000D01*
X14097000Y-23388750D01*
X13843000Y-23388750D01*
X13684250Y-23230000D01*
X13070000Y-23226928D01*
X12945518Y-23239188D01*
X12825820Y-23275498D01*
X12715506Y-23334463D01*
X12618815Y-23413815D01*
X12539463Y-23510506D01*
X12480498Y-23620820D01*
X12444188Y-23740518D01*
X12431928Y-23865000D01*
X7594768Y-23865000D01*
X7542312Y-23786495D01*
X7328505Y-23572688D01*
X7077095Y-23404701D01*
X6797743Y-23288989D01*
X6501184Y-23230000D01*
X6198816Y-23230000D01*
X5902257Y-23288989D01*
X5622905Y-23404701D01*
X5371495Y-23572688D01*
X5305056Y-23639127D01*
X5299502Y-23620820D01*
X5240537Y-23510506D01*
X5161185Y-23413815D01*
X5064494Y-23334463D01*
X4954180Y-23275498D01*
X4834482Y-23239188D01*
X4710000Y-23226928D01*
X4095750Y-23230000D01*
X3937000Y-23388750D01*
X3683000Y-23388750D01*
X3524250Y-23230000D01*
X2910000Y-23226928D01*
X2785518Y-23239188D01*
X2665820Y-23275498D01*
X2555506Y-23334463D01*
X2458815Y-23413815D01*
X2379463Y-23510506D01*
X2320498Y-23620820D01*
X2284188Y-23740518D01*
X2271928Y-23865000D01*
X-2565232Y-23865000D01*
X-2617688Y-23786495D01*
X-2831495Y-23572688D01*
X-3082905Y-23404701D01*
X-3362257Y-23288989D01*
X-3658816Y-23230000D01*
X-3961184Y-23230000D01*
X-4257743Y-23288989D01*
X-4537095Y-23404701D01*
X-4788505Y-23572688D01*
X-4854944Y-23639127D01*
X-4860498Y-23620820D01*
X-4919463Y-23510506D01*
X-4998815Y-23413815D01*
X-5095506Y-23334463D01*
X-5205820Y-23275498D01*
X-5325518Y-23239188D01*
X-5450000Y-23226928D01*
X-6064250Y-23230000D01*
X-6223000Y-23388750D01*
X-6477000Y-23388750D01*
X-6635750Y-23230000D01*
X-7250000Y-23226928D01*
X-7374482Y-23239188D01*
X-7494180Y-23275498D01*
X-7604494Y-23334463D01*
X-7701185Y-23413815D01*
X-7780537Y-23510506D01*
X-7839502Y-23620820D01*
X-7875812Y-23740518D01*
X-7888072Y-23865000D01*
X-12725232Y-23865000D01*
X-12777688Y-23786495D01*
X-12991495Y-23572688D01*
X-13242905Y-23404701D01*
X-13522257Y-23288989D01*
X-13818816Y-23230000D01*
X-14121184Y-23230000D01*
X-14417743Y-23288989D01*
X-14697095Y-23404701D01*
X-14948505Y-23572688D01*
X-15014944Y-23639127D01*
X-15020498Y-23620820D01*
X-15079463Y-23510506D01*
X-15158815Y-23413815D01*
X-15255506Y-23334463D01*
X-15365820Y-23275498D01*
X-15485518Y-23239188D01*
X-15610000Y-23226928D01*
X-16224250Y-23230000D01*
X-16383000Y-23388750D01*
X-16637000Y-23388750D01*
X-16795750Y-23230000D01*
X-17410000Y-23226928D01*
X-17534482Y-23239188D01*
X-17654180Y-23275498D01*
X-17764494Y-23334463D01*
X-17861185Y-23413815D01*
X-17940537Y-23510506D01*
X-17999502Y-23620820D01*
X-18035812Y-23740518D01*
X-18048072Y-23865000D01*
X-24340000Y-23865000D01*
X-24340000Y-16930000D01*
X-20538072Y-16930000D01*
X-20538072Y-18630000D01*
X-20525812Y-18754482D01*
X-20489502Y-18874180D01*
X-20430537Y-18984494D01*
X-20351185Y-19081185D01*
X-20254494Y-19160537D01*
X-20144180Y-19219502D01*
X-20024482Y-19255812D01*
X-19900000Y-19268072D01*
X-18200000Y-19268072D01*
X-18075518Y-19255812D01*
X-17955820Y-19219502D01*
X-17845506Y-19160537D01*
X-17748815Y-19081185D01*
X-17669463Y-18984494D01*
X-17610498Y-18874180D01*
X-17589607Y-18805313D01*
X-17565134Y-18835134D01*
X-17339014Y-19020706D01*
X-17081034Y-19158599D01*
X-16801111Y-19243513D01*
X-16582950Y-19265000D01*
X-16437050Y-19265000D01*
X-16218889Y-19243513D01*
X-15938966Y-19158599D01*
X-15680986Y-19020706D01*
X-15454866Y-18835134D01*
X-15269294Y-18609014D01*
X-15240000Y-18554209D01*
X-15210706Y-18609014D01*
X-15025134Y-18835134D01*
X-14799014Y-19020706D01*
X-14541034Y-19158599D01*
X-14261111Y-19243513D01*
X-14042950Y-19265000D01*
X-13897050Y-19265000D01*
X-13678889Y-19243513D01*
X-13398966Y-19158599D01*
X-13140986Y-19020706D01*
X-12914866Y-18835134D01*
X-12729294Y-18609014D01*
X-12700000Y-18554209D01*
X-12670706Y-18609014D01*
X-12485134Y-18835134D01*
X-12259014Y-19020706D01*
X-12001034Y-19158599D01*
X-11721111Y-19243513D01*
X-11502950Y-19265000D01*
X-11357050Y-19265000D01*
X-11138889Y-19243513D01*
X-10858966Y-19158599D01*
X-10600986Y-19020706D01*
X-10374866Y-18835134D01*
X-10189294Y-18609014D01*
X-10160000Y-18554209D01*
X-10130706Y-18609014D01*
X-9945134Y-18835134D01*
X-9719014Y-19020706D01*
X-9461034Y-19158599D01*
X-9181111Y-19243513D01*
X-8962950Y-19265000D01*
X-8817050Y-19265000D01*
X-8598889Y-19243513D01*
X-8318966Y-19158599D01*
X-8060986Y-19020706D01*
X-7834866Y-18835134D01*
X-7649294Y-18609014D01*
X-7620000Y-18554209D01*
X-7590706Y-18609014D01*
X-7405134Y-18835134D01*
X-7179014Y-19020706D01*
X-6921034Y-19158599D01*
X-6641111Y-19243513D01*
X-6422950Y-19265000D01*
X-6277050Y-19265000D01*
X-6058889Y-19243513D01*
X-5778966Y-19158599D01*
X-5520986Y-19020706D01*
X-5294866Y-18835134D01*
X-5109294Y-18609014D01*
X-5080000Y-18554209D01*
X-5050706Y-18609014D01*
X-4865134Y-18835134D01*
X-4639014Y-19020706D01*
X-4381034Y-19158599D01*
X-4101111Y-19243513D01*
X-3882950Y-19265000D01*
X-3737050Y-19265000D01*
X-3518889Y-19243513D01*
X-3238966Y-19158599D01*
X-2980986Y-19020706D01*
X-2754866Y-18835134D01*
X-2569294Y-18609014D01*
X-2540000Y-18554209D01*
X-2510706Y-18609014D01*
X-2325134Y-18835134D01*
X-2099014Y-19020706D01*
X-1841034Y-19158599D01*
X-1561111Y-19243513D01*
X-1342950Y-19265000D01*
X-1197050Y-19265000D01*
X-978889Y-19243513D01*
X-698966Y-19158599D01*
X-440986Y-19020706D01*
X-214866Y-18835134D01*
X-29294Y-18609014D01*
X0Y-18554209D01*
X29294Y-18609014D01*
X214866Y-18835134D01*
X440986Y-19020706D01*
X698966Y-19158599D01*
X978889Y-19243513D01*
X1197050Y-19265000D01*
X1342950Y-19265000D01*
X1561111Y-19243513D01*
X1841034Y-19158599D01*
X2099014Y-19020706D01*
X2325134Y-18835134D01*
X2510706Y-18609014D01*
X2540000Y-18554209D01*
X2569294Y-18609014D01*
X2754866Y-18835134D01*
X2980986Y-19020706D01*
X3238966Y-19158599D01*
X3518889Y-19243513D01*
X3737050Y-19265000D01*
X3882950Y-19265000D01*
X4101111Y-19243513D01*
X4381034Y-19158599D01*
X4639014Y-19020706D01*
X4865134Y-18835134D01*
X5050706Y-18609014D01*
X5080000Y-18554209D01*
X5109294Y-18609014D01*
X5294866Y-18835134D01*
X5520986Y-19020706D01*
X5778966Y-19158599D01*
X6058889Y-19243513D01*
X6277050Y-19265000D01*
X6422950Y-19265000D01*
X6641111Y-19243513D01*
X6921034Y-19158599D01*
X7179014Y-19020706D01*
X7405134Y-18835134D01*
X7590706Y-18609014D01*
X7620000Y-18554209D01*
X7649294Y-18609014D01*
X7834866Y-18835134D01*
X8060986Y-19020706D01*
X8318966Y-19158599D01*
X8598889Y-19243513D01*
X8817050Y-19265000D01*
X8962950Y-19265000D01*
X9181111Y-19243513D01*
X9461034Y-19158599D01*
X9719014Y-19020706D01*
X9945134Y-18835134D01*
X10130706Y-18609014D01*
X10160000Y-18554209D01*
X10189294Y-18609014D01*
X10374866Y-18835134D01*
X10600986Y-19020706D01*
X10858966Y-19158599D01*
X11138889Y-19243513D01*
X11357050Y-19265000D01*
X11502950Y-19265000D01*
X11721111Y-19243513D01*
X12001034Y-19158599D01*
X12259014Y-19020706D01*
X12485134Y-18835134D01*
X12670706Y-18609014D01*
X12700000Y-18554209D01*
X12729294Y-18609014D01*
X12914866Y-18835134D01*
X13140986Y-19020706D01*
X13398966Y-19158599D01*
X13678889Y-19243513D01*
X13897050Y-19265000D01*
X14042950Y-19265000D01*
X14261111Y-19243513D01*
X14541034Y-19158599D01*
X14799014Y-19020706D01*
X15025134Y-18835134D01*
X15210706Y-18609014D01*
X15240000Y-18554209D01*
X15269294Y-18609014D01*
X15454866Y-18835134D01*
X15680986Y-19020706D01*
X15938966Y-19158599D01*
X16218889Y-19243513D01*
X16437050Y-19265000D01*
X16582950Y-19265000D01*
X16801111Y-19243513D01*
X17081034Y-19158599D01*
X17339014Y-19020706D01*
X17565134Y-18835134D01*
X17750706Y-18609014D01*
X17780000Y-18554209D01*
X17809294Y-18609014D01*
X17994866Y-18835134D01*
X18220986Y-19020706D01*
X18478966Y-19158599D01*
X18758889Y-19243513D01*
X18977050Y-19265000D01*
X19122950Y-19265000D01*
X19341111Y-19243513D01*
X19621034Y-19158599D01*
X19879014Y-19020706D01*
X20105134Y-18835134D01*
X20290706Y-18609014D01*
X20428599Y-18351034D01*
X20513513Y-18071111D01*
X20542185Y-17780000D01*
X20513513Y-17488889D01*
X20428599Y-17208966D01*
X20290706Y-16950986D01*
X20105134Y-16724866D01*
X19879014Y-16539294D01*
X19621034Y-16401401D01*
X19341111Y-16316487D01*
X19122950Y-16295000D01*
X18977050Y-16295000D01*
X18758889Y-16316487D01*
X18478966Y-16401401D01*
X18220986Y-16539294D01*
X17994866Y-16724866D01*
X17809294Y-16950986D01*
X17780000Y-17005791D01*
X17750706Y-16950986D01*
X17565134Y-16724866D01*
X17339014Y-16539294D01*
X17081034Y-16401401D01*
X16801111Y-16316487D01*
X16582950Y-16295000D01*
X16437050Y-16295000D01*
X16218889Y-16316487D01*
X15938966Y-16401401D01*
X15680986Y-16539294D01*
X15454866Y-16724866D01*
X15269294Y-16950986D01*
X15240000Y-17005791D01*
X15210706Y-16950986D01*
X15025134Y-16724866D01*
X14799014Y-16539294D01*
X14541034Y-16401401D01*
X14261111Y-16316487D01*
X14042950Y-16295000D01*
X13897050Y-16295000D01*
X13678889Y-16316487D01*
X13398966Y-16401401D01*
X13140986Y-16539294D01*
X12914866Y-16724866D01*
X12729294Y-16950986D01*
X12700000Y-17005791D01*
X12670706Y-16950986D01*
X12485134Y-16724866D01*
X12259014Y-16539294D01*
X12001034Y-16401401D01*
X11721111Y-16316487D01*
X11502950Y-16295000D01*
X11357050Y-16295000D01*
X11138889Y-16316487D01*
X10858966Y-16401401D01*
X10600986Y-16539294D01*
X10374866Y-16724866D01*
X10189294Y-16950986D01*
X10160000Y-17005791D01*
X10130706Y-16950986D01*
X9945134Y-16724866D01*
X9719014Y-16539294D01*
X9461034Y-16401401D01*
X9181111Y-16316487D01*
X8962950Y-16295000D01*
X8817050Y-16295000D01*
X8598889Y-16316487D01*
X8318966Y-16401401D01*
X8060986Y-16539294D01*
X7834866Y-16724866D01*
X7649294Y-16950986D01*
X7620000Y-17005791D01*
X7590706Y-16950986D01*
X7405134Y-16724866D01*
X7179014Y-16539294D01*
X6921034Y-16401401D01*
X6641111Y-16316487D01*
X6422950Y-16295000D01*
X6277050Y-16295000D01*
X6058889Y-16316487D01*
X5778966Y-16401401D01*
X5520986Y-16539294D01*
X5294866Y-16724866D01*
X5109294Y-16950986D01*
X5080000Y-17005791D01*
X5050706Y-16950986D01*
X4865134Y-16724866D01*
X4639014Y-16539294D01*
X4381034Y-16401401D01*
X4101111Y-16316487D01*
X3882950Y-16295000D01*
X3737050Y-16295000D01*
X3518889Y-16316487D01*
X3238966Y-16401401D01*
X2980986Y-16539294D01*
X2754866Y-16724866D01*
X2569294Y-16950986D01*
X2540000Y-17005791D01*
X2510706Y-16950986D01*
X2325134Y-16724866D01*
X2099014Y-16539294D01*
X1841034Y-16401401D01*
X1561111Y-16316487D01*
X1342950Y-16295000D01*
X1197050Y-16295000D01*
X978889Y-16316487D01*
X698966Y-16401401D01*
X440986Y-16539294D01*
X214866Y-16724866D01*
X29294Y-16950986D01*
X0Y-17005791D01*
X-29294Y-16950986D01*
X-214866Y-16724866D01*
X-440986Y-16539294D01*
X-698966Y-16401401D01*
X-978889Y-16316487D01*
X-1197050Y-16295000D01*
X-1342950Y-16295000D01*
X-1561111Y-16316487D01*
X-1841034Y-16401401D01*
X-2099014Y-16539294D01*
X-2325134Y-16724866D01*
X-2510706Y-16950986D01*
X-2540000Y-17005791D01*
X-2569294Y-16950986D01*
X-2754866Y-16724866D01*
X-2980986Y-16539294D01*
X-3238966Y-16401401D01*
X-3518889Y-16316487D01*
X-3737050Y-16295000D01*
X-3882950Y-16295000D01*
X-4101111Y-16316487D01*
X-4381034Y-16401401D01*
X-4639014Y-16539294D01*
X-4865134Y-16724866D01*
X-5050706Y-16950986D01*
X-5080000Y-17005791D01*
X-5109294Y-16950986D01*
X-5294866Y-16724866D01*
X-5520986Y-16539294D01*
X-5778966Y-16401401D01*
X-6058889Y-16316487D01*
X-6277050Y-16295000D01*
X-6422950Y-16295000D01*
X-6641111Y-16316487D01*
X-6921034Y-16401401D01*
X-7179014Y-16539294D01*
X-7405134Y-16724866D01*
X-7590706Y-16950986D01*
X-7620000Y-17005791D01*
X-7649294Y-16950986D01*
X-7834866Y-16724866D01*
X-8060986Y-16539294D01*
X-8318966Y-16401401D01*
X-8598889Y-16316487D01*
X-8817050Y-16295000D01*
X-8962950Y-16295000D01*
X-9181111Y-16316487D01*
X-9461034Y-16401401D01*
X-9719014Y-16539294D01*
X-9945134Y-16724866D01*
X-10130706Y-16950986D01*
X-10160000Y-17005791D01*
X-10189294Y-16950986D01*
X-10374866Y-16724866D01*
X-10600986Y-16539294D01*
X-10858966Y-16401401D01*
X-11138889Y-16316487D01*
X-11357050Y-16295000D01*
X-11502950Y-16295000D01*
X-11721111Y-16316487D01*
X-12001034Y-16401401D01*
X-12259014Y-16539294D01*
X-12485134Y-16724866D01*
X-12670706Y-16950986D01*
X-12700000Y-17005791D01*
X-12729294Y-16950986D01*
X-12914866Y-16724866D01*
X-13140986Y-16539294D01*
X-13398966Y-16401401D01*
X-13678889Y-16316487D01*
X-13897050Y-16295000D01*
X-14042950Y-16295000D01*
X-14261111Y-16316487D01*
X-14541034Y-16401401D01*
X-14799014Y-16539294D01*
X-15025134Y-16724866D01*
X-15210706Y-16950986D01*
X-15240000Y-17005791D01*
X-15269294Y-16950986D01*
X-15454866Y-16724866D01*
X-15680986Y-16539294D01*
X-15938966Y-16401401D01*
X-16218889Y-16316487D01*
X-16437050Y-16295000D01*
X-16582950Y-16295000D01*
X-16801111Y-16316487D01*
X-17081034Y-16401401D01*
X-17339014Y-16539294D01*
X-17565134Y-16724866D01*
X-17589607Y-16754687D01*
X-17610498Y-16685820D01*
X-17669463Y-16575506D01*
X-17748815Y-16478815D01*
X-17845506Y-16399463D01*
X-17955820Y-16340498D01*
X-18075518Y-16304188D01*
X-18200000Y-16291928D01*
X-19900000Y-16291928D01*
X-20024482Y-16304188D01*
X-20144180Y-16340498D01*
X-20254494Y-16399463D01*
X-20351185Y-16478815D01*
X-20430537Y-16575506D01*
X-20489502Y-16685820D01*
X-20525812Y-16805518D01*
X-20538072Y-16930000D01*
X-24340000Y-16930000D01*
X-24340000Y850000D01*
X-20538072Y850000D01*
X-20538072Y-850000D01*
X-20525812Y-974482D01*
X-20489502Y-1094180D01*
X-20430537Y-1204494D01*
X-20351185Y-1301185D01*
X-20254494Y-1380537D01*
X-20144180Y-1439502D01*
X-20024482Y-1475812D01*
X-19900000Y-1488072D01*
X-18200000Y-1488072D01*
X-18075518Y-1475812D01*
X-17955820Y-1439502D01*
X-17845506Y-1380537D01*
X-17748815Y-1301185D01*
X-17669463Y-1204494D01*
X-17610498Y-1094180D01*
X-17589607Y-1025313D01*
X-17565134Y-1055134D01*
X-17339014Y-1240706D01*
X-17081034Y-1378599D01*
X-16801111Y-1463513D01*
X-16582950Y-1485000D01*
X-16437050Y-1485000D01*
X-16218889Y-1463513D01*
X-15938966Y-1378599D01*
X-15680986Y-1240706D01*
X-15454866Y-1055134D01*
X-15269294Y-829014D01*
X-15240000Y-774209D01*
X-15210706Y-829014D01*
X-15025134Y-1055134D01*
X-14799014Y-1240706D01*
X-14541034Y-1378599D01*
X-14261111Y-1463513D01*
X-14042950Y-1485000D01*
X-13897050Y-1485000D01*
X-13678889Y-1463513D01*
X-13398966Y-1378599D01*
X-13140986Y-1240706D01*
X-12914866Y-1055134D01*
X-12729294Y-829014D01*
X-12700000Y-774209D01*
X-12670706Y-829014D01*
X-12485134Y-1055134D01*
X-12259014Y-1240706D01*
X-12001034Y-1378599D01*
X-11721111Y-1463513D01*
X-11502950Y-1485000D01*
X-11357050Y-1485000D01*
X-11138889Y-1463513D01*
X-10858966Y-1378599D01*
X-10600986Y-1240706D01*
X-10374866Y-1055134D01*
X-10189294Y-829014D01*
X-10160000Y-774209D01*
X-10130706Y-829014D01*
X-9945134Y-1055134D01*
X-9719014Y-1240706D01*
X-9461034Y-1378599D01*
X-9181111Y-1463513D01*
X-8962950Y-1485000D01*
X-8817050Y-1485000D01*
X-8598889Y-1463513D01*
X-8318966Y-1378599D01*
X-8060986Y-1240706D01*
X-7834866Y-1055134D01*
X-7649294Y-829014D01*
X-7620000Y-774209D01*
X-7590706Y-829014D01*
X-7405134Y-1055134D01*
X-7179014Y-1240706D01*
X-6921034Y-1378599D01*
X-6641111Y-1463513D01*
X-6422950Y-1485000D01*
X-6277050Y-1485000D01*
X-6058889Y-1463513D01*
X-5778966Y-1378599D01*
X-5520986Y-1240706D01*
X-5294866Y-1055134D01*
X-5109294Y-829014D01*
X-5080000Y-774209D01*
X-5050706Y-829014D01*
X-4865134Y-1055134D01*
X-4639014Y-1240706D01*
X-4381034Y-1378599D01*
X-4101111Y-1463513D01*
X-3882950Y-1485000D01*
X-3737050Y-1485000D01*
X-3518889Y-1463513D01*
X-3238966Y-1378599D01*
X-2980986Y-1240706D01*
X-2754866Y-1055134D01*
X-2569294Y-829014D01*
X-2540000Y-774209D01*
X-2510706Y-829014D01*
X-2325134Y-1055134D01*
X-2099014Y-1240706D01*
X-1841034Y-1378599D01*
X-1561111Y-1463513D01*
X-1342950Y-1485000D01*
X-1197050Y-1485000D01*
X-978889Y-1463513D01*
X-698966Y-1378599D01*
X-440986Y-1240706D01*
X-214866Y-1055134D01*
X-29294Y-829014D01*
X0Y-774209D01*
X29294Y-829014D01*
X214866Y-1055134D01*
X440986Y-1240706D01*
X698966Y-1378599D01*
X978889Y-1463513D01*
X1197050Y-1485000D01*
X1342950Y-1485000D01*
X1561111Y-1463513D01*
X1841034Y-1378599D01*
X2099014Y-1240706D01*
X2325134Y-1055134D01*
X2510706Y-829014D01*
X2540000Y-774209D01*
X2569294Y-829014D01*
X2754866Y-1055134D01*
X2980986Y-1240706D01*
X3238966Y-1378599D01*
X3518889Y-1463513D01*
X3737050Y-1485000D01*
X3882950Y-1485000D01*
X4101111Y-1463513D01*
X4381034Y-1378599D01*
X4639014Y-1240706D01*
X4865134Y-1055134D01*
X5050706Y-829014D01*
X5080000Y-774209D01*
X5109294Y-829014D01*
X5294866Y-1055134D01*
X5520986Y-1240706D01*
X5778966Y-1378599D01*
X6058889Y-1463513D01*
X6277050Y-1485000D01*
X6422950Y-1485000D01*
X6641111Y-1463513D01*
X6921034Y-1378599D01*
X7179014Y-1240706D01*
X7405134Y-1055134D01*
X7590706Y-829014D01*
X7620000Y-774209D01*
X7649294Y-829014D01*
X7834866Y-1055134D01*
X8060986Y-1240706D01*
X8318966Y-1378599D01*
X8598889Y-1463513D01*
X8817050Y-1485000D01*
X8962950Y-1485000D01*
X9181111Y-1463513D01*
X9461034Y-1378599D01*
X9719014Y-1240706D01*
X9945134Y-1055134D01*
X10130706Y-829014D01*
X10160000Y-774209D01*
X10189294Y-829014D01*
X10374866Y-1055134D01*
X10600986Y-1240706D01*
X10858966Y-1378599D01*
X11138889Y-1463513D01*
X11357050Y-1485000D01*
X11502950Y-1485000D01*
X11721111Y-1463513D01*
X12001034Y-1378599D01*
X12259014Y-1240706D01*
X12485134Y-1055134D01*
X12670706Y-829014D01*
X12700000Y-774209D01*
X12729294Y-829014D01*
X12914866Y-1055134D01*
X13140986Y-1240706D01*
X13398966Y-1378599D01*
X13678889Y-1463513D01*
X13897050Y-1485000D01*
X14042950Y-1485000D01*
X14261111Y-1463513D01*
X14541034Y-1378599D01*
X14799014Y-1240706D01*
X15025134Y-1055134D01*
X15210706Y-829014D01*
X15245201Y-764477D01*
X15314822Y-881355D01*
X15509731Y-1097588D01*
X15743080Y-1271641D01*
X16005901Y-1396825D01*
X16153110Y-1441476D01*
X16383000Y-1320155D01*
X16383000Y-127000D01*
X16363000Y-127000D01*
X16363000Y127000D01*
X16383000Y127000D01*
X16383000Y1320155D01*
X16637000Y1320155D01*
X16637000Y127000D01*
X16657000Y127000D01*
X16657000Y-127000D01*
X16637000Y-127000D01*
X16637000Y-1320155D01*
X16866890Y-1441476D01*
X17014099Y-1396825D01*
X17276920Y-1271641D01*
X17510269Y-1097588D01*
X17705178Y-881355D01*
X17774799Y-764477D01*
X17809294Y-829014D01*
X17994866Y-1055134D01*
X18220986Y-1240706D01*
X18478966Y-1378599D01*
X18758889Y-1463513D01*
X18977050Y-1485000D01*
X19122950Y-1485000D01*
X19341111Y-1463513D01*
X19621034Y-1378599D01*
X19879014Y-1240706D01*
X20105134Y-1055134D01*
X20290706Y-829014D01*
X20428599Y-571034D01*
X20513513Y-291111D01*
X20542185Y0D01*
X20513513Y291111D01*
X20428599Y571034D01*
X20290706Y829014D01*
X20105134Y1055134D01*
X19879014Y1240706D01*
X19621034Y1378599D01*
X19341111Y1463513D01*
X19122950Y1485000D01*
X18977050Y1485000D01*
X18758889Y1463513D01*
X18478966Y1378599D01*
X18220986Y1240706D01*
X17994866Y1055134D01*
X17809294Y829014D01*
X17774799Y764477D01*
X17705178Y881355D01*
X17510269Y1097588D01*
X17276920Y1271641D01*
X17014099Y1396825D01*
X16866890Y1441476D01*
X16637000Y1320155D01*
X16383000Y1320155D01*
X16153110Y1441476D01*
X16005901Y1396825D01*
X15743080Y1271641D01*
X15509731Y1097588D01*
X15314822Y881355D01*
X15245201Y764477D01*
X15210706Y829014D01*
X15025134Y1055134D01*
X14799014Y1240706D01*
X14541034Y1378599D01*
X14261111Y1463513D01*
X14042950Y1485000D01*
X13897050Y1485000D01*
X13678889Y1463513D01*
X13398966Y1378599D01*
X13140986Y1240706D01*
X12914866Y1055134D01*
X12729294Y829014D01*
X12700000Y774209D01*
X12670706Y829014D01*
X12485134Y1055134D01*
X12259014Y1240706D01*
X12001034Y1378599D01*
X11721111Y1463513D01*
X11502950Y1485000D01*
X11357050Y1485000D01*
X11138889Y1463513D01*
X10858966Y1378599D01*
X10600986Y1240706D01*
X10374866Y1055134D01*
X10189294Y829014D01*
X10160000Y774209D01*
X10130706Y829014D01*
X9945134Y1055134D01*
X9719014Y1240706D01*
X9461034Y1378599D01*
X9181111Y1463513D01*
X8962950Y1485000D01*
X8817050Y1485000D01*
X8598889Y1463513D01*
X8318966Y1378599D01*
X8060986Y1240706D01*
X7834866Y1055134D01*
X7649294Y829014D01*
X7620000Y774209D01*
X7590706Y829014D01*
X7405134Y1055134D01*
X7179014Y1240706D01*
X6921034Y1378599D01*
X6641111Y1463513D01*
X6422950Y1485000D01*
X6277050Y1485000D01*
X6058889Y1463513D01*
X5778966Y1378599D01*
X5520986Y1240706D01*
X5294866Y1055134D01*
X5109294Y829014D01*
X5080000Y774209D01*
X5050706Y829014D01*
X4865134Y1055134D01*
X4639014Y1240706D01*
X4381034Y1378599D01*
X4101111Y1463513D01*
X3882950Y1485000D01*
X3737050Y1485000D01*
X3518889Y1463513D01*
X3238966Y1378599D01*
X2980986Y1240706D01*
X2754866Y1055134D01*
X2569294Y829014D01*
X2540000Y774209D01*
X2510706Y829014D01*
X2325134Y1055134D01*
X2099014Y1240706D01*
X1841034Y1378599D01*
X1561111Y1463513D01*
X1342950Y1485000D01*
X1197050Y1485000D01*
X978889Y1463513D01*
X698966Y1378599D01*
X440986Y1240706D01*
X214866Y1055134D01*
X29294Y829014D01*
X0Y774209D01*
X-29294Y829014D01*
X-214866Y1055134D01*
X-440986Y1240706D01*
X-698966Y1378599D01*
X-978889Y1463513D01*
X-1197050Y1485000D01*
X-1342950Y1485000D01*
X-1561111Y1463513D01*
X-1841034Y1378599D01*
X-2099014Y1240706D01*
X-2325134Y1055134D01*
X-2510706Y829014D01*
X-2540000Y774209D01*
X-2569294Y829014D01*
X-2754866Y1055134D01*
X-2980986Y1240706D01*
X-3238966Y1378599D01*
X-3518889Y1463513D01*
X-3737050Y1485000D01*
X-3882950Y1485000D01*
X-4101111Y1463513D01*
X-4381034Y1378599D01*
X-4639014Y1240706D01*
X-4865134Y1055134D01*
X-5050706Y829014D01*
X-5080000Y774209D01*
X-5109294Y829014D01*
X-5294866Y1055134D01*
X-5520986Y1240706D01*
X-5778966Y1378599D01*
X-6058889Y1463513D01*
X-6277050Y1485000D01*
X-6422950Y1485000D01*
X-6641111Y1463513D01*
X-6921034Y1378599D01*
X-7179014Y1240706D01*
X-7405134Y1055134D01*
X-7590706Y829014D01*
X-7620000Y774209D01*
X-7649294Y829014D01*
X-7834866Y1055134D01*
X-8060986Y1240706D01*
X-8318966Y1378599D01*
X-8598889Y1463513D01*
X-8817050Y1485000D01*
X-8962950Y1485000D01*
X-9181111Y1463513D01*
X-9461034Y1378599D01*
X-9719014Y1240706D01*
X-9945134Y1055134D01*
X-10130706Y829014D01*
X-10160000Y774209D01*
X-10189294Y829014D01*
X-10374866Y1055134D01*
X-10600986Y1240706D01*
X-10858966Y1378599D01*
X-11138889Y1463513D01*
X-11357050Y1485000D01*
X-11502950Y1485000D01*
X-11721111Y1463513D01*
X-12001034Y1378599D01*
X-12259014Y1240706D01*
X-12485134Y1055134D01*
X-12670706Y829014D01*
X-12700000Y774209D01*
X-12729294Y829014D01*
X-12914866Y1055134D01*
X-13140986Y1240706D01*
X-13398966Y1378599D01*
X-13678889Y1463513D01*
X-13897050Y1485000D01*
X-14042950Y1485000D01*
X-14261111Y1463513D01*
X-14541034Y1378599D01*
X-14799014Y1240706D01*
X-15025134Y1055134D01*
X-15210706Y829014D01*
X-15240000Y774209D01*
X-15269294Y829014D01*
X-15454866Y1055134D01*
X-15680986Y1240706D01*
X-15938966Y1378599D01*
X-16218889Y1463513D01*
X-16437050Y1485000D01*
X-16582950Y1485000D01*
X-16801111Y1463513D01*
X-17081034Y1378599D01*
X-17339014Y1240706D01*
X-17565134Y1055134D01*
X-17589607Y1025313D01*
X-17610498Y1094180D01*
X-17669463Y1204494D01*
X-17748815Y1301185D01*
X-17845506Y1380537D01*
X-17955820Y1439502D01*
X-18075518Y1475812D01*
X-18200000Y1488072D01*
X-19900000Y1488072D01*
X-20024482Y1475812D01*
X-20144180Y1439502D01*
X-20254494Y1380537D01*
X-20351185Y1301185D01*
X-20430537Y1204494D01*
X-20489502Y1094180D01*
X-20525812Y974482D01*
X-20538072Y850000D01*
X-24340000Y850000D01*
X-24340000Y7340000D01*
X-20521105Y7340000D01*
X-20525812Y7324482D01*
M02*
