M48
; DRILL file {KiCad 5.1.4-e60b266~84~ubuntu18.04.1} date Sa 28 Sep 2019 19:30:43 CEST
; FORMAT={-:-/ absolute / metric / decimal}
; #@! TF.CreationDate,2019-09-28T19:30:43+02:00
; #@! TF.GenerationSoftware,Kicad,Pcbnew,5.1.4-e60b266~84~ubuntu18.04.1
FMAT,2
METRIC
T1C0.400
T2C0.900
T3C1.000
%
G90
G05
T1
X-17.78Y-31.115
X-7.62Y-31.115
X2.54Y-31.115
X12.7Y-31.115
T2
X3.81Y-25.4
X6.35Y-25.4
X-16.51Y-25.4
X-13.97Y-25.4
X13.97Y-25.4
X16.51Y-25.4
X-6.35Y-25.4
X-3.81Y-25.4
T3
X12.7Y-33.655
X12.7Y-40.155
X17.2Y-33.655
X17.2Y-40.155
X2.54Y-33.655
X2.54Y-40.155
X7.04Y-33.655
X7.04Y-40.155
X-19.05Y0.0
X-16.51Y0.0
X-13.97Y0.0
X-11.43Y0.0
X-8.89Y0.0
X-6.35Y0.0
X-3.81Y0.0
X-1.27Y0.0
X1.27Y0.0
X3.81Y0.0
X6.35Y0.0
X8.89Y0.0
X11.43Y0.0
X13.97Y0.0
X16.51Y0.0
X19.05Y0.0
X-19.05Y6.35
X-16.51Y6.35
X-13.97Y6.35
X-11.43Y6.35
X-8.89Y6.35
X-6.35Y6.35
X-3.81Y6.35
X-1.27Y6.35
X1.27Y6.35
X3.81Y6.35
X6.35Y6.35
X8.89Y6.35
X11.43Y6.35
X13.97Y6.35
X16.51Y6.35
X19.05Y6.35
X-19.05Y-17.78
X-16.51Y-17.78
X-13.97Y-17.78
X-11.43Y-17.78
X-8.89Y-17.78
X-6.35Y-17.78
X-3.81Y-17.78
X-1.27Y-17.78
X1.27Y-17.78
X3.81Y-17.78
X6.35Y-17.78
X8.89Y-17.78
X11.43Y-17.78
X13.97Y-17.78
X16.51Y-17.78
X19.05Y-17.78
X-7.62Y-33.655
X-7.62Y-40.155
X-3.12Y-33.655
X-3.12Y-40.155
X-17.78Y-33.655
X-17.78Y-40.155
X-13.28Y-33.655
X-13.28Y-40.155
T0
M30
