M48
; DRILL file {KiCad 5.1.4-e60b266~84~ubuntu18.04.1} date So 13 Okt 2019 20:00:17 CEST
; FORMAT={-:-/ absolute / metric / decimal}
; #@! TF.CreationDate,2019-10-13T20:00:17+02:00
; #@! TF.GenerationSoftware,Kicad,Pcbnew,5.1.4-e60b266~84~ubuntu18.04.1
FMAT,2
METRIC
T1C0.400
T2C0.900
T3C1.000
%
G90
G05
T1
X-17.78Y-29.845
X-7.62Y-29.845
X2.54Y-29.845
X12.7Y-29.845
T2
X13.97Y-24.765
X16.51Y-24.765
X-16.51Y-24.765
X-13.97Y-24.765
X3.81Y-24.765
X6.35Y-24.765
X-6.35Y-24.765
X-3.81Y-24.765
T3
X-17.835Y-32.385
X-17.835Y-38.885
X-13.335Y-32.385
X-13.335Y-38.885
X-7.675Y-32.385
X-7.675Y-38.885
X-3.175Y-32.385
X-3.175Y-38.885
X-19.05Y-17.78
X-16.51Y-17.78
X-13.97Y-17.78
X-11.43Y-17.78
X-8.89Y-17.78
X-6.35Y-17.78
X-3.81Y-17.78
X-1.27Y-17.78
X1.27Y-17.78
X3.81Y-17.78
X6.35Y-17.78
X8.89Y-17.78
X11.43Y-17.78
X13.97Y-17.78
X16.51Y-17.78
X19.05Y-17.78
X-19.05Y6.35
X-16.51Y6.35
X-13.97Y6.35
X-11.43Y6.35
X-8.89Y6.35
X-6.35Y6.35
X-3.81Y6.35
X-1.27Y6.35
X1.27Y6.35
X3.81Y6.35
X6.35Y6.35
X8.89Y6.35
X11.43Y6.35
X13.97Y6.35
X16.51Y6.35
X19.05Y6.35
X2.485Y-32.385
X2.485Y-38.885
X6.985Y-32.385
X6.985Y-38.885
X12.645Y-32.385
X12.645Y-38.885
X17.145Y-32.385
X17.145Y-38.885
X-19.05Y0.0
X-16.51Y0.0
X-13.97Y0.0
X-11.43Y0.0
X-8.89Y0.0
X-6.35Y0.0
X-3.81Y0.0
X-1.27Y0.0
X1.27Y0.0
X3.81Y0.0
X6.35Y0.0
X8.89Y0.0
X11.43Y0.0
X13.97Y0.0
X16.51Y0.0
X19.05Y0.0
T0
M30
