G04 #@! TF.GenerationSoftware,KiCad,Pcbnew,5.1.4-e60b266~84~ubuntu18.04.1*
G04 #@! TF.CreationDate,2019-09-29T11:15:23+02:00*
G04 #@! TF.ProjectId,UpduinoLEDButtonExpander,55706475-696e-46f4-9c45-44427574746f,rev?*
G04 #@! TF.SameCoordinates,PX88dc9f0PY43d3480*
G04 #@! TF.FileFunction,Copper,L2,Bot*
G04 #@! TF.FilePolarity,Positive*
%FSLAX46Y46*%
G04 Gerber Fmt 4.6, Leading zero omitted, Abs format (unit mm)*
G04 Created by KiCad (PCBNEW 5.1.4-e60b266~84~ubuntu18.04.1) date 2019-09-29 11:15:23*
%MOMM*%
%LPD*%
G04 APERTURE LIST*
%ADD10R,1.800000X1.800000*%
%ADD11C,1.800000*%
%ADD12R,1.700000X1.700000*%
%ADD13O,1.700000X1.700000*%
%ADD14C,1.700000*%
%ADD15C,0.800000*%
%ADD16C,0.254000*%
G04 APERTURE END LIST*
D10*
X-16510000Y-25400000D03*
D11*
X-13970000Y-25400000D03*
X-3810000Y-25400000D03*
D10*
X-6350000Y-25400000D03*
D11*
X6350000Y-25400000D03*
D10*
X3810000Y-25400000D03*
X13970000Y-25400000D03*
D11*
X16510000Y-25400000D03*
D12*
X-19050000Y0D03*
D13*
X-16510000Y0D03*
X-13970000Y0D03*
X-11430000Y0D03*
X-8890000Y0D03*
X-6350000Y0D03*
X-3810000Y0D03*
X-1270000Y0D03*
X1270000Y0D03*
X3810000Y0D03*
X6350000Y0D03*
X8890000Y0D03*
X11430000Y0D03*
X13970000Y0D03*
X16510000Y0D03*
X19050000Y0D03*
D14*
X-17780000Y-40155000D03*
X-17780000Y-33655000D03*
X-13280000Y-40155000D03*
X-13280000Y-33655000D03*
X-7620000Y-40155000D03*
X-7620000Y-33655000D03*
X-3120000Y-40155000D03*
X-3120000Y-33655000D03*
X7040000Y-33655000D03*
X7040000Y-40155000D03*
X2540000Y-33655000D03*
X2540000Y-40155000D03*
X17200000Y-33655000D03*
X17200000Y-40155000D03*
X12700000Y-33655000D03*
X12700000Y-40155000D03*
D12*
X-19050000Y-17780000D03*
D13*
X-16510000Y-17780000D03*
X-13970000Y-17780000D03*
X-11430000Y-17780000D03*
X-8890000Y-17780000D03*
X-6350000Y-17780000D03*
X-3810000Y-17780000D03*
X-1270000Y-17780000D03*
X1270000Y-17780000D03*
X3810000Y-17780000D03*
X6350000Y-17780000D03*
X8890000Y-17780000D03*
X11430000Y-17780000D03*
X13970000Y-17780000D03*
X16510000Y-17780000D03*
X19050000Y-17780000D03*
D12*
X-19050000Y6350000D03*
D13*
X-16510000Y6350000D03*
X-13970000Y6350000D03*
X-11430000Y6350000D03*
X-8890000Y6350000D03*
X-6350000Y6350000D03*
X-3810000Y6350000D03*
X-1270000Y6350000D03*
X1270000Y6350000D03*
X3810000Y6350000D03*
X6350000Y6350000D03*
X8890000Y6350000D03*
X11430000Y6350000D03*
X13970000Y6350000D03*
X16510000Y6350000D03*
X19050000Y6350000D03*
D15*
X-17780000Y-31115000D03*
X-7620000Y-31115000D03*
X2540000Y-31115000D03*
X12700000Y-31115000D03*
D16*
G36*
X-20525812Y7324482D02*
G01*
X-20538072Y7200000D01*
X-20538072Y5500000D01*
X-20525812Y5375518D01*
X-20489502Y5255820D01*
X-20430537Y5145506D01*
X-20351185Y5048815D01*
X-20254494Y4969463D01*
X-20144180Y4910498D01*
X-20024482Y4874188D01*
X-19900000Y4861928D01*
X-18200000Y4861928D01*
X-18075518Y4874188D01*
X-17955820Y4910498D01*
X-17845506Y4969463D01*
X-17748815Y5048815D01*
X-17669463Y5145506D01*
X-17610498Y5255820D01*
X-17589607Y5324687D01*
X-17565134Y5294866D01*
X-17339014Y5109294D01*
X-17081034Y4971401D01*
X-16801111Y4886487D01*
X-16582950Y4865000D01*
X-16437050Y4865000D01*
X-16218889Y4886487D01*
X-15938966Y4971401D01*
X-15680986Y5109294D01*
X-15454866Y5294866D01*
X-15269294Y5520986D01*
X-15240000Y5575791D01*
X-15210706Y5520986D01*
X-15025134Y5294866D01*
X-14799014Y5109294D01*
X-14541034Y4971401D01*
X-14261111Y4886487D01*
X-14042950Y4865000D01*
X-13897050Y4865000D01*
X-13678889Y4886487D01*
X-13398966Y4971401D01*
X-13140986Y5109294D01*
X-12914866Y5294866D01*
X-12729294Y5520986D01*
X-12700000Y5575791D01*
X-12670706Y5520986D01*
X-12485134Y5294866D01*
X-12259014Y5109294D01*
X-12001034Y4971401D01*
X-11721111Y4886487D01*
X-11502950Y4865000D01*
X-11357050Y4865000D01*
X-11138889Y4886487D01*
X-10858966Y4971401D01*
X-10600986Y5109294D01*
X-10374866Y5294866D01*
X-10189294Y5520986D01*
X-10160000Y5575791D01*
X-10130706Y5520986D01*
X-9945134Y5294866D01*
X-9719014Y5109294D01*
X-9461034Y4971401D01*
X-9181111Y4886487D01*
X-8962950Y4865000D01*
X-8817050Y4865000D01*
X-8598889Y4886487D01*
X-8318966Y4971401D01*
X-8060986Y5109294D01*
X-7834866Y5294866D01*
X-7649294Y5520986D01*
X-7620000Y5575791D01*
X-7590706Y5520986D01*
X-7405134Y5294866D01*
X-7179014Y5109294D01*
X-6921034Y4971401D01*
X-6641111Y4886487D01*
X-6422950Y4865000D01*
X-6277050Y4865000D01*
X-6058889Y4886487D01*
X-5778966Y4971401D01*
X-5520986Y5109294D01*
X-5294866Y5294866D01*
X-5109294Y5520986D01*
X-5080000Y5575791D01*
X-5050706Y5520986D01*
X-4865134Y5294866D01*
X-4639014Y5109294D01*
X-4381034Y4971401D01*
X-4101111Y4886487D01*
X-3882950Y4865000D01*
X-3737050Y4865000D01*
X-3518889Y4886487D01*
X-3238966Y4971401D01*
X-2980986Y5109294D01*
X-2754866Y5294866D01*
X-2569294Y5520986D01*
X-2540000Y5575791D01*
X-2510706Y5520986D01*
X-2325134Y5294866D01*
X-2099014Y5109294D01*
X-1841034Y4971401D01*
X-1561111Y4886487D01*
X-1342950Y4865000D01*
X-1197050Y4865000D01*
X-978889Y4886487D01*
X-698966Y4971401D01*
X-440986Y5109294D01*
X-214866Y5294866D01*
X-29294Y5520986D01*
X0Y5575791D01*
X29294Y5520986D01*
X214866Y5294866D01*
X440986Y5109294D01*
X698966Y4971401D01*
X978889Y4886487D01*
X1197050Y4865000D01*
X1342950Y4865000D01*
X1561111Y4886487D01*
X1841034Y4971401D01*
X2099014Y5109294D01*
X2325134Y5294866D01*
X2510706Y5520986D01*
X2540000Y5575791D01*
X2569294Y5520986D01*
X2754866Y5294866D01*
X2980986Y5109294D01*
X3238966Y4971401D01*
X3518889Y4886487D01*
X3737050Y4865000D01*
X3882950Y4865000D01*
X4101111Y4886487D01*
X4381034Y4971401D01*
X4639014Y5109294D01*
X4865134Y5294866D01*
X5050706Y5520986D01*
X5080000Y5575791D01*
X5109294Y5520986D01*
X5294866Y5294866D01*
X5520986Y5109294D01*
X5778966Y4971401D01*
X6058889Y4886487D01*
X6277050Y4865000D01*
X6422950Y4865000D01*
X6641111Y4886487D01*
X6921034Y4971401D01*
X7179014Y5109294D01*
X7405134Y5294866D01*
X7590706Y5520986D01*
X7620000Y5575791D01*
X7649294Y5520986D01*
X7834866Y5294866D01*
X8060986Y5109294D01*
X8318966Y4971401D01*
X8598889Y4886487D01*
X8817050Y4865000D01*
X8962950Y4865000D01*
X9181111Y4886487D01*
X9461034Y4971401D01*
X9719014Y5109294D01*
X9945134Y5294866D01*
X10130706Y5520986D01*
X10160000Y5575791D01*
X10189294Y5520986D01*
X10374866Y5294866D01*
X10600986Y5109294D01*
X10858966Y4971401D01*
X11138889Y4886487D01*
X11357050Y4865000D01*
X11502950Y4865000D01*
X11721111Y4886487D01*
X12001034Y4971401D01*
X12259014Y5109294D01*
X12485134Y5294866D01*
X12670706Y5520986D01*
X12700000Y5575791D01*
X12729294Y5520986D01*
X12914866Y5294866D01*
X13140986Y5109294D01*
X13398966Y4971401D01*
X13678889Y4886487D01*
X13897050Y4865000D01*
X14042950Y4865000D01*
X14261111Y4886487D01*
X14541034Y4971401D01*
X14799014Y5109294D01*
X15025134Y5294866D01*
X15210706Y5520986D01*
X15245201Y5585523D01*
X15314822Y5468645D01*
X15509731Y5252412D01*
X15743080Y5078359D01*
X16005901Y4953175D01*
X16153110Y4908524D01*
X16383000Y5029845D01*
X16383000Y6223000D01*
X16363000Y6223000D01*
X16363000Y6477000D01*
X16383000Y6477000D01*
X16383000Y6497000D01*
X16637000Y6497000D01*
X16637000Y6477000D01*
X16657000Y6477000D01*
X16657000Y6223000D01*
X16637000Y6223000D01*
X16637000Y5029845D01*
X16866890Y4908524D01*
X17014099Y4953175D01*
X17276920Y5078359D01*
X17510269Y5252412D01*
X17705178Y5468645D01*
X17774799Y5585523D01*
X17809294Y5520986D01*
X17994866Y5294866D01*
X18220986Y5109294D01*
X18478966Y4971401D01*
X18758889Y4886487D01*
X18977050Y4865000D01*
X19122950Y4865000D01*
X19341111Y4886487D01*
X19621034Y4971401D01*
X19879014Y5109294D01*
X20105134Y5294866D01*
X20290706Y5520986D01*
X20428599Y5778966D01*
X20513513Y6058889D01*
X20542185Y6350000D01*
X20513513Y6641111D01*
X20428599Y6921034D01*
X20290706Y7179014D01*
X20158588Y7340000D01*
X24340000Y7340000D01*
X24340001Y-41340000D01*
X17999980Y-41340000D01*
X18048792Y-41183397D01*
X17200000Y-40334605D01*
X16351208Y-41183397D01*
X16400020Y-41340000D01*
X13499980Y-41340000D01*
X13548792Y-41183397D01*
X12700000Y-40334605D01*
X11851208Y-41183397D01*
X11900020Y-41340000D01*
X7839980Y-41340000D01*
X7888792Y-41183397D01*
X7040000Y-40334605D01*
X6191208Y-41183397D01*
X6240020Y-41340000D01*
X3339980Y-41340000D01*
X3388792Y-41183397D01*
X2540000Y-40334605D01*
X1691208Y-41183397D01*
X1740020Y-41340000D01*
X-2320020Y-41340000D01*
X-2271208Y-41183397D01*
X-3120000Y-40334605D01*
X-3968792Y-41183397D01*
X-3919980Y-41340000D01*
X-6820020Y-41340000D01*
X-6771208Y-41183397D01*
X-7620000Y-40334605D01*
X-8468792Y-41183397D01*
X-8419980Y-41340000D01*
X-12480020Y-41340000D01*
X-12431208Y-41183397D01*
X-13280000Y-40334605D01*
X-14128792Y-41183397D01*
X-14079980Y-41340000D01*
X-16980020Y-41340000D01*
X-16931208Y-41183397D01*
X-17780000Y-40334605D01*
X-18628792Y-41183397D01*
X-18579980Y-41340000D01*
X-24340000Y-41340000D01*
X-24340000Y-40223531D01*
X-19270611Y-40223531D01*
X-19228599Y-40513019D01*
X-19130919Y-40788747D01*
X-19057472Y-40926157D01*
X-18808397Y-41003792D01*
X-17959605Y-40155000D01*
X-17600395Y-40155000D01*
X-16751603Y-41003792D01*
X-16502528Y-40926157D01*
X-16376629Y-40662117D01*
X-16304661Y-40378589D01*
X-16296555Y-40223531D01*
X-14770611Y-40223531D01*
X-14728599Y-40513019D01*
X-14630919Y-40788747D01*
X-14557472Y-40926157D01*
X-14308397Y-41003792D01*
X-13459605Y-40155000D01*
X-13100395Y-40155000D01*
X-12251603Y-41003792D01*
X-12002528Y-40926157D01*
X-11876629Y-40662117D01*
X-11804661Y-40378589D01*
X-11796555Y-40223531D01*
X-9110611Y-40223531D01*
X-9068599Y-40513019D01*
X-8970919Y-40788747D01*
X-8897472Y-40926157D01*
X-8648397Y-41003792D01*
X-7799605Y-40155000D01*
X-7440395Y-40155000D01*
X-6591603Y-41003792D01*
X-6342528Y-40926157D01*
X-6216629Y-40662117D01*
X-6144661Y-40378589D01*
X-6136555Y-40223531D01*
X-4610611Y-40223531D01*
X-4568599Y-40513019D01*
X-4470919Y-40788747D01*
X-4397472Y-40926157D01*
X-4148397Y-41003792D01*
X-3299605Y-40155000D01*
X-2940395Y-40155000D01*
X-2091603Y-41003792D01*
X-1842528Y-40926157D01*
X-1716629Y-40662117D01*
X-1644661Y-40378589D01*
X-1636555Y-40223531D01*
X1049389Y-40223531D01*
X1091401Y-40513019D01*
X1189081Y-40788747D01*
X1262528Y-40926157D01*
X1511603Y-41003792D01*
X2360395Y-40155000D01*
X2719605Y-40155000D01*
X3568397Y-41003792D01*
X3817472Y-40926157D01*
X3943371Y-40662117D01*
X4015339Y-40378589D01*
X4023445Y-40223531D01*
X5549389Y-40223531D01*
X5591401Y-40513019D01*
X5689081Y-40788747D01*
X5762528Y-40926157D01*
X6011603Y-41003792D01*
X6860395Y-40155000D01*
X7219605Y-40155000D01*
X8068397Y-41003792D01*
X8317472Y-40926157D01*
X8443371Y-40662117D01*
X8515339Y-40378589D01*
X8523445Y-40223531D01*
X11209389Y-40223531D01*
X11251401Y-40513019D01*
X11349081Y-40788747D01*
X11422528Y-40926157D01*
X11671603Y-41003792D01*
X12520395Y-40155000D01*
X12879605Y-40155000D01*
X13728397Y-41003792D01*
X13977472Y-40926157D01*
X14103371Y-40662117D01*
X14175339Y-40378589D01*
X14183445Y-40223531D01*
X15709389Y-40223531D01*
X15751401Y-40513019D01*
X15849081Y-40788747D01*
X15922528Y-40926157D01*
X16171603Y-41003792D01*
X17020395Y-40155000D01*
X17379605Y-40155000D01*
X18228397Y-41003792D01*
X18477472Y-40926157D01*
X18603371Y-40662117D01*
X18675339Y-40378589D01*
X18690611Y-40086469D01*
X18648599Y-39796981D01*
X18550919Y-39521253D01*
X18477472Y-39383843D01*
X18228397Y-39306208D01*
X17379605Y-40155000D01*
X17020395Y-40155000D01*
X16171603Y-39306208D01*
X15922528Y-39383843D01*
X15796629Y-39647883D01*
X15724661Y-39931411D01*
X15709389Y-40223531D01*
X14183445Y-40223531D01*
X14190611Y-40086469D01*
X14148599Y-39796981D01*
X14050919Y-39521253D01*
X13977472Y-39383843D01*
X13728397Y-39306208D01*
X12879605Y-40155000D01*
X12520395Y-40155000D01*
X11671603Y-39306208D01*
X11422528Y-39383843D01*
X11296629Y-39647883D01*
X11224661Y-39931411D01*
X11209389Y-40223531D01*
X8523445Y-40223531D01*
X8530611Y-40086469D01*
X8488599Y-39796981D01*
X8390919Y-39521253D01*
X8317472Y-39383843D01*
X8068397Y-39306208D01*
X7219605Y-40155000D01*
X6860395Y-40155000D01*
X6011603Y-39306208D01*
X5762528Y-39383843D01*
X5636629Y-39647883D01*
X5564661Y-39931411D01*
X5549389Y-40223531D01*
X4023445Y-40223531D01*
X4030611Y-40086469D01*
X3988599Y-39796981D01*
X3890919Y-39521253D01*
X3817472Y-39383843D01*
X3568397Y-39306208D01*
X2719605Y-40155000D01*
X2360395Y-40155000D01*
X1511603Y-39306208D01*
X1262528Y-39383843D01*
X1136629Y-39647883D01*
X1064661Y-39931411D01*
X1049389Y-40223531D01*
X-1636555Y-40223531D01*
X-1629389Y-40086469D01*
X-1671401Y-39796981D01*
X-1769081Y-39521253D01*
X-1842528Y-39383843D01*
X-2091603Y-39306208D01*
X-2940395Y-40155000D01*
X-3299605Y-40155000D01*
X-4148397Y-39306208D01*
X-4397472Y-39383843D01*
X-4523371Y-39647883D01*
X-4595339Y-39931411D01*
X-4610611Y-40223531D01*
X-6136555Y-40223531D01*
X-6129389Y-40086469D01*
X-6171401Y-39796981D01*
X-6269081Y-39521253D01*
X-6342528Y-39383843D01*
X-6591603Y-39306208D01*
X-7440395Y-40155000D01*
X-7799605Y-40155000D01*
X-8648397Y-39306208D01*
X-8897472Y-39383843D01*
X-9023371Y-39647883D01*
X-9095339Y-39931411D01*
X-9110611Y-40223531D01*
X-11796555Y-40223531D01*
X-11789389Y-40086469D01*
X-11831401Y-39796981D01*
X-11929081Y-39521253D01*
X-12002528Y-39383843D01*
X-12251603Y-39306208D01*
X-13100395Y-40155000D01*
X-13459605Y-40155000D01*
X-14308397Y-39306208D01*
X-14557472Y-39383843D01*
X-14683371Y-39647883D01*
X-14755339Y-39931411D01*
X-14770611Y-40223531D01*
X-16296555Y-40223531D01*
X-16289389Y-40086469D01*
X-16331401Y-39796981D01*
X-16429081Y-39521253D01*
X-16502528Y-39383843D01*
X-16751603Y-39306208D01*
X-17600395Y-40155000D01*
X-17959605Y-40155000D01*
X-18808397Y-39306208D01*
X-19057472Y-39383843D01*
X-19183371Y-39647883D01*
X-19255339Y-39931411D01*
X-19270611Y-40223531D01*
X-24340000Y-40223531D01*
X-24340000Y-39126603D01*
X-18628792Y-39126603D01*
X-17780000Y-39975395D01*
X-16931208Y-39126603D01*
X-14128792Y-39126603D01*
X-13280000Y-39975395D01*
X-12431208Y-39126603D01*
X-8468792Y-39126603D01*
X-7620000Y-39975395D01*
X-6771208Y-39126603D01*
X-3968792Y-39126603D01*
X-3120000Y-39975395D01*
X-2271208Y-39126603D01*
X1691208Y-39126603D01*
X2540000Y-39975395D01*
X3388792Y-39126603D01*
X6191208Y-39126603D01*
X7040000Y-39975395D01*
X7888792Y-39126603D01*
X11851208Y-39126603D01*
X12700000Y-39975395D01*
X13548792Y-39126603D01*
X16351208Y-39126603D01*
X17200000Y-39975395D01*
X18048792Y-39126603D01*
X17971157Y-38877528D01*
X17707117Y-38751629D01*
X17423589Y-38679661D01*
X17131469Y-38664389D01*
X16841981Y-38706401D01*
X16566253Y-38804081D01*
X16428843Y-38877528D01*
X16351208Y-39126603D01*
X13548792Y-39126603D01*
X13471157Y-38877528D01*
X13207117Y-38751629D01*
X12923589Y-38679661D01*
X12631469Y-38664389D01*
X12341981Y-38706401D01*
X12066253Y-38804081D01*
X11928843Y-38877528D01*
X11851208Y-39126603D01*
X7888792Y-39126603D01*
X7811157Y-38877528D01*
X7547117Y-38751629D01*
X7263589Y-38679661D01*
X6971469Y-38664389D01*
X6681981Y-38706401D01*
X6406253Y-38804081D01*
X6268843Y-38877528D01*
X6191208Y-39126603D01*
X3388792Y-39126603D01*
X3311157Y-38877528D01*
X3047117Y-38751629D01*
X2763589Y-38679661D01*
X2471469Y-38664389D01*
X2181981Y-38706401D01*
X1906253Y-38804081D01*
X1768843Y-38877528D01*
X1691208Y-39126603D01*
X-2271208Y-39126603D01*
X-2348843Y-38877528D01*
X-2612883Y-38751629D01*
X-2896411Y-38679661D01*
X-3188531Y-38664389D01*
X-3478019Y-38706401D01*
X-3753747Y-38804081D01*
X-3891157Y-38877528D01*
X-3968792Y-39126603D01*
X-6771208Y-39126603D01*
X-6848843Y-38877528D01*
X-7112883Y-38751629D01*
X-7396411Y-38679661D01*
X-7688531Y-38664389D01*
X-7978019Y-38706401D01*
X-8253747Y-38804081D01*
X-8391157Y-38877528D01*
X-8468792Y-39126603D01*
X-12431208Y-39126603D01*
X-12508843Y-38877528D01*
X-12772883Y-38751629D01*
X-13056411Y-38679661D01*
X-13348531Y-38664389D01*
X-13638019Y-38706401D01*
X-13913747Y-38804081D01*
X-14051157Y-38877528D01*
X-14128792Y-39126603D01*
X-16931208Y-39126603D01*
X-17008843Y-38877528D01*
X-17272883Y-38751629D01*
X-17556411Y-38679661D01*
X-17848531Y-38664389D01*
X-18138019Y-38706401D01*
X-18413747Y-38804081D01*
X-18551157Y-38877528D01*
X-18628792Y-39126603D01*
X-24340000Y-39126603D01*
X-24340000Y-33508740D01*
X-19265000Y-33508740D01*
X-19265000Y-33801260D01*
X-19207932Y-34088158D01*
X-19095990Y-34358411D01*
X-18933475Y-34601632D01*
X-18726632Y-34808475D01*
X-18483411Y-34970990D01*
X-18213158Y-35082932D01*
X-17926260Y-35140000D01*
X-17633740Y-35140000D01*
X-17346842Y-35082932D01*
X-17076589Y-34970990D01*
X-16833368Y-34808475D01*
X-16626525Y-34601632D01*
X-16464010Y-34358411D01*
X-16352068Y-34088158D01*
X-16295000Y-33801260D01*
X-16295000Y-33508740D01*
X-14765000Y-33508740D01*
X-14765000Y-33801260D01*
X-14707932Y-34088158D01*
X-14595990Y-34358411D01*
X-14433475Y-34601632D01*
X-14226632Y-34808475D01*
X-13983411Y-34970990D01*
X-13713158Y-35082932D01*
X-13426260Y-35140000D01*
X-13133740Y-35140000D01*
X-12846842Y-35082932D01*
X-12576589Y-34970990D01*
X-12333368Y-34808475D01*
X-12126525Y-34601632D01*
X-11964010Y-34358411D01*
X-11852068Y-34088158D01*
X-11795000Y-33801260D01*
X-11795000Y-33508740D01*
X-9105000Y-33508740D01*
X-9105000Y-33801260D01*
X-9047932Y-34088158D01*
X-8935990Y-34358411D01*
X-8773475Y-34601632D01*
X-8566632Y-34808475D01*
X-8323411Y-34970990D01*
X-8053158Y-35082932D01*
X-7766260Y-35140000D01*
X-7473740Y-35140000D01*
X-7186842Y-35082932D01*
X-6916589Y-34970990D01*
X-6673368Y-34808475D01*
X-6466525Y-34601632D01*
X-6304010Y-34358411D01*
X-6192068Y-34088158D01*
X-6135000Y-33801260D01*
X-6135000Y-33508740D01*
X-4605000Y-33508740D01*
X-4605000Y-33801260D01*
X-4547932Y-34088158D01*
X-4435990Y-34358411D01*
X-4273475Y-34601632D01*
X-4066632Y-34808475D01*
X-3823411Y-34970990D01*
X-3553158Y-35082932D01*
X-3266260Y-35140000D01*
X-2973740Y-35140000D01*
X-2686842Y-35082932D01*
X-2416589Y-34970990D01*
X-2173368Y-34808475D01*
X-1966525Y-34601632D01*
X-1804010Y-34358411D01*
X-1692068Y-34088158D01*
X-1635000Y-33801260D01*
X-1635000Y-33508740D01*
X1055000Y-33508740D01*
X1055000Y-33801260D01*
X1112068Y-34088158D01*
X1224010Y-34358411D01*
X1386525Y-34601632D01*
X1593368Y-34808475D01*
X1836589Y-34970990D01*
X2106842Y-35082932D01*
X2393740Y-35140000D01*
X2686260Y-35140000D01*
X2973158Y-35082932D01*
X3243411Y-34970990D01*
X3486632Y-34808475D01*
X3693475Y-34601632D01*
X3855990Y-34358411D01*
X3967932Y-34088158D01*
X4025000Y-33801260D01*
X4025000Y-33508740D01*
X5555000Y-33508740D01*
X5555000Y-33801260D01*
X5612068Y-34088158D01*
X5724010Y-34358411D01*
X5886525Y-34601632D01*
X6093368Y-34808475D01*
X6336589Y-34970990D01*
X6606842Y-35082932D01*
X6893740Y-35140000D01*
X7186260Y-35140000D01*
X7473158Y-35082932D01*
X7743411Y-34970990D01*
X7986632Y-34808475D01*
X8193475Y-34601632D01*
X8355990Y-34358411D01*
X8467932Y-34088158D01*
X8525000Y-33801260D01*
X8525000Y-33508740D01*
X11215000Y-33508740D01*
X11215000Y-33801260D01*
X11272068Y-34088158D01*
X11384010Y-34358411D01*
X11546525Y-34601632D01*
X11753368Y-34808475D01*
X11996589Y-34970990D01*
X12266842Y-35082932D01*
X12553740Y-35140000D01*
X12846260Y-35140000D01*
X13133158Y-35082932D01*
X13403411Y-34970990D01*
X13646632Y-34808475D01*
X13853475Y-34601632D01*
X14015990Y-34358411D01*
X14127932Y-34088158D01*
X14185000Y-33801260D01*
X14185000Y-33508740D01*
X15715000Y-33508740D01*
X15715000Y-33801260D01*
X15772068Y-34088158D01*
X15884010Y-34358411D01*
X16046525Y-34601632D01*
X16253368Y-34808475D01*
X16496589Y-34970990D01*
X16766842Y-35082932D01*
X17053740Y-35140000D01*
X17346260Y-35140000D01*
X17633158Y-35082932D01*
X17903411Y-34970990D01*
X18146632Y-34808475D01*
X18353475Y-34601632D01*
X18515990Y-34358411D01*
X18627932Y-34088158D01*
X18685000Y-33801260D01*
X18685000Y-33508740D01*
X18627932Y-33221842D01*
X18515990Y-32951589D01*
X18353475Y-32708368D01*
X18146632Y-32501525D01*
X17903411Y-32339010D01*
X17633158Y-32227068D01*
X17346260Y-32170000D01*
X17053740Y-32170000D01*
X16766842Y-32227068D01*
X16496589Y-32339010D01*
X16253368Y-32501525D01*
X16046525Y-32708368D01*
X15884010Y-32951589D01*
X15772068Y-33221842D01*
X15715000Y-33508740D01*
X14185000Y-33508740D01*
X14127932Y-33221842D01*
X14015990Y-32951589D01*
X13853475Y-32708368D01*
X13646632Y-32501525D01*
X13403411Y-32339010D01*
X13133158Y-32227068D01*
X12846260Y-32170000D01*
X12553740Y-32170000D01*
X12266842Y-32227068D01*
X11996589Y-32339010D01*
X11753368Y-32501525D01*
X11546525Y-32708368D01*
X11384010Y-32951589D01*
X11272068Y-33221842D01*
X11215000Y-33508740D01*
X8525000Y-33508740D01*
X8467932Y-33221842D01*
X8355990Y-32951589D01*
X8193475Y-32708368D01*
X7986632Y-32501525D01*
X7743411Y-32339010D01*
X7473158Y-32227068D01*
X7186260Y-32170000D01*
X6893740Y-32170000D01*
X6606842Y-32227068D01*
X6336589Y-32339010D01*
X6093368Y-32501525D01*
X5886525Y-32708368D01*
X5724010Y-32951589D01*
X5612068Y-33221842D01*
X5555000Y-33508740D01*
X4025000Y-33508740D01*
X3967932Y-33221842D01*
X3855990Y-32951589D01*
X3693475Y-32708368D01*
X3486632Y-32501525D01*
X3243411Y-32339010D01*
X2973158Y-32227068D01*
X2686260Y-32170000D01*
X2393740Y-32170000D01*
X2106842Y-32227068D01*
X1836589Y-32339010D01*
X1593368Y-32501525D01*
X1386525Y-32708368D01*
X1224010Y-32951589D01*
X1112068Y-33221842D01*
X1055000Y-33508740D01*
X-1635000Y-33508740D01*
X-1692068Y-33221842D01*
X-1804010Y-32951589D01*
X-1966525Y-32708368D01*
X-2173368Y-32501525D01*
X-2416589Y-32339010D01*
X-2686842Y-32227068D01*
X-2973740Y-32170000D01*
X-3266260Y-32170000D01*
X-3553158Y-32227068D01*
X-3823411Y-32339010D01*
X-4066632Y-32501525D01*
X-4273475Y-32708368D01*
X-4435990Y-32951589D01*
X-4547932Y-33221842D01*
X-4605000Y-33508740D01*
X-6135000Y-33508740D01*
X-6192068Y-33221842D01*
X-6304010Y-32951589D01*
X-6466525Y-32708368D01*
X-6673368Y-32501525D01*
X-6916589Y-32339010D01*
X-7186842Y-32227068D01*
X-7473740Y-32170000D01*
X-7766260Y-32170000D01*
X-8053158Y-32227068D01*
X-8323411Y-32339010D01*
X-8566632Y-32501525D01*
X-8773475Y-32708368D01*
X-8935990Y-32951589D01*
X-9047932Y-33221842D01*
X-9105000Y-33508740D01*
X-11795000Y-33508740D01*
X-11852068Y-33221842D01*
X-11964010Y-32951589D01*
X-12126525Y-32708368D01*
X-12333368Y-32501525D01*
X-12576589Y-32339010D01*
X-12846842Y-32227068D01*
X-13133740Y-32170000D01*
X-13426260Y-32170000D01*
X-13713158Y-32227068D01*
X-13983411Y-32339010D01*
X-14226632Y-32501525D01*
X-14433475Y-32708368D01*
X-14595990Y-32951589D01*
X-14707932Y-33221842D01*
X-14765000Y-33508740D01*
X-16295000Y-33508740D01*
X-16352068Y-33221842D01*
X-16464010Y-32951589D01*
X-16626525Y-32708368D01*
X-16833368Y-32501525D01*
X-17076589Y-32339010D01*
X-17346842Y-32227068D01*
X-17633740Y-32170000D01*
X-17926260Y-32170000D01*
X-18213158Y-32227068D01*
X-18483411Y-32339010D01*
X-18726632Y-32501525D01*
X-18933475Y-32708368D01*
X-19095990Y-32951589D01*
X-19207932Y-33221842D01*
X-19265000Y-33508740D01*
X-24340000Y-33508740D01*
X-24340000Y-26300000D01*
X-18048072Y-26300000D01*
X-18035812Y-26424482D01*
X-17999502Y-26544180D01*
X-17940537Y-26654494D01*
X-17861185Y-26751185D01*
X-17764494Y-26830537D01*
X-17654180Y-26889502D01*
X-17534482Y-26925812D01*
X-17410000Y-26938072D01*
X-16795750Y-26935000D01*
X-16637000Y-26776250D01*
X-16637000Y-25527000D01*
X-17886250Y-25527000D01*
X-18045000Y-25685750D01*
X-18048072Y-26300000D01*
X-24340000Y-26300000D01*
X-24340000Y-24500000D01*
X-18048072Y-24500000D01*
X-18045000Y-25114250D01*
X-17886250Y-25273000D01*
X-16637000Y-25273000D01*
X-16637000Y-24023750D01*
X-16383000Y-24023750D01*
X-16383000Y-25273000D01*
X-16363000Y-25273000D01*
X-16363000Y-25527000D01*
X-16383000Y-25527000D01*
X-16383000Y-26776250D01*
X-16224250Y-26935000D01*
X-15610000Y-26938072D01*
X-15485518Y-26925812D01*
X-15365820Y-26889502D01*
X-15255506Y-26830537D01*
X-15158815Y-26751185D01*
X-15079463Y-26654494D01*
X-15020498Y-26544180D01*
X-15014944Y-26525873D01*
X-14948505Y-26592312D01*
X-14697095Y-26760299D01*
X-14417743Y-26876011D01*
X-14121184Y-26935000D01*
X-13818816Y-26935000D01*
X-13522257Y-26876011D01*
X-13242905Y-26760299D01*
X-12991495Y-26592312D01*
X-12777688Y-26378505D01*
X-12725233Y-26300000D01*
X-7888072Y-26300000D01*
X-7875812Y-26424482D01*
X-7839502Y-26544180D01*
X-7780537Y-26654494D01*
X-7701185Y-26751185D01*
X-7604494Y-26830537D01*
X-7494180Y-26889502D01*
X-7374482Y-26925812D01*
X-7250000Y-26938072D01*
X-6635750Y-26935000D01*
X-6477000Y-26776250D01*
X-6477000Y-25527000D01*
X-7726250Y-25527000D01*
X-7885000Y-25685750D01*
X-7888072Y-26300000D01*
X-12725233Y-26300000D01*
X-12609701Y-26127095D01*
X-12493989Y-25847743D01*
X-12435000Y-25551184D01*
X-12435000Y-25248816D01*
X-12493989Y-24952257D01*
X-12609701Y-24672905D01*
X-12725232Y-24500000D01*
X-7888072Y-24500000D01*
X-7885000Y-25114250D01*
X-7726250Y-25273000D01*
X-6477000Y-25273000D01*
X-6477000Y-24023750D01*
X-6223000Y-24023750D01*
X-6223000Y-25273000D01*
X-6203000Y-25273000D01*
X-6203000Y-25527000D01*
X-6223000Y-25527000D01*
X-6223000Y-26776250D01*
X-6064250Y-26935000D01*
X-5450000Y-26938072D01*
X-5325518Y-26925812D01*
X-5205820Y-26889502D01*
X-5095506Y-26830537D01*
X-4998815Y-26751185D01*
X-4919463Y-26654494D01*
X-4860498Y-26544180D01*
X-4854944Y-26525873D01*
X-4788505Y-26592312D01*
X-4537095Y-26760299D01*
X-4257743Y-26876011D01*
X-3961184Y-26935000D01*
X-3658816Y-26935000D01*
X-3362257Y-26876011D01*
X-3082905Y-26760299D01*
X-2831495Y-26592312D01*
X-2617688Y-26378505D01*
X-2565233Y-26300000D01*
X2271928Y-26300000D01*
X2284188Y-26424482D01*
X2320498Y-26544180D01*
X2379463Y-26654494D01*
X2458815Y-26751185D01*
X2555506Y-26830537D01*
X2665820Y-26889502D01*
X2785518Y-26925812D01*
X2910000Y-26938072D01*
X3524250Y-26935000D01*
X3683000Y-26776250D01*
X3683000Y-25527000D01*
X2433750Y-25527000D01*
X2275000Y-25685750D01*
X2271928Y-26300000D01*
X-2565233Y-26300000D01*
X-2449701Y-26127095D01*
X-2333989Y-25847743D01*
X-2275000Y-25551184D01*
X-2275000Y-25248816D01*
X-2333989Y-24952257D01*
X-2449701Y-24672905D01*
X-2565232Y-24500000D01*
X2271928Y-24500000D01*
X2275000Y-25114250D01*
X2433750Y-25273000D01*
X3683000Y-25273000D01*
X3683000Y-24023750D01*
X3937000Y-24023750D01*
X3937000Y-25273000D01*
X3957000Y-25273000D01*
X3957000Y-25527000D01*
X3937000Y-25527000D01*
X3937000Y-26776250D01*
X4095750Y-26935000D01*
X4710000Y-26938072D01*
X4834482Y-26925812D01*
X4954180Y-26889502D01*
X5064494Y-26830537D01*
X5161185Y-26751185D01*
X5240537Y-26654494D01*
X5299502Y-26544180D01*
X5305056Y-26525873D01*
X5371495Y-26592312D01*
X5622905Y-26760299D01*
X5902257Y-26876011D01*
X6198816Y-26935000D01*
X6501184Y-26935000D01*
X6797743Y-26876011D01*
X7077095Y-26760299D01*
X7328505Y-26592312D01*
X7542312Y-26378505D01*
X7594767Y-26300000D01*
X12431928Y-26300000D01*
X12444188Y-26424482D01*
X12480498Y-26544180D01*
X12539463Y-26654494D01*
X12618815Y-26751185D01*
X12715506Y-26830537D01*
X12825820Y-26889502D01*
X12945518Y-26925812D01*
X13070000Y-26938072D01*
X13684250Y-26935000D01*
X13843000Y-26776250D01*
X13843000Y-25527000D01*
X12593750Y-25527000D01*
X12435000Y-25685750D01*
X12431928Y-26300000D01*
X7594767Y-26300000D01*
X7710299Y-26127095D01*
X7826011Y-25847743D01*
X7885000Y-25551184D01*
X7885000Y-25248816D01*
X7826011Y-24952257D01*
X7710299Y-24672905D01*
X7594768Y-24500000D01*
X12431928Y-24500000D01*
X12435000Y-25114250D01*
X12593750Y-25273000D01*
X13843000Y-25273000D01*
X13843000Y-24023750D01*
X14097000Y-24023750D01*
X14097000Y-25273000D01*
X14117000Y-25273000D01*
X14117000Y-25527000D01*
X14097000Y-25527000D01*
X14097000Y-26776250D01*
X14255750Y-26935000D01*
X14870000Y-26938072D01*
X14994482Y-26925812D01*
X15114180Y-26889502D01*
X15224494Y-26830537D01*
X15321185Y-26751185D01*
X15400537Y-26654494D01*
X15459502Y-26544180D01*
X15465056Y-26525873D01*
X15531495Y-26592312D01*
X15782905Y-26760299D01*
X16062257Y-26876011D01*
X16358816Y-26935000D01*
X16661184Y-26935000D01*
X16957743Y-26876011D01*
X17237095Y-26760299D01*
X17488505Y-26592312D01*
X17702312Y-26378505D01*
X17870299Y-26127095D01*
X17986011Y-25847743D01*
X18045000Y-25551184D01*
X18045000Y-25248816D01*
X17986011Y-24952257D01*
X17870299Y-24672905D01*
X17702312Y-24421495D01*
X17488505Y-24207688D01*
X17237095Y-24039701D01*
X16957743Y-23923989D01*
X16661184Y-23865000D01*
X16358816Y-23865000D01*
X16062257Y-23923989D01*
X15782905Y-24039701D01*
X15531495Y-24207688D01*
X15465056Y-24274127D01*
X15459502Y-24255820D01*
X15400537Y-24145506D01*
X15321185Y-24048815D01*
X15224494Y-23969463D01*
X15114180Y-23910498D01*
X14994482Y-23874188D01*
X14870000Y-23861928D01*
X14255750Y-23865000D01*
X14097000Y-24023750D01*
X13843000Y-24023750D01*
X13684250Y-23865000D01*
X13070000Y-23861928D01*
X12945518Y-23874188D01*
X12825820Y-23910498D01*
X12715506Y-23969463D01*
X12618815Y-24048815D01*
X12539463Y-24145506D01*
X12480498Y-24255820D01*
X12444188Y-24375518D01*
X12431928Y-24500000D01*
X7594768Y-24500000D01*
X7542312Y-24421495D01*
X7328505Y-24207688D01*
X7077095Y-24039701D01*
X6797743Y-23923989D01*
X6501184Y-23865000D01*
X6198816Y-23865000D01*
X5902257Y-23923989D01*
X5622905Y-24039701D01*
X5371495Y-24207688D01*
X5305056Y-24274127D01*
X5299502Y-24255820D01*
X5240537Y-24145506D01*
X5161185Y-24048815D01*
X5064494Y-23969463D01*
X4954180Y-23910498D01*
X4834482Y-23874188D01*
X4710000Y-23861928D01*
X4095750Y-23865000D01*
X3937000Y-24023750D01*
X3683000Y-24023750D01*
X3524250Y-23865000D01*
X2910000Y-23861928D01*
X2785518Y-23874188D01*
X2665820Y-23910498D01*
X2555506Y-23969463D01*
X2458815Y-24048815D01*
X2379463Y-24145506D01*
X2320498Y-24255820D01*
X2284188Y-24375518D01*
X2271928Y-24500000D01*
X-2565232Y-24500000D01*
X-2617688Y-24421495D01*
X-2831495Y-24207688D01*
X-3082905Y-24039701D01*
X-3362257Y-23923989D01*
X-3658816Y-23865000D01*
X-3961184Y-23865000D01*
X-4257743Y-23923989D01*
X-4537095Y-24039701D01*
X-4788505Y-24207688D01*
X-4854944Y-24274127D01*
X-4860498Y-24255820D01*
X-4919463Y-24145506D01*
X-4998815Y-24048815D01*
X-5095506Y-23969463D01*
X-5205820Y-23910498D01*
X-5325518Y-23874188D01*
X-5450000Y-23861928D01*
X-6064250Y-23865000D01*
X-6223000Y-24023750D01*
X-6477000Y-24023750D01*
X-6635750Y-23865000D01*
X-7250000Y-23861928D01*
X-7374482Y-23874188D01*
X-7494180Y-23910498D01*
X-7604494Y-23969463D01*
X-7701185Y-24048815D01*
X-7780537Y-24145506D01*
X-7839502Y-24255820D01*
X-7875812Y-24375518D01*
X-7888072Y-24500000D01*
X-12725232Y-24500000D01*
X-12777688Y-24421495D01*
X-12991495Y-24207688D01*
X-13242905Y-24039701D01*
X-13522257Y-23923989D01*
X-13818816Y-23865000D01*
X-14121184Y-23865000D01*
X-14417743Y-23923989D01*
X-14697095Y-24039701D01*
X-14948505Y-24207688D01*
X-15014944Y-24274127D01*
X-15020498Y-24255820D01*
X-15079463Y-24145506D01*
X-15158815Y-24048815D01*
X-15255506Y-23969463D01*
X-15365820Y-23910498D01*
X-15485518Y-23874188D01*
X-15610000Y-23861928D01*
X-16224250Y-23865000D01*
X-16383000Y-24023750D01*
X-16637000Y-24023750D01*
X-16795750Y-23865000D01*
X-17410000Y-23861928D01*
X-17534482Y-23874188D01*
X-17654180Y-23910498D01*
X-17764494Y-23969463D01*
X-17861185Y-24048815D01*
X-17940537Y-24145506D01*
X-17999502Y-24255820D01*
X-18035812Y-24375518D01*
X-18048072Y-24500000D01*
X-24340000Y-24500000D01*
X-24340000Y-16930000D01*
X-20538072Y-16930000D01*
X-20538072Y-18630000D01*
X-20525812Y-18754482D01*
X-20489502Y-18874180D01*
X-20430537Y-18984494D01*
X-20351185Y-19081185D01*
X-20254494Y-19160537D01*
X-20144180Y-19219502D01*
X-20024482Y-19255812D01*
X-19900000Y-19268072D01*
X-18200000Y-19268072D01*
X-18075518Y-19255812D01*
X-17955820Y-19219502D01*
X-17845506Y-19160537D01*
X-17748815Y-19081185D01*
X-17669463Y-18984494D01*
X-17610498Y-18874180D01*
X-17589607Y-18805313D01*
X-17565134Y-18835134D01*
X-17339014Y-19020706D01*
X-17081034Y-19158599D01*
X-16801111Y-19243513D01*
X-16582950Y-19265000D01*
X-16437050Y-19265000D01*
X-16218889Y-19243513D01*
X-15938966Y-19158599D01*
X-15680986Y-19020706D01*
X-15454866Y-18835134D01*
X-15269294Y-18609014D01*
X-15240000Y-18554209D01*
X-15210706Y-18609014D01*
X-15025134Y-18835134D01*
X-14799014Y-19020706D01*
X-14541034Y-19158599D01*
X-14261111Y-19243513D01*
X-14042950Y-19265000D01*
X-13897050Y-19265000D01*
X-13678889Y-19243513D01*
X-13398966Y-19158599D01*
X-13140986Y-19020706D01*
X-12914866Y-18835134D01*
X-12729294Y-18609014D01*
X-12700000Y-18554209D01*
X-12670706Y-18609014D01*
X-12485134Y-18835134D01*
X-12259014Y-19020706D01*
X-12001034Y-19158599D01*
X-11721111Y-19243513D01*
X-11502950Y-19265000D01*
X-11357050Y-19265000D01*
X-11138889Y-19243513D01*
X-10858966Y-19158599D01*
X-10600986Y-19020706D01*
X-10374866Y-18835134D01*
X-10189294Y-18609014D01*
X-10160000Y-18554209D01*
X-10130706Y-18609014D01*
X-9945134Y-18835134D01*
X-9719014Y-19020706D01*
X-9461034Y-19158599D01*
X-9181111Y-19243513D01*
X-8962950Y-19265000D01*
X-8817050Y-19265000D01*
X-8598889Y-19243513D01*
X-8318966Y-19158599D01*
X-8060986Y-19020706D01*
X-7834866Y-18835134D01*
X-7649294Y-18609014D01*
X-7620000Y-18554209D01*
X-7590706Y-18609014D01*
X-7405134Y-18835134D01*
X-7179014Y-19020706D01*
X-6921034Y-19158599D01*
X-6641111Y-19243513D01*
X-6422950Y-19265000D01*
X-6277050Y-19265000D01*
X-6058889Y-19243513D01*
X-5778966Y-19158599D01*
X-5520986Y-19020706D01*
X-5294866Y-18835134D01*
X-5109294Y-18609014D01*
X-5080000Y-18554209D01*
X-5050706Y-18609014D01*
X-4865134Y-18835134D01*
X-4639014Y-19020706D01*
X-4381034Y-19158599D01*
X-4101111Y-19243513D01*
X-3882950Y-19265000D01*
X-3737050Y-19265000D01*
X-3518889Y-19243513D01*
X-3238966Y-19158599D01*
X-2980986Y-19020706D01*
X-2754866Y-18835134D01*
X-2569294Y-18609014D01*
X-2540000Y-18554209D01*
X-2510706Y-18609014D01*
X-2325134Y-18835134D01*
X-2099014Y-19020706D01*
X-1841034Y-19158599D01*
X-1561111Y-19243513D01*
X-1342950Y-19265000D01*
X-1197050Y-19265000D01*
X-978889Y-19243513D01*
X-698966Y-19158599D01*
X-440986Y-19020706D01*
X-214866Y-18835134D01*
X-29294Y-18609014D01*
X0Y-18554209D01*
X29294Y-18609014D01*
X214866Y-18835134D01*
X440986Y-19020706D01*
X698966Y-19158599D01*
X978889Y-19243513D01*
X1197050Y-19265000D01*
X1342950Y-19265000D01*
X1561111Y-19243513D01*
X1841034Y-19158599D01*
X2099014Y-19020706D01*
X2325134Y-18835134D01*
X2510706Y-18609014D01*
X2540000Y-18554209D01*
X2569294Y-18609014D01*
X2754866Y-18835134D01*
X2980986Y-19020706D01*
X3238966Y-19158599D01*
X3518889Y-19243513D01*
X3737050Y-19265000D01*
X3882950Y-19265000D01*
X4101111Y-19243513D01*
X4381034Y-19158599D01*
X4639014Y-19020706D01*
X4865134Y-18835134D01*
X5050706Y-18609014D01*
X5080000Y-18554209D01*
X5109294Y-18609014D01*
X5294866Y-18835134D01*
X5520986Y-19020706D01*
X5778966Y-19158599D01*
X6058889Y-19243513D01*
X6277050Y-19265000D01*
X6422950Y-19265000D01*
X6641111Y-19243513D01*
X6921034Y-19158599D01*
X7179014Y-19020706D01*
X7405134Y-18835134D01*
X7590706Y-18609014D01*
X7620000Y-18554209D01*
X7649294Y-18609014D01*
X7834866Y-18835134D01*
X8060986Y-19020706D01*
X8318966Y-19158599D01*
X8598889Y-19243513D01*
X8817050Y-19265000D01*
X8962950Y-19265000D01*
X9181111Y-19243513D01*
X9461034Y-19158599D01*
X9719014Y-19020706D01*
X9945134Y-18835134D01*
X10130706Y-18609014D01*
X10160000Y-18554209D01*
X10189294Y-18609014D01*
X10374866Y-18835134D01*
X10600986Y-19020706D01*
X10858966Y-19158599D01*
X11138889Y-19243513D01*
X11357050Y-19265000D01*
X11502950Y-19265000D01*
X11721111Y-19243513D01*
X12001034Y-19158599D01*
X12259014Y-19020706D01*
X12485134Y-18835134D01*
X12670706Y-18609014D01*
X12700000Y-18554209D01*
X12729294Y-18609014D01*
X12914866Y-18835134D01*
X13140986Y-19020706D01*
X13398966Y-19158599D01*
X13678889Y-19243513D01*
X13897050Y-19265000D01*
X14042950Y-19265000D01*
X14261111Y-19243513D01*
X14541034Y-19158599D01*
X14799014Y-19020706D01*
X15025134Y-18835134D01*
X15210706Y-18609014D01*
X15240000Y-18554209D01*
X15269294Y-18609014D01*
X15454866Y-18835134D01*
X15680986Y-19020706D01*
X15938966Y-19158599D01*
X16218889Y-19243513D01*
X16437050Y-19265000D01*
X16582950Y-19265000D01*
X16801111Y-19243513D01*
X17081034Y-19158599D01*
X17339014Y-19020706D01*
X17565134Y-18835134D01*
X17750706Y-18609014D01*
X17780000Y-18554209D01*
X17809294Y-18609014D01*
X17994866Y-18835134D01*
X18220986Y-19020706D01*
X18478966Y-19158599D01*
X18758889Y-19243513D01*
X18977050Y-19265000D01*
X19122950Y-19265000D01*
X19341111Y-19243513D01*
X19621034Y-19158599D01*
X19879014Y-19020706D01*
X20105134Y-18835134D01*
X20290706Y-18609014D01*
X20428599Y-18351034D01*
X20513513Y-18071111D01*
X20542185Y-17780000D01*
X20513513Y-17488889D01*
X20428599Y-17208966D01*
X20290706Y-16950986D01*
X20105134Y-16724866D01*
X19879014Y-16539294D01*
X19621034Y-16401401D01*
X19341111Y-16316487D01*
X19122950Y-16295000D01*
X18977050Y-16295000D01*
X18758889Y-16316487D01*
X18478966Y-16401401D01*
X18220986Y-16539294D01*
X17994866Y-16724866D01*
X17809294Y-16950986D01*
X17780000Y-17005791D01*
X17750706Y-16950986D01*
X17565134Y-16724866D01*
X17339014Y-16539294D01*
X17081034Y-16401401D01*
X16801111Y-16316487D01*
X16582950Y-16295000D01*
X16437050Y-16295000D01*
X16218889Y-16316487D01*
X15938966Y-16401401D01*
X15680986Y-16539294D01*
X15454866Y-16724866D01*
X15269294Y-16950986D01*
X15240000Y-17005791D01*
X15210706Y-16950986D01*
X15025134Y-16724866D01*
X14799014Y-16539294D01*
X14541034Y-16401401D01*
X14261111Y-16316487D01*
X14042950Y-16295000D01*
X13897050Y-16295000D01*
X13678889Y-16316487D01*
X13398966Y-16401401D01*
X13140986Y-16539294D01*
X12914866Y-16724866D01*
X12729294Y-16950986D01*
X12700000Y-17005791D01*
X12670706Y-16950986D01*
X12485134Y-16724866D01*
X12259014Y-16539294D01*
X12001034Y-16401401D01*
X11721111Y-16316487D01*
X11502950Y-16295000D01*
X11357050Y-16295000D01*
X11138889Y-16316487D01*
X10858966Y-16401401D01*
X10600986Y-16539294D01*
X10374866Y-16724866D01*
X10189294Y-16950986D01*
X10160000Y-17005791D01*
X10130706Y-16950986D01*
X9945134Y-16724866D01*
X9719014Y-16539294D01*
X9461034Y-16401401D01*
X9181111Y-16316487D01*
X8962950Y-16295000D01*
X8817050Y-16295000D01*
X8598889Y-16316487D01*
X8318966Y-16401401D01*
X8060986Y-16539294D01*
X7834866Y-16724866D01*
X7649294Y-16950986D01*
X7620000Y-17005791D01*
X7590706Y-16950986D01*
X7405134Y-16724866D01*
X7179014Y-16539294D01*
X6921034Y-16401401D01*
X6641111Y-16316487D01*
X6422950Y-16295000D01*
X6277050Y-16295000D01*
X6058889Y-16316487D01*
X5778966Y-16401401D01*
X5520986Y-16539294D01*
X5294866Y-16724866D01*
X5109294Y-16950986D01*
X5080000Y-17005791D01*
X5050706Y-16950986D01*
X4865134Y-16724866D01*
X4639014Y-16539294D01*
X4381034Y-16401401D01*
X4101111Y-16316487D01*
X3882950Y-16295000D01*
X3737050Y-16295000D01*
X3518889Y-16316487D01*
X3238966Y-16401401D01*
X2980986Y-16539294D01*
X2754866Y-16724866D01*
X2569294Y-16950986D01*
X2540000Y-17005791D01*
X2510706Y-16950986D01*
X2325134Y-16724866D01*
X2099014Y-16539294D01*
X1841034Y-16401401D01*
X1561111Y-16316487D01*
X1342950Y-16295000D01*
X1197050Y-16295000D01*
X978889Y-16316487D01*
X698966Y-16401401D01*
X440986Y-16539294D01*
X214866Y-16724866D01*
X29294Y-16950986D01*
X0Y-17005791D01*
X-29294Y-16950986D01*
X-214866Y-16724866D01*
X-440986Y-16539294D01*
X-698966Y-16401401D01*
X-978889Y-16316487D01*
X-1197050Y-16295000D01*
X-1342950Y-16295000D01*
X-1561111Y-16316487D01*
X-1841034Y-16401401D01*
X-2099014Y-16539294D01*
X-2325134Y-16724866D01*
X-2510706Y-16950986D01*
X-2540000Y-17005791D01*
X-2569294Y-16950986D01*
X-2754866Y-16724866D01*
X-2980986Y-16539294D01*
X-3238966Y-16401401D01*
X-3518889Y-16316487D01*
X-3737050Y-16295000D01*
X-3882950Y-16295000D01*
X-4101111Y-16316487D01*
X-4381034Y-16401401D01*
X-4639014Y-16539294D01*
X-4865134Y-16724866D01*
X-5050706Y-16950986D01*
X-5080000Y-17005791D01*
X-5109294Y-16950986D01*
X-5294866Y-16724866D01*
X-5520986Y-16539294D01*
X-5778966Y-16401401D01*
X-6058889Y-16316487D01*
X-6277050Y-16295000D01*
X-6422950Y-16295000D01*
X-6641111Y-16316487D01*
X-6921034Y-16401401D01*
X-7179014Y-16539294D01*
X-7405134Y-16724866D01*
X-7590706Y-16950986D01*
X-7620000Y-17005791D01*
X-7649294Y-16950986D01*
X-7834866Y-16724866D01*
X-8060986Y-16539294D01*
X-8318966Y-16401401D01*
X-8598889Y-16316487D01*
X-8817050Y-16295000D01*
X-8962950Y-16295000D01*
X-9181111Y-16316487D01*
X-9461034Y-16401401D01*
X-9719014Y-16539294D01*
X-9945134Y-16724866D01*
X-10130706Y-16950986D01*
X-10160000Y-17005791D01*
X-10189294Y-16950986D01*
X-10374866Y-16724866D01*
X-10600986Y-16539294D01*
X-10858966Y-16401401D01*
X-11138889Y-16316487D01*
X-11357050Y-16295000D01*
X-11502950Y-16295000D01*
X-11721111Y-16316487D01*
X-12001034Y-16401401D01*
X-12259014Y-16539294D01*
X-12485134Y-16724866D01*
X-12670706Y-16950986D01*
X-12700000Y-17005791D01*
X-12729294Y-16950986D01*
X-12914866Y-16724866D01*
X-13140986Y-16539294D01*
X-13398966Y-16401401D01*
X-13678889Y-16316487D01*
X-13897050Y-16295000D01*
X-14042950Y-16295000D01*
X-14261111Y-16316487D01*
X-14541034Y-16401401D01*
X-14799014Y-16539294D01*
X-15025134Y-16724866D01*
X-15210706Y-16950986D01*
X-15240000Y-17005791D01*
X-15269294Y-16950986D01*
X-15454866Y-16724866D01*
X-15680986Y-16539294D01*
X-15938966Y-16401401D01*
X-16218889Y-16316487D01*
X-16437050Y-16295000D01*
X-16582950Y-16295000D01*
X-16801111Y-16316487D01*
X-17081034Y-16401401D01*
X-17339014Y-16539294D01*
X-17565134Y-16724866D01*
X-17589607Y-16754687D01*
X-17610498Y-16685820D01*
X-17669463Y-16575506D01*
X-17748815Y-16478815D01*
X-17845506Y-16399463D01*
X-17955820Y-16340498D01*
X-18075518Y-16304188D01*
X-18200000Y-16291928D01*
X-19900000Y-16291928D01*
X-20024482Y-16304188D01*
X-20144180Y-16340498D01*
X-20254494Y-16399463D01*
X-20351185Y-16478815D01*
X-20430537Y-16575506D01*
X-20489502Y-16685820D01*
X-20525812Y-16805518D01*
X-20538072Y-16930000D01*
X-24340000Y-16930000D01*
X-24340000Y850000D01*
X-20538072Y850000D01*
X-20538072Y-850000D01*
X-20525812Y-974482D01*
X-20489502Y-1094180D01*
X-20430537Y-1204494D01*
X-20351185Y-1301185D01*
X-20254494Y-1380537D01*
X-20144180Y-1439502D01*
X-20024482Y-1475812D01*
X-19900000Y-1488072D01*
X-18200000Y-1488072D01*
X-18075518Y-1475812D01*
X-17955820Y-1439502D01*
X-17845506Y-1380537D01*
X-17748815Y-1301185D01*
X-17669463Y-1204494D01*
X-17610498Y-1094180D01*
X-17589607Y-1025313D01*
X-17565134Y-1055134D01*
X-17339014Y-1240706D01*
X-17081034Y-1378599D01*
X-16801111Y-1463513D01*
X-16582950Y-1485000D01*
X-16437050Y-1485000D01*
X-16218889Y-1463513D01*
X-15938966Y-1378599D01*
X-15680986Y-1240706D01*
X-15454866Y-1055134D01*
X-15269294Y-829014D01*
X-15240000Y-774209D01*
X-15210706Y-829014D01*
X-15025134Y-1055134D01*
X-14799014Y-1240706D01*
X-14541034Y-1378599D01*
X-14261111Y-1463513D01*
X-14042950Y-1485000D01*
X-13897050Y-1485000D01*
X-13678889Y-1463513D01*
X-13398966Y-1378599D01*
X-13140986Y-1240706D01*
X-12914866Y-1055134D01*
X-12729294Y-829014D01*
X-12700000Y-774209D01*
X-12670706Y-829014D01*
X-12485134Y-1055134D01*
X-12259014Y-1240706D01*
X-12001034Y-1378599D01*
X-11721111Y-1463513D01*
X-11502950Y-1485000D01*
X-11357050Y-1485000D01*
X-11138889Y-1463513D01*
X-10858966Y-1378599D01*
X-10600986Y-1240706D01*
X-10374866Y-1055134D01*
X-10189294Y-829014D01*
X-10160000Y-774209D01*
X-10130706Y-829014D01*
X-9945134Y-1055134D01*
X-9719014Y-1240706D01*
X-9461034Y-1378599D01*
X-9181111Y-1463513D01*
X-8962950Y-1485000D01*
X-8817050Y-1485000D01*
X-8598889Y-1463513D01*
X-8318966Y-1378599D01*
X-8060986Y-1240706D01*
X-7834866Y-1055134D01*
X-7649294Y-829014D01*
X-7620000Y-774209D01*
X-7590706Y-829014D01*
X-7405134Y-1055134D01*
X-7179014Y-1240706D01*
X-6921034Y-1378599D01*
X-6641111Y-1463513D01*
X-6422950Y-1485000D01*
X-6277050Y-1485000D01*
X-6058889Y-1463513D01*
X-5778966Y-1378599D01*
X-5520986Y-1240706D01*
X-5294866Y-1055134D01*
X-5109294Y-829014D01*
X-5080000Y-774209D01*
X-5050706Y-829014D01*
X-4865134Y-1055134D01*
X-4639014Y-1240706D01*
X-4381034Y-1378599D01*
X-4101111Y-1463513D01*
X-3882950Y-1485000D01*
X-3737050Y-1485000D01*
X-3518889Y-1463513D01*
X-3238966Y-1378599D01*
X-2980986Y-1240706D01*
X-2754866Y-1055134D01*
X-2569294Y-829014D01*
X-2540000Y-774209D01*
X-2510706Y-829014D01*
X-2325134Y-1055134D01*
X-2099014Y-1240706D01*
X-1841034Y-1378599D01*
X-1561111Y-1463513D01*
X-1342950Y-1485000D01*
X-1197050Y-1485000D01*
X-978889Y-1463513D01*
X-698966Y-1378599D01*
X-440986Y-1240706D01*
X-214866Y-1055134D01*
X-29294Y-829014D01*
X0Y-774209D01*
X29294Y-829014D01*
X214866Y-1055134D01*
X440986Y-1240706D01*
X698966Y-1378599D01*
X978889Y-1463513D01*
X1197050Y-1485000D01*
X1342950Y-1485000D01*
X1561111Y-1463513D01*
X1841034Y-1378599D01*
X2099014Y-1240706D01*
X2325134Y-1055134D01*
X2510706Y-829014D01*
X2540000Y-774209D01*
X2569294Y-829014D01*
X2754866Y-1055134D01*
X2980986Y-1240706D01*
X3238966Y-1378599D01*
X3518889Y-1463513D01*
X3737050Y-1485000D01*
X3882950Y-1485000D01*
X4101111Y-1463513D01*
X4381034Y-1378599D01*
X4639014Y-1240706D01*
X4865134Y-1055134D01*
X5050706Y-829014D01*
X5080000Y-774209D01*
X5109294Y-829014D01*
X5294866Y-1055134D01*
X5520986Y-1240706D01*
X5778966Y-1378599D01*
X6058889Y-1463513D01*
X6277050Y-1485000D01*
X6422950Y-1485000D01*
X6641111Y-1463513D01*
X6921034Y-1378599D01*
X7179014Y-1240706D01*
X7405134Y-1055134D01*
X7590706Y-829014D01*
X7620000Y-774209D01*
X7649294Y-829014D01*
X7834866Y-1055134D01*
X8060986Y-1240706D01*
X8318966Y-1378599D01*
X8598889Y-1463513D01*
X8817050Y-1485000D01*
X8962950Y-1485000D01*
X9181111Y-1463513D01*
X9461034Y-1378599D01*
X9719014Y-1240706D01*
X9945134Y-1055134D01*
X10130706Y-829014D01*
X10160000Y-774209D01*
X10189294Y-829014D01*
X10374866Y-1055134D01*
X10600986Y-1240706D01*
X10858966Y-1378599D01*
X11138889Y-1463513D01*
X11357050Y-1485000D01*
X11502950Y-1485000D01*
X11721111Y-1463513D01*
X12001034Y-1378599D01*
X12259014Y-1240706D01*
X12485134Y-1055134D01*
X12670706Y-829014D01*
X12700000Y-774209D01*
X12729294Y-829014D01*
X12914866Y-1055134D01*
X13140986Y-1240706D01*
X13398966Y-1378599D01*
X13678889Y-1463513D01*
X13897050Y-1485000D01*
X14042950Y-1485000D01*
X14261111Y-1463513D01*
X14541034Y-1378599D01*
X14799014Y-1240706D01*
X15025134Y-1055134D01*
X15210706Y-829014D01*
X15245201Y-764477D01*
X15314822Y-881355D01*
X15509731Y-1097588D01*
X15743080Y-1271641D01*
X16005901Y-1396825D01*
X16153110Y-1441476D01*
X16383000Y-1320155D01*
X16383000Y-127000D01*
X16363000Y-127000D01*
X16363000Y127000D01*
X16383000Y127000D01*
X16383000Y1320155D01*
X16637000Y1320155D01*
X16637000Y127000D01*
X16657000Y127000D01*
X16657000Y-127000D01*
X16637000Y-127000D01*
X16637000Y-1320155D01*
X16866890Y-1441476D01*
X17014099Y-1396825D01*
X17276920Y-1271641D01*
X17510269Y-1097588D01*
X17705178Y-881355D01*
X17774799Y-764477D01*
X17809294Y-829014D01*
X17994866Y-1055134D01*
X18220986Y-1240706D01*
X18478966Y-1378599D01*
X18758889Y-1463513D01*
X18977050Y-1485000D01*
X19122950Y-1485000D01*
X19341111Y-1463513D01*
X19621034Y-1378599D01*
X19879014Y-1240706D01*
X20105134Y-1055134D01*
X20290706Y-829014D01*
X20428599Y-571034D01*
X20513513Y-291111D01*
X20542185Y0D01*
X20513513Y291111D01*
X20428599Y571034D01*
X20290706Y829014D01*
X20105134Y1055134D01*
X19879014Y1240706D01*
X19621034Y1378599D01*
X19341111Y1463513D01*
X19122950Y1485000D01*
X18977050Y1485000D01*
X18758889Y1463513D01*
X18478966Y1378599D01*
X18220986Y1240706D01*
X17994866Y1055134D01*
X17809294Y829014D01*
X17774799Y764477D01*
X17705178Y881355D01*
X17510269Y1097588D01*
X17276920Y1271641D01*
X17014099Y1396825D01*
X16866890Y1441476D01*
X16637000Y1320155D01*
X16383000Y1320155D01*
X16153110Y1441476D01*
X16005901Y1396825D01*
X15743080Y1271641D01*
X15509731Y1097588D01*
X15314822Y881355D01*
X15245201Y764477D01*
X15210706Y829014D01*
X15025134Y1055134D01*
X14799014Y1240706D01*
X14541034Y1378599D01*
X14261111Y1463513D01*
X14042950Y1485000D01*
X13897050Y1485000D01*
X13678889Y1463513D01*
X13398966Y1378599D01*
X13140986Y1240706D01*
X12914866Y1055134D01*
X12729294Y829014D01*
X12700000Y774209D01*
X12670706Y829014D01*
X12485134Y1055134D01*
X12259014Y1240706D01*
X12001034Y1378599D01*
X11721111Y1463513D01*
X11502950Y1485000D01*
X11357050Y1485000D01*
X11138889Y1463513D01*
X10858966Y1378599D01*
X10600986Y1240706D01*
X10374866Y1055134D01*
X10189294Y829014D01*
X10160000Y774209D01*
X10130706Y829014D01*
X9945134Y1055134D01*
X9719014Y1240706D01*
X9461034Y1378599D01*
X9181111Y1463513D01*
X8962950Y1485000D01*
X8817050Y1485000D01*
X8598889Y1463513D01*
X8318966Y1378599D01*
X8060986Y1240706D01*
X7834866Y1055134D01*
X7649294Y829014D01*
X7620000Y774209D01*
X7590706Y829014D01*
X7405134Y1055134D01*
X7179014Y1240706D01*
X6921034Y1378599D01*
X6641111Y1463513D01*
X6422950Y1485000D01*
X6277050Y1485000D01*
X6058889Y1463513D01*
X5778966Y1378599D01*
X5520986Y1240706D01*
X5294866Y1055134D01*
X5109294Y829014D01*
X5080000Y774209D01*
X5050706Y829014D01*
X4865134Y1055134D01*
X4639014Y1240706D01*
X4381034Y1378599D01*
X4101111Y1463513D01*
X3882950Y1485000D01*
X3737050Y1485000D01*
X3518889Y1463513D01*
X3238966Y1378599D01*
X2980986Y1240706D01*
X2754866Y1055134D01*
X2569294Y829014D01*
X2540000Y774209D01*
X2510706Y829014D01*
X2325134Y1055134D01*
X2099014Y1240706D01*
X1841034Y1378599D01*
X1561111Y1463513D01*
X1342950Y1485000D01*
X1197050Y1485000D01*
X978889Y1463513D01*
X698966Y1378599D01*
X440986Y1240706D01*
X214866Y1055134D01*
X29294Y829014D01*
X0Y774209D01*
X-29294Y829014D01*
X-214866Y1055134D01*
X-440986Y1240706D01*
X-698966Y1378599D01*
X-978889Y1463513D01*
X-1197050Y1485000D01*
X-1342950Y1485000D01*
X-1561111Y1463513D01*
X-1841034Y1378599D01*
X-2099014Y1240706D01*
X-2325134Y1055134D01*
X-2510706Y829014D01*
X-2540000Y774209D01*
X-2569294Y829014D01*
X-2754866Y1055134D01*
X-2980986Y1240706D01*
X-3238966Y1378599D01*
X-3518889Y1463513D01*
X-3737050Y1485000D01*
X-3882950Y1485000D01*
X-4101111Y1463513D01*
X-4381034Y1378599D01*
X-4639014Y1240706D01*
X-4865134Y1055134D01*
X-5050706Y829014D01*
X-5080000Y774209D01*
X-5109294Y829014D01*
X-5294866Y1055134D01*
X-5520986Y1240706D01*
X-5778966Y1378599D01*
X-6058889Y1463513D01*
X-6277050Y1485000D01*
X-6422950Y1485000D01*
X-6641111Y1463513D01*
X-6921034Y1378599D01*
X-7179014Y1240706D01*
X-7405134Y1055134D01*
X-7590706Y829014D01*
X-7620000Y774209D01*
X-7649294Y829014D01*
X-7834866Y1055134D01*
X-8060986Y1240706D01*
X-8318966Y1378599D01*
X-8598889Y1463513D01*
X-8817050Y1485000D01*
X-8962950Y1485000D01*
X-9181111Y1463513D01*
X-9461034Y1378599D01*
X-9719014Y1240706D01*
X-9945134Y1055134D01*
X-10130706Y829014D01*
X-10160000Y774209D01*
X-10189294Y829014D01*
X-10374866Y1055134D01*
X-10600986Y1240706D01*
X-10858966Y1378599D01*
X-11138889Y1463513D01*
X-11357050Y1485000D01*
X-11502950Y1485000D01*
X-11721111Y1463513D01*
X-12001034Y1378599D01*
X-12259014Y1240706D01*
X-12485134Y1055134D01*
X-12670706Y829014D01*
X-12700000Y774209D01*
X-12729294Y829014D01*
X-12914866Y1055134D01*
X-13140986Y1240706D01*
X-13398966Y1378599D01*
X-13678889Y1463513D01*
X-13897050Y1485000D01*
X-14042950Y1485000D01*
X-14261111Y1463513D01*
X-14541034Y1378599D01*
X-14799014Y1240706D01*
X-15025134Y1055134D01*
X-15210706Y829014D01*
X-15240000Y774209D01*
X-15269294Y829014D01*
X-15454866Y1055134D01*
X-15680986Y1240706D01*
X-15938966Y1378599D01*
X-16218889Y1463513D01*
X-16437050Y1485000D01*
X-16582950Y1485000D01*
X-16801111Y1463513D01*
X-17081034Y1378599D01*
X-17339014Y1240706D01*
X-17565134Y1055134D01*
X-17589607Y1025313D01*
X-17610498Y1094180D01*
X-17669463Y1204494D01*
X-17748815Y1301185D01*
X-17845506Y1380537D01*
X-17955820Y1439502D01*
X-18075518Y1475812D01*
X-18200000Y1488072D01*
X-19900000Y1488072D01*
X-20024482Y1475812D01*
X-20144180Y1439502D01*
X-20254494Y1380537D01*
X-20351185Y1301185D01*
X-20430537Y1204494D01*
X-20489502Y1094180D01*
X-20525812Y974482D01*
X-20538072Y850000D01*
X-24340000Y850000D01*
X-24340000Y7340000D01*
X-20521105Y7340000D01*
X-20525812Y7324482D01*
X-20525812Y7324482D01*
G37*
X-20525812Y7324482D02*
X-20538072Y7200000D01*
X-20538072Y5500000D01*
X-20525812Y5375518D01*
X-20489502Y5255820D01*
X-20430537Y5145506D01*
X-20351185Y5048815D01*
X-20254494Y4969463D01*
X-20144180Y4910498D01*
X-20024482Y4874188D01*
X-19900000Y4861928D01*
X-18200000Y4861928D01*
X-18075518Y4874188D01*
X-17955820Y4910498D01*
X-17845506Y4969463D01*
X-17748815Y5048815D01*
X-17669463Y5145506D01*
X-17610498Y5255820D01*
X-17589607Y5324687D01*
X-17565134Y5294866D01*
X-17339014Y5109294D01*
X-17081034Y4971401D01*
X-16801111Y4886487D01*
X-16582950Y4865000D01*
X-16437050Y4865000D01*
X-16218889Y4886487D01*
X-15938966Y4971401D01*
X-15680986Y5109294D01*
X-15454866Y5294866D01*
X-15269294Y5520986D01*
X-15240000Y5575791D01*
X-15210706Y5520986D01*
X-15025134Y5294866D01*
X-14799014Y5109294D01*
X-14541034Y4971401D01*
X-14261111Y4886487D01*
X-14042950Y4865000D01*
X-13897050Y4865000D01*
X-13678889Y4886487D01*
X-13398966Y4971401D01*
X-13140986Y5109294D01*
X-12914866Y5294866D01*
X-12729294Y5520986D01*
X-12700000Y5575791D01*
X-12670706Y5520986D01*
X-12485134Y5294866D01*
X-12259014Y5109294D01*
X-12001034Y4971401D01*
X-11721111Y4886487D01*
X-11502950Y4865000D01*
X-11357050Y4865000D01*
X-11138889Y4886487D01*
X-10858966Y4971401D01*
X-10600986Y5109294D01*
X-10374866Y5294866D01*
X-10189294Y5520986D01*
X-10160000Y5575791D01*
X-10130706Y5520986D01*
X-9945134Y5294866D01*
X-9719014Y5109294D01*
X-9461034Y4971401D01*
X-9181111Y4886487D01*
X-8962950Y4865000D01*
X-8817050Y4865000D01*
X-8598889Y4886487D01*
X-8318966Y4971401D01*
X-8060986Y5109294D01*
X-7834866Y5294866D01*
X-7649294Y5520986D01*
X-7620000Y5575791D01*
X-7590706Y5520986D01*
X-7405134Y5294866D01*
X-7179014Y5109294D01*
X-6921034Y4971401D01*
X-6641111Y4886487D01*
X-6422950Y4865000D01*
X-6277050Y4865000D01*
X-6058889Y4886487D01*
X-5778966Y4971401D01*
X-5520986Y5109294D01*
X-5294866Y5294866D01*
X-5109294Y5520986D01*
X-5080000Y5575791D01*
X-5050706Y5520986D01*
X-4865134Y5294866D01*
X-4639014Y5109294D01*
X-4381034Y4971401D01*
X-4101111Y4886487D01*
X-3882950Y4865000D01*
X-3737050Y4865000D01*
X-3518889Y4886487D01*
X-3238966Y4971401D01*
X-2980986Y5109294D01*
X-2754866Y5294866D01*
X-2569294Y5520986D01*
X-2540000Y5575791D01*
X-2510706Y5520986D01*
X-2325134Y5294866D01*
X-2099014Y5109294D01*
X-1841034Y4971401D01*
X-1561111Y4886487D01*
X-1342950Y4865000D01*
X-1197050Y4865000D01*
X-978889Y4886487D01*
X-698966Y4971401D01*
X-440986Y5109294D01*
X-214866Y5294866D01*
X-29294Y5520986D01*
X0Y5575791D01*
X29294Y5520986D01*
X214866Y5294866D01*
X440986Y5109294D01*
X698966Y4971401D01*
X978889Y4886487D01*
X1197050Y4865000D01*
X1342950Y4865000D01*
X1561111Y4886487D01*
X1841034Y4971401D01*
X2099014Y5109294D01*
X2325134Y5294866D01*
X2510706Y5520986D01*
X2540000Y5575791D01*
X2569294Y5520986D01*
X2754866Y5294866D01*
X2980986Y5109294D01*
X3238966Y4971401D01*
X3518889Y4886487D01*
X3737050Y4865000D01*
X3882950Y4865000D01*
X4101111Y4886487D01*
X4381034Y4971401D01*
X4639014Y5109294D01*
X4865134Y5294866D01*
X5050706Y5520986D01*
X5080000Y5575791D01*
X5109294Y5520986D01*
X5294866Y5294866D01*
X5520986Y5109294D01*
X5778966Y4971401D01*
X6058889Y4886487D01*
X6277050Y4865000D01*
X6422950Y4865000D01*
X6641111Y4886487D01*
X6921034Y4971401D01*
X7179014Y5109294D01*
X7405134Y5294866D01*
X7590706Y5520986D01*
X7620000Y5575791D01*
X7649294Y5520986D01*
X7834866Y5294866D01*
X8060986Y5109294D01*
X8318966Y4971401D01*
X8598889Y4886487D01*
X8817050Y4865000D01*
X8962950Y4865000D01*
X9181111Y4886487D01*
X9461034Y4971401D01*
X9719014Y5109294D01*
X9945134Y5294866D01*
X10130706Y5520986D01*
X10160000Y5575791D01*
X10189294Y5520986D01*
X10374866Y5294866D01*
X10600986Y5109294D01*
X10858966Y4971401D01*
X11138889Y4886487D01*
X11357050Y4865000D01*
X11502950Y4865000D01*
X11721111Y4886487D01*
X12001034Y4971401D01*
X12259014Y5109294D01*
X12485134Y5294866D01*
X12670706Y5520986D01*
X12700000Y5575791D01*
X12729294Y5520986D01*
X12914866Y5294866D01*
X13140986Y5109294D01*
X13398966Y4971401D01*
X13678889Y4886487D01*
X13897050Y4865000D01*
X14042950Y4865000D01*
X14261111Y4886487D01*
X14541034Y4971401D01*
X14799014Y5109294D01*
X15025134Y5294866D01*
X15210706Y5520986D01*
X15245201Y5585523D01*
X15314822Y5468645D01*
X15509731Y5252412D01*
X15743080Y5078359D01*
X16005901Y4953175D01*
X16153110Y4908524D01*
X16383000Y5029845D01*
X16383000Y6223000D01*
X16363000Y6223000D01*
X16363000Y6477000D01*
X16383000Y6477000D01*
X16383000Y6497000D01*
X16637000Y6497000D01*
X16637000Y6477000D01*
X16657000Y6477000D01*
X16657000Y6223000D01*
X16637000Y6223000D01*
X16637000Y5029845D01*
X16866890Y4908524D01*
X17014099Y4953175D01*
X17276920Y5078359D01*
X17510269Y5252412D01*
X17705178Y5468645D01*
X17774799Y5585523D01*
X17809294Y5520986D01*
X17994866Y5294866D01*
X18220986Y5109294D01*
X18478966Y4971401D01*
X18758889Y4886487D01*
X18977050Y4865000D01*
X19122950Y4865000D01*
X19341111Y4886487D01*
X19621034Y4971401D01*
X19879014Y5109294D01*
X20105134Y5294866D01*
X20290706Y5520986D01*
X20428599Y5778966D01*
X20513513Y6058889D01*
X20542185Y6350000D01*
X20513513Y6641111D01*
X20428599Y6921034D01*
X20290706Y7179014D01*
X20158588Y7340000D01*
X24340000Y7340000D01*
X24340001Y-41340000D01*
X17999980Y-41340000D01*
X18048792Y-41183397D01*
X17200000Y-40334605D01*
X16351208Y-41183397D01*
X16400020Y-41340000D01*
X13499980Y-41340000D01*
X13548792Y-41183397D01*
X12700000Y-40334605D01*
X11851208Y-41183397D01*
X11900020Y-41340000D01*
X7839980Y-41340000D01*
X7888792Y-41183397D01*
X7040000Y-40334605D01*
X6191208Y-41183397D01*
X6240020Y-41340000D01*
X3339980Y-41340000D01*
X3388792Y-41183397D01*
X2540000Y-40334605D01*
X1691208Y-41183397D01*
X1740020Y-41340000D01*
X-2320020Y-41340000D01*
X-2271208Y-41183397D01*
X-3120000Y-40334605D01*
X-3968792Y-41183397D01*
X-3919980Y-41340000D01*
X-6820020Y-41340000D01*
X-6771208Y-41183397D01*
X-7620000Y-40334605D01*
X-8468792Y-41183397D01*
X-8419980Y-41340000D01*
X-12480020Y-41340000D01*
X-12431208Y-41183397D01*
X-13280000Y-40334605D01*
X-14128792Y-41183397D01*
X-14079980Y-41340000D01*
X-16980020Y-41340000D01*
X-16931208Y-41183397D01*
X-17780000Y-40334605D01*
X-18628792Y-41183397D01*
X-18579980Y-41340000D01*
X-24340000Y-41340000D01*
X-24340000Y-40223531D01*
X-19270611Y-40223531D01*
X-19228599Y-40513019D01*
X-19130919Y-40788747D01*
X-19057472Y-40926157D01*
X-18808397Y-41003792D01*
X-17959605Y-40155000D01*
X-17600395Y-40155000D01*
X-16751603Y-41003792D01*
X-16502528Y-40926157D01*
X-16376629Y-40662117D01*
X-16304661Y-40378589D01*
X-16296555Y-40223531D01*
X-14770611Y-40223531D01*
X-14728599Y-40513019D01*
X-14630919Y-40788747D01*
X-14557472Y-40926157D01*
X-14308397Y-41003792D01*
X-13459605Y-40155000D01*
X-13100395Y-40155000D01*
X-12251603Y-41003792D01*
X-12002528Y-40926157D01*
X-11876629Y-40662117D01*
X-11804661Y-40378589D01*
X-11796555Y-40223531D01*
X-9110611Y-40223531D01*
X-9068599Y-40513019D01*
X-8970919Y-40788747D01*
X-8897472Y-40926157D01*
X-8648397Y-41003792D01*
X-7799605Y-40155000D01*
X-7440395Y-40155000D01*
X-6591603Y-41003792D01*
X-6342528Y-40926157D01*
X-6216629Y-40662117D01*
X-6144661Y-40378589D01*
X-6136555Y-40223531D01*
X-4610611Y-40223531D01*
X-4568599Y-40513019D01*
X-4470919Y-40788747D01*
X-4397472Y-40926157D01*
X-4148397Y-41003792D01*
X-3299605Y-40155000D01*
X-2940395Y-40155000D01*
X-2091603Y-41003792D01*
X-1842528Y-40926157D01*
X-1716629Y-40662117D01*
X-1644661Y-40378589D01*
X-1636555Y-40223531D01*
X1049389Y-40223531D01*
X1091401Y-40513019D01*
X1189081Y-40788747D01*
X1262528Y-40926157D01*
X1511603Y-41003792D01*
X2360395Y-40155000D01*
X2719605Y-40155000D01*
X3568397Y-41003792D01*
X3817472Y-40926157D01*
X3943371Y-40662117D01*
X4015339Y-40378589D01*
X4023445Y-40223531D01*
X5549389Y-40223531D01*
X5591401Y-40513019D01*
X5689081Y-40788747D01*
X5762528Y-40926157D01*
X6011603Y-41003792D01*
X6860395Y-40155000D01*
X7219605Y-40155000D01*
X8068397Y-41003792D01*
X8317472Y-40926157D01*
X8443371Y-40662117D01*
X8515339Y-40378589D01*
X8523445Y-40223531D01*
X11209389Y-40223531D01*
X11251401Y-40513019D01*
X11349081Y-40788747D01*
X11422528Y-40926157D01*
X11671603Y-41003792D01*
X12520395Y-40155000D01*
X12879605Y-40155000D01*
X13728397Y-41003792D01*
X13977472Y-40926157D01*
X14103371Y-40662117D01*
X14175339Y-40378589D01*
X14183445Y-40223531D01*
X15709389Y-40223531D01*
X15751401Y-40513019D01*
X15849081Y-40788747D01*
X15922528Y-40926157D01*
X16171603Y-41003792D01*
X17020395Y-40155000D01*
X17379605Y-40155000D01*
X18228397Y-41003792D01*
X18477472Y-40926157D01*
X18603371Y-40662117D01*
X18675339Y-40378589D01*
X18690611Y-40086469D01*
X18648599Y-39796981D01*
X18550919Y-39521253D01*
X18477472Y-39383843D01*
X18228397Y-39306208D01*
X17379605Y-40155000D01*
X17020395Y-40155000D01*
X16171603Y-39306208D01*
X15922528Y-39383843D01*
X15796629Y-39647883D01*
X15724661Y-39931411D01*
X15709389Y-40223531D01*
X14183445Y-40223531D01*
X14190611Y-40086469D01*
X14148599Y-39796981D01*
X14050919Y-39521253D01*
X13977472Y-39383843D01*
X13728397Y-39306208D01*
X12879605Y-40155000D01*
X12520395Y-40155000D01*
X11671603Y-39306208D01*
X11422528Y-39383843D01*
X11296629Y-39647883D01*
X11224661Y-39931411D01*
X11209389Y-40223531D01*
X8523445Y-40223531D01*
X8530611Y-40086469D01*
X8488599Y-39796981D01*
X8390919Y-39521253D01*
X8317472Y-39383843D01*
X8068397Y-39306208D01*
X7219605Y-40155000D01*
X6860395Y-40155000D01*
X6011603Y-39306208D01*
X5762528Y-39383843D01*
X5636629Y-39647883D01*
X5564661Y-39931411D01*
X5549389Y-40223531D01*
X4023445Y-40223531D01*
X4030611Y-40086469D01*
X3988599Y-39796981D01*
X3890919Y-39521253D01*
X3817472Y-39383843D01*
X3568397Y-39306208D01*
X2719605Y-40155000D01*
X2360395Y-40155000D01*
X1511603Y-39306208D01*
X1262528Y-39383843D01*
X1136629Y-39647883D01*
X1064661Y-39931411D01*
X1049389Y-40223531D01*
X-1636555Y-40223531D01*
X-1629389Y-40086469D01*
X-1671401Y-39796981D01*
X-1769081Y-39521253D01*
X-1842528Y-39383843D01*
X-2091603Y-39306208D01*
X-2940395Y-40155000D01*
X-3299605Y-40155000D01*
X-4148397Y-39306208D01*
X-4397472Y-39383843D01*
X-4523371Y-39647883D01*
X-4595339Y-39931411D01*
X-4610611Y-40223531D01*
X-6136555Y-40223531D01*
X-6129389Y-40086469D01*
X-6171401Y-39796981D01*
X-6269081Y-39521253D01*
X-6342528Y-39383843D01*
X-6591603Y-39306208D01*
X-7440395Y-40155000D01*
X-7799605Y-40155000D01*
X-8648397Y-39306208D01*
X-8897472Y-39383843D01*
X-9023371Y-39647883D01*
X-9095339Y-39931411D01*
X-9110611Y-40223531D01*
X-11796555Y-40223531D01*
X-11789389Y-40086469D01*
X-11831401Y-39796981D01*
X-11929081Y-39521253D01*
X-12002528Y-39383843D01*
X-12251603Y-39306208D01*
X-13100395Y-40155000D01*
X-13459605Y-40155000D01*
X-14308397Y-39306208D01*
X-14557472Y-39383843D01*
X-14683371Y-39647883D01*
X-14755339Y-39931411D01*
X-14770611Y-40223531D01*
X-16296555Y-40223531D01*
X-16289389Y-40086469D01*
X-16331401Y-39796981D01*
X-16429081Y-39521253D01*
X-16502528Y-39383843D01*
X-16751603Y-39306208D01*
X-17600395Y-40155000D01*
X-17959605Y-40155000D01*
X-18808397Y-39306208D01*
X-19057472Y-39383843D01*
X-19183371Y-39647883D01*
X-19255339Y-39931411D01*
X-19270611Y-40223531D01*
X-24340000Y-40223531D01*
X-24340000Y-39126603D01*
X-18628792Y-39126603D01*
X-17780000Y-39975395D01*
X-16931208Y-39126603D01*
X-14128792Y-39126603D01*
X-13280000Y-39975395D01*
X-12431208Y-39126603D01*
X-8468792Y-39126603D01*
X-7620000Y-39975395D01*
X-6771208Y-39126603D01*
X-3968792Y-39126603D01*
X-3120000Y-39975395D01*
X-2271208Y-39126603D01*
X1691208Y-39126603D01*
X2540000Y-39975395D01*
X3388792Y-39126603D01*
X6191208Y-39126603D01*
X7040000Y-39975395D01*
X7888792Y-39126603D01*
X11851208Y-39126603D01*
X12700000Y-39975395D01*
X13548792Y-39126603D01*
X16351208Y-39126603D01*
X17200000Y-39975395D01*
X18048792Y-39126603D01*
X17971157Y-38877528D01*
X17707117Y-38751629D01*
X17423589Y-38679661D01*
X17131469Y-38664389D01*
X16841981Y-38706401D01*
X16566253Y-38804081D01*
X16428843Y-38877528D01*
X16351208Y-39126603D01*
X13548792Y-39126603D01*
X13471157Y-38877528D01*
X13207117Y-38751629D01*
X12923589Y-38679661D01*
X12631469Y-38664389D01*
X12341981Y-38706401D01*
X12066253Y-38804081D01*
X11928843Y-38877528D01*
X11851208Y-39126603D01*
X7888792Y-39126603D01*
X7811157Y-38877528D01*
X7547117Y-38751629D01*
X7263589Y-38679661D01*
X6971469Y-38664389D01*
X6681981Y-38706401D01*
X6406253Y-38804081D01*
X6268843Y-38877528D01*
X6191208Y-39126603D01*
X3388792Y-39126603D01*
X3311157Y-38877528D01*
X3047117Y-38751629D01*
X2763589Y-38679661D01*
X2471469Y-38664389D01*
X2181981Y-38706401D01*
X1906253Y-38804081D01*
X1768843Y-38877528D01*
X1691208Y-39126603D01*
X-2271208Y-39126603D01*
X-2348843Y-38877528D01*
X-2612883Y-38751629D01*
X-2896411Y-38679661D01*
X-3188531Y-38664389D01*
X-3478019Y-38706401D01*
X-3753747Y-38804081D01*
X-3891157Y-38877528D01*
X-3968792Y-39126603D01*
X-6771208Y-39126603D01*
X-6848843Y-38877528D01*
X-7112883Y-38751629D01*
X-7396411Y-38679661D01*
X-7688531Y-38664389D01*
X-7978019Y-38706401D01*
X-8253747Y-38804081D01*
X-8391157Y-38877528D01*
X-8468792Y-39126603D01*
X-12431208Y-39126603D01*
X-12508843Y-38877528D01*
X-12772883Y-38751629D01*
X-13056411Y-38679661D01*
X-13348531Y-38664389D01*
X-13638019Y-38706401D01*
X-13913747Y-38804081D01*
X-14051157Y-38877528D01*
X-14128792Y-39126603D01*
X-16931208Y-39126603D01*
X-17008843Y-38877528D01*
X-17272883Y-38751629D01*
X-17556411Y-38679661D01*
X-17848531Y-38664389D01*
X-18138019Y-38706401D01*
X-18413747Y-38804081D01*
X-18551157Y-38877528D01*
X-18628792Y-39126603D01*
X-24340000Y-39126603D01*
X-24340000Y-33508740D01*
X-19265000Y-33508740D01*
X-19265000Y-33801260D01*
X-19207932Y-34088158D01*
X-19095990Y-34358411D01*
X-18933475Y-34601632D01*
X-18726632Y-34808475D01*
X-18483411Y-34970990D01*
X-18213158Y-35082932D01*
X-17926260Y-35140000D01*
X-17633740Y-35140000D01*
X-17346842Y-35082932D01*
X-17076589Y-34970990D01*
X-16833368Y-34808475D01*
X-16626525Y-34601632D01*
X-16464010Y-34358411D01*
X-16352068Y-34088158D01*
X-16295000Y-33801260D01*
X-16295000Y-33508740D01*
X-14765000Y-33508740D01*
X-14765000Y-33801260D01*
X-14707932Y-34088158D01*
X-14595990Y-34358411D01*
X-14433475Y-34601632D01*
X-14226632Y-34808475D01*
X-13983411Y-34970990D01*
X-13713158Y-35082932D01*
X-13426260Y-35140000D01*
X-13133740Y-35140000D01*
X-12846842Y-35082932D01*
X-12576589Y-34970990D01*
X-12333368Y-34808475D01*
X-12126525Y-34601632D01*
X-11964010Y-34358411D01*
X-11852068Y-34088158D01*
X-11795000Y-33801260D01*
X-11795000Y-33508740D01*
X-9105000Y-33508740D01*
X-9105000Y-33801260D01*
X-9047932Y-34088158D01*
X-8935990Y-34358411D01*
X-8773475Y-34601632D01*
X-8566632Y-34808475D01*
X-8323411Y-34970990D01*
X-8053158Y-35082932D01*
X-7766260Y-35140000D01*
X-7473740Y-35140000D01*
X-7186842Y-35082932D01*
X-6916589Y-34970990D01*
X-6673368Y-34808475D01*
X-6466525Y-34601632D01*
X-6304010Y-34358411D01*
X-6192068Y-34088158D01*
X-6135000Y-33801260D01*
X-6135000Y-33508740D01*
X-4605000Y-33508740D01*
X-4605000Y-33801260D01*
X-4547932Y-34088158D01*
X-4435990Y-34358411D01*
X-4273475Y-34601632D01*
X-4066632Y-34808475D01*
X-3823411Y-34970990D01*
X-3553158Y-35082932D01*
X-3266260Y-35140000D01*
X-2973740Y-35140000D01*
X-2686842Y-35082932D01*
X-2416589Y-34970990D01*
X-2173368Y-34808475D01*
X-1966525Y-34601632D01*
X-1804010Y-34358411D01*
X-1692068Y-34088158D01*
X-1635000Y-33801260D01*
X-1635000Y-33508740D01*
X1055000Y-33508740D01*
X1055000Y-33801260D01*
X1112068Y-34088158D01*
X1224010Y-34358411D01*
X1386525Y-34601632D01*
X1593368Y-34808475D01*
X1836589Y-34970990D01*
X2106842Y-35082932D01*
X2393740Y-35140000D01*
X2686260Y-35140000D01*
X2973158Y-35082932D01*
X3243411Y-34970990D01*
X3486632Y-34808475D01*
X3693475Y-34601632D01*
X3855990Y-34358411D01*
X3967932Y-34088158D01*
X4025000Y-33801260D01*
X4025000Y-33508740D01*
X5555000Y-33508740D01*
X5555000Y-33801260D01*
X5612068Y-34088158D01*
X5724010Y-34358411D01*
X5886525Y-34601632D01*
X6093368Y-34808475D01*
X6336589Y-34970990D01*
X6606842Y-35082932D01*
X6893740Y-35140000D01*
X7186260Y-35140000D01*
X7473158Y-35082932D01*
X7743411Y-34970990D01*
X7986632Y-34808475D01*
X8193475Y-34601632D01*
X8355990Y-34358411D01*
X8467932Y-34088158D01*
X8525000Y-33801260D01*
X8525000Y-33508740D01*
X11215000Y-33508740D01*
X11215000Y-33801260D01*
X11272068Y-34088158D01*
X11384010Y-34358411D01*
X11546525Y-34601632D01*
X11753368Y-34808475D01*
X11996589Y-34970990D01*
X12266842Y-35082932D01*
X12553740Y-35140000D01*
X12846260Y-35140000D01*
X13133158Y-35082932D01*
X13403411Y-34970990D01*
X13646632Y-34808475D01*
X13853475Y-34601632D01*
X14015990Y-34358411D01*
X14127932Y-34088158D01*
X14185000Y-33801260D01*
X14185000Y-33508740D01*
X15715000Y-33508740D01*
X15715000Y-33801260D01*
X15772068Y-34088158D01*
X15884010Y-34358411D01*
X16046525Y-34601632D01*
X16253368Y-34808475D01*
X16496589Y-34970990D01*
X16766842Y-35082932D01*
X17053740Y-35140000D01*
X17346260Y-35140000D01*
X17633158Y-35082932D01*
X17903411Y-34970990D01*
X18146632Y-34808475D01*
X18353475Y-34601632D01*
X18515990Y-34358411D01*
X18627932Y-34088158D01*
X18685000Y-33801260D01*
X18685000Y-33508740D01*
X18627932Y-33221842D01*
X18515990Y-32951589D01*
X18353475Y-32708368D01*
X18146632Y-32501525D01*
X17903411Y-32339010D01*
X17633158Y-32227068D01*
X17346260Y-32170000D01*
X17053740Y-32170000D01*
X16766842Y-32227068D01*
X16496589Y-32339010D01*
X16253368Y-32501525D01*
X16046525Y-32708368D01*
X15884010Y-32951589D01*
X15772068Y-33221842D01*
X15715000Y-33508740D01*
X14185000Y-33508740D01*
X14127932Y-33221842D01*
X14015990Y-32951589D01*
X13853475Y-32708368D01*
X13646632Y-32501525D01*
X13403411Y-32339010D01*
X13133158Y-32227068D01*
X12846260Y-32170000D01*
X12553740Y-32170000D01*
X12266842Y-32227068D01*
X11996589Y-32339010D01*
X11753368Y-32501525D01*
X11546525Y-32708368D01*
X11384010Y-32951589D01*
X11272068Y-33221842D01*
X11215000Y-33508740D01*
X8525000Y-33508740D01*
X8467932Y-33221842D01*
X8355990Y-32951589D01*
X8193475Y-32708368D01*
X7986632Y-32501525D01*
X7743411Y-32339010D01*
X7473158Y-32227068D01*
X7186260Y-32170000D01*
X6893740Y-32170000D01*
X6606842Y-32227068D01*
X6336589Y-32339010D01*
X6093368Y-32501525D01*
X5886525Y-32708368D01*
X5724010Y-32951589D01*
X5612068Y-33221842D01*
X5555000Y-33508740D01*
X4025000Y-33508740D01*
X3967932Y-33221842D01*
X3855990Y-32951589D01*
X3693475Y-32708368D01*
X3486632Y-32501525D01*
X3243411Y-32339010D01*
X2973158Y-32227068D01*
X2686260Y-32170000D01*
X2393740Y-32170000D01*
X2106842Y-32227068D01*
X1836589Y-32339010D01*
X1593368Y-32501525D01*
X1386525Y-32708368D01*
X1224010Y-32951589D01*
X1112068Y-33221842D01*
X1055000Y-33508740D01*
X-1635000Y-33508740D01*
X-1692068Y-33221842D01*
X-1804010Y-32951589D01*
X-1966525Y-32708368D01*
X-2173368Y-32501525D01*
X-2416589Y-32339010D01*
X-2686842Y-32227068D01*
X-2973740Y-32170000D01*
X-3266260Y-32170000D01*
X-3553158Y-32227068D01*
X-3823411Y-32339010D01*
X-4066632Y-32501525D01*
X-4273475Y-32708368D01*
X-4435990Y-32951589D01*
X-4547932Y-33221842D01*
X-4605000Y-33508740D01*
X-6135000Y-33508740D01*
X-6192068Y-33221842D01*
X-6304010Y-32951589D01*
X-6466525Y-32708368D01*
X-6673368Y-32501525D01*
X-6916589Y-32339010D01*
X-7186842Y-32227068D01*
X-7473740Y-32170000D01*
X-7766260Y-32170000D01*
X-8053158Y-32227068D01*
X-8323411Y-32339010D01*
X-8566632Y-32501525D01*
X-8773475Y-32708368D01*
X-8935990Y-32951589D01*
X-9047932Y-33221842D01*
X-9105000Y-33508740D01*
X-11795000Y-33508740D01*
X-11852068Y-33221842D01*
X-11964010Y-32951589D01*
X-12126525Y-32708368D01*
X-12333368Y-32501525D01*
X-12576589Y-32339010D01*
X-12846842Y-32227068D01*
X-13133740Y-32170000D01*
X-13426260Y-32170000D01*
X-13713158Y-32227068D01*
X-13983411Y-32339010D01*
X-14226632Y-32501525D01*
X-14433475Y-32708368D01*
X-14595990Y-32951589D01*
X-14707932Y-33221842D01*
X-14765000Y-33508740D01*
X-16295000Y-33508740D01*
X-16352068Y-33221842D01*
X-16464010Y-32951589D01*
X-16626525Y-32708368D01*
X-16833368Y-32501525D01*
X-17076589Y-32339010D01*
X-17346842Y-32227068D01*
X-17633740Y-32170000D01*
X-17926260Y-32170000D01*
X-18213158Y-32227068D01*
X-18483411Y-32339010D01*
X-18726632Y-32501525D01*
X-18933475Y-32708368D01*
X-19095990Y-32951589D01*
X-19207932Y-33221842D01*
X-19265000Y-33508740D01*
X-24340000Y-33508740D01*
X-24340000Y-26300000D01*
X-18048072Y-26300000D01*
X-18035812Y-26424482D01*
X-17999502Y-26544180D01*
X-17940537Y-26654494D01*
X-17861185Y-26751185D01*
X-17764494Y-26830537D01*
X-17654180Y-26889502D01*
X-17534482Y-26925812D01*
X-17410000Y-26938072D01*
X-16795750Y-26935000D01*
X-16637000Y-26776250D01*
X-16637000Y-25527000D01*
X-17886250Y-25527000D01*
X-18045000Y-25685750D01*
X-18048072Y-26300000D01*
X-24340000Y-26300000D01*
X-24340000Y-24500000D01*
X-18048072Y-24500000D01*
X-18045000Y-25114250D01*
X-17886250Y-25273000D01*
X-16637000Y-25273000D01*
X-16637000Y-24023750D01*
X-16383000Y-24023750D01*
X-16383000Y-25273000D01*
X-16363000Y-25273000D01*
X-16363000Y-25527000D01*
X-16383000Y-25527000D01*
X-16383000Y-26776250D01*
X-16224250Y-26935000D01*
X-15610000Y-26938072D01*
X-15485518Y-26925812D01*
X-15365820Y-26889502D01*
X-15255506Y-26830537D01*
X-15158815Y-26751185D01*
X-15079463Y-26654494D01*
X-15020498Y-26544180D01*
X-15014944Y-26525873D01*
X-14948505Y-26592312D01*
X-14697095Y-26760299D01*
X-14417743Y-26876011D01*
X-14121184Y-26935000D01*
X-13818816Y-26935000D01*
X-13522257Y-26876011D01*
X-13242905Y-26760299D01*
X-12991495Y-26592312D01*
X-12777688Y-26378505D01*
X-12725233Y-26300000D01*
X-7888072Y-26300000D01*
X-7875812Y-26424482D01*
X-7839502Y-26544180D01*
X-7780537Y-26654494D01*
X-7701185Y-26751185D01*
X-7604494Y-26830537D01*
X-7494180Y-26889502D01*
X-7374482Y-26925812D01*
X-7250000Y-26938072D01*
X-6635750Y-26935000D01*
X-6477000Y-26776250D01*
X-6477000Y-25527000D01*
X-7726250Y-25527000D01*
X-7885000Y-25685750D01*
X-7888072Y-26300000D01*
X-12725233Y-26300000D01*
X-12609701Y-26127095D01*
X-12493989Y-25847743D01*
X-12435000Y-25551184D01*
X-12435000Y-25248816D01*
X-12493989Y-24952257D01*
X-12609701Y-24672905D01*
X-12725232Y-24500000D01*
X-7888072Y-24500000D01*
X-7885000Y-25114250D01*
X-7726250Y-25273000D01*
X-6477000Y-25273000D01*
X-6477000Y-24023750D01*
X-6223000Y-24023750D01*
X-6223000Y-25273000D01*
X-6203000Y-25273000D01*
X-6203000Y-25527000D01*
X-6223000Y-25527000D01*
X-6223000Y-26776250D01*
X-6064250Y-26935000D01*
X-5450000Y-26938072D01*
X-5325518Y-26925812D01*
X-5205820Y-26889502D01*
X-5095506Y-26830537D01*
X-4998815Y-26751185D01*
X-4919463Y-26654494D01*
X-4860498Y-26544180D01*
X-4854944Y-26525873D01*
X-4788505Y-26592312D01*
X-4537095Y-26760299D01*
X-4257743Y-26876011D01*
X-3961184Y-26935000D01*
X-3658816Y-26935000D01*
X-3362257Y-26876011D01*
X-3082905Y-26760299D01*
X-2831495Y-26592312D01*
X-2617688Y-26378505D01*
X-2565233Y-26300000D01*
X2271928Y-26300000D01*
X2284188Y-26424482D01*
X2320498Y-26544180D01*
X2379463Y-26654494D01*
X2458815Y-26751185D01*
X2555506Y-26830537D01*
X2665820Y-26889502D01*
X2785518Y-26925812D01*
X2910000Y-26938072D01*
X3524250Y-26935000D01*
X3683000Y-26776250D01*
X3683000Y-25527000D01*
X2433750Y-25527000D01*
X2275000Y-25685750D01*
X2271928Y-26300000D01*
X-2565233Y-26300000D01*
X-2449701Y-26127095D01*
X-2333989Y-25847743D01*
X-2275000Y-25551184D01*
X-2275000Y-25248816D01*
X-2333989Y-24952257D01*
X-2449701Y-24672905D01*
X-2565232Y-24500000D01*
X2271928Y-24500000D01*
X2275000Y-25114250D01*
X2433750Y-25273000D01*
X3683000Y-25273000D01*
X3683000Y-24023750D01*
X3937000Y-24023750D01*
X3937000Y-25273000D01*
X3957000Y-25273000D01*
X3957000Y-25527000D01*
X3937000Y-25527000D01*
X3937000Y-26776250D01*
X4095750Y-26935000D01*
X4710000Y-26938072D01*
X4834482Y-26925812D01*
X4954180Y-26889502D01*
X5064494Y-26830537D01*
X5161185Y-26751185D01*
X5240537Y-26654494D01*
X5299502Y-26544180D01*
X5305056Y-26525873D01*
X5371495Y-26592312D01*
X5622905Y-26760299D01*
X5902257Y-26876011D01*
X6198816Y-26935000D01*
X6501184Y-26935000D01*
X6797743Y-26876011D01*
X7077095Y-26760299D01*
X7328505Y-26592312D01*
X7542312Y-26378505D01*
X7594767Y-26300000D01*
X12431928Y-26300000D01*
X12444188Y-26424482D01*
X12480498Y-26544180D01*
X12539463Y-26654494D01*
X12618815Y-26751185D01*
X12715506Y-26830537D01*
X12825820Y-26889502D01*
X12945518Y-26925812D01*
X13070000Y-26938072D01*
X13684250Y-26935000D01*
X13843000Y-26776250D01*
X13843000Y-25527000D01*
X12593750Y-25527000D01*
X12435000Y-25685750D01*
X12431928Y-26300000D01*
X7594767Y-26300000D01*
X7710299Y-26127095D01*
X7826011Y-25847743D01*
X7885000Y-25551184D01*
X7885000Y-25248816D01*
X7826011Y-24952257D01*
X7710299Y-24672905D01*
X7594768Y-24500000D01*
X12431928Y-24500000D01*
X12435000Y-25114250D01*
X12593750Y-25273000D01*
X13843000Y-25273000D01*
X13843000Y-24023750D01*
X14097000Y-24023750D01*
X14097000Y-25273000D01*
X14117000Y-25273000D01*
X14117000Y-25527000D01*
X14097000Y-25527000D01*
X14097000Y-26776250D01*
X14255750Y-26935000D01*
X14870000Y-26938072D01*
X14994482Y-26925812D01*
X15114180Y-26889502D01*
X15224494Y-26830537D01*
X15321185Y-26751185D01*
X15400537Y-26654494D01*
X15459502Y-26544180D01*
X15465056Y-26525873D01*
X15531495Y-26592312D01*
X15782905Y-26760299D01*
X16062257Y-26876011D01*
X16358816Y-26935000D01*
X16661184Y-26935000D01*
X16957743Y-26876011D01*
X17237095Y-26760299D01*
X17488505Y-26592312D01*
X17702312Y-26378505D01*
X17870299Y-26127095D01*
X17986011Y-25847743D01*
X18045000Y-25551184D01*
X18045000Y-25248816D01*
X17986011Y-24952257D01*
X17870299Y-24672905D01*
X17702312Y-24421495D01*
X17488505Y-24207688D01*
X17237095Y-24039701D01*
X16957743Y-23923989D01*
X16661184Y-23865000D01*
X16358816Y-23865000D01*
X16062257Y-23923989D01*
X15782905Y-24039701D01*
X15531495Y-24207688D01*
X15465056Y-24274127D01*
X15459502Y-24255820D01*
X15400537Y-24145506D01*
X15321185Y-24048815D01*
X15224494Y-23969463D01*
X15114180Y-23910498D01*
X14994482Y-23874188D01*
X14870000Y-23861928D01*
X14255750Y-23865000D01*
X14097000Y-24023750D01*
X13843000Y-24023750D01*
X13684250Y-23865000D01*
X13070000Y-23861928D01*
X12945518Y-23874188D01*
X12825820Y-23910498D01*
X12715506Y-23969463D01*
X12618815Y-24048815D01*
X12539463Y-24145506D01*
X12480498Y-24255820D01*
X12444188Y-24375518D01*
X12431928Y-24500000D01*
X7594768Y-24500000D01*
X7542312Y-24421495D01*
X7328505Y-24207688D01*
X7077095Y-24039701D01*
X6797743Y-23923989D01*
X6501184Y-23865000D01*
X6198816Y-23865000D01*
X5902257Y-23923989D01*
X5622905Y-24039701D01*
X5371495Y-24207688D01*
X5305056Y-24274127D01*
X5299502Y-24255820D01*
X5240537Y-24145506D01*
X5161185Y-24048815D01*
X5064494Y-23969463D01*
X4954180Y-23910498D01*
X4834482Y-23874188D01*
X4710000Y-23861928D01*
X4095750Y-23865000D01*
X3937000Y-24023750D01*
X3683000Y-24023750D01*
X3524250Y-23865000D01*
X2910000Y-23861928D01*
X2785518Y-23874188D01*
X2665820Y-23910498D01*
X2555506Y-23969463D01*
X2458815Y-24048815D01*
X2379463Y-24145506D01*
X2320498Y-24255820D01*
X2284188Y-24375518D01*
X2271928Y-24500000D01*
X-2565232Y-24500000D01*
X-2617688Y-24421495D01*
X-2831495Y-24207688D01*
X-3082905Y-24039701D01*
X-3362257Y-23923989D01*
X-3658816Y-23865000D01*
X-3961184Y-23865000D01*
X-4257743Y-23923989D01*
X-4537095Y-24039701D01*
X-4788505Y-24207688D01*
X-4854944Y-24274127D01*
X-4860498Y-24255820D01*
X-4919463Y-24145506D01*
X-4998815Y-24048815D01*
X-5095506Y-23969463D01*
X-5205820Y-23910498D01*
X-5325518Y-23874188D01*
X-5450000Y-23861928D01*
X-6064250Y-23865000D01*
X-6223000Y-24023750D01*
X-6477000Y-24023750D01*
X-6635750Y-23865000D01*
X-7250000Y-23861928D01*
X-7374482Y-23874188D01*
X-7494180Y-23910498D01*
X-7604494Y-23969463D01*
X-7701185Y-24048815D01*
X-7780537Y-24145506D01*
X-7839502Y-24255820D01*
X-7875812Y-24375518D01*
X-7888072Y-24500000D01*
X-12725232Y-24500000D01*
X-12777688Y-24421495D01*
X-12991495Y-24207688D01*
X-13242905Y-24039701D01*
X-13522257Y-23923989D01*
X-13818816Y-23865000D01*
X-14121184Y-23865000D01*
X-14417743Y-23923989D01*
X-14697095Y-24039701D01*
X-14948505Y-24207688D01*
X-15014944Y-24274127D01*
X-15020498Y-24255820D01*
X-15079463Y-24145506D01*
X-15158815Y-24048815D01*
X-15255506Y-23969463D01*
X-15365820Y-23910498D01*
X-15485518Y-23874188D01*
X-15610000Y-23861928D01*
X-16224250Y-23865000D01*
X-16383000Y-24023750D01*
X-16637000Y-24023750D01*
X-16795750Y-23865000D01*
X-17410000Y-23861928D01*
X-17534482Y-23874188D01*
X-17654180Y-23910498D01*
X-17764494Y-23969463D01*
X-17861185Y-24048815D01*
X-17940537Y-24145506D01*
X-17999502Y-24255820D01*
X-18035812Y-24375518D01*
X-18048072Y-24500000D01*
X-24340000Y-24500000D01*
X-24340000Y-16930000D01*
X-20538072Y-16930000D01*
X-20538072Y-18630000D01*
X-20525812Y-18754482D01*
X-20489502Y-18874180D01*
X-20430537Y-18984494D01*
X-20351185Y-19081185D01*
X-20254494Y-19160537D01*
X-20144180Y-19219502D01*
X-20024482Y-19255812D01*
X-19900000Y-19268072D01*
X-18200000Y-19268072D01*
X-18075518Y-19255812D01*
X-17955820Y-19219502D01*
X-17845506Y-19160537D01*
X-17748815Y-19081185D01*
X-17669463Y-18984494D01*
X-17610498Y-18874180D01*
X-17589607Y-18805313D01*
X-17565134Y-18835134D01*
X-17339014Y-19020706D01*
X-17081034Y-19158599D01*
X-16801111Y-19243513D01*
X-16582950Y-19265000D01*
X-16437050Y-19265000D01*
X-16218889Y-19243513D01*
X-15938966Y-19158599D01*
X-15680986Y-19020706D01*
X-15454866Y-18835134D01*
X-15269294Y-18609014D01*
X-15240000Y-18554209D01*
X-15210706Y-18609014D01*
X-15025134Y-18835134D01*
X-14799014Y-19020706D01*
X-14541034Y-19158599D01*
X-14261111Y-19243513D01*
X-14042950Y-19265000D01*
X-13897050Y-19265000D01*
X-13678889Y-19243513D01*
X-13398966Y-19158599D01*
X-13140986Y-19020706D01*
X-12914866Y-18835134D01*
X-12729294Y-18609014D01*
X-12700000Y-18554209D01*
X-12670706Y-18609014D01*
X-12485134Y-18835134D01*
X-12259014Y-19020706D01*
X-12001034Y-19158599D01*
X-11721111Y-19243513D01*
X-11502950Y-19265000D01*
X-11357050Y-19265000D01*
X-11138889Y-19243513D01*
X-10858966Y-19158599D01*
X-10600986Y-19020706D01*
X-10374866Y-18835134D01*
X-10189294Y-18609014D01*
X-10160000Y-18554209D01*
X-10130706Y-18609014D01*
X-9945134Y-18835134D01*
X-9719014Y-19020706D01*
X-9461034Y-19158599D01*
X-9181111Y-19243513D01*
X-8962950Y-19265000D01*
X-8817050Y-19265000D01*
X-8598889Y-19243513D01*
X-8318966Y-19158599D01*
X-8060986Y-19020706D01*
X-7834866Y-18835134D01*
X-7649294Y-18609014D01*
X-7620000Y-18554209D01*
X-7590706Y-18609014D01*
X-7405134Y-18835134D01*
X-7179014Y-19020706D01*
X-6921034Y-19158599D01*
X-6641111Y-19243513D01*
X-6422950Y-19265000D01*
X-6277050Y-19265000D01*
X-6058889Y-19243513D01*
X-5778966Y-19158599D01*
X-5520986Y-19020706D01*
X-5294866Y-18835134D01*
X-5109294Y-18609014D01*
X-5080000Y-18554209D01*
X-5050706Y-18609014D01*
X-4865134Y-18835134D01*
X-4639014Y-19020706D01*
X-4381034Y-19158599D01*
X-4101111Y-19243513D01*
X-3882950Y-19265000D01*
X-3737050Y-19265000D01*
X-3518889Y-19243513D01*
X-3238966Y-19158599D01*
X-2980986Y-19020706D01*
X-2754866Y-18835134D01*
X-2569294Y-18609014D01*
X-2540000Y-18554209D01*
X-2510706Y-18609014D01*
X-2325134Y-18835134D01*
X-2099014Y-19020706D01*
X-1841034Y-19158599D01*
X-1561111Y-19243513D01*
X-1342950Y-19265000D01*
X-1197050Y-19265000D01*
X-978889Y-19243513D01*
X-698966Y-19158599D01*
X-440986Y-19020706D01*
X-214866Y-18835134D01*
X-29294Y-18609014D01*
X0Y-18554209D01*
X29294Y-18609014D01*
X214866Y-18835134D01*
X440986Y-19020706D01*
X698966Y-19158599D01*
X978889Y-19243513D01*
X1197050Y-19265000D01*
X1342950Y-19265000D01*
X1561111Y-19243513D01*
X1841034Y-19158599D01*
X2099014Y-19020706D01*
X2325134Y-18835134D01*
X2510706Y-18609014D01*
X2540000Y-18554209D01*
X2569294Y-18609014D01*
X2754866Y-18835134D01*
X2980986Y-19020706D01*
X3238966Y-19158599D01*
X3518889Y-19243513D01*
X3737050Y-19265000D01*
X3882950Y-19265000D01*
X4101111Y-19243513D01*
X4381034Y-19158599D01*
X4639014Y-19020706D01*
X4865134Y-18835134D01*
X5050706Y-18609014D01*
X5080000Y-18554209D01*
X5109294Y-18609014D01*
X5294866Y-18835134D01*
X5520986Y-19020706D01*
X5778966Y-19158599D01*
X6058889Y-19243513D01*
X6277050Y-19265000D01*
X6422950Y-19265000D01*
X6641111Y-19243513D01*
X6921034Y-19158599D01*
X7179014Y-19020706D01*
X7405134Y-18835134D01*
X7590706Y-18609014D01*
X7620000Y-18554209D01*
X7649294Y-18609014D01*
X7834866Y-18835134D01*
X8060986Y-19020706D01*
X8318966Y-19158599D01*
X8598889Y-19243513D01*
X8817050Y-19265000D01*
X8962950Y-19265000D01*
X9181111Y-19243513D01*
X9461034Y-19158599D01*
X9719014Y-19020706D01*
X9945134Y-18835134D01*
X10130706Y-18609014D01*
X10160000Y-18554209D01*
X10189294Y-18609014D01*
X10374866Y-18835134D01*
X10600986Y-19020706D01*
X10858966Y-19158599D01*
X11138889Y-19243513D01*
X11357050Y-19265000D01*
X11502950Y-19265000D01*
X11721111Y-19243513D01*
X12001034Y-19158599D01*
X12259014Y-19020706D01*
X12485134Y-18835134D01*
X12670706Y-18609014D01*
X12700000Y-18554209D01*
X12729294Y-18609014D01*
X12914866Y-18835134D01*
X13140986Y-19020706D01*
X13398966Y-19158599D01*
X13678889Y-19243513D01*
X13897050Y-19265000D01*
X14042950Y-19265000D01*
X14261111Y-19243513D01*
X14541034Y-19158599D01*
X14799014Y-19020706D01*
X15025134Y-18835134D01*
X15210706Y-18609014D01*
X15240000Y-18554209D01*
X15269294Y-18609014D01*
X15454866Y-18835134D01*
X15680986Y-19020706D01*
X15938966Y-19158599D01*
X16218889Y-19243513D01*
X16437050Y-19265000D01*
X16582950Y-19265000D01*
X16801111Y-19243513D01*
X17081034Y-19158599D01*
X17339014Y-19020706D01*
X17565134Y-18835134D01*
X17750706Y-18609014D01*
X17780000Y-18554209D01*
X17809294Y-18609014D01*
X17994866Y-18835134D01*
X18220986Y-19020706D01*
X18478966Y-19158599D01*
X18758889Y-19243513D01*
X18977050Y-19265000D01*
X19122950Y-19265000D01*
X19341111Y-19243513D01*
X19621034Y-19158599D01*
X19879014Y-19020706D01*
X20105134Y-18835134D01*
X20290706Y-18609014D01*
X20428599Y-18351034D01*
X20513513Y-18071111D01*
X20542185Y-17780000D01*
X20513513Y-17488889D01*
X20428599Y-17208966D01*
X20290706Y-16950986D01*
X20105134Y-16724866D01*
X19879014Y-16539294D01*
X19621034Y-16401401D01*
X19341111Y-16316487D01*
X19122950Y-16295000D01*
X18977050Y-16295000D01*
X18758889Y-16316487D01*
X18478966Y-16401401D01*
X18220986Y-16539294D01*
X17994866Y-16724866D01*
X17809294Y-16950986D01*
X17780000Y-17005791D01*
X17750706Y-16950986D01*
X17565134Y-16724866D01*
X17339014Y-16539294D01*
X17081034Y-16401401D01*
X16801111Y-16316487D01*
X16582950Y-16295000D01*
X16437050Y-16295000D01*
X16218889Y-16316487D01*
X15938966Y-16401401D01*
X15680986Y-16539294D01*
X15454866Y-16724866D01*
X15269294Y-16950986D01*
X15240000Y-17005791D01*
X15210706Y-16950986D01*
X15025134Y-16724866D01*
X14799014Y-16539294D01*
X14541034Y-16401401D01*
X14261111Y-16316487D01*
X14042950Y-16295000D01*
X13897050Y-16295000D01*
X13678889Y-16316487D01*
X13398966Y-16401401D01*
X13140986Y-16539294D01*
X12914866Y-16724866D01*
X12729294Y-16950986D01*
X12700000Y-17005791D01*
X12670706Y-16950986D01*
X12485134Y-16724866D01*
X12259014Y-16539294D01*
X12001034Y-16401401D01*
X11721111Y-16316487D01*
X11502950Y-16295000D01*
X11357050Y-16295000D01*
X11138889Y-16316487D01*
X10858966Y-16401401D01*
X10600986Y-16539294D01*
X10374866Y-16724866D01*
X10189294Y-16950986D01*
X10160000Y-17005791D01*
X10130706Y-16950986D01*
X9945134Y-16724866D01*
X9719014Y-16539294D01*
X9461034Y-16401401D01*
X9181111Y-16316487D01*
X8962950Y-16295000D01*
X8817050Y-16295000D01*
X8598889Y-16316487D01*
X8318966Y-16401401D01*
X8060986Y-16539294D01*
X7834866Y-16724866D01*
X7649294Y-16950986D01*
X7620000Y-17005791D01*
X7590706Y-16950986D01*
X7405134Y-16724866D01*
X7179014Y-16539294D01*
X6921034Y-16401401D01*
X6641111Y-16316487D01*
X6422950Y-16295000D01*
X6277050Y-16295000D01*
X6058889Y-16316487D01*
X5778966Y-16401401D01*
X5520986Y-16539294D01*
X5294866Y-16724866D01*
X5109294Y-16950986D01*
X5080000Y-17005791D01*
X5050706Y-16950986D01*
X4865134Y-16724866D01*
X4639014Y-16539294D01*
X4381034Y-16401401D01*
X4101111Y-16316487D01*
X3882950Y-16295000D01*
X3737050Y-16295000D01*
X3518889Y-16316487D01*
X3238966Y-16401401D01*
X2980986Y-16539294D01*
X2754866Y-16724866D01*
X2569294Y-16950986D01*
X2540000Y-17005791D01*
X2510706Y-16950986D01*
X2325134Y-16724866D01*
X2099014Y-16539294D01*
X1841034Y-16401401D01*
X1561111Y-16316487D01*
X1342950Y-16295000D01*
X1197050Y-16295000D01*
X978889Y-16316487D01*
X698966Y-16401401D01*
X440986Y-16539294D01*
X214866Y-16724866D01*
X29294Y-16950986D01*
X0Y-17005791D01*
X-29294Y-16950986D01*
X-214866Y-16724866D01*
X-440986Y-16539294D01*
X-698966Y-16401401D01*
X-978889Y-16316487D01*
X-1197050Y-16295000D01*
X-1342950Y-16295000D01*
X-1561111Y-16316487D01*
X-1841034Y-16401401D01*
X-2099014Y-16539294D01*
X-2325134Y-16724866D01*
X-2510706Y-16950986D01*
X-2540000Y-17005791D01*
X-2569294Y-16950986D01*
X-2754866Y-16724866D01*
X-2980986Y-16539294D01*
X-3238966Y-16401401D01*
X-3518889Y-16316487D01*
X-3737050Y-16295000D01*
X-3882950Y-16295000D01*
X-4101111Y-16316487D01*
X-4381034Y-16401401D01*
X-4639014Y-16539294D01*
X-4865134Y-16724866D01*
X-5050706Y-16950986D01*
X-5080000Y-17005791D01*
X-5109294Y-16950986D01*
X-5294866Y-16724866D01*
X-5520986Y-16539294D01*
X-5778966Y-16401401D01*
X-6058889Y-16316487D01*
X-6277050Y-16295000D01*
X-6422950Y-16295000D01*
X-6641111Y-16316487D01*
X-6921034Y-16401401D01*
X-7179014Y-16539294D01*
X-7405134Y-16724866D01*
X-7590706Y-16950986D01*
X-7620000Y-17005791D01*
X-7649294Y-16950986D01*
X-7834866Y-16724866D01*
X-8060986Y-16539294D01*
X-8318966Y-16401401D01*
X-8598889Y-16316487D01*
X-8817050Y-16295000D01*
X-8962950Y-16295000D01*
X-9181111Y-16316487D01*
X-9461034Y-16401401D01*
X-9719014Y-16539294D01*
X-9945134Y-16724866D01*
X-10130706Y-16950986D01*
X-10160000Y-17005791D01*
X-10189294Y-16950986D01*
X-10374866Y-16724866D01*
X-10600986Y-16539294D01*
X-10858966Y-16401401D01*
X-11138889Y-16316487D01*
X-11357050Y-16295000D01*
X-11502950Y-16295000D01*
X-11721111Y-16316487D01*
X-12001034Y-16401401D01*
X-12259014Y-16539294D01*
X-12485134Y-16724866D01*
X-12670706Y-16950986D01*
X-12700000Y-17005791D01*
X-12729294Y-16950986D01*
X-12914866Y-16724866D01*
X-13140986Y-16539294D01*
X-13398966Y-16401401D01*
X-13678889Y-16316487D01*
X-13897050Y-16295000D01*
X-14042950Y-16295000D01*
X-14261111Y-16316487D01*
X-14541034Y-16401401D01*
X-14799014Y-16539294D01*
X-15025134Y-16724866D01*
X-15210706Y-16950986D01*
X-15240000Y-17005791D01*
X-15269294Y-16950986D01*
X-15454866Y-16724866D01*
X-15680986Y-16539294D01*
X-15938966Y-16401401D01*
X-16218889Y-16316487D01*
X-16437050Y-16295000D01*
X-16582950Y-16295000D01*
X-16801111Y-16316487D01*
X-17081034Y-16401401D01*
X-17339014Y-16539294D01*
X-17565134Y-16724866D01*
X-17589607Y-16754687D01*
X-17610498Y-16685820D01*
X-17669463Y-16575506D01*
X-17748815Y-16478815D01*
X-17845506Y-16399463D01*
X-17955820Y-16340498D01*
X-18075518Y-16304188D01*
X-18200000Y-16291928D01*
X-19900000Y-16291928D01*
X-20024482Y-16304188D01*
X-20144180Y-16340498D01*
X-20254494Y-16399463D01*
X-20351185Y-16478815D01*
X-20430537Y-16575506D01*
X-20489502Y-16685820D01*
X-20525812Y-16805518D01*
X-20538072Y-16930000D01*
X-24340000Y-16930000D01*
X-24340000Y850000D01*
X-20538072Y850000D01*
X-20538072Y-850000D01*
X-20525812Y-974482D01*
X-20489502Y-1094180D01*
X-20430537Y-1204494D01*
X-20351185Y-1301185D01*
X-20254494Y-1380537D01*
X-20144180Y-1439502D01*
X-20024482Y-1475812D01*
X-19900000Y-1488072D01*
X-18200000Y-1488072D01*
X-18075518Y-1475812D01*
X-17955820Y-1439502D01*
X-17845506Y-1380537D01*
X-17748815Y-1301185D01*
X-17669463Y-1204494D01*
X-17610498Y-1094180D01*
X-17589607Y-1025313D01*
X-17565134Y-1055134D01*
X-17339014Y-1240706D01*
X-17081034Y-1378599D01*
X-16801111Y-1463513D01*
X-16582950Y-1485000D01*
X-16437050Y-1485000D01*
X-16218889Y-1463513D01*
X-15938966Y-1378599D01*
X-15680986Y-1240706D01*
X-15454866Y-1055134D01*
X-15269294Y-829014D01*
X-15240000Y-774209D01*
X-15210706Y-829014D01*
X-15025134Y-1055134D01*
X-14799014Y-1240706D01*
X-14541034Y-1378599D01*
X-14261111Y-1463513D01*
X-14042950Y-1485000D01*
X-13897050Y-1485000D01*
X-13678889Y-1463513D01*
X-13398966Y-1378599D01*
X-13140986Y-1240706D01*
X-12914866Y-1055134D01*
X-12729294Y-829014D01*
X-12700000Y-774209D01*
X-12670706Y-829014D01*
X-12485134Y-1055134D01*
X-12259014Y-1240706D01*
X-12001034Y-1378599D01*
X-11721111Y-1463513D01*
X-11502950Y-1485000D01*
X-11357050Y-1485000D01*
X-11138889Y-1463513D01*
X-10858966Y-1378599D01*
X-10600986Y-1240706D01*
X-10374866Y-1055134D01*
X-10189294Y-829014D01*
X-10160000Y-774209D01*
X-10130706Y-829014D01*
X-9945134Y-1055134D01*
X-9719014Y-1240706D01*
X-9461034Y-1378599D01*
X-9181111Y-1463513D01*
X-8962950Y-1485000D01*
X-8817050Y-1485000D01*
X-8598889Y-1463513D01*
X-8318966Y-1378599D01*
X-8060986Y-1240706D01*
X-7834866Y-1055134D01*
X-7649294Y-829014D01*
X-7620000Y-774209D01*
X-7590706Y-829014D01*
X-7405134Y-1055134D01*
X-7179014Y-1240706D01*
X-6921034Y-1378599D01*
X-6641111Y-1463513D01*
X-6422950Y-1485000D01*
X-6277050Y-1485000D01*
X-6058889Y-1463513D01*
X-5778966Y-1378599D01*
X-5520986Y-1240706D01*
X-5294866Y-1055134D01*
X-5109294Y-829014D01*
X-5080000Y-774209D01*
X-5050706Y-829014D01*
X-4865134Y-1055134D01*
X-4639014Y-1240706D01*
X-4381034Y-1378599D01*
X-4101111Y-1463513D01*
X-3882950Y-1485000D01*
X-3737050Y-1485000D01*
X-3518889Y-1463513D01*
X-3238966Y-1378599D01*
X-2980986Y-1240706D01*
X-2754866Y-1055134D01*
X-2569294Y-829014D01*
X-2540000Y-774209D01*
X-2510706Y-829014D01*
X-2325134Y-1055134D01*
X-2099014Y-1240706D01*
X-1841034Y-1378599D01*
X-1561111Y-1463513D01*
X-1342950Y-1485000D01*
X-1197050Y-1485000D01*
X-978889Y-1463513D01*
X-698966Y-1378599D01*
X-440986Y-1240706D01*
X-214866Y-1055134D01*
X-29294Y-829014D01*
X0Y-774209D01*
X29294Y-829014D01*
X214866Y-1055134D01*
X440986Y-1240706D01*
X698966Y-1378599D01*
X978889Y-1463513D01*
X1197050Y-1485000D01*
X1342950Y-1485000D01*
X1561111Y-1463513D01*
X1841034Y-1378599D01*
X2099014Y-1240706D01*
X2325134Y-1055134D01*
X2510706Y-829014D01*
X2540000Y-774209D01*
X2569294Y-829014D01*
X2754866Y-1055134D01*
X2980986Y-1240706D01*
X3238966Y-1378599D01*
X3518889Y-1463513D01*
X3737050Y-1485000D01*
X3882950Y-1485000D01*
X4101111Y-1463513D01*
X4381034Y-1378599D01*
X4639014Y-1240706D01*
X4865134Y-1055134D01*
X5050706Y-829014D01*
X5080000Y-774209D01*
X5109294Y-829014D01*
X5294866Y-1055134D01*
X5520986Y-1240706D01*
X5778966Y-1378599D01*
X6058889Y-1463513D01*
X6277050Y-1485000D01*
X6422950Y-1485000D01*
X6641111Y-1463513D01*
X6921034Y-1378599D01*
X7179014Y-1240706D01*
X7405134Y-1055134D01*
X7590706Y-829014D01*
X7620000Y-774209D01*
X7649294Y-829014D01*
X7834866Y-1055134D01*
X8060986Y-1240706D01*
X8318966Y-1378599D01*
X8598889Y-1463513D01*
X8817050Y-1485000D01*
X8962950Y-1485000D01*
X9181111Y-1463513D01*
X9461034Y-1378599D01*
X9719014Y-1240706D01*
X9945134Y-1055134D01*
X10130706Y-829014D01*
X10160000Y-774209D01*
X10189294Y-829014D01*
X10374866Y-1055134D01*
X10600986Y-1240706D01*
X10858966Y-1378599D01*
X11138889Y-1463513D01*
X11357050Y-1485000D01*
X11502950Y-1485000D01*
X11721111Y-1463513D01*
X12001034Y-1378599D01*
X12259014Y-1240706D01*
X12485134Y-1055134D01*
X12670706Y-829014D01*
X12700000Y-774209D01*
X12729294Y-829014D01*
X12914866Y-1055134D01*
X13140986Y-1240706D01*
X13398966Y-1378599D01*
X13678889Y-1463513D01*
X13897050Y-1485000D01*
X14042950Y-1485000D01*
X14261111Y-1463513D01*
X14541034Y-1378599D01*
X14799014Y-1240706D01*
X15025134Y-1055134D01*
X15210706Y-829014D01*
X15245201Y-764477D01*
X15314822Y-881355D01*
X15509731Y-1097588D01*
X15743080Y-1271641D01*
X16005901Y-1396825D01*
X16153110Y-1441476D01*
X16383000Y-1320155D01*
X16383000Y-127000D01*
X16363000Y-127000D01*
X16363000Y127000D01*
X16383000Y127000D01*
X16383000Y1320155D01*
X16637000Y1320155D01*
X16637000Y127000D01*
X16657000Y127000D01*
X16657000Y-127000D01*
X16637000Y-127000D01*
X16637000Y-1320155D01*
X16866890Y-1441476D01*
X17014099Y-1396825D01*
X17276920Y-1271641D01*
X17510269Y-1097588D01*
X17705178Y-881355D01*
X17774799Y-764477D01*
X17809294Y-829014D01*
X17994866Y-1055134D01*
X18220986Y-1240706D01*
X18478966Y-1378599D01*
X18758889Y-1463513D01*
X18977050Y-1485000D01*
X19122950Y-1485000D01*
X19341111Y-1463513D01*
X19621034Y-1378599D01*
X19879014Y-1240706D01*
X20105134Y-1055134D01*
X20290706Y-829014D01*
X20428599Y-571034D01*
X20513513Y-291111D01*
X20542185Y0D01*
X20513513Y291111D01*
X20428599Y571034D01*
X20290706Y829014D01*
X20105134Y1055134D01*
X19879014Y1240706D01*
X19621034Y1378599D01*
X19341111Y1463513D01*
X19122950Y1485000D01*
X18977050Y1485000D01*
X18758889Y1463513D01*
X18478966Y1378599D01*
X18220986Y1240706D01*
X17994866Y1055134D01*
X17809294Y829014D01*
X17774799Y764477D01*
X17705178Y881355D01*
X17510269Y1097588D01*
X17276920Y1271641D01*
X17014099Y1396825D01*
X16866890Y1441476D01*
X16637000Y1320155D01*
X16383000Y1320155D01*
X16153110Y1441476D01*
X16005901Y1396825D01*
X15743080Y1271641D01*
X15509731Y1097588D01*
X15314822Y881355D01*
X15245201Y764477D01*
X15210706Y829014D01*
X15025134Y1055134D01*
X14799014Y1240706D01*
X14541034Y1378599D01*
X14261111Y1463513D01*
X14042950Y1485000D01*
X13897050Y1485000D01*
X13678889Y1463513D01*
X13398966Y1378599D01*
X13140986Y1240706D01*
X12914866Y1055134D01*
X12729294Y829014D01*
X12700000Y774209D01*
X12670706Y829014D01*
X12485134Y1055134D01*
X12259014Y1240706D01*
X12001034Y1378599D01*
X11721111Y1463513D01*
X11502950Y1485000D01*
X11357050Y1485000D01*
X11138889Y1463513D01*
X10858966Y1378599D01*
X10600986Y1240706D01*
X10374866Y1055134D01*
X10189294Y829014D01*
X10160000Y774209D01*
X10130706Y829014D01*
X9945134Y1055134D01*
X9719014Y1240706D01*
X9461034Y1378599D01*
X9181111Y1463513D01*
X8962950Y1485000D01*
X8817050Y1485000D01*
X8598889Y1463513D01*
X8318966Y1378599D01*
X8060986Y1240706D01*
X7834866Y1055134D01*
X7649294Y829014D01*
X7620000Y774209D01*
X7590706Y829014D01*
X7405134Y1055134D01*
X7179014Y1240706D01*
X6921034Y1378599D01*
X6641111Y1463513D01*
X6422950Y1485000D01*
X6277050Y1485000D01*
X6058889Y1463513D01*
X5778966Y1378599D01*
X5520986Y1240706D01*
X5294866Y1055134D01*
X5109294Y829014D01*
X5080000Y774209D01*
X5050706Y829014D01*
X4865134Y1055134D01*
X4639014Y1240706D01*
X4381034Y1378599D01*
X4101111Y1463513D01*
X3882950Y1485000D01*
X3737050Y1485000D01*
X3518889Y1463513D01*
X3238966Y1378599D01*
X2980986Y1240706D01*
X2754866Y1055134D01*
X2569294Y829014D01*
X2540000Y774209D01*
X2510706Y829014D01*
X2325134Y1055134D01*
X2099014Y1240706D01*
X1841034Y1378599D01*
X1561111Y1463513D01*
X1342950Y1485000D01*
X1197050Y1485000D01*
X978889Y1463513D01*
X698966Y1378599D01*
X440986Y1240706D01*
X214866Y1055134D01*
X29294Y829014D01*
X0Y774209D01*
X-29294Y829014D01*
X-214866Y1055134D01*
X-440986Y1240706D01*
X-698966Y1378599D01*
X-978889Y1463513D01*
X-1197050Y1485000D01*
X-1342950Y1485000D01*
X-1561111Y1463513D01*
X-1841034Y1378599D01*
X-2099014Y1240706D01*
X-2325134Y1055134D01*
X-2510706Y829014D01*
X-2540000Y774209D01*
X-2569294Y829014D01*
X-2754866Y1055134D01*
X-2980986Y1240706D01*
X-3238966Y1378599D01*
X-3518889Y1463513D01*
X-3737050Y1485000D01*
X-3882950Y1485000D01*
X-4101111Y1463513D01*
X-4381034Y1378599D01*
X-4639014Y1240706D01*
X-4865134Y1055134D01*
X-5050706Y829014D01*
X-5080000Y774209D01*
X-5109294Y829014D01*
X-5294866Y1055134D01*
X-5520986Y1240706D01*
X-5778966Y1378599D01*
X-6058889Y1463513D01*
X-6277050Y1485000D01*
X-6422950Y1485000D01*
X-6641111Y1463513D01*
X-6921034Y1378599D01*
X-7179014Y1240706D01*
X-7405134Y1055134D01*
X-7590706Y829014D01*
X-7620000Y774209D01*
X-7649294Y829014D01*
X-7834866Y1055134D01*
X-8060986Y1240706D01*
X-8318966Y1378599D01*
X-8598889Y1463513D01*
X-8817050Y1485000D01*
X-8962950Y1485000D01*
X-9181111Y1463513D01*
X-9461034Y1378599D01*
X-9719014Y1240706D01*
X-9945134Y1055134D01*
X-10130706Y829014D01*
X-10160000Y774209D01*
X-10189294Y829014D01*
X-10374866Y1055134D01*
X-10600986Y1240706D01*
X-10858966Y1378599D01*
X-11138889Y1463513D01*
X-11357050Y1485000D01*
X-11502950Y1485000D01*
X-11721111Y1463513D01*
X-12001034Y1378599D01*
X-12259014Y1240706D01*
X-12485134Y1055134D01*
X-12670706Y829014D01*
X-12700000Y774209D01*
X-12729294Y829014D01*
X-12914866Y1055134D01*
X-13140986Y1240706D01*
X-13398966Y1378599D01*
X-13678889Y1463513D01*
X-13897050Y1485000D01*
X-14042950Y1485000D01*
X-14261111Y1463513D01*
X-14541034Y1378599D01*
X-14799014Y1240706D01*
X-15025134Y1055134D01*
X-15210706Y829014D01*
X-15240000Y774209D01*
X-15269294Y829014D01*
X-15454866Y1055134D01*
X-15680986Y1240706D01*
X-15938966Y1378599D01*
X-16218889Y1463513D01*
X-16437050Y1485000D01*
X-16582950Y1485000D01*
X-16801111Y1463513D01*
X-17081034Y1378599D01*
X-17339014Y1240706D01*
X-17565134Y1055134D01*
X-17589607Y1025313D01*
X-17610498Y1094180D01*
X-17669463Y1204494D01*
X-17748815Y1301185D01*
X-17845506Y1380537D01*
X-17955820Y1439502D01*
X-18075518Y1475812D01*
X-18200000Y1488072D01*
X-19900000Y1488072D01*
X-20024482Y1475812D01*
X-20144180Y1439502D01*
X-20254494Y1380537D01*
X-20351185Y1301185D01*
X-20430537Y1204494D01*
X-20489502Y1094180D01*
X-20525812Y974482D01*
X-20538072Y850000D01*
X-24340000Y850000D01*
X-24340000Y7340000D01*
X-20521105Y7340000D01*
X-20525812Y7324482D01*
M02*
